<svg xmlns="http://www.w3.org/2000/svg" viewBox="-46 139.717 663.3099975585938 254.73531696060937"><rect height="100%" width="100%" x="-46" y="139.717" fill="rgba(255, 255, 255, 1)"/> <svg xmlns="http://www.w3.org/2000/svg" id="Layer_1" dataName="Layer 1" viewBox="16.360002517700195 123.22000122070312 579.9248046875 523.9200439453125" height="114.73531696060938" width="127" y="209.717" x="24" preserveAspectRatio="xMinYMin" style="overflow: visible;"><path d="M62.65,265.51,64.17,405s.61,77.91,40.79,109.55c0,0,39.79,88,186.68,132.41L308,635.71,289.31,123.22l-97.46,64.22s-15.2,5.37-24.26-8.4-20-37.1-20-37.1-16.45,26.19-6.38,49.52c0,0,1.54,9.74,1,12.93C132.67,261.48,62.65,265.51,62.65,265.51Z" style="fill: #000000;"></path><path d="M518.49,263.49,517,403s-.62,77.91-40.8,109.55c0,0-39.62,92.2-184.54,134.59L273.19,633.7l15.66-510,100.44,61.75s15.2,5.37,24.26-8.39,20-37.11,20-37.11,16.46,26.19,6.38,49.53c0,0-.27,16.29.26,19.49C449.74,266,518.49,263.49,518.49,263.49Z" style="fill: #000000;"></path><polygon class="cls-1" points="222.05 550.29 291.15 597.86 369.93 539.2 222.05 550.29" style="fill: #ffffff;"></polygon><path class="cls-1" d="M237.09,468.22l17.25,15.28,25.14-15.28,10.84,10.35,18.24-11.83L326.31,482l17.74-15.77S359.33,482,357.85,483s-31.21,28.09-31.21,28.09L310,494.34l-19.22,18.24-14.3-15.77L257.3,512.09l-17.25-15.77-9.37-8.55-5.42-10.68Z" style="fill: #ffffff;"></path><path class="cls-2" d="M494.72,281.67a83.17,83.17,0,0,1-31.27-8.21c-12-5.9-22.21-13.58-28.53-24.93-3.47-6.23-5-12.67-1.76-19.44a12.27,12.27,0,0,1,.83-1.31c1.94,4.58,3.53,9.14,5.73,13.43,9.22,18,25.59,27.36,46.07,31.45a95.41,95.41,0,0,0,13.12,1.28c2.92.17,4.4,1.23,4.38,4,0,5.19,0,10.38,0,15.58,0,32.29.49,64.6,0,96.89-.84,52.85-18.45,100.52-54.56,142-29.51,33.88-66.31,59.62-108.2,79.26-14.66,6.87-30.1,12.33-45.17,18.45a12,12,0,0,1-8.85,0c-59.88-20.93-112.86-51.12-154.06-97-26.62-29.64-43.17-63.5-49.94-101.44a261.29,261.29,0,0,1-4.11-47.1c.14-34.9,0-69.79,0-104.68,0-5.42.42-5.55,6.33-6,24.62-1.92,44.62-11,56.46-31.87,2.48-4.37,4-9.2,6.11-14.09,2.83,5.29,3.45,10.39,1.39,15.76-3.84,10-11.26,17.41-20.29,23.59a82.17,82.17,0,0,1-40.3,14.2,9.22,9.22,0,0,0-1.3.32v3q0,50.48,0,100.94A228.45,228.45,0,0,0,102,468.55c11.86,30.67,31.88,56.61,56.86,79.5,36.75,33.66,80.48,57.11,128.7,74a11.17,11.17,0,0,0,6.45-.11c25.19-7.89,48.54-19.25,71-32.19,29.56-17,55.65-37.78,77.45-62.85,26.77-30.78,43-65.76,49.22-104.74a257.24,257.24,0,0,0,3.1-41.26q-.11-47.82-.06-95.65Z" style="fill: #c9f0b4; fill-opacity: 1;"></path><path class="cls-1" d="M429,201.58c-4.34,11.62-11.67,20-21.71,25.43-10.7,5.82-21.84,10.85-33,15.75-14.59,6.42-29.43,12.27-42.41,21.8-12.37,9.08-22.07,20.34-28.25,34.49-.27.62-.56,1.24-.8,1.87a6,6,0,0,0,.07,1.25,35,35,0,0,0,2.52-2.8c16.19-22.75,37.78-38.23,63.7-48.2,13.46-5.17,26.6-11.14,40.17-16.39-4.29,2.7-8.46,5.62-12.89,8.06-8.41,4.64-16.84,9.25-25.48,13.44-24.66,12-44.66,29.37-61,51.24-6.61,8.88-13.25,17.74-20,26.82-3.65-5.17-7.24-10.36-10.93-15.48-11.75-16.27-24.11-32-40.1-44.44-13-10.13-27.8-17.28-42.32-24.87-8-4.18-15.73-8.81-23.58-13.24l.31-.78a2.79,2.79,0,0,1,1,0q26.37,11.53,52.71,23.12c19,8.33,33.43,22.11,46,38.16q1.77,2.26,3.57,4.53c.13.16.36.25,1.32-.05-3.11-5.4-6-11-9.38-16.16-10.18-15.47-24.87-25.41-41.42-32.86-13.6-6.11-27.39-11.78-40.93-18-10.84-5-21.08-11.07-28.1-21.2-2-2.89-3.56-6.09-5.33-9.14l.82-.54c1.91,1.7,3.77,3.45,5.74,5.08,13.39,11,29.15,17.49,45.14,23.56,10.23,3.88,20.48,7.79,30.47,12.25,20.91,9.35,36.53,24.73,48.58,44,2,3.14,4,6.21,6.36,9.8,2.89-4.16,5.53-7.77,8-11.5,14.47-22.12,34.16-37.7,58.7-47.34,13.45-5.29,26.93-10.54,40.22-16.19a96.56,96.56,0,0,0,30.46-20C427.58,202.65,428,202.36,429,201.58Z" style="fill: #ffffff;"></path><path class="cls-1" d="M289.68,287.49c-11.55-18.57-25.31-34.67-45-44.44-10.89-5.41-22.22-10-33.59-14.36-14.71-5.6-29.36-11.2-42.27-20.44-8.8-6.29-15.67-14-17.92-25a47.69,47.69,0,0,1,.54-21.35c4.23,23,18.1,37,37.25,47,13.74,7.12,28.59,11.14,43,16.48,7.16,2.66,13.5,3.73,21.13.8,9.35-3.59,10-3.13,17.59,3.73,6.43,5.8,12,12.54,18,18.89.83.89,1.51,1.94,2.32,3,3.22-3.89,6.05-7.89,9.48-11.28C305.6,235.06,311.4,230,317.2,225a5.18,5.18,0,0,1,4-.93,96.34,96.34,0,0,1,13.31,3.9,9.48,9.48,0,0,0,7.6-.17c12.89-4.86,26.11-8.92,38.74-14.35A151.68,151.68,0,0,0,406.42,199c11.31-7.76,18.2-19,21.8-32.22a16.67,16.67,0,0,1,1.51-3.95c2.19,13.91.89,27-9.26,37.82-7.15,7.61-16,13-25.48,17.09-11.6,5-23.31,9.86-35.21,14.11C331,242.16,308,259.7,291.44,285.51c-.31.47-.65.93-1,1.37A4.89,4.89,0,0,1,289.68,287.49Z" style="fill: #ffffff;"></path><path class="cls-1" d="M312,335.4c3.21-3.42,6.35-6.76,9.85-10.47,5.73,12.22,14.14,20.87,27.85,22.41a31,31,0,0,0,25-8.23c9.44-8.58,13.29-19.4,11.78-32.07-1.53-12.86-9.47-21-20.86-27.11,7.42-2.78,14-5.36,20.75-7.65.79-.27,2.41.82,3.15,1.7,6.11,7.28,9.46,15.87,11.35,25,4.31,20.93,1,40.12-15,55.25s-35.24,18.53-56.41,12.57c-5.58-1.57-8.87-3.49-9-10.07C320.19,349,316.58,342,312,335.4Z" style="fill: #ffffff;"></path><path class="cls-1" d="M215,279.78c-17,9.25-23.86,22.85-19.87,41.06,3,13.92,15.06,24.73,28.2,26.51,14.41,2,24.86-4.55,35.25-22.26l9.74,10.66c-5.78,7.94-7.75,17-8.42,26.49a3,3,0,0,1-1.57,2.18c-16.56,6.18-33.22,8.15-49.59-.33-18.62-9.65-28.35-25.6-30.14-46.1-1.39-15.89,2.77-30.68,12-43.89,1.5-2.14,2.67-2.91,5.44-1.67C202,275.1,208.16,277.19,215,279.78Z" style="fill: #ffffff;"></path><path class="cls-1" d="M159.42,404.75c-8.39,14.1-16.79,28.2-25.65,43.1-2.74-24.11,9.91-55.62,32.29-66.94-1.55,6-3.09,11.88-4.82,18.5a19.3,19.3,0,0,0,14.3-8c1.67,4.92,3.28,9.68,4.88,14.44h1.33l6.76-9.46c2.71,4.18,5.38,8.3,8.58,13.22l4.58-7,19.67,6.59-27.1,36.35c-1.35-11.18-2.19-22.11,1.18-33-7,11.1-14,22.21-21.51,34.1-3.44-13.16-2.94-24.85,2.4-36.23l-.83-.36c-7.06,11.53-14.11,23.07-21.69,35.46-2.91-14.93.22-27.76,6.66-40.05Z" style="fill: #ffffff;"></path><path class="cls-1" d="M414.68,380.81c24.68,14.43,34.13,43.94,31.75,66l-24.35-41.38-1,.52c6.2,12.23,8.76,25,6.11,39.58L405.6,409.65l-.94.3c5.17,11.58,5.62,23.4,2.12,36.59L386,412.92c2.54,10.76,1.8,21.48.48,32.93L359.54,409l19-6.52,2.5,3.92c1.39,2.19,2.82,2,4.13,0,2.16-3.3,4.24-6.64,6.55-10.28,2.41,3.32,4.74,6.53,7.31,10.05,4-4.4,3.75-9.72,5.33-14.9,4,3.82,7.95,7.58,14.7,7.86C417.5,392.73,416.12,386.89,414.68,380.81Z" style="fill: #ffffff;"></path><path class="cls-1" d="M165.77,474.67q-1.83,17.91-3.65,35.81l-1,.08c-7.43-11.2-9.16-24-9.6-37.19l-1,0c-.67,3.38-1.46,6.75-2,10.15-.58,3.68-1,7.38-1.37,11.09s-.57,7.21-.85,10.82l-1,.29c-1.42-4.95-3.51-9.83-4.09-14.87-1-8.85-1.11-17.8-1.51-26.71a3.57,3.57,0,0,1,.78-2.46c2.28-2.31,4.72-4.47,6.93-6.52,1.37,4.07,2.83,8.44,4.3,12.81l1.31.11,9.4-12.18,6.36,13.41h1.41l9.34-13.16,7,12.3,8.17-9.47,1,.12a147.23,147.23,0,0,0,.82,51.45c-9-9.75-13.4-21.63-16.25-34.34-.47,11.47.82,22.95-2.52,34.71C170,499.68,168,487.24,166.92,474.5Z" style="fill: #ffffff;"></path><path class="cls-1" d="M416.36,450.51l9.52,12.72c3.93-4,4.18-8.81,5.18-14,4.19,4.11,8.77,6.71,8.39,13.74-.62,11.21-.85,22.36-5.05,33-.45,1.12-.95,2.22-1.8,4.18-1.28-11.16-1.25-21.61-4.43-31.63-1,13-3,25.61-11.26,36.66q-1.83-17.7-3.65-35.4l-1.07-.09c-1.21,12.64-3.67,24.89-10.85,36.06-3.29-11.53-3-23-2.67-34.7-3,12.82-8,24.55-16.64,34.57,2.67-17.07,4.34-34.1,1.06-51.29l1-.36,7.9,9.45L399.65,451,409,464.38C413.36,460.55,414.66,455.62,416.36,450.51Z" style="fill: #ffffff;"></path><path class="cls-2" d="M384.91,200.33a8.06,8.06,0,0,0-1.92,1.15c-3.9,4.43-7.49,2.64-11.72.11-26.18-15.67-52.52-31.07-78.74-46.67-1.93-1.15-3.12-.85-4.82.16q-39.13,23.41-78.33,46.7c-6.59,3.91-6.64,3.83-13.32-1.5,6.36-3.85,12.6-7.64,18.86-11.41,22.66-13.63,45.44-27.09,67.93-41,5.49-3.39,9.59-3.16,15,.15,26.91,16.41,54.07,32.42,81.14,48.58C380.93,197.76,382.81,199,384.91,200.33Z" style="fill: #c9f0b4; fill-opacity: 1;"></path><path class="cls-1" d="M175.26,259.4c1.58.89,3,1.63,4.3,2.43.67.4,1.28.89,2.2,1.55-.82,1.39-1.57,2.72-2.38,4-14.8,23.51-18,48.5-8.37,74.58,8.29,22.34,32.06,44.71,65.86,42,6.32-.51,12.51-2.72,18.75-4.21,1.6-.38,3.15-1,5.5-1.77-.76,3.87-1.32,7-2.07,10.17a2.46,2.46,0,0,1-1.61,1.35c-25.38,6.57-49.35,4.78-70.62-12.23-18.16-14.52-27.83-33.62-29.36-56.66-1.39-20.77,3.13-40.21,15-57.61C173.31,261.79,174.25,260.69,175.26,259.4Z" style="fill: #ffffff;"></path><path class="cls-1" d="M399.18,263.52c6.85-4.5,6.93-4.55,11.24,2.08,11.54,17.76,14.8,37.44,12.79,58.13-1.71,17.53-8.28,33.19-20.86,45.68C382.68,389,359,396.52,331.58,391.27c-.33-.07-.65-.2-1-.26-8.14-1.63-9.72-3.64-9.55-12.66a31.63,31.63,0,0,1,3.74,1.09c35.86,15.13,81.61-7.57,89.27-51.07,3.89-22.12-.21-42.72-12.86-61.45-.51-.75-1-1.53-1.44-2.3C399.59,264.33,399.45,264,399.18,263.52Z" style="fill: #ffffff;"></path><path class="cls-1" d="M276,342.59l14,12.5,14.08-12.42c7.16,14-2.45,39.78-14.07,55.19C277.39,378.28,270.41,357.17,276,342.59Z" style="fill: #ffffff;"></path><path class="cls-1" d="M394.61,532.88l4.95,10.27,8.9-9.35c.61,1.47.83,3.54,1.94,4.29s3.12.16,5.17.16c-8.22,12.11-19.22,20.62-31.56,27.61l-.78-.54L393.55,548c-7.43,6.87-15.31,13-24.47,17.27-.76.36-1.54.68-2.34,1l14.94-27.57c.64,1,1.17,1.83,2.11,3.29Z" style="fill: #ffffff;"></path><path class="cls-1" d="M164.9,537.58c4.6,2.22,7.18.93,7.32-4.42l9.18,10.11c1.78-3.79,3.3-7,4.95-10.52l10.68,9.3,2-3.12,15,27.12c-10.41-3.72-18.5-10.68-26.74-17.69l10.38,17.07C189.73,563.89,168.84,546.13,164.9,537.58Z" style="fill: #ffffff;"></path><path class="cls-1" d="M334.54,317.67c10.25,14.26,19.86,17.32,29.7,9.46,10.84-8.67,10.13-20.62-2.08-34.89,6.63-1.49,7.55-1.29,11.33,4.36,5.68,8.5,6,17.54,1.9,26.76s-11.21,13.92-21,14.9c-8.64.85-18.95-5.1-22.13-13.31-.78-2,.69-4.9,1.13-7.39Z" style="fill: #ffffff;"></path><path class="cls-1" d="M216.81,292.29c-2.5,4.79-5.77,9.27-7.25,14.29-2.74,9.28,2.77,19.45,11.53,23.15,8,3.37,17,.15,22.66-8.06.63-.92,1.24-1.85,1.87-2.8,3.83,3.48,4,4.21,1.38,8.2-4.9,7.48-11.78,11.61-20.79,11.07C216.13,337.53,209,332.09,205,323c-4.19-9.54-3-18.79,2.95-27.33C211,291.36,212.12,291.06,216.81,292.29Z" style="fill: #ffffff;"></path><path class="cls-1" d="M290.49,237.28c-6.31-7.22-9.26-6.67-16.76-15.25,9.59-4.17,24.75-3.7,33.35,0C299.81,230.05,298,229,290.49,237.28Z" style="fill: #ffffff;"></path><path class="cls-1" d="M343.9,301.66a7.2,7.2,0,0,1,6.94-7.27,7.3,7.3,0,0,1,7.22,7.36,7.45,7.45,0,0,1-7.38,7.29A7.1,7.1,0,0,1,343.9,301.66Z" style="fill: #ffffff;"></path><path class="cls-1" d="M236.35,301.35c0,4.37-3.18,7.76-7.28,7.69a7.14,7.14,0,0,1-6.66-7.14,7,7,0,1,1,13.94-.55Z" style="fill: #ffffff;"></path><path class="cls-3" d="M491.2,620.7a68.5,68.5,0,0,1-15.45-1.77c-27.65-6.43-47.56-22.91-59.17-49a29.84,29.84,0,0,1-2.21-8.82,13.84,13.84,0,0,1-9.67,3.54,20,20,0,0,1-2.63-.18l-5.76-.76.89-5.74c.29-1.85.64-3.69,1-5.47A60.71,60.71,0,0,0,399.62,542c.13-11.91-.28-24.1-.67-35.88l-.1-2.95a19.77,19.77,0,0,0-.73-3.77c-.29-1.15-.59-2.35-.81-3.65a11,11,0,0,1,2.39-8.92,10.6,10.6,0,0,1,8.1-3.72,11.66,11.66,0,0,1,5.12,1.21,22.54,22.54,0,0,1,2.21,1.25c6.2-20.73,20.59-36.53,42.87-47a71.59,71.59,0,0,1,30.82-7,74.5,74.5,0,0,1,25.78,4.7,73.32,73.32,0,0,1,40.2,34.5c5.74,10.69,8.57,22.6,8.11,33.28a32.46,32.46,0,0,1,4-.26c8.5,0,15.11,3.8,19.64,11.29,6,10,5.39,21.89-1.64,30.35A24.9,24.9,0,0,1,565.53,554a29.52,29.52,0,0,1-3.75-.25c-.1.53-.19,1-.29,1.56a162,162,0,0,1-3.7,16.63C549.28,600.63,521.9,620.7,491.2,620.7Zm10.34-70.53c7.26,5.91,9.74,14.46,7.39,25.42A21,21,0,0,1,503.39,586c6.83-2.19,12.85-7,18.5-14.8,4.54-6.23,6.15-14.59,4-20.8-1.84-5.32-6.24-9-13.09-11-.87-.25-1.77-.46-2.68-.64a9.93,9.93,0,0,1-2.39,7.54A10.89,10.89,0,0,1,501.54,550.17Zm-57.91-17.48a5.32,5.32,0,0,0-2.65,1.38c-5.17,5.79-4.44,12.6-2.92,17.29,3.53,10.93,12.89,17.71,22.17,23.72.46.29.91.57,1.37.84a21.15,21.15,0,0,1-3.54-8.52c-1.3-7.2,3.32-14.35,11.51-17.8a11.4,11.4,0,0,0,3.14-1.68,12.61,12.61,0,0,0-.59-3.88c-.71-2.94-2.37-6.66-6.19-7.71A129.34,129.34,0,0,0,443.63,532.69Zm93.16-5.16a30.41,30.41,0,0,1,4.48,5.19c0-2-.07-4-.09-5.93,0-1.33,0-2.68-.06-4A25.57,25.57,0,0,1,536.79,527.53Zm25.52,1.11a4.66,4.66,0,0,0,2.22,2.33,5.79,5.79,0,0,0,1.91-2.35,1.22,1.22,0,0,0-.34-.75,2,2,0,0,0-1.39-.64h-.25C562.5,527.23,562.35,528,562.31,528.64Zm-58.84-25a16.93,16.93,0,0,1,2.26,1.59c3.9,3.25,4.8,6.75,4.86,9.17.89-.09,1.8-.19,2.73-.31a16.85,16.85,0,0,0,11.53-6.54,15.71,15.71,0,0,0,3-12c-1.71-11.05-10.44-22.7-22.41-27.7a25.67,25.67,0,0,1,5.9,14.2A24.56,24.56,0,0,1,503.47,503.62Zm-35.23-3.75a10.73,10.73,0,0,1,3.39,7.16c0,.32,0,.64,0,1a6,6,0,0,0,1.32-1.3A5.9,5.9,0,0,0,474,503,26.4,26.4,0,0,1,468.24,499.87Zm-6.9-2.78a10.17,10.17,0,0,1,5,1.24c-4.86-4.31-7.44-10.16-6.32-15.79a17.2,17.2,0,0,1,4.67-8.47,57.45,57.45,0,0,0-18.38,13c.46-.05.94-.08,1.42-.09h.16c4.42,0,8.1,3,10.78,5.15l.43.35A5.92,5.92,0,0,1,461.34,497.09Z" style="fill: #c9f0b4; fill-opacity: 1;"></path><path d="M488.82,437.11a69,69,0,0,1,23.83,4.35c35.92,13.21,48.63,48.49,43.57,69.75a37.17,37.17,0,0,1,10.65-1.87c5.79,0,11,2.2,14.79,8.55,4.94,8.17,4.18,17.36-1.15,23.78a19.18,19.18,0,0,1-15,6.6,24.67,24.67,0,0,1-8.19-1.43c-1.62,7.78-2.72,15.78-5,23.43-8,26.94-33.78,44.75-61.15,44.75A62.31,62.31,0,0,1,477,613.4c-26.15-6.08-44.49-21.57-55.26-45.75-2.45-5.5-1.83-12.37-2.6-18.62-.12-1-.13-2-.26-4-5.27,4.64-5.4,14-14.21,14a14.19,14.19,0,0,1-1.89-.13c.87-5.61,2.42-11.23,2.48-16.86.15-13-.34-26-.77-39.08-.09-2.73-1.16-5.42-1.61-8.15a5,5,0,0,1,4.89-6,5.9,5.9,0,0,1,2.62.64c2.9,1.42,5.32,3.82,8.2,6C423,470.6,438.34,454,460.42,443.6a66.13,66.13,0,0,1,28.4-6.49m4.52,66.68L491.7,499l-1.85,1.59L487,513.83c3.81-2,6.78-6.18,10.59-6.18a7,7,0,0,1,4.51,1.93c3.84,3.19,3.83,7.11-.54,10.91h.27A97.51,97.51,0,0,0,514,519.7c12.52-1.54,21.36-12.68,19.46-25-2.75-17.75-19.94-35-40.4-35a35.78,35.78,0,0,0-4,.22,36.78,36.78,0,0,0-5.21,1.31c10.75,4.21,20.44,8.69,21.83,21.49,1.06,9.69-3.51,16.44-12.38,21.12m-47,14a12.73,12.73,0,0,0,3.71-.59c-2.76-1.43-4.84-2.21-6.58-3.46-4.34-3.12-5.54-7.67-4.52-12.64.95-4.67,4-8.33,8.82-8.42h.07c2.58,0,5.38,2.42,7.65,4.25.58.46-.51,3-.63,3.57-2.08,0-3.92-.42-5.26-.42a2.58,2.58,0,0,0-1.74.46c-1,.9-1.31,4.46-.39,5.46,1.35,1.48,4,1.83,6.2,2.4h.08c.47,0,1.2-.94,2.07-1.62l-2.8-2a52.47,52.47,0,0,1,6.49-1.86,10.47,10.47,0,0,1,1.54-.12,4.26,4.26,0,0,1,2.74.73c3.53,3.26,2.83,6-3,12.23.73,0,1.45.06,2.14.06,14.1,0,18.65-8.66,16-17.14-8.57-2.05-14.66-8.85-13.43-15,1.05-5.27,7-9.89,12.51-9.89a9.17,9.17,0,0,1,2.39.31c2.66.71,6.07,2.36,7.12,4.55,1.94,4.07,2.4,8.85,3.52,13.52,4.74-.63,7.43-12.86,3.63-17.64a24.25,24.25,0,0,0-18.67-9.11,21.55,21.55,0,0,0-5.38.67c-13.72,3.46-24.4,11.73-33.22,22.32-6.47,7.77-5.85,17.73.72,25.13,2.15,2.44,4.65,4.24,8.18,4.24m33.87-24.86c1.78-2.75,3.09-3.91,3.26-5.22.45-3.5-1.47-5.84-4.93-6h0c-1.3,0-3.85,2.38-3.73,2.6a92.66,92.66,0,0,0,5.44,8.6m61.83,57c4.36-3.12,5.43-6.33,5.15-10.63-.5-7.65-.24-15.34-.62-23-.16-3.23-1.12-6.41-1.72-9.62h-1.65c-4.26,8-6.61,17.76-17.84,20.28,10.22,4.24,14.46,12.57,16.68,23m-59.8-29-9.8,3.42,9.51,7.31c.11-4,.19-7.06.29-10.73m82.52,15.88c2.91,0,7.12-4.41,7.32-7.74a7.32,7.32,0,0,0-7.17-7.47h-.48c-4.49,0-7.58,2.67-7.82,6.85-.22,3.67,4,8.1,8,8.36h.19M476.33,586a30.62,30.62,0,0,0,3.91-.24,16,16,0,0,0,13.59-12.88c.86-4.28-2.68-10.78-7-13.14.54,3.34,1.94,6.71,1.37,9.71-1,5.39-6.16,8.93-11.29,8.93-.3,0-.61,0-.91,0-6.18-.51-11.15-5.3-12.35-11.91-.82-4.51,2.46-9.18,8.12-11.56,6.65-2.8,7.6-5,5.87-12.14-1.41-5.77-4.79-10.34-10.2-11.83A134.82,134.82,0,0,0,444.1,527l-.45,0a10.54,10.54,0,0,0-6.9,3.28c-5.91,6.61-6.67,14.86-4.09,22.82,4,12.43,14,19.95,24.49,26.73,5.91,3.82,12.26,6.11,19.18,6.11m22.26-41.14a11,11,0,0,1-7.47-3.2c-1.17-1.14-2.42-2.19-4.38-4l2.12,14.58,1.45-.85c2.45.93,5.3,1.35,7.28,2.89,6.68,5.19,7.43,12.51,5.79,20.13s-7.8,11.29-14.46,14.07c-2.12.88-4.4,1.4-6.6,2.08.07.51.13,1,.2,1.52,3.94.35,7.88,1,11.81,1h.55c13.93-.24,23.77-7.77,31.6-18.52,9-12.38,10.13-34.22-12.12-40.55-4.84-1.37-10-1.69-15-2.49,4.92,4.71,6.36,8.3,3.95,11.28a5.91,5.91,0,0,1-4.74,2M477,571.67c1.5,0,4.3-2.9,4.34-4.51.05-2.09-2.13-4.23-4.26-7.93-2.83,3-5.14,4.41-5.53,6.19-.82,3.83,2.21,6.07,5.39,6.25H477m11.82-145.9a77.21,77.21,0,0,0-33.24,7.57c-12.89,6.08-23.45,14-31.39,23.49a75.07,75.07,0,0,0-12.42,21,16.58,16.58,0,0,0-4-.47,16.26,16.26,0,0,0-12.43,5.72,16.62,16.62,0,0,0-3.65,13.51c.25,1.54.6,2.91.9,4.12a21.1,21.1,0,0,1,.56,2.57l.1,3c.39,11.72.8,23.83.66,35.62a56.52,56.52,0,0,1-1.33,9.57c-.35,1.83-.71,3.71-1,5.67l-1.78,11.48,11.52,1.52a26.1,26.1,0,0,0,3.37.22,21.25,21.25,0,0,0,5.68-.73,27.75,27.75,0,0,0,1,2.65C423.77,600,445,617.6,474.46,624.45a73.55,73.55,0,0,0,16.74,1.92c33.19,0,62.82-21.74,72-52.87a142.07,142.07,0,0,0,3.22-13.89,30.43,30.43,0,0,0,22.78-10.69c8.6-10.34,9.44-24.83,2.14-36.9-5.26-8.7-13.14-13.51-22.86-14a73.8,73.8,0,0,0-8.7-30.07c-6.47-12.08-19.23-28.32-43.25-37.15a80.19,80.19,0,0,0-27.74-5ZM511.59,503a29.62,29.62,0,0,0,5.62-18.45,28.55,28.55,0,0,1,5,11.89,10.07,10.07,0,0,1-1.93,7.69,11.1,11.1,0,0,1-5.48,3.85,18.76,18.76,0,0,0-3.26-5ZM452.35,562.3c-4.34-3.82-7.31-7.78-8.9-12.68-2-6.16,0-9.57,1.22-11.14a118.79,118.79,0,0,1,19.75,3.32c1.06.29,1.72,2,2,3-7.94,3.65-13.09,10.22-14.1,17.52Zm58.24-10.67a16.4,16.4,0,0,0,1.56-1.67,17.23,17.23,0,0,0,2.35-3.83c4.66,2.17,5.66,5.09,6,6.16,1.54,4.47.22,10.89-3.23,15.61-.64.88-1.27,1.71-1.92,2.5.53-8.16-1.67-14.27-4.79-18.77Z" style="fill: #000000;"></path><path class="cls-3" d="M395.07,564.41a6.7,6.7,0,0,1-6.05-3.85c-.38-.83-.73-1.57-1.06-2.25a41.92,41.92,0,0,1-2.43-5.74c-.35-1.13-1.42-4.56-2-5.14-.31-.18-1.51-.45-5.31-.58-1.93-.07-5.59-.1-10.57-.1-18.11,0-49.39.42-69.74,1l-8.65.22,3.16-7.82-.29-.64-8.88-.07-.15.41,4.34,8.11-9.19.24-24.73.68c-29.8.83-55.55,1.55-71.41,1.55-4,0-7.2,0-9.7-.14-29.1-1.1-63.66-2.45-99.26-4.14-.48,0-.94,0-1.4,0-3.79,0-4.44.78-5.21,2.82a12.33,12.33,0,0,1-2.42,3.76c-.28.33-.58.68-.9,1.1l-3.65,4.82L25.1,529l34.2-29,3.59,5c2,2.83,4.57,3.83,9.66,3.83,1.4,0,2.86-.07,4.4-.15s3.28-.17,5-.17l1.4,0c8.2.26,19.43.39,34.35.39,30.05,0,70.77-.53,110.15-1,40-.52,81.27-1,112.21-1,16.27,0,28.45.15,37.24.44l1.17,0c6.42,0,9.4-1.76,11.39-6.72,2.35-5.83,6.64-6.46,8.37-6.46a10.18,10.18,0,0,1,6.73,2.83c2.66,2.32,5.54,5.2,6.72,9,5,16,4.05,31.16-2.79,44.94a38.38,38.38,0,0,1-6.18,8.33c-.8.89-1.64,1.84-2.51,2.87A6.63,6.63,0,0,1,395.07,564.41Z" style="fill: #c9f0b4; fill-opacity: 1;"></path><path d="M398.19,499.74a4.84,4.84,0,0,1,3,1.43c2,1.77,4.27,4,5,6.42,4.3,13.82,4.06,27.6-2.45,40.73-1.67,3.37-4.61,6.11-7.95,10.06a1,1,0,0,1-.75.35,1,1,0,0,1-.9-.57,66.12,66.12,0,0,1-3.23-7.28c-2.63-8.46-3.66-9.4-12.56-9.7-2.09-.07-5.87-.11-10.78-.11-17.34,0-48.78.41-69.87,1a5.31,5.31,0,0,0-.16-4.28c11.94-.12,27.6-.19,42.17-.19,16.7,0,32,.1,38.58.35h.39c2.51,0,5.11-.88,8.66-1.49-2.08-1.93-84.73-2.89-166.3-2.89-78.64,0-156.29.89-159.85,2.64,2,.45,4.08,1.24,6.13,1.3,20,.59,40,.86,60,1.6,7.05.26,16.55.36,27.78.36,32.33,0,79-.86,122.51-1.38a5.39,5.39,0,0,0,.4,4.43c-38.66,1-75.85,2.23-96,2.23-3.8,0-7-.05-9.47-.14-33.08-1.25-66.15-2.57-99.21-4.14-.57,0-1.13,0-1.67,0-4.89,0-8.55,1.26-10.52,6.49-.4,1.08-1.4,1.94-2.54,3.44L33.84,529l24.45-20.71c3.78,5.23,8.88,6.18,14.26,6.18,3.09,0,6.28-.31,9.36-.31.41,0,.82,0,1.22,0,8.73.27,20.57.38,34.53.38,60.44,0,160.84-2.07,222.37-2.07,15.06,0,27.79.12,37,.43.46,0,.91,0,1.36,0,8.09,0,13.57-2.6,16.66-10.27.83-2.06,1.91-2.91,3.1-2.91m0-11.35h0c-6,0-11.11,3.75-13.63,10-.87,2.18-1.27,3.17-6.13,3.17l-1,0c-8.85-.3-21.09-.44-37.42-.44-31,0-72.31.53-112.28,1-39.37.51-80.08,1-110.09,1-14.86,0-26-.12-34.17-.38l-1.58,0c-1.83,0-3.56.09-5.24.17-1.47.08-2.86.15-4.12.15-4,0-4.46-.66-5.06-1.48l-7.18-9.94L51,499.62,32.38,515.36l-5.87,5-10.15,8.6,10.09,8.67,8,6.85,16.85,14.49,9.16,7.87,7.29-9.63c.2-.26.43-.53.7-.85a18.84,18.84,0,0,0,3.06-4.58h.25l1.13,0c35.63,1.69,70.2,3,99.32,4.14,2.57.1,5.81.14,9.9.14,16,0,41.75-.71,71.62-1.55l24.68-.67,2.39-.07,0,.06,17.3-.45c20.3-.52,51.51-1,69.57-1,6.23,0,9.09.05,10.39.1.63,0,1.15,0,1.59.07.15.45.33,1,.53,1.67a46.58,46.58,0,0,0,2.74,6.51c.31.66.66,1.38,1,2.18a12.34,12.34,0,0,0,20.62,2.75c.8-1,1.62-1.87,2.41-2.76a43.18,43.18,0,0,0,7-9.58c7.51-15.13,8.56-31.67,3.13-49.14-1.61-5.18-5.34-8.92-8.4-11.6a15.78,15.78,0,0,0-10.47-4.23Z" style="fill: #000000;"></path><path class="cls-3" d="M80.13,612.94c-6.73,0-10.64-3.83-11-10.78l0-1c-.36-6.83-.53-10.26,2.11-13.14,2.45-2.67,5.64-2.78,9.33-2.9,1.19,0,2.53-.09,4.11-.2.47,0,.94-.06,1.41-.07L86,580c-2.27,0-4.45,0-6.6.21-.43,0-.83,0-1.22,0a9.09,9.09,0,0,1-6.87-2.68A9.75,9.75,0,0,1,68.93,570c0-.25,0-.64,0-1.06s0-.79-.05-1.19l-.38-25.15,91.4-1.37.56,37.84-5.67.08c-1.47,0-2.91.06-4.33.09-2.38.05-4.83.11-7.24.11h-1.12c-.07,1.62-.11,3.14-.08,4.19,1.34.11,3.34.11,4.46.11H148c1,0,2,0,3.32,0l8.17-.13.08,5.68c0,1.28.06,2.52.1,3.74a74.93,74.93,0,0,1-.1,9.83c-.37,4.06-4.7,8.28-8.73,8.53-7.4.45-14.87.58-22.1.69L126,612c-5,0-10.54-3-10.84-11.26-.08-2.22-.21-4.51-.33-6.72-.27-4.84-.55-9.84-.4-14.87,0-.16,0-.3,0-.44l-.1,0c-.39.07-.77.12-1.15.17l0,2c.09,5.32.18,10.81.22,16.19.09,10.93-4.14,15.29-15.11,15.54-2.67.06-5.34.09-8,.12-3.11,0-6.33.07-9.47.16Z" style="fill: #c9f0b4; fill-opacity: 1;"></path><path d="M154.28,547c.13,9,.26,17.4.39,26.49-3.95.06-7.74.2-11.49.2-1,0-1.94,0-2.91,0H140c-2.47,0-3.4.82-3.51,3.58-.5,11.57-.61,12.09,10,12.09H148c1.57,0,3.14-.05,5.88-.09.07,4.62.41,8.83,0,13-.12,1.27-2.18,3.31-3.44,3.39-8.12.49-16.27.58-24.41.72H126c-3.72,0-5-2.34-5.17-5.78-.26-7.08-.94-14.16-.73-21.22.14-4.43-1.2-6.39-4.58-6.39a12.45,12.45,0,0,0-2.15.21c-1.7.3-3.45.36-5.94.61.12,7.93.28,15.66.34,23.39s-1.65,9.64-9.57,9.82c-5.84.14-11.68.11-17.52.28h-.49c-3.48,0-5.12-1.2-5.33-5.4-.66-12.82-.85-10.51,10.23-11.3,2.09-.15,4.19-.08,6.77-.12-.08-5.29-.15-10.29-.24-16.12-4.26.07-8.47-.08-12.64.26l-.77,0c-2.78,0-3.73-1.42-3.57-4.27,0-.88,0-1.76-.07-2.65-.09-6.35-.19-12.7-.29-19.47l80.05-1.2m11.18-11.51-11.35.17-80.05,1.19-11.34.17.17,11.35.07,5c.07,5,.14,9.74.22,14.52,0,.46,0,.93,0,1.4l0,.53c-.31,5.92,1.95,9.63,3.91,11.7a12.85,12.85,0,0,0,1.35,1.25,15.06,15.06,0,0,0-1.5,1.41c-4.25,4.64-4,9.94-3.6,17.27l0,1c.51,10,6.9,16.16,16.67,16.16H81c3.1-.09,6.3-.12,9.4-.16,2.63,0,5.35-.05,8.06-.12,5.22-.12,11.17-.86,15.63-5.44h0A16,16,0,0,0,126,617.69h.35l2.52,0c7.3-.12,14.85-.24,22.38-.71,6.84-.41,13.4-6.8,14-13.66a81.3,81.3,0,0,0,.12-10.55c0-1.19-.08-2.43-.09-3.64l-.07-4.38h1L166,573.35l-.28-18.5-.12-8-.16-11.34Z" style="fill: #000000;"></path><path class="cls-3" d="M453.49,567.46a15.3,15.3,0,0,1-13.23-7.37c-4.94-8.67-2.3-21.62,5.42-26.65a21.83,21.83,0,0,1,11.82-3.3c7.69,0,14.44,3.41,17.6,8.9,2.31,4,1.78,9.14,1.26,11.85-.77,4-5.11,7.35-8.67,7.93a7.34,7.34,0,0,1-1.06.08,7,7,0,0,1-1.45-.15,10.48,10.48,0,0,1-.82,2.42C462.43,565.11,458.37,567.45,453.49,567.46Z" style="fill: #c9f0b4; fill-opacity: 1;"></path><path d="M457.5,535.81c5.2,0,10.42,2.13,12.69,6.07,1.22,2.11,1.09,5.38.6,7.94-.27,1.41-2.46,3.15-4,3.39l-.16,0c-1.12,0-3-1.71-3.57-3-1.35-3.11-3.1-5.48-6.55-5.48h-.33c-1.55.07-3.89.88-4.38,2-.75,1.74-.45,4.08-.08,6.07.07.37,1.57.76,2.72.76a3.2,3.2,0,0,0,.72-.07,18.1,18.1,0,0,0,4-2c.05,1.61,1.14,4.91.05,7.14s-3.31,3.1-5.77,3.1a9.72,9.72,0,0,1-8.3-4.5c-3.4-6-1.57-15.73,3.59-19.09a16.09,16.09,0,0,1,8.72-2.38m0-11.34a27.16,27.16,0,0,0-14.91,4.21c-10.22,6.66-13.67,23-7.25,34.22a21,21,0,0,0,18.15,10.23,17.51,17.51,0,0,0,15.62-8.81c5.36-1.08,11.53-5.66,12.82-12.36.82-4.25,1.16-10.43-1.91-15.75-4.18-7.24-12.8-11.74-22.52-11.74Z" style="fill: #000000;"></path><path class="cls-1" d="M278.07,542.48c-45.95,1.23-90.4,3.23-106,2.64-33.07-1.25-65.57-3.12-98.63-4.69" style="fill: #ffffff;"></path><path d="M179.18,550.9c-2.87,0-5.34,0-7.37-.11-22.11-.84-44.35-2-65.86-3.06q-16.36-.83-32.83-1.63l.54-11.33q16.5.78,32.87,1.63c21.47,1.09,43.67,2.21,65.71,3.05,10.26.38,34-.39,61.44-1.29,13.59-.44,29-.94,44.24-1.35l.3,11.34c-15.21.41-30.59.91-44.17,1.36C210.73,550.27,191.37,550.9,179.18,550.9Z" style="fill: #000000;"></path><path class="cls-1" d="M267,569.28a6.34,6.34,0,0,1-4.93-2.42c-3.94-4.72-7.31-19.32-8.78-30.89-2.24-17.63-.75-29,4.43-33.89l.25-.23.26-.19a13.36,13.36,0,0,1,7.37-2.41c2.37,0,6.81.8,9.93,6.16,2.68,4.59,2.6,18.75,2.05,29.82-.35,7.23-1.53,24.67-4.82,30.39A6.51,6.51,0,0,1,267,569.28Z" style="fill: #ffffff;"></path><path d="M265.57,504.56c1.76,0,3.74.79,5.34,3.53,3.53,6,.86,55.88-3.94,55.88a1.15,1.15,0,0,1-.85-.51c-5.32-6.39-13.31-49.52-4.79-57.5a8,8,0,0,1,4.24-1.4m0-10.62h0a18.61,18.61,0,0,0-10.49,3.42l-.54.39-.48.45c-4.06,3.81-6.33,9.85-6.93,18.47a108.14,108.14,0,0,0,.86,20c.54,4.27,3.57,25.94,10,33.62a11.6,11.6,0,0,0,19.38-2c2.84-4.95,4.7-16,5.52-32.79,1.26-25.83-1.67-30.86-2.77-32.75-3.26-5.59-8.55-8.79-14.52-8.79Z" style="fill: #000000;"></path><path class="cls-1" d="M245.14,569.28a6.34,6.34,0,0,1-4.93-2.42c-3.94-4.72-7.31-19.32-8.78-30.89-2.24-17.63-.75-29,4.43-33.89l.25-.23.26-.19a13.36,13.36,0,0,1,7.37-2.41c2.37,0,6.81.8,9.93,6.16,2.68,4.59,2.6,18.75,2.05,29.81-.35,7.24-1.53,24.68-4.82,30.4A6.51,6.51,0,0,1,245.14,569.28Z" style="fill: #ffffff;"></path><path d="M243.75,504.56c1.75,0,3.73.79,5.33,3.53,3.53,6,.86,55.88-3.94,55.88a1.15,1.15,0,0,1-.85-.51C239,557.07,231,513.94,239.5,506a8,8,0,0,1,4.25-1.4m0-10.62h0a18.61,18.61,0,0,0-10.49,3.42l-.54.39-.48.45c-4.06,3.81-6.33,9.85-6.93,18.47a108.14,108.14,0,0,0,.86,20c.54,4.27,3.57,25.94,10,33.62a11.6,11.6,0,0,0,19.38-2c2.84-4.95,4.7-16,5.52-32.79,1.26-25.83-1.67-30.86-2.77-32.75-3.26-5.59-8.55-8.79-14.51-8.79Z" style="fill: #000000;"></path><path class="cls-1" d="M223.31,569.28a6.34,6.34,0,0,1-4.93-2.42c-3.94-4.72-7.31-19.32-8.78-30.89-2.24-17.63-.75-29,4.44-33.89l.24-.23.26-.19a13.37,13.37,0,0,1,7.38-2.41c2.36,0,6.8.8,9.92,6.16,2.68,4.59,2.6,18.75,2,29.82-.35,7.23-1.53,24.67-4.82,30.39A6.51,6.51,0,0,1,223.31,569.28Z" style="fill: #ffffff;"></path><path d="M221.92,504.56c1.75,0,3.73.79,5.33,3.53,3.53,6,.86,55.88-3.94,55.88a1.15,1.15,0,0,1-.85-.51c-5.32-6.39-13.31-49.52-4.79-57.5a8,8,0,0,1,4.25-1.4m0-10.62h0a18.62,18.62,0,0,0-10.5,3.42l-.54.39-.48.45c-4.06,3.81-6.33,9.85-6.93,18.47a108.14,108.14,0,0,0,.86,20c.54,4.27,3.57,25.94,10,33.62a11.6,11.6,0,0,0,19.38-2c2.84-4.95,4.7-16,5.52-32.79,1.26-25.83-1.67-30.86-2.77-32.75-3.26-5.59-8.55-8.79-14.51-8.79Z" style="fill: #000000;"></path><path class="cls-1" d="M313.2,566.62a6.53,6.53,0,0,1-5.77-3.66c-3.29-5.73-4.46-23.17-4.82-30.4-.54-11.07-.62-25.22,2.06-29.81,3.12-5.36,7.56-6.16,9.92-6.16A13.2,13.2,0,0,1,322,499l.27.19.24.23c5.18,4.85,6.67,16.26,4.43,33.89-1.46,11.57-4.84,26.17-8.77,30.89a6.34,6.34,0,0,1-4.93,2.42Z" style="fill: #ffffff;"></path><path d="M314.59,501.9a8.07,8.07,0,0,1,4.25,1.39c8.52,8,.53,51.12-4.79,57.51a1.19,1.19,0,0,1-.85.51c-4.8,0-7.47-49.84-3.95-55.89,1.6-2.74,3.59-3.52,5.34-3.52m0-10.62c-6,0-11.25,3.2-14.51,8.79-1.11,1.89-4,6.92-2.77,32.75.82,16.81,2.67,27.84,5.52,32.79a11.61,11.61,0,0,0,19.38,2c6.4-7.68,9.42-29.35,10-33.62a107.28,107.28,0,0,0,.86-20c-.6-8.62-2.86-14.66-6.92-18.47l-.49-.45-.53-.39a18.68,18.68,0,0,0-10.5-3.42Z" style="fill: #000000;"></path><path class="cls-1" d="M335,566.62a6.53,6.53,0,0,1-5.77-3.66c-3.29-5.73-4.46-23.17-4.82-30.4-.54-11.07-.62-25.22,2.06-29.81,3.12-5.36,7.56-6.16,9.92-6.16a13.2,13.2,0,0,1,7.37,2.41l.27.19.24.23c5.18,4.85,6.67,16.26,4.43,33.89-1.46,11.57-4.84,26.17-8.77,30.89a6.35,6.35,0,0,1-4.93,2.42Z" style="fill: #ffffff;"></path><path d="M336.42,501.9a8.07,8.07,0,0,1,4.25,1.39c8.52,8,.53,51.12-4.79,57.51a1.19,1.19,0,0,1-.85.51c-4.8,0-7.47-49.84-3.95-55.89,1.6-2.74,3.59-3.52,5.34-3.52m0-10.62c-6,0-11.25,3.2-14.51,8.79-1.11,1.89-4,6.92-2.77,32.75.82,16.81,2.67,27.84,5.52,32.79a11.61,11.61,0,0,0,19.38,2c6.4-7.68,9.42-29.35,10-33.62a107.28,107.28,0,0,0,.86-20c-.6-8.62-2.86-14.66-6.92-18.47l-.49-.45-.53-.39a18.68,18.68,0,0,0-10.5-3.42Z" style="fill: #000000;"></path><path class="cls-1" d="M356.86,566.62a6.53,6.53,0,0,1-5.77-3.66c-3.29-5.73-4.46-23.17-4.82-30.4-.54-11.07-.62-25.22,2.06-29.81,3.12-5.36,7.56-6.16,9.92-6.16a13.2,13.2,0,0,1,7.37,2.41l.27.19.24.23c5.18,4.85,6.67,16.26,4.43,33.89-1.46,11.57-4.84,26.17-8.77,30.89a6.35,6.35,0,0,1-4.93,2.42Z" style="fill: #ffffff;"></path><path d="M358.25,501.9a8.07,8.07,0,0,1,4.25,1.39c8.52,8,.53,51.12-4.79,57.51a1.19,1.19,0,0,1-.85.51c-4.81,0-7.47-49.84-3.95-55.89,1.6-2.74,3.59-3.52,5.34-3.52m0-10.62c-6,0-11.25,3.2-14.51,8.79-1.11,1.89-4,6.92-2.77,32.75.82,16.81,2.67,27.84,5.51,32.79a11.62,11.62,0,0,0,19.39,2c6.4-7.68,9.42-29.35,10-33.62a107.28,107.28,0,0,0,.86-20c-.6-8.62-2.86-14.66-6.92-18.47l-.49-.45-.53-.39a18.68,18.68,0,0,0-10.5-3.42Z" style="fill: #000000;"></path><path class="cls-1" d="M237.09,417l17.25,15.28L279.48,417l10.84,10.35,18.24-11.83,17.75,15.28L344.05,415s15.28,15.78,13.8,16.76-31.21,28.1-31.21,28.1L310,443.08l-19.22,18.24-14.3-15.77L257.3,460.83l-17.25-15.78-9.37-8.54-5.42-10.68Z" style="fill: #ffffff;"></path><path d="M359.83,573.71l7.79-27,10.57.1s9,10.42,10.83,13.71-8,12.16-9,13.64S359.83,573.71,359.83,573.71Z" style="fill: #000000;"></path></svg> <svg xmlns="http://www.w3.org/2000/svg" y="267.5" viewBox="1.5 5.800000190734863 310.1600036621094 20.200000762939453" x="152.5" height="20.200000762939453" width="310.1600036621094" style="overflow: visible;"><g fill="#A6A6A6" fill-opacity="1" style=""><path d="M3.10 21.40L3.10 12.20L1.50 12.20L1.50 21.40L3.10 21.40ZM5.88 13.96L5.88 13.96L6.76 12.64Q6.40 12.26 5.97 12.13Q5.54 12.00 5.04 12.00L5.04 12.00Q4.40 12.00 3.78 12.50Q3.16 13.00 2.77 13.85Q2.38 14.70 2.38 15.80L2.38 15.80L3.10 15.80Q3.10 15.14 3.23 14.62Q3.36 14.10 3.70 13.80Q4.04 13.50 4.64 13.50L4.64 13.50Q5.04 13.50 5.30 13.61Q5.56 13.72 5.88 13.96ZM14.22 21.60L14.22 21.60Q15.70 21.60 16.79 21.01Q17.88 20.42 18.60 19.26L18.60 19.26L17.30 18.44Q16.80 19.28 16.08 19.69Q15.36 20.10 14.42 20.10L14.42 20.10Q13.48 20.10 12.82 19.70Q12.16 19.30 11.82 18.54Q11.48 17.78 11.48 16.70L11.48 16.70Q11.50 15.64 11.85 14.91Q12.20 14.18 12.85 13.79Q13.50 13.40 14.42 13.40L14.42 13.40Q15.20 13.40 15.78 13.74Q16.36 14.08 16.69 14.68Q17.02 15.28 17.02 16.10L17.02 16.10Q17.02 16.24 16.96 16.45Q16.90 16.66 16.84 16.76L16.84 16.76L17.48 15.84L10.88 15.84L10.88 17.20L18.74 17.20Q18.74 17.16 18.75 17.01Q18.76 16.86 18.76 16.72L18.76 16.72Q18.76 15.26 18.24 14.20Q17.72 13.14 16.75 12.57Q15.78 12.00 14.42 12.00L14.42 12.00Q13.06 12.00 12.03 12.60Q11 13.20 10.43 14.28Q9.86 15.36 9.86 16.80L9.86 16.80Q9.86 18.22 10.41 19.30Q10.96 20.38 11.95 20.99Q12.94 21.60 14.22 21.60ZM24.56 22.00L22.94 22.00Q22.94 23.18 23.52 24.09Q24.10 25.00 25.13 25.50Q26.16 26.00 27.50 26.00L27.50 26.00Q28.66 26.00 29.70 25.46Q30.74 24.92 31.40 23.85Q32.06 22.78 32.06 21.20L32.06 21.20L32.06 12.20L30.46 12.20L30.46 21.20Q30.46 22.36 30.01 23.09Q29.56 23.82 28.88 24.16Q28.20 24.50 27.50 24.50L27.50 24.50Q26.60 24.50 25.94 24.15Q25.28 23.80 24.92 23.23Q24.56 22.66 24.56 22.00L24.56 22.00ZM22.76 16.80L22.76 16.80Q22.76 18.28 23.38 19.36Q24.00 20.44 25.04 21.02Q26.08 21.60 27.32 21.60L27.32 21.60Q28.48 21.60 29.34 21.02Q30.20 20.44 30.69 19.36Q31.18 18.28 31.18 16.80L31.18 16.80Q31.18 15.30 30.69 14.23Q30.20 13.16 29.34 12.58Q28.48 12.00 27.32 12.00L27.32 12.00Q26.08 12.00 25.04 12.58Q24.00 13.16 23.38 14.23Q22.76 15.30 22.76 16.80ZM24.38 16.80L24.38 16.80Q24.38 15.74 24.81 15.00Q25.24 14.26 25.96 13.88Q26.68 13.50 27.52 13.50L27.52 13.50Q28.04 13.50 28.56 13.72Q29.08 13.94 29.51 14.36Q29.94 14.78 30.20 15.39Q30.46 16 30.46 16.80L30.46 16.80Q30.46 17.86 30.02 18.60Q29.58 19.34 28.90 19.72Q28.22 20.10 27.52 20.10L27.52 20.10Q26.68 20.10 25.96 19.72Q25.24 19.34 24.81 18.60Q24.38 17.86 24.38 16.80ZM39.16 17.80L39.16 17.80L39.16 12.20L37.56 12.20L37.56 18.00Q37.56 19.64 38.42 20.62Q39.28 21.60 40.72 21.60L40.72 21.60Q41.64 21.60 42.32 21.19Q43 20.78 43.46 19.96L43.46 19.96L43.46 21.40L45.06 21.40L45.06 12.20L43.46 12.20L43.46 17.80Q43.46 18.48 43.17 19.00Q42.88 19.52 42.35 19.81Q41.82 20.10 41.12 20.10L41.12 20.10Q40.16 20.10 39.66 19.50Q39.16 18.90 39.16 17.80ZM52.26 5.80L50.66 5.80L50.66 21.40L52.26 21.40L52.26 5.80ZM58.58 18.56L58.58 18.56Q58.58 18.06 58.82 17.70Q59.06 17.34 59.55 17.14Q60.04 16.94 60.82 16.94L60.82 16.94Q61.66 16.94 62.40 17.15Q63.14 17.36 63.84 17.84L63.84 17.84L63.84 16.90Q63.70 16.72 63.30 16.43Q62.90 16.14 62.23 15.91Q61.56 15.68 60.56 15.68L60.56 15.68Q58.86 15.68 57.91 16.49Q56.96 17.30 56.96 18.64L56.96 18.64Q56.96 19.58 57.40 20.24Q57.84 20.90 58.57 21.25Q59.30 21.60 60.14 21.60L60.14 21.60Q60.90 21.60 61.67 21.32Q62.44 21.04 62.97 20.46Q63.50 19.88 63.50 19.00L63.50 19.00L63.18 17.80Q63.18 18.52 62.83 19.07Q62.48 19.62 61.89 19.92Q61.30 20.22 60.56 20.22L60.56 20.22Q59.98 20.22 59.53 20.03Q59.08 19.84 58.83 19.46Q58.58 19.08 58.58 18.56ZM57.56 13.14L58.34 14.32Q58.56 14.16 58.94 13.94Q59.32 13.72 59.87 13.56Q60.42 13.40 61.10 13.40L61.10 13.40Q61.52 13.40 61.90 13.48Q62.28 13.56 62.57 13.74Q62.86 13.92 63.02 14.23Q63.18 14.54 63.18 15.02L63.18 15.02L63.18 21.40L64.78 21.40L64.78 14.80Q64.78 13.90 64.33 13.28Q63.88 12.66 63.07 12.33Q62.26 12.00 61.18 12.00L61.18 12.00Q59.90 12.00 58.99 12.38Q58.08 12.76 57.56 13.14L57.56 13.14ZM71.68 21.40L71.68 12.20L70.08 12.20L70.08 21.40L71.68 21.40ZM74.46 13.96L74.46 13.96L75.34 12.64Q74.98 12.26 74.55 12.13Q74.12 12.00 73.62 12.00L73.62 12.00Q72.98 12.00 72.36 12.50Q71.74 13.00 71.35 13.85Q70.96 14.70 70.96 15.80L70.96 15.80L71.68 15.80Q71.68 15.14 71.81 14.62Q71.94 14.10 72.28 13.80Q72.62 13.50 73.22 13.50L73.22 13.50Q73.62 13.50 73.88 13.61Q74.14 13.72 74.46 13.96ZM91.70 21.60L91.70 21.60Q93.18 21.60 94.27 21.01Q95.36 20.42 96.08 19.26L96.08 19.26L94.78 18.44Q94.28 19.28 93.56 19.69Q92.84 20.10 91.90 20.10L91.90 20.10Q90.96 20.10 90.30 19.70Q89.64 19.30 89.30 18.54Q88.96 17.78 88.96 16.70L88.96 16.70Q88.98 15.64 89.33 14.91Q89.68 14.18 90.33 13.79Q90.98 13.40 91.90 13.40L91.90 13.40Q92.68 13.40 93.26 13.74Q93.84 14.08 94.17 14.68Q94.50 15.28 94.50 16.10L94.50 16.10Q94.50 16.24 94.44 16.45Q94.38 16.66 94.32 16.76L94.32 16.76L94.96 15.84L88.36 15.84L88.36 17.20L96.22 17.20Q96.22 17.16 96.23 17.01Q96.24 16.86 96.24 16.72L96.24 16.72Q96.24 15.26 95.72 14.20Q95.20 13.14 94.23 12.57Q93.26 12.00 91.90 12.00L91.90 12.00Q90.54 12.00 89.51 12.60Q88.48 13.20 87.91 14.28Q87.34 15.36 87.34 16.80L87.34 16.80Q87.34 18.22 87.89 19.30Q88.44 20.38 89.43 20.99Q90.42 21.60 91.70 21.60ZM107.44 12.20L105.64 12.20L103.44 15.40L101.24 12.20L99.44 12.20L102.58 16.66L99.24 21.40L101.04 21.40L103.44 17.92L105.84 21.40L107.64 21.40L104.30 16.66L107.44 12.20ZM111.64 25.80L113.24 25.80L113.24 12.20L111.64 12.20L111.64 25.80ZM120.94 16.80L120.94 16.80Q120.94 15.30 120.32 14.23Q119.70 13.16 118.67 12.58Q117.64 12.00 116.38 12.00L116.38 12.00Q115.24 12.00 114.37 12.58Q113.50 13.16 113.01 14.23Q112.52 15.30 112.52 16.80L112.52 16.80Q112.52 18.28 113.01 19.36Q113.50 20.44 114.37 21.02Q115.24 21.60 116.38 21.60L116.38 21.60Q117.64 21.60 118.67 21.02Q119.70 20.44 120.32 19.36Q120.94 18.28 120.94 16.80ZM119.32 16.80L119.32 16.80Q119.32 17.86 118.89 18.60Q118.46 19.34 117.75 19.72Q117.04 20.10 116.18 20.10L116.18 20.10Q115.48 20.10 114.80 19.72Q114.12 19.34 113.68 18.60Q113.24 17.86 113.24 16.80L113.24 16.80Q113.24 15.74 113.68 15.00Q114.12 14.26 114.80 13.88Q115.48 13.50 116.18 13.50L116.18 13.50Q117.04 13.50 117.75 13.88Q118.46 14.26 118.89 15.00Q119.32 15.74 119.32 16.80ZM127.34 21.40L127.34 12.20L125.74 12.20L125.74 21.40L127.34 21.40ZM130.12 13.96L130.12 13.96L131.00 12.64Q130.64 12.26 130.21 12.13Q129.78 12.00 129.28 12.00L129.28 12.00Q128.64 12.00 128.02 12.50Q127.40 13.00 127.01 13.85Q126.62 14.70 126.62 15.80L126.62 15.80L127.34 15.80Q127.34 15.14 127.47 14.62Q127.60 14.10 127.94 13.80Q128.28 13.50 128.88 13.50L128.88 13.50Q129.28 13.50 129.54 13.61Q129.80 13.72 130.12 13.96ZM138.46 21.60L138.46 21.60Q139.94 21.60 141.03 21.01Q142.12 20.42 142.84 19.26L142.84 19.26L141.54 18.44Q141.04 19.28 140.32 19.69Q139.60 20.10 138.66 20.10L138.66 20.10Q137.72 20.10 137.06 19.70Q136.40 19.30 136.06 18.54Q135.72 17.78 135.72 16.70L135.72 16.70Q135.74 15.64 136.09 14.91Q136.44 14.18 137.09 13.79Q137.74 13.40 138.66 13.40L138.66 13.40Q139.44 13.40 140.02 13.74Q140.60 14.08 140.93 14.68Q141.26 15.28 141.26 16.10L141.26 16.10Q141.26 16.24 141.20 16.45Q141.14 16.66 141.08 16.76L141.08 16.76L141.72 15.84L135.12 15.84L135.12 17.20L142.98 17.20Q142.98 17.16 142.99 17.01Q143.00 16.86 143.00 16.72L143.00 16.72Q143.00 15.26 142.48 14.20Q141.96 13.14 140.99 12.57Q140.02 12.00 138.66 12.00L138.66 12.00Q137.30 12.00 136.27 12.60Q135.24 13.20 134.67 14.28Q134.10 15.36 134.10 16.80L134.10 16.80Q134.10 18.22 134.65 19.30Q135.20 20.38 136.19 20.99Q137.18 21.60 138.46 21.60ZM148.18 18.58L148.18 18.58L146.92 19.36Q147.18 19.90 147.69 20.42Q148.20 20.94 148.94 21.27Q149.68 21.60 150.60 21.60L150.60 21.60Q152.02 21.60 152.89 20.80Q153.76 20.00 153.76 18.80L153.76 18.80Q153.76 17.98 153.37 17.46Q152.98 16.94 152.32 16.57Q151.66 16.20 150.86 15.88L150.86 15.88Q150.38 15.68 149.94 15.46Q149.50 15.24 149.22 14.96Q148.94 14.68 148.94 14.32L148.94 14.32Q148.94 13.86 149.30 13.64Q149.66 13.42 150.16 13.42L150.16 13.42Q150.88 13.42 151.45 13.76Q152.02 14.10 152.40 14.62L152.40 14.62L153.68 13.80Q153.40 13.28 152.90 12.88Q152.40 12.48 151.75 12.24Q151.10 12.00 150.36 12.00L150.36 12.00Q149.62 12.00 148.93 12.26Q148.24 12.52 147.81 13.06Q147.38 13.60 147.38 14.42L147.38 14.42Q147.38 15.22 147.79 15.75Q148.20 16.28 148.81 16.61Q149.42 16.94 150.02 17.18L150.02 17.18Q150.56 17.38 151.04 17.61Q151.52 17.84 151.83 18.17Q152.14 18.50 152.14 18.98L152.14 18.98Q152.14 19.52 151.75 19.83Q151.36 20.14 150.68 20.14L150.68 20.14Q150.12 20.14 149.65 19.93Q149.18 19.72 148.82 19.36Q148.46 19.00 148.18 18.58ZM158.84 18.58L158.84 18.58L157.58 19.36Q157.84 19.90 158.35 20.42Q158.86 20.94 159.60 21.27Q160.34 21.60 161.26 21.60L161.26 21.60Q162.68 21.60 163.55 20.80Q164.42 20.00 164.42 18.80L164.42 18.80Q164.42 17.98 164.03 17.46Q163.64 16.94 162.98 16.57Q162.32 16.20 161.52 15.88L161.52 15.88Q161.04 15.68 160.60 15.46Q160.16 15.24 159.88 14.96Q159.60 14.68 159.60 14.32L159.60 14.32Q159.60 13.86 159.96 13.64Q160.32 13.42 160.82 13.42L160.82 13.42Q161.54 13.42 162.11 13.76Q162.68 14.10 163.06 14.62L163.06 14.62L164.34 13.80Q164.06 13.28 163.56 12.88Q163.06 12.48 162.41 12.24Q161.76 12.00 161.02 12.00L161.02 12.00Q160.28 12.00 159.59 12.26Q158.90 12.52 158.47 13.06Q158.04 13.60 158.04 14.42L158.04 14.42Q158.04 15.22 158.45 15.75Q158.86 16.28 159.47 16.61Q160.08 16.94 160.68 17.18L160.68 17.18Q161.22 17.38 161.70 17.61Q162.18 17.84 162.49 18.17Q162.80 18.50 162.80 18.98L162.80 18.98Q162.80 19.52 162.41 19.83Q162.02 20.14 161.34 20.14L161.34 20.14Q160.78 20.14 160.31 19.93Q159.84 19.72 159.48 19.36Q159.12 19.00 158.84 18.58ZM169.12 8.40L169.12 8.40Q169.12 8.84 169.45 9.17Q169.78 9.50 170.22 9.50L170.22 9.50Q170.68 9.50 171.00 9.17Q171.32 8.84 171.32 8.40L171.32 8.40Q171.32 7.94 171.00 7.62Q170.68 7.30 170.22 7.30L170.22 7.30Q169.78 7.30 169.45 7.62Q169.12 7.94 169.12 8.40ZM171.02 12.20L169.42 12.20L169.42 21.40L171.02 21.40L171.02 12.20ZM176.12 16.80L176.12 16.80Q176.12 18.18 176.75 19.27Q177.38 20.36 178.46 20.98Q179.54 21.60 180.88 21.60L180.88 21.60Q182.24 21.60 183.31 20.98Q184.38 20.36 185.01 19.27Q185.64 18.18 185.64 16.80L185.64 16.80Q185.64 15.40 185.01 14.32Q184.38 13.24 183.31 12.62Q182.24 12.00 180.88 12.00L180.88 12.00Q179.54 12.00 178.46 12.62Q177.38 13.24 176.75 14.32Q176.12 15.40 176.12 16.80ZM177.74 16.80L177.74 16.80Q177.74 15.84 178.15 15.09Q178.56 14.34 179.27 13.92Q179.98 13.50 180.88 13.50L180.88 13.50Q181.78 13.50 182.49 13.92Q183.20 14.34 183.61 15.09Q184.02 15.84 184.02 16.80L184.02 16.80Q184.02 17.76 183.61 18.50Q183.20 19.24 182.49 19.67Q181.78 20.10 180.88 20.10L180.88 20.10Q179.98 20.10 179.27 19.67Q178.56 19.24 178.15 18.50Q177.74 17.76 177.74 16.80ZM196.34 15.80L196.34 15.80L196.34 21.40L197.94 21.40L197.94 15.60Q197.94 13.94 197.09 12.97Q196.24 12.00 194.78 12.00L194.78 12.00Q193.88 12.00 193.19 12.40Q192.50 12.80 192.04 13.64L192.04 13.64L192.04 12.20L190.44 12.20L190.44 21.40L192.04 21.40L192.04 15.80Q192.04 15.12 192.33 14.60Q192.62 14.08 193.15 13.79Q193.68 13.50 194.38 13.50L194.38 13.50Q195.34 13.50 195.84 14.08Q196.34 14.66 196.34 15.80ZM213.74 21.40L213.74 12.20L212.14 12.20L212.14 21.40L213.74 21.40ZM216.52 13.96L216.52 13.96L217.40 12.64Q217.04 12.26 216.61 12.13Q216.18 12.00 215.68 12.00L215.68 12.00Q215.04 12.00 214.42 12.50Q213.80 13.00 213.41 13.85Q213.02 14.70 213.02 15.80L213.02 15.80L213.74 15.80Q213.74 15.14 213.87 14.62Q214.00 14.10 214.34 13.80Q214.68 13.50 215.28 13.50L215.28 13.50Q215.68 13.50 215.94 13.61Q216.20 13.72 216.52 13.96ZM224.86 21.60L224.86 21.60Q226.34 21.60 227.43 21.01Q228.52 20.42 229.24 19.26L229.24 19.26L227.94 18.44Q227.44 19.28 226.72 19.69Q226.00 20.10 225.06 20.10L225.06 20.10Q224.12 20.10 223.46 19.70Q222.80 19.30 222.46 18.54Q222.12 17.78 222.12 16.70L222.12 16.70Q222.14 15.64 222.49 14.91Q222.84 14.18 223.49 13.79Q224.14 13.40 225.06 13.40L225.06 13.40Q225.84 13.40 226.42 13.74Q227.00 14.08 227.33 14.68Q227.66 15.28 227.66 16.10L227.66 16.10Q227.66 16.24 227.60 16.45Q227.54 16.66 227.48 16.76L227.48 16.76L228.12 15.84L221.52 15.84L221.52 17.20L229.38 17.20Q229.38 17.16 229.39 17.01Q229.40 16.86 229.40 16.72L229.40 16.72Q229.40 15.26 228.88 14.20Q228.36 13.14 227.39 12.57Q226.42 12.00 225.06 12.00L225.06 12.00Q223.70 12.00 222.67 12.60Q221.64 13.20 221.07 14.28Q220.50 15.36 220.50 16.80L220.50 16.80Q220.50 18.22 221.05 19.30Q221.60 20.38 222.59 20.99Q223.58 21.60 224.86 21.60ZM234.58 18.58L234.58 18.58L233.32 19.36Q233.58 19.90 234.09 20.42Q234.60 20.94 235.34 21.27Q236.08 21.60 237.00 21.60L237.00 21.60Q238.42 21.60 239.29 20.80Q240.16 20.00 240.16 18.80L240.16 18.80Q240.16 17.98 239.77 17.46Q239.38 16.94 238.72 16.57Q238.06 16.20 237.26 15.88L237.26 15.88Q236.78 15.68 236.34 15.46Q235.90 15.24 235.62 14.96Q235.34 14.68 235.34 14.32L235.34 14.32Q235.34 13.86 235.70 13.64Q236.06 13.42 236.56 13.42L236.56 13.42Q237.28 13.42 237.85 13.76Q238.42 14.10 238.80 14.62L238.80 14.62L240.08 13.80Q239.80 13.28 239.30 12.88Q238.80 12.48 238.15 12.24Q237.50 12.00 236.76 12.00L236.76 12.00Q236.02 12.00 235.33 12.26Q234.64 12.52 234.21 13.06Q233.78 13.60 233.78 14.42L233.78 14.42Q233.78 15.22 234.19 15.75Q234.60 16.28 235.21 16.61Q235.82 16.94 236.42 17.18L236.42 17.18Q236.96 17.38 237.44 17.61Q237.92 17.84 238.23 18.17Q238.54 18.50 238.54 18.98L238.54 18.98Q238.54 19.52 238.15 19.83Q237.76 20.14 237.08 20.14L237.08 20.14Q236.52 20.14 236.05 19.93Q235.58 19.72 235.22 19.36Q234.86 19.00 234.58 18.58ZM244.06 16.80L244.06 16.80Q244.06 18.18 244.69 19.27Q245.32 20.36 246.40 20.98Q247.48 21.60 248.82 21.60L248.82 21.60Q250.18 21.60 251.25 20.98Q252.32 20.36 252.95 19.27Q253.58 18.18 253.58 16.80L253.58 16.80Q253.58 15.40 252.95 14.32Q252.32 13.24 251.25 12.62Q250.18 12.00 248.82 12.00L248.82 12.00Q247.48 12.00 246.40 12.62Q245.32 13.24 244.69 14.32Q244.06 15.40 244.06 16.80ZM245.68 16.80L245.68 16.80Q245.68 15.84 246.09 15.09Q246.50 14.34 247.21 13.92Q247.92 13.50 248.82 13.50L248.82 13.50Q249.72 13.50 250.43 13.92Q251.14 14.34 251.55 15.09Q251.96 15.84 251.96 16.80L251.96 16.80Q251.96 17.76 251.55 18.50Q251.14 19.24 250.43 19.67Q249.72 20.10 248.82 20.10L248.82 20.10Q247.92 20.10 247.21 19.67Q246.50 19.24 246.09 18.50Q245.68 17.76 245.68 16.80ZM259.98 17.80L259.98 17.80L259.98 12.20L258.38 12.20L258.38 18.00Q258.38 19.64 259.24 20.62Q260.10 21.60 261.54 21.60L261.54 21.60Q262.46 21.60 263.14 21.19Q263.82 20.78 264.28 19.96L264.28 19.96L264.28 21.40L265.88 21.40L265.88 12.20L264.28 12.20L264.28 17.80Q264.28 18.48 263.99 19.00Q263.70 19.52 263.17 19.81Q262.64 20.10 261.94 20.10L261.94 20.10Q260.98 20.10 260.48 19.50Q259.98 18.90 259.98 17.80ZM273.08 21.40L273.08 12.20L271.48 12.20L271.48 21.40L273.08 21.40ZM275.86 13.96L275.86 13.96L276.74 12.64Q276.38 12.26 275.95 12.13Q275.52 12.00 275.02 12.00L275.02 12.00Q274.38 12.00 273.76 12.50Q273.14 13.00 272.75 13.85Q272.36 14.70 272.36 15.80L272.36 15.80L273.08 15.80Q273.08 15.14 273.21 14.62Q273.34 14.10 273.68 13.80Q274.02 13.50 274.62 13.50L274.62 13.50Q275.02 13.50 275.28 13.61Q275.54 13.72 275.86 13.96ZM281.36 16.80L281.36 16.80Q281.36 15.84 281.77 15.09Q282.18 14.34 282.89 13.92Q283.60 13.50 284.50 13.50L284.50 13.50Q285.24 13.50 285.89 13.73Q286.54 13.96 287.02 14.34Q287.50 14.72 287.70 15.18L287.70 15.18L287.70 13.18Q287.22 12.62 286.33 12.31Q285.44 12.00 284.50 12.00L284.50 12.00Q283.16 12.00 282.08 12.62Q281 13.24 280.37 14.32Q279.74 15.40 279.74 16.80L279.74 16.80Q279.74 18.18 280.37 19.27Q281 20.36 282.08 20.98Q283.16 21.60 284.50 21.60L284.50 21.60Q285.44 21.60 286.33 21.29Q287.22 20.98 287.70 20.42L287.70 20.42L287.70 18.42Q287.50 18.86 287.02 19.25Q286.54 19.64 285.89 19.87Q285.24 20.10 284.50 20.10L284.50 20.10Q283.60 20.10 282.89 19.67Q282.18 19.24 281.77 18.50Q281.36 17.76 281.36 16.80ZM296.36 21.60L296.36 21.60Q297.84 21.60 298.93 21.01Q300.02 20.42 300.74 19.26L300.74 19.26L299.44 18.44Q298.94 19.28 298.22 19.69Q297.50 20.10 296.56 20.10L296.56 20.10Q295.62 20.10 294.96 19.70Q294.30 19.30 293.96 18.54Q293.62 17.78 293.62 16.70L293.62 16.70Q293.64 15.64 293.99 14.91Q294.34 14.18 294.99 13.79Q295.64 13.40 296.56 13.40L296.56 13.40Q297.34 13.40 297.92 13.74Q298.50 14.08 298.83 14.68Q299.16 15.28 299.16 16.10L299.16 16.10Q299.16 16.24 299.10 16.45Q299.04 16.66 298.98 16.76L298.98 16.76L299.62 15.84L293.02 15.84L293.02 17.20L300.88 17.20Q300.88 17.16 300.89 17.01Q300.90 16.86 300.90 16.72L300.90 16.72Q300.90 15.26 300.38 14.20Q299.86 13.14 298.89 12.57Q297.92 12.00 296.56 12.00L296.56 12.00Q295.20 12.00 294.17 12.60Q293.14 13.20 292.57 14.28Q292 15.36 292 16.80L292 16.80Q292 18.22 292.55 19.30Q293.10 20.38 294.09 20.99Q295.08 21.60 296.36 21.60ZM306.08 18.58L306.08 18.58L304.82 19.36Q305.08 19.90 305.59 20.42Q306.10 20.94 306.84 21.27Q307.58 21.60 308.50 21.60L308.50 21.60Q309.92 21.60 310.79 20.80Q311.66 20.00 311.66 18.80L311.66 18.80Q311.66 17.98 311.27 17.46Q310.88 16.94 310.22 16.57Q309.56 16.20 308.76 15.88L308.76 15.88Q308.28 15.68 307.84 15.46Q307.40 15.24 307.12 14.96Q306.84 14.68 306.84 14.32L306.84 14.32Q306.84 13.86 307.20 13.64Q307.56 13.42 308.06 13.42L308.06 13.42Q308.78 13.42 309.35 13.76Q309.92 14.10 310.30 14.62L310.30 14.62L311.58 13.80Q311.30 13.28 310.80 12.88Q310.30 12.48 309.65 12.24Q309.00 12.00 308.26 12.00L308.26 12.00Q307.52 12.00 306.83 12.26Q306.14 12.52 305.71 13.06Q305.28 13.60 305.28 14.42L305.28 14.42Q305.28 15.22 305.69 15.75Q306.10 16.28 306.71 16.61Q307.32 16.94 307.92 17.18L307.92 17.18Q308.46 17.38 308.94 17.61Q309.42 17.84 309.73 18.17Q310.04 18.50 310.04 18.98L310.04 18.98Q310.04 19.52 309.65 19.83Q309.26 20.14 308.58 20.14L308.58 20.14Q308.02 20.14 307.55 19.93Q307.08 19.72 306.72 19.36Q306.36 19.00 306.08 18.58Z" transform="translate(0, 0)"></path></g></svg> <svg xmlns="http://www.w3.org/2000/svg" y="222.67" viewBox="0.49000000953674316 10.859999656677246 398.30999755859375 50.82999801635742" x="149" height="50.82999801635742" width="398.30999755859375" style="overflow: visible;"><g fill="#000000" fill-opacity="1" style=""><path d="M0.49 50.24L19.04 10.86L21.29 11.96L2.76 51.37L0.49 50.24ZM56.20 48.71L49.51 48.71L49.51 48.61Q49.56 48.49 49.58 48.24Q49.61 48.00 49.61 47.80L49.61 47.80Q49.61 47.05 49.40 46.13Q49.19 45.21 48.61 43.85L48.61 43.85L45.65 37.21Q44.29 37.16 42.02 37.16Q39.75 37.16 37.11 37.16L37.11 37.16Q35.18 37.16 33.39 37.16Q31.59 37.16 30.15 37.21L30.15 37.21L27.34 43.65Q26.98 44.56 26.56 45.63Q26.15 46.70 26.15 47.80L26.15 47.80Q26.15 48.12 26.20 48.33Q26.25 48.54 26.29 48.61L26.29 48.61L26.29 48.71L21.31 48.71L21.31 48.61Q21.75 48.14 22.41 46.96Q23.07 45.78 23.85 43.99L23.85 43.99L37.84 12.96L39.79 12.96L53.05 42.80Q53.52 43.85 54.02 44.84Q54.52 45.83 54.96 46.61Q55.40 47.39 55.74 47.92Q56.08 48.46 56.20 48.61L56.20 48.61L56.20 48.71ZM31.05 35.06L33.69 35.06Q35.11 35.06 36.60 35.05Q38.09 35.03 39.51 35.02Q40.94 35.01 42.26 35.00Q43.58 34.99 44.65 34.96L44.65 34.96L37.79 19.46L31.05 35.06ZM74.02 25.95L74.95 25.95L81.47 42.36L86.91 28.76Q87.08 28.32 87.30 27.77Q87.52 27.22 87.70 26.65Q87.87 26.07 87.99 25.55Q88.11 25.02 88.11 24.61L88.11 24.61Q88.11 24.29 88.06 24.08Q88.01 23.88 87.96 23.80L87.96 23.80L87.96 23.71L92.36 23.71L92.36 23.80Q91.92 24.27 91.30 25.33Q90.67 26.39 89.82 28.42L89.82 28.42L81.15 49.05L79.76 49.05L73.46 33.76L67.16 49.05L65.77 49.05L57.76 29.61Q57.32 28.54 56.82 27.55Q56.32 26.56 55.87 25.78Q55.42 25 55.08 24.48Q54.74 23.95 54.61 23.80L54.61 23.80L54.61 23.71L61.11 23.71L61.11 23.80Q61.06 23.93 61.04 24.17Q61.01 24.41 61.01 24.61L61.01 24.61Q61.01 25.37 61.24 26.28Q61.47 27.20 62.01 28.56L62.01 28.56L67.46 42.36L74.02 25.95ZM106.96 49.15L106.96 49.15Q104.25 49.15 101.88 48.29Q99.51 47.44 97.75 45.79Q96.00 44.14 94.98 41.71Q93.97 39.28 93.97 36.16L93.97 36.16Q93.97 33.40 94.90 31.04Q95.83 28.69 97.46 26.95Q99.10 25.22 101.28 24.24Q103.47 23.27 106.01 23.27L106.01 23.27Q108.52 23.27 110.67 24.13Q112.82 25 114.39 26.65Q115.97 28.30 116.88 30.73Q117.80 33.15 117.87 36.25L117.87 36.25Q115.11 36.21 112.35 36.18Q109.59 36.16 106.62 36.16L106.62 36.16Q104.49 36.16 102.48 36.18Q100.46 36.21 98.85 36.25L98.85 36.25Q99.00 38.79 99.65 40.84Q100.29 42.90 101.43 44.35Q102.56 45.80 104.19 46.58Q105.81 47.36 107.86 47.36L107.86 47.36Q109.28 47.36 110.53 47.03Q111.79 46.70 112.82 46.12Q113.84 45.53 114.65 44.74Q115.45 43.95 116.02 43.02L116.02 43.02L116.31 43.16L114.50 47.51Q113.18 48.19 111.35 48.67Q109.52 49.15 106.96 49.15ZM103.71 34.25L103.71 34.25Q106.15 34.25 108.61 34.24Q111.06 34.23 113.06 34.16L113.06 34.16Q112.84 32.03 112.23 30.35Q111.62 28.66 110.67 27.49Q109.72 26.32 108.42 25.68Q107.13 25.05 105.57 25.05L105.57 25.05Q104.15 25.05 102.97 25.67Q101.78 26.29 100.90 27.47Q100.02 28.64 99.49 30.33Q98.95 32.03 98.85 34.20L98.85 34.20Q99.95 34.25 101.17 34.25Q102.39 34.25 103.71 34.25ZM133.91 24.56L134.16 28.61L133.81 28.66Q133.64 28.10 133.26 27.47Q132.89 26.83 132.29 26.29Q131.69 25.76 130.85 25.40Q130.00 25.05 128.91 25.05L128.91 25.05Q128.15 25.05 127.48 25.27Q126.81 25.49 126.31 25.92Q125.81 26.34 125.51 26.98Q125.22 27.61 125.22 28.47L125.22 28.47Q125.22 29.66 125.96 30.75Q126.71 31.84 127.83 32.90Q128.96 33.96 130.26 35.03Q131.57 36.11 132.69 37.28Q133.81 38.45 134.56 39.78Q135.30 41.11 135.30 42.65L135.30 42.65Q135.30 43.90 134.86 45.08Q134.42 46.26 133.51 47.19Q132.59 48.12 131.16 48.69Q129.74 49.27 127.76 49.27L127.76 49.27Q126.59 49.27 125.57 49.05Q124.56 48.83 123.72 48.50Q122.88 48.17 122.20 47.77Q121.53 47.36 121.02 47.00L121.02 47.00L121.26 42.36L121.66 42.36Q121.90 43.51 122.39 44.46Q122.88 45.41 123.60 46.08Q124.32 46.75 125.24 47.13Q126.17 47.51 127.27 47.51L127.27 47.51Q129.08 47.51 130.14 46.51Q131.20 45.51 131.20 43.90L131.20 43.90Q131.20 42.60 130.48 41.52Q129.76 40.43 128.66 39.43Q127.56 38.43 126.31 37.43Q125.05 36.43 123.95 35.29Q122.85 34.16 122.13 32.80Q121.41 31.45 121.41 29.71L121.41 29.71Q121.41 28.30 121.94 27.11Q122.46 25.93 123.40 25.09Q124.34 24.24 125.63 23.78Q126.93 23.32 128.47 23.32L128.47 23.32Q130.49 23.32 131.85 23.74Q133.20 24.17 133.91 24.56L133.91 24.56ZM138.77 36.16L138.77 36.16Q138.77 33.40 139.79 31.04Q140.82 28.69 142.61 26.95Q144.41 25.22 146.85 24.24Q149.29 23.27 152.10 23.27L152.10 23.27Q154.86 23.27 157.29 24.18Q159.72 25.10 161.52 26.78Q163.33 28.47 164.37 30.88Q165.41 33.30 165.41 36.30L165.41 36.30Q165.41 38.82 164.53 41.14Q163.65 43.46 161.94 45.24Q160.23 47.02 157.75 48.08Q155.27 49.15 152.05 49.15L152.05 49.15Q149.32 49.15 146.90 48.24Q144.48 47.34 142.68 45.65Q140.87 43.97 139.82 41.56Q138.77 39.16 138.77 36.16ZM152.61 47.36L152.61 47.36Q154.35 47.36 155.80 46.68Q157.25 46.00 158.30 44.70Q159.35 43.41 159.94 41.55Q160.52 39.70 160.52 37.35L160.52 37.35Q160.52 34.72 159.96 32.46Q159.40 30.20 158.29 28.55Q157.18 26.90 155.49 25.98Q153.81 25.05 151.56 25.05L151.56 25.05Q149.83 25.05 148.39 25.72Q146.95 26.39 145.89 27.66Q144.82 28.93 144.24 30.77Q143.65 32.62 143.65 34.96L143.65 34.96Q143.65 37.60 144.23 39.87Q144.80 42.14 145.92 43.81Q147.05 45.48 148.72 46.42Q150.39 47.36 152.61 47.36ZM187.16 39.16L187.16 32.25Q187.16 30.64 186.83 29.47Q186.50 28.30 185.88 27.53Q185.25 26.76 184.38 26.38Q183.50 26.00 182.42 26.00L182.42 26.00Q181.69 26.00 180.79 26.29Q179.88 26.59 178.92 27.09Q177.95 27.59 176.99 28.25Q176.03 28.91 175.17 29.66L175.17 29.66Q175.12 30.44 175.12 31.34Q175.12 32.23 175.12 33.25L175.12 33.25L175.12 39.16Q175.12 41.24 175.17 42.79Q175.22 44.34 175.32 45.46Q175.42 46.58 175.54 47.34Q175.66 48.10 175.81 48.61L175.81 48.61L175.81 48.71L170.17 48.71L170.17 48.61Q170.31 48.10 170.45 47.34Q170.58 46.58 170.67 45.46Q170.75 44.34 170.81 42.79Q170.87 41.24 170.87 39.16L170.87 39.16L170.87 33.25Q170.87 31.18 170.81 29.63Q170.75 28.08 170.67 26.95Q170.58 25.83 170.45 25.07Q170.31 24.32 170.17 23.80L170.17 23.80L170.17 23.71L175.81 23.71L175.81 23.80Q175.61 24.37 175.50 25.23Q175.39 26.10 175.27 27.42L175.27 27.42Q176.25 26.64 177.37 25.88Q178.49 25.12 179.68 24.54Q180.86 23.95 182.06 23.58Q183.25 23.22 184.42 23.22L184.42 23.22Q185.82 23.22 186.89 23.58Q187.96 23.95 188.77 24.58Q189.58 25.22 190.12 26.07Q190.67 26.93 190.97 27.91L190.97 27.91Q191.97 27.05 193.15 26.21Q194.34 25.37 195.59 24.71Q196.85 24.05 198.16 23.63Q199.46 23.22 200.71 23.22L200.71 23.22Q202.61 23.22 203.94 23.88Q205.27 24.54 206.12 25.61Q206.96 26.68 207.34 28.06Q207.71 29.44 207.71 30.86L207.71 30.86L207.71 39.16Q207.71 41.24 207.76 42.79Q207.81 44.34 207.91 45.46Q208.01 46.58 208.14 47.34Q208.28 48.10 208.42 48.61L208.42 48.61L208.42 48.71L202.76 48.71L202.76 48.61Q202.91 48.10 203.04 47.34Q203.17 46.58 203.27 45.46Q203.37 44.34 203.42 42.79Q203.47 41.24 203.47 39.16L203.47 39.16L203.47 32.25Q203.47 29.03 202.17 27.51Q200.88 26.00 198.71 26.00L198.71 26.00Q197.95 26.00 197.03 26.29Q196.12 26.59 195.14 27.10Q194.17 27.61 193.19 28.28Q192.21 28.96 191.36 29.71L191.36 29.71Q191.41 30.00 191.41 30.30Q191.41 30.59 191.41 30.86L191.41 30.86L191.41 39.16Q191.41 41.24 191.47 42.79Q191.53 44.34 191.61 45.46Q191.70 46.58 191.83 47.34Q191.97 48.10 192.11 48.61L192.11 48.61L192.11 48.71L186.47 48.71L186.47 48.61Q186.62 48.10 186.74 47.34Q186.87 46.58 186.96 45.46Q187.06 44.34 187.11 42.79Q187.16 41.24 187.16 39.16L187.16 39.16ZM226.00 49.15L226.00 49.15Q223.29 49.15 220.92 48.29Q218.55 47.44 216.80 45.79Q215.04 44.14 214.03 41.71Q213.01 39.28 213.01 36.16L213.01 36.16Q213.01 33.40 213.94 31.04Q214.87 28.69 216.50 26.95Q218.14 25.22 220.32 24.24Q222.51 23.27 225.05 23.27L225.05 23.27Q227.56 23.27 229.71 24.13Q231.86 25 233.44 26.65Q235.01 28.30 235.93 30.73Q236.84 33.15 236.91 36.25L236.91 36.25Q234.16 36.21 231.40 36.18Q228.64 36.16 225.66 36.16L225.66 36.16Q223.54 36.16 221.52 36.18Q219.51 36.21 217.90 36.25L217.90 36.25Q218.04 38.79 218.69 40.84Q219.34 42.90 220.47 44.35Q221.61 45.80 223.23 46.58Q224.85 47.36 226.90 47.36L226.90 47.36Q228.32 47.36 229.58 47.03Q230.83 46.70 231.86 46.12Q232.89 45.53 233.69 44.74Q234.50 43.95 235.06 43.02L235.06 43.02L235.35 43.16L233.54 47.51Q232.23 48.19 230.40 48.67Q228.56 49.15 226.00 49.15ZM222.75 34.25L222.75 34.25Q225.20 34.25 227.65 34.24Q230.10 34.23 232.10 34.16L232.10 34.16Q231.88 32.03 231.27 30.35Q230.66 28.66 229.71 27.49Q228.76 26.32 227.47 25.68Q226.17 25.05 224.61 25.05L224.61 25.05Q223.19 25.05 222.01 25.67Q220.83 26.29 219.95 27.47Q219.07 28.64 218.53 30.33Q217.99 32.03 217.90 34.20L217.90 34.20Q218.99 34.25 220.21 34.25Q221.44 34.25 222.75 34.25ZM238.89 50.24L257.45 10.86L259.69 11.96L241.16 51.37L238.89 50.24ZM268.85 33.67L268.85 39.16Q268.85 41.24 268.91 42.79Q268.97 44.34 269.06 45.46Q269.14 46.58 269.27 47.34Q269.41 48.10 269.56 48.61L269.56 48.61L269.56 48.71L263.70 48.71L263.70 48.61Q263.84 48.10 263.98 47.34Q264.11 46.58 264.20 45.46Q264.28 44.34 264.34 42.80Q264.40 41.26 264.40 39.16L264.40 39.16L264.40 23.27Q264.40 21.19 264.34 19.64Q264.28 18.09 264.20 16.97Q264.11 15.84 263.98 15.08Q263.84 14.31 263.70 13.79L263.70 13.79L263.70 13.70L264.72 13.79Q265.19 13.84 265.76 13.85Q266.33 13.87 266.94 13.87L266.94 13.87Q267.90 13.87 269.52 13.64Q271.14 13.40 273.66 13.40L273.66 13.40Q276.00 13.40 277.99 14.04Q279.98 14.67 281.45 15.89Q282.91 17.11 283.73 18.88Q284.55 20.65 284.55 22.90L284.55 22.90Q284.55 24.66 284.09 26.16Q283.64 27.66 282.82 28.88Q282.01 30.10 280.86 31.04Q279.71 31.98 278.30 32.62L278.30 32.62L286.87 44.65Q287.50 45.56 288.05 46.22Q288.60 46.88 289.10 47.35Q289.60 47.83 290.06 48.13Q290.53 48.44 291.02 48.61L291.02 48.61L291.02 48.71L283.96 48.71Q283.89 48.24 283.48 47.47Q283.08 46.70 282.54 45.95L282.54 45.95L273.90 33.76Q273.34 33.81 272.78 33.85Q272.22 33.89 271.63 33.89L271.63 33.89Q270.95 33.89 270.25 33.84Q269.56 33.79 268.85 33.67L268.85 33.67ZM268.85 15.60L268.85 31.76Q269.51 31.91 270.19 31.97Q270.87 32.03 271.51 32.03L271.51 32.03Q273.34 32.03 274.85 31.48Q276.37 30.93 277.43 29.81Q278.49 28.69 279.08 27.01Q279.66 25.34 279.66 23.10L279.66 23.10Q279.66 21.26 279.25 19.78Q278.83 18.29 278.02 17.25Q277.20 16.21 275.95 15.64Q274.71 15.06 273.05 15.06L273.05 15.06Q271.36 15.06 270.36 15.23Q269.36 15.41 268.85 15.60L268.85 15.60ZM304.44 49.15L304.44 49.15Q301.73 49.15 299.37 48.29Q297.00 47.44 295.24 45.79Q293.48 44.14 292.47 41.71Q291.46 39.28 291.46 36.16L291.46 36.16Q291.46 33.40 292.38 31.04Q293.31 28.69 294.95 26.95Q296.58 25.22 298.77 24.24Q300.95 23.27 303.49 23.27L303.49 23.27Q306.01 23.27 308.15 24.13Q310.30 25 311.88 26.65Q313.45 28.30 314.37 30.73Q315.28 33.15 315.36 36.25L315.36 36.25Q312.60 36.21 309.84 36.18Q307.08 36.16 304.10 36.16L304.10 36.16Q301.98 36.16 299.96 36.18Q297.95 36.21 296.34 36.25L296.34 36.25Q296.48 38.79 297.13 40.84Q297.78 42.90 298.91 44.35Q300.05 45.80 301.67 46.58Q303.30 47.36 305.35 47.36L305.35 47.36Q306.76 47.36 308.02 47.03Q309.28 46.70 310.30 46.12Q311.33 45.53 312.13 44.74Q312.94 43.95 313.50 43.02L313.50 43.02L313.79 43.16L311.99 47.51Q310.67 48.19 308.84 48.67Q307.01 49.15 304.44 49.15ZM301.20 34.25L301.20 34.25Q303.64 34.25 306.09 34.24Q308.54 34.23 310.55 34.16L310.55 34.16Q310.33 32.03 309.72 30.35Q309.11 28.66 308.15 27.49Q307.20 26.32 305.91 25.68Q304.61 25.05 303.05 25.05L303.05 25.05Q301.64 25.05 300.45 25.67Q299.27 26.29 298.39 27.47Q297.51 28.64 296.97 30.33Q296.44 32.03 296.34 34.20L296.34 34.20Q297.44 34.25 298.66 34.25Q299.88 34.25 301.20 34.25ZM330.05 59.86L330.05 59.86Q332.03 59.86 333.40 59.44Q334.77 59.01 335.66 58.25Q336.55 57.50 337.02 56.43Q337.50 55.37 337.73 54.10Q337.96 52.83 338.00 51.39Q338.04 49.95 338.04 48.41L338.04 48.41L338.04 47.61Q336.84 48.24 335.16 48.69Q333.47 49.15 331.35 49.15L331.35 49.15Q328.44 49.15 326.07 48.24Q323.71 47.34 322.03 45.65Q320.36 43.97 319.46 41.56Q318.55 39.16 318.55 36.16L318.55 36.16Q318.55 33.40 319.45 31.03Q320.34 28.66 321.96 26.93Q323.58 25.20 325.84 24.21Q328.10 23.22 330.83 23.22L330.83 23.22Q332.01 23.22 332.98 23.41Q333.96 23.61 334.80 23.94Q335.64 24.27 336.39 24.69Q337.13 25.12 337.84 25.61L337.84 25.61L337.60 23.80L337.60 23.71L342.99 23.71L342.99 23.80Q342.85 24.32 342.71 25.07Q342.58 25.83 342.49 26.95Q342.41 28.08 342.35 29.63Q342.29 31.18 342.29 33.25L342.29 33.25L342.29 49.85Q342.29 52.10 341.69 54.24Q341.09 56.37 339.66 58.03Q338.23 59.69 335.89 60.69Q333.54 61.69 330.05 61.69L330.05 61.69Q328.83 61.69 327.59 61.46Q326.34 61.23 325.22 60.90Q324.10 60.57 323.19 60.18Q322.29 59.79 321.75 59.50L321.75 59.50L321.00 54.81L321.39 54.71Q321.97 55.98 322.99 56.95Q324.00 57.91 325.20 58.56Q326.39 59.20 327.67 59.53Q328.96 59.86 330.05 59.86ZM332.45 47.36L332.45 47.36Q334.20 47.36 335.63 46.78Q337.06 46.19 338.04 45.41L338.04 45.41L338.04 33.25Q338.04 31.88 338.01 30.77Q337.99 29.66 337.99 28.76L337.99 28.76Q337.40 27.86 336.63 27.16Q335.86 26.46 335.00 25.99Q334.13 25.51 333.23 25.26Q332.32 25 331.45 25L331.45 25Q329.59 25 328.10 25.68Q326.61 26.37 325.57 27.65Q324.54 28.93 323.99 30.77Q323.44 32.62 323.44 34.96L323.44 34.96Q323.44 37.60 324.02 39.87Q324.61 42.14 325.74 43.81Q326.88 45.48 328.56 46.42Q330.25 47.36 332.45 47.36ZM360.74 49.15L360.74 49.15Q358.03 49.15 355.66 48.29Q353.30 47.44 351.54 45.79Q349.78 44.14 348.77 41.71Q347.75 39.28 347.75 36.16L347.75 36.16Q347.75 33.40 348.68 31.04Q349.61 28.69 351.25 26.95Q352.88 25.22 355.07 24.24Q357.25 23.27 359.79 23.27L359.79 23.27Q362.30 23.27 364.45 24.13Q366.60 25 368.18 26.65Q369.75 28.30 370.67 30.73Q371.58 33.15 371.66 36.25L371.66 36.25Q368.90 36.21 366.14 36.18Q363.38 36.16 360.40 36.16L360.40 36.16Q358.28 36.16 356.26 36.18Q354.25 36.21 352.64 36.25L352.64 36.25Q352.78 38.79 353.43 40.84Q354.08 42.90 355.21 44.35Q356.35 45.80 357.97 46.58Q359.59 47.36 361.65 47.36L361.65 47.36Q363.06 47.36 364.32 47.03Q365.58 46.70 366.60 46.12Q367.63 45.53 368.43 44.74Q369.24 43.95 369.80 43.02L369.80 43.02L370.09 43.16L368.29 47.51Q366.97 48.19 365.14 48.67Q363.31 49.15 360.74 49.15ZM357.50 34.25L357.50 34.25Q359.94 34.25 362.39 34.24Q364.84 34.23 366.85 34.16L366.85 34.16Q366.63 32.03 366.02 30.35Q365.41 28.66 364.45 27.49Q363.50 26.32 362.21 25.68Q360.91 25.05 359.35 25.05L359.35 25.05Q357.93 25.05 356.75 25.67Q355.57 26.29 354.69 27.47Q353.81 28.64 353.27 30.33Q352.73 32.03 352.64 34.20L352.64 34.20Q353.74 34.25 354.96 34.25Q356.18 34.25 357.50 34.25ZM390.65 45.26L385.40 38.21L379.54 45.61Q379.22 46.02 378.89 46.46Q378.56 46.90 378.31 47.31Q378.05 47.73 377.89 48.10Q377.73 48.46 377.73 48.71L377.73 48.71L373.63 48.71L373.63 48.61Q374.02 48.27 374.72 47.58Q375.42 46.90 376.20 45.90L376.20 45.90L383.89 36.16L376.34 25.95Q375.71 25.12 375.10 24.54Q374.49 23.95 374.19 23.80L374.19 23.80L374.19 23.71L380.88 23.71Q380.88 24.12 381.19 25.01Q381.49 25.90 382.40 27.15L382.40 27.15L386.55 32.81L391.28 26.81Q391.58 26.42 391.88 25.98Q392.19 25.54 392.42 25.11Q392.65 24.68 392.80 24.32Q392.94 23.95 392.94 23.71L392.94 23.71L397.05 23.71L397.05 23.80Q396.70 24.07 396.19 24.58Q395.68 25.10 394.85 26.15L394.85 26.15L388.04 34.81L396.24 45.90Q397.07 47.00 397.78 47.71Q398.49 48.41 398.80 48.61L398.80 48.61L398.80 48.71L392.14 48.71Q392.14 48.29 391.82 47.38Q391.50 46.46 390.65 45.26L390.65 45.26Z" transform="translate(0, 0)"></path></g></svg></svg>