<?xml version="1.0" encoding="utf-8"?>
<!-- Generator: Adobe Illustrator 28.1.0, SVG Export Plug-In . SVG Version: 6.00 Build 0)  -->
<svg version="1.1" id="Awesome_Regex" xmlns="http://www.w3.org/2000/svg" xmlns:xlink="http://www.w3.org/1999/xlink" x="0px"
	 y="0px" viewBox="0 0 105.3 95.1" style="enable-background:new 0 0 105.3 95.1;" xml:space="preserve">
<style type="text/css">
	.st0{fill:#141612;}
	.st1{fill:#F2F2F2;}
	.st2{fill:url(#svg_10_00000111874772271821029390000015089743250007421827_);}
	.st3{fill:url(#svg_11_00000142152591853781318780000012399379719109087630_);}
	.st4{fill:url(#svg_17_00000176024818040615021010000018388800210490283679_);}
	.st5{fill:url(#svg_18_00000148662473919492939440000002046127317853296260_);}
	.st6{fill:#C9F0B4;}
	.st7{fill:url(#svg_20_00000154420916237604805420000015945163849669421755_);}
	.st8{fill:url(#svg_21_00000163046392778653008930000006184743779887110036_);}
	.st9{fill:#FFFFFF;}
	.st10{fill:url(#svg_30_00000081630425563929113020000001279280777967852729_);}
	.st11{fill:#BEEF9E;}
	.st12{fill:url(#SVGID_1_);}
	.st13{fill:url(#SVGID_00000096026201644624194700000011289362150167813560_);}
</style>
<g>
	<path id="svg_6_00000017516935628809647480000006098258233722123954_" class="st0" d="M8.4,25.8l0.3,25.3c0,0,0.1,14.1,7.4,19.9
		c0,0,7.2,16,33.9,24l3-2L49.6,0L31.9,11.7c0,0-2.8,1-4.4-1.5s-3.6-6.7-3.6-6.7s-3,4.8-1.2,9c0,0,0.3,1.8,0.2,2.3
		C21.1,25.1,8.4,25.8,8.4,25.8z"/>
	<path id="svg_7_00000117676314169768068500000012724671500016810116_" class="st0" d="M91.2,25.5l-0.3,25.3c0,0-0.1,14.1-7.4,19.9
		c0,0-7.2,16.7-33.5,24.4l-3.4-2.4l2.8-92.6l18.2,11.2c0,0,2.8,1,4.4-1.5S75.7,3,75.7,3s3,4.8,1.2,9c0,0,0,3,0,3.5
		C78.7,25.9,91.2,25.5,91.2,25.5L91.2,25.5z"/>
	<polygon id="svg_8_00000081610607062464606590000000229726970045923475_" class="st1" points="37.3,77.5 49.9,86.2 64.2,75.5 	"/>
	
		<linearGradient id="svg_10_00000137129740514705436660000001894930897697170589_" gradientUnits="userSpaceOnUse" x1="11.2634" y1="55.5836" x2="88.4441" y2="55.5836">
		<stop  offset="0" style="stop-color:#BEEF9E"/>
		<stop  offset="1" style="stop-color:#CFE07A"/>
	</linearGradient>
	
		<path id="svg_10_00000029010028119469889970000012053032405114258837_" style="fill:url(#svg_10_00000137129740514705436660000001894930897697170589_);" d="
		M86.8,28.8c-2-0.1-3.9-0.6-5.7-1.5c-2.2-1.1-4-2.5-5.2-4.5c-0.6-1.1-0.9-2.3-0.3-3.5c0-0.1,0.1-0.2,0.2-0.2c0.4,0.8,0.6,1.7,1,2.4
		c1.7,3.3,4.6,5,8.4,5.7c0.8,0.1,1.6,0.2,2.4,0.2c0.5,0,0.8,0.2,0.8,0.7c0,0.9,0,1.9,0,2.8c0,5.9,0.1,11.7,0,17.6
		c-0.2,9.6-3.3,18.2-9.9,25.8c-5.4,6.2-12,10.8-19.6,14.4c-2.7,1.2-5.5,2.2-8.2,3.3c-0.5,0.2-1.1,0.2-1.6,0
		c-10.9-3.8-20.5-9.3-28-17.6C16.2,69,13.2,62.9,12,56c-0.5-2.8-0.8-5.7-0.7-8.6c0-6.3,0-12.7,0-19c0-1,0.1-1,1.1-1.1
		c4.5-0.3,8.1-2,10.3-5.8c0.5-0.8,0.7-1.7,1.1-2.6c0.5,1,0.6,1.9,0.3,2.9c-0.7,1.8-2,3.2-3.7,4.3c-2.2,1.5-4.7,2.4-7.3,2.6
		c-0.1,0-0.2,0-0.2,0.1v0.5c0,6.1,0,12.2,0,18.3c0,5.1,0.9,10.2,2.8,15c2.2,5.6,5.8,10.3,10.3,14.4c6.7,6.1,14.6,10.4,23.4,13.4
		c0.4,0.1,0.8,0.1,1.2,0c4.6-1.4,8.8-3.5,12.9-5.8c5.4-3.1,10.1-6.9,14.1-11.4c4.9-5.6,7.8-11.9,8.9-19c0.4-2.5,0.6-5,0.6-7.5
		c0-5.8,0-11.6,0-17.4L86.8,28.8L86.8,28.8z"/>
	
		<linearGradient id="svg_11_00000031905181767688886080000012984917149964990102_" gradientUnits="userSpaceOnUse" x1="24.7605" y1="26.2783" x2="74.9168" y2="26.2783">
		<stop  offset="0" style="stop-color:#FFFFFF"/>
		<stop  offset="1" style="stop-color:#C0C3C4"/>
	</linearGradient>
	
		<path id="svg_11_00000114769313467139941950000003360809399522893986_" style="fill:url(#svg_11_00000031905181767688886080000012984917149964990102_);" d="
		M74.9,14.2c-0.8,2.1-2.1,3.6-3.9,4.6c-1.9,1.1-4,2-6,2.9c-2.6,1.2-5.3,2.2-7.7,4c-2.2,1.6-4,3.7-5.1,6.3c0,0.1-0.1,0.2-0.1,0.3
		c0,0.1,0,0.2,0,0.2c0.2-0.2,0.3-0.3,0.5-0.5c2.9-4.1,6.9-6.9,11.6-8.8c2.4-0.9,4.8-2,7.3-3c-0.8,0.5-1.5,1-2.3,1.5
		c-1.5,0.8-3.1,1.7-4.6,2.4c-4.5,2.2-8.1,5.3-11.1,9.3c-1.2,1.6-2.4,3.2-3.6,4.9c-0.7-0.9-1.3-1.9-2-2.8c-2.1-3-4.4-5.8-7.3-8.1
		c-2.4-1.8-5-3.1-7.7-4.5c-1.5-0.8-2.9-1.6-4.3-2.4l0.1-0.1c0.1,0,0.1,0,0.2,0c3.2,1.4,6.4,2.8,9.6,4.2c3.4,1.5,6.1,4,8.4,6.9
		c0.2,0.3,0.4,0.5,0.6,0.8c0,0,0.1,0,0.2,0c-0.6-1-1.1-2-1.7-2.9c-1.8-2.8-4.5-4.6-7.5-6c-2.5-1.1-5-2.1-7.4-3.3
		c-2-0.9-3.8-2-5.1-3.8c-0.4-0.5-0.6-1.1-1-1.7l0.1-0.1c0.3,0.3,0.7,0.6,1,0.9c2.4,2,5.3,3.2,8.2,4.3c1.9,0.7,3.7,1.4,5.5,2.2
		c3.8,1.7,6.6,4.5,8.8,8c0.4,0.6,0.7,1.1,1.2,1.8c0.5-0.8,1-1.4,1.5-2.1c2.6-4,6.2-6.8,10.7-8.6c2.4-1,4.9-1.9,7.3-2.9
		c2.1-0.8,3.9-2.1,5.5-3.6C74.7,14.4,74.7,14.4,74.9,14.2z"/>
	<path id="svg_12_00000016033946166779131320000014224100865915410348_" class="st1" d="M49.6,29.8c-2.1-3.4-4.6-6.3-8.2-8.1
		c-2-1-4-1.8-6.1-2.6c-2.7-1-5.3-2-7.7-3.7c-1.6-1.1-2.8-2.5-3.3-4.5c-0.3-1.3-0.2-2.6,0.1-3.9c0.8,4.2,3.3,6.7,6.8,8.5
		c2.5,1.3,5.2,2,7.8,3c1.3,0.5,2.5,0.7,3.8,0.1c1.7-0.7,1.8-0.6,3.2,0.7c1.2,1.1,2.2,2.3,3.3,3.4c0.2,0.2,0.3,0.4,0.4,0.5
		c0.6-0.7,1.1-1.4,1.7-2c1-1,2-1.9,3.1-2.8c0.2-0.2,0.5-0.2,0.7-0.2c0.8,0.2,1.6,0.4,2.4,0.7c0.4,0.2,0.9,0.2,1.4,0
		c2.3-0.9,4.7-1.6,7-2.6c1.6-0.7,3.2-1.6,4.6-2.6c2.1-1.4,3.3-3.4,4-5.8c0.1-0.2,0.2-0.5,0.3-0.7c0.4,2.5,0.2,4.9-1.7,6.9
		c-1.3,1.4-2.9,2.4-4.6,3.1c-2.1,0.9-4.2,1.8-6.4,2.6c-5.2,1.9-9.4,5.1-12.4,9.7c-0.1,0.1-0.1,0.2-0.2,0.2
		C49.7,29.8,49.7,29.8,49.6,29.8L49.6,29.8z"/>
	<path id="svg_13_00000019643742624762082600000000395773420551516301_" class="st1" d="M53.7,38.5c0.6-0.6,1.2-1.2,1.8-1.9
		c1,2.2,2.6,3.8,5.1,4.1c1.7,0.2,3.3-0.3,4.5-1.5c1.7-1.6,2.4-3.5,2.1-5.8c-0.3-2.3-1.7-3.8-3.8-4.9c1.3-0.5,2.5-1,3.8-1.4
		c0.1,0,0.4,0.1,0.6,0.3c1.1,1.3,1.7,2.9,2.1,4.5c0.8,3.8,0.2,7.3-2.7,10c-2.9,2.7-6.4,3.4-10.2,2.3c-1-0.3-1.6-0.6-1.6-1.8
		C55.2,41,54.5,39.7,53.7,38.5z"/>
	<path id="svg_14_00000119088317091280421250000016257238995291892363_" class="st1" d="M36.1,28.4c-3.1,1.7-4.3,4.1-3.6,7.5
		c0.5,2.5,2.7,4.5,5.1,4.8c2.6,0.4,4.5-0.8,6.4-4l1.8,1.9c-1,1.4-1.4,3.1-1.5,4.8c0,0.2-0.1,0.3-0.3,0.4c-3,1.1-6,1.5-9-0.1
		c-3.4-1.8-5.1-4.6-5.5-8.4c-0.3-2.9,0.5-5.6,2.2-8c0.3-0.4,0.5-0.5,1-0.3C33.7,27.6,34.8,28,36.1,28.4z"/>
	
		<linearGradient id="svg_17_00000101075179687546703030000010677318799012416133_" gradientUnits="userSpaceOnUse" x1="22.3917" y1="65.3271" x2="32.7089" y2="65.3271">
		<stop  offset="0" style="stop-color:#D7D7D7"/>
		<stop  offset="1" style="stop-color:#FFFFFF"/>
	</linearGradient>
	
		<path id="svg_17_00000054228817850761445840000018437938114190357398_" style="fill:url(#svg_17_00000101075179687546703030000010677318799012416133_);" d="
		M27.1,63.8c-0.2,2.2-0.4,4.3-0.7,6.5l-0.2,0c-1.3-2-1.7-4.4-1.7-6.8h-0.2c-0.1,0.6-0.3,1.2-0.4,1.8c-0.1,0.7-0.2,1.3-0.2,2
		s-0.1,1.3-0.2,2l-0.2,0.1c-0.3-0.9-0.6-1.8-0.7-2.7c-0.2-1.6-0.2-3.2-0.3-4.8c0-0.2,0-0.3,0.1-0.4c0.4-0.4,0.9-0.8,1.3-1.2
		c0.2,0.7,0.5,1.5,0.8,2.3l0.2,0l1.7-2.2l1.2,2.4h0.3l1.7-2.4l1.3,2.2l1.5-1.7l0.2,0c-0.5,3.1-0.4,6.3,0.1,9.3
		c-1.6-1.8-2.4-3.9-3-6.2c-0.1,2.1,0.1,4.2-0.5,6.3c-1.4-2-1.8-4.3-2-6.6L27.1,63.8z"/>
	
		<linearGradient id="svg_18_00000048468267588229087000000005652427599947569336_" gradientUnits="userSpaceOnUse" x1="66.3892" y1="64.3195" x2="76.8181" y2="64.3195">
		<stop  offset="0" style="stop-color:#FFFFFF"/>
		<stop  offset="1" style="stop-color:#D7D7D7"/>
	</linearGradient>
	
		<path id="svg_18_00000035493981478651720150000004382031805374551185_" style="fill:url(#svg_18_00000048468267588229087000000005652427599947569336_);" d="
		M72.6,59.4l1.7,2.3c0.7-0.7,0.8-1.6,0.9-2.5c0.8,0.7,1.6,1.2,1.5,2.5c-0.1,2-0.2,4.1-0.9,6c-0.1,0.2-0.2,0.4-0.3,0.8
		c-0.2-2-0.2-3.9-0.8-5.7c-0.2,2.4-0.5,4.6-2,6.7c-0.2-2.1-0.4-4.3-0.7-6.4l-0.2,0c-0.2,2.3-0.7,4.5-2,6.5c-0.6-2.1-0.5-4.2-0.5-6.3
		c-0.5,2.3-1.5,4.5-3,6.3c0.5-3.1,0.8-6.2,0.2-9.3l0.2-0.1l1.4,1.7l1.4-2.3l1.7,2.4C72.1,61.2,72.3,60.3,72.6,59.4z"/>
	<path id="svg_19_00000136401801633016218030000009162538013016444047_" class="st6" d="M66.9,14c-0.1,0.1-0.2,0.1-0.3,0.2
		c-0.7,0.8-1.4,0.5-2.1,0c-4.8-2.8-9.5-5.6-14.3-8.5c-0.4-0.2-0.6-0.2-0.9,0c-4.7,2.8-9.5,5.7-14.2,8.5C33.8,15,33.8,15,32.6,14
		c1.2-0.7,2.3-1.4,3.4-2.1c4.1-2.5,8.2-4.9,12.3-7.4c1-0.6,1.7-0.6,2.7,0c4.9,3,9.8,5.9,14.7,8.8C66.2,13.5,66.5,13.8,66.9,14z"/>
	
		<linearGradient id="svg_20_00000134246350023077036100000014636360185587724478_" gradientUnits="userSpaceOnUse" x1="25.5733" y1="36.855" x2="44.4374" y2="36.855">
		<stop  offset="0" style="stop-color:#C0C3C4"/>
		<stop  offset="1" style="stop-color:#FFFFFF"/>
	</linearGradient>
	
		<path id="svg_20_00000015339968307629616130000005352834545961112507_" style="fill:url(#svg_20_00000134246350023077036100000014636360185587724478_);" d="
		M28.8,24.7c0.3,0.2,0.5,0.3,0.8,0.4c0.1,0.1,0.2,0.2,0.4,0.3c-0.1,0.3-0.3,0.5-0.4,0.7c-2.7,4.3-3.3,8.8-1.5,13.5
		c1.5,4.1,5.8,8.1,12,7.6c1.1-0.1,2.3-0.5,3.4-0.8c0.3-0.1,0.6-0.2,1-0.3c-0.1,0.7-0.2,1.3-0.4,1.8c-0.1,0.1-0.2,0.2-0.3,0.2
		c-4.6,1.2-9,0.9-12.8-2.2c-3.3-2.6-5.1-6.1-5.3-10.3c-0.3-3.8,0.6-7.3,2.7-10.5C28.5,25.2,28.7,25,28.8,24.7z"/>
	
		<linearGradient id="svg_21_00000013180681772459089460000017942025044931486596_" gradientUnits="userSpaceOnUse" x1="55.3122" y1="36.9288" x2="73.9665" y2="36.9288">
		<stop  offset="0" style="stop-color:#FFFFFF"/>
		<stop  offset="1" style="stop-color:#C0C3C4"/>
	</linearGradient>
	
		<path id="svg_21_00000080919127401492226750000010759109296767063206_" style="fill:url(#svg_21_00000013180681772459089460000017942025044931486596_);" d="
		M69.5,25.5c1.2-0.8,1.3-0.8,2,0.4c2.1,3.2,2.7,6.8,2.3,10.6c-0.3,3.2-1.5,6-3.8,8.3c-3.6,3.6-7.9,4.9-12.8,4c-0.1,0-0.1,0-0.2,0
		c-1.5-0.3-1.8-0.7-1.7-2.3c0.2,0.1,0.5,0.1,0.7,0.2c6.5,2.7,14.8-1.4,16.2-9.3c0.7-4,0-7.8-2.3-11.2c-0.1-0.1-0.2-0.3-0.3-0.4
		C69.6,25.6,69.6,25.6,69.5,25.5L69.5,25.5z"/>
	<path id="svg_22_00000150797873266346595990000012954519462693872549_" class="st1" d="M47.1,39.8l2.5,2.3l2.6-2.3
		c1.3,2.5-0.4,7.2-2.6,10C47.4,46.3,46.1,42.5,47.1,39.8z"/>
	<path id="svg_23_00000028285300599219942990000006751464609566235036_" class="st9" d="M68.7,74.4l0.9,1.9l1.6-1.7
		c0.1,0.3,0.2,0.6,0.4,0.8c0.2,0.1,0.6,0,0.9,0c-1.5,2.2-3.5,3.7-5.7,5l-0.1-0.1l1.9-3.1c-1.3,1.2-2.8,2.4-4.4,3.1
		c-0.1,0.1-0.3,0.1-0.4,0.2l2.7-5c0.1,0.2,0.2,0.3,0.4,0.6C66.7,76,68.7,74.4,68.7,74.4z"/>
	<path id="svg_24_00000046317068673517610430000011538845699941204904_" class="st1" d="M27,75.2c0.8,0.4,1.3,0.2,1.3-0.8l1.7,1.8
		c0.3-0.7,0.6-1.3,0.9-1.9l1.9,1.7l0.4-0.6l2.7,4.9c-1.9-0.7-3.4-1.9-4.9-3.2l1.9,3.1C31.5,80,27.7,76.8,27,75.2z"/>
	<path id="svg_25_00000095327646708137119040000013123083564914809757_" class="st1" d="M57.8,35.3c1.9,2.6,3.6,3.1,5.4,1.7
		c2-1.6,1.8-3.7-0.4-6.3c1.2-0.3,1.4-0.2,2.1,0.8c1,1.5,1.1,3.2,0.3,4.9c-0.7,1.7-2,2.5-3.8,2.7c-1.6,0.2-3.4-0.9-4-2.4
		c-0.1-0.4,0.1-0.9,0.2-1.3L57.8,35.3L57.8,35.3z"/>
	<path id="svg_26_00000139282288707796705590000007551416266572691373_" class="st9" d="M36.4,30.7c-0.5,0.9-1,1.7-1.3,2.6
		c-0.5,1.7,0.5,3.5,2.1,4.2c1.5,0.6,3.1,0,4.1-1.5c0.1-0.2,0.2-0.3,0.3-0.5c0.7,0.6,0.7,0.8,0.3,1.5c-0.9,1.4-2.1,2.1-3.8,2
		c-1.8-0.1-3.1-1.1-3.9-2.7c-0.8-1.7-0.5-3.4,0.5-5C35.3,30.5,35.5,30.5,36.4,30.7z"/>
	<path id="svg_27_00000080183656604436456140000011272925223720639398_" class="st1" d="M49.8,20.7c-1.1-1.3-1.7-1.2-3-2.8
		c1.7-0.8,4.5-0.7,6.1,0C51.5,19.4,51.1,19.2,49.8,20.7z"/>
	<path id="svg_28_00000008839815659737322190000009879929459112391330_" class="st9" d="M59.5,32.4c0-0.7,0.6-1.3,1.3-1.3
		c0.7,0,1.3,0.6,1.3,1.3c0,0.7-0.6,1.3-1.3,1.3C60,33.7,59.4,33.1,59.5,32.4z"/>
	<path id="svg_29_00000040559737597971031210000017093942857212129961_" class="st9" d="M39.9,32.3c0,0.8-0.6,1.4-1.3,1.4
		c-0.7,0-1.2-0.6-1.2-1.3c-0.1-0.7,0.4-1.3,1.1-1.4c0.7-0.1,1.3,0.4,1.4,1.1C39.9,32.2,39.9,32.3,39.9,32.3z"/>
	
		<linearGradient id="svg_30_00000142162222397319119380000009969401198549144502_" gradientUnits="userSpaceOnUse" x1="68.9818" y1="73.1512" x2="104.2657" y2="73.1512">
		<stop  offset="0" style="stop-color:#BEEF9E"/>
		<stop  offset="1" style="stop-color:#CFE07A"/>
	</linearGradient>
	
		<path id="svg_30_00000095308659813955447450000015165660432223544253_" style="fill:url(#svg_30_00000142162222397319119380000009969401198549144502_);" d="
		M86.2,90.3c-0.9,0-1.9-0.1-2.8-0.3c-5-1.2-8.6-4.2-10.7-8.9c-0.2-0.5-0.4-1.1-0.4-1.6c-0.5,0.4-1.1,0.7-1.8,0.6c-0.2,0-0.3,0-0.5,0
		L69,80l0.2-1c0.1-0.3,0.1-0.7,0.2-1c0.1-0.6,0.2-1.3,0.3-1.9c0-2.2-0.1-4.4-0.1-6.5l0-0.5c0-0.2-0.1-0.5-0.1-0.7
		c-0.1-0.2-0.1-0.4-0.1-0.7c-0.1-0.6,0.1-1.2,0.4-1.6c0.4-0.4,0.9-0.7,1.5-0.7c0.3,0,0.6,0.1,0.9,0.2c0.1,0.1,0.3,0.1,0.4,0.2
		c1.1-3.8,3.7-6.6,7.8-8.5c1.7-0.8,3.7-1.3,5.6-1.3c1.6,0,3.2,0.3,4.7,0.9c3.1,1.1,5.7,3.3,7.3,6.3c1,1.9,1.6,4.1,1.5,6
		c0.2,0,0.5,0,0.7,0c1.5,0,2.7,0.7,3.6,2c1.1,1.8,1,4-0.3,5.5c-0.9,1-2.2,1.6-3.5,1.6c-0.2,0-0.5,0-0.7,0c0,0.1,0,0.2-0.1,0.3
		c-0.2,1-0.4,2-0.7,3C96.8,86.7,91.8,90.3,86.2,90.3L86.2,90.3z M88.1,77.5c1.3,1.1,1.8,2.6,1.3,4.6c-0.1,0.7-0.5,1.4-1,1.9
		c1.2-0.4,2.3-1.3,3.4-2.7c0.8-1.1,1.1-2.6,0.7-3.8c-0.3-1-1.1-1.6-2.4-2c-0.2,0-0.3-0.1-0.5-0.1c0.1,0.5-0.1,1-0.4,1.4
		C88.9,77.2,88.5,77.4,88.1,77.5L88.1,77.5z M77.6,74.3c-0.2,0-0.3,0.1-0.5,0.3c-0.9,1.1-0.8,2.3-0.5,3.1c0.6,2,2.3,3.2,4,4.3
		c0.1,0.1,0.2,0.1,0.2,0.2c-0.3-0.5-0.5-1-0.6-1.5c-0.2-1.3,0.6-2.6,2.1-3.2c0.2-0.1,0.4-0.2,0.6-0.3c0-0.2,0-0.5-0.1-0.7
		c-0.1-0.5-0.4-1.2-1.1-1.4C80.3,74.7,78.9,74.4,77.6,74.3L77.6,74.3z M94.5,73.4c0.3,0.3,0.6,0.6,0.8,0.9c0-0.4,0-0.7,0-1.1
		c0-0.2,0-0.5,0-0.7C95,72.9,94.8,73.2,94.5,73.4L94.5,73.4z M99.1,73.6c0.1,0.2,0.2,0.3,0.4,0.4c0.2-0.1,0.3-0.3,0.3-0.4
		c0-0.1,0-0.1-0.1-0.1c-0.1-0.1-0.2-0.1-0.3-0.1h0C99.2,73.4,99.1,73.5,99.1,73.6L99.1,73.6z M88.4,69.1c0.1,0.1,0.3,0.2,0.4,0.3
		c0.7,0.6,0.9,1.2,0.9,1.7c0.2,0,0.3,0,0.5-0.1c0.8-0.1,1.6-0.5,2.1-1.2c0.5-0.6,0.7-1.4,0.5-2.2c-0.3-2-1.9-4.1-4.1-5
		c0.6,0.7,1,1.6,1.1,2.6C90.1,66.6,89.5,68.1,88.4,69.1C88.4,69.1,88.4,69.1,88.4,69.1z M82,68.4c0.4,0.3,0.6,0.8,0.6,1.3
		c0,0.1,0,0.1,0,0.2c0.1-0.1,0.2-0.1,0.2-0.2c0.1-0.2,0.2-0.4,0.2-0.7C82.7,68.8,82.4,68.6,82,68.4L82,68.4z M80.8,67.9
		c0.3,0,0.6,0.1,0.9,0.2c-0.9-0.8-1.4-1.8-1.1-2.9c0.1-0.6,0.4-1.1,0.8-1.5c-1.3,0.6-2.4,1.4-3.3,2.4c0.1,0,0.2,0,0.3,0h0
		c0.8,0,1.5,0.5,2,0.9l0.1,0.1C80.6,67.2,80.8,67.6,80.8,67.9C80.8,67.9,80.8,67.9,80.8,67.9z"/>
	<path id="svg_31_00000062879291857029560770000014261322488827304611_" class="st0" d="M85.8,57c1.5,0,2.9,0.3,4.3,0.8
		c6.5,2.4,8.8,8.8,7.9,12.7c0.6-0.2,1.3-0.3,1.9-0.3c1.1,0,2,0.4,2.7,1.6c0.9,1.5,0.8,3.2-0.2,4.3c-0.7,0.8-1.7,1.2-2.7,1.2
		c-0.5,0-1-0.1-1.5-0.3c-0.3,1.4-0.5,2.9-0.9,4.3c-1.5,4.9-6.1,8.1-11.1,8.1c-0.9,0-1.7-0.1-2.6-0.3c-4.7-1.1-8.1-3.9-10-8.3
		c-0.4-1-0.3-2.2-0.5-3.4c0-0.2,0-0.4,0-0.7c-1,0.8-1,2.5-2.6,2.5c-0.1,0-0.2,0-0.3,0c0.2-1,0.4-2,0.5-3.1c0-2.4-0.1-4.7-0.1-7.1
		c0-0.5-0.2-1-0.3-1.5c-0.1-0.5,0.2-1,0.7-1.1c0.1,0,0.1,0,0.2,0c0.2,0,0.3,0,0.5,0.1c0.5,0.3,1,0.7,1.5,1.1
		c0.8-4.5,3.6-7.5,7.6-9.4C82.2,57.4,84,57,85.8,57 M86.6,69.1l-0.3-0.9L86,68.5l-0.5,2.4c0.7-0.4,1.2-1.1,1.9-1.1
		c0.3,0,0.6,0.1,0.8,0.4c0.7,0.6,0.7,1.3-0.1,2h0c0.7,0,1.5,0,2.2-0.1c2.3-0.3,3.9-2.3,3.5-4.5c-0.5-3.2-3.6-6.4-7.3-6.4
		c-0.2,0-0.5,0-0.7,0c-0.3,0.1-0.6,0.1-0.9,0.2c2,0.8,3.7,1.6,4,3.9C89,67,88.2,68.3,86.6,69.1 M78.1,71.6c0.2,0,0.5,0,0.7-0.1
		c-0.5-0.3-0.9-0.4-1.2-0.6c-0.8-0.6-1-1.4-0.8-2.3c0.2-0.8,0.7-1.5,1.6-1.5h0c0.5,0,1,0.4,1.4,0.8c0.1,0.1-0.1,0.5-0.1,0.6
		c-0.4,0-0.7-0.1-1-0.1c-0.1,0-0.2,0-0.3,0.1c-0.2,0.2-0.2,0.8-0.1,1c0.2,0.3,0.7,0.3,1.1,0.4h0c0.1,0,0.2-0.2,0.4-0.3l-0.5-0.4
		c0.4-0.1,0.8-0.3,1.2-0.3c0.1,0,0.2,0,0.3,0c0.2,0,0.4,0,0.5,0.1c0.6,0.6,0.5,1.1-0.5,2.2c0.1,0,0.3,0,0.4,0c2.6,0,3.4-1.6,2.9-3.1
		c-1.6-0.4-2.7-1.6-2.4-2.7c0.2-1,1.3-1.8,2.3-1.8c0.1,0,0.3,0,0.4,0.1c0.5,0.1,1.1,0.4,1.3,0.8c0.4,0.7,0.4,1.6,0.6,2.5
		c0.9-0.1,1.3-2.3,0.7-3.2c-0.8-1-2.1-1.6-3.4-1.7c-0.3,0-0.7,0-1,0.1c-2.5,0.6-4.4,2.1-6,4.1c-1.2,1.4-1.1,3.2,0.1,4.6
		C77,71.3,77.4,71.6,78.1,71.6 M84.2,67.1c0.3-0.5,0.6-0.7,0.6-0.9c0.1-0.6-0.3-1.1-0.9-1.1l0,0c-0.2,0-0.7,0.4-0.7,0.5
		C83.5,66.1,83.8,66.6,84.2,67.1 M95.4,77.5c0.8-0.6,1-1.1,0.9-1.9c-0.1-1.4,0-2.8-0.1-4.2c0-0.6-0.2-1.2-0.3-1.7h-0.3
		c-0.8,1.5-1.2,3.2-3.2,3.7C94.3,74.1,95,75.6,95.4,77.5 M84.6,72.2l-1.8,0.6l1.7,1.3C84.5,73.4,84.6,72.9,84.6,72.2 M99.6,75.1
		c0.5,0,1.3-0.8,1.3-1.4c0-0.7-0.6-1.3-1.3-1.4c0,0,0,0,0,0h-0.1c-0.8,0-1.4,0.5-1.4,1.2C98,74.2,98.8,75.1,99.6,75.1L99.6,75.1
		 M83.5,84c0.2,0,0.5,0,0.7,0c1.2-0.2,2.2-1.1,2.5-2.3c0.2-0.8-0.5-2-1.3-2.4c0.1,0.6,0.4,1.2,0.2,1.8c-0.2,1-1.1,1.6-2,1.6
		c-0.1,0-0.1,0-0.2,0c-1.1-0.1-2-1-2.2-2.2c-0.1-0.8,0.4-1.7,1.5-2.1c1.2-0.5,1.4-0.9,1.1-2.2c-0.3-1-0.9-1.9-1.9-2.1
		c-1.4-0.4-2.8-0.6-4.2-0.7h-0.1c-0.5,0-0.9,0.2-1.3,0.6c-1.1,1.2-1.2,2.7-0.7,4.1c0.7,2.3,2.5,3.6,4.4,4.9
		C81.1,83.6,82.3,84,83.5,84 M87.6,76.5c-0.5,0-1-0.2-1.4-0.6c-0.2-0.2-0.4-0.4-0.8-0.7l0.4,2.6l0.3-0.2c0.4,0.2,1,0.2,1.3,0.5
		c1.2,0.9,1.3,2.3,1.1,3.7c-0.3,1.4-1.4,2-2.6,2.6c-0.4,0.2-0.8,0.3-1.2,0.4c0,0.1,0,0.2,0,0.3c0.7,0.1,1.4,0.2,2.1,0.2h0.1
		c2.5,0,4.3-1.4,5.7-3.4c1.6-2.2,1.8-6.2-2.2-7.4c-0.9-0.2-1.8-0.3-2.7-0.5c0.9,0.9,1.2,1.5,0.7,2C88.2,76.4,87.9,76.5,87.6,76.5
		 M83.6,81.4c0.3,0,0.8-0.5,0.8-0.8c0-0.4-0.4-0.8-0.8-1.4c-0.5,0.5-0.9,0.8-1,1.1C82.5,81,83,81.4,83.6,81.4L83.6,81.4 M85.8,54.9
		c-2.1,0-4.2,0.5-6,1.4c-2.3,1.1-4.3,2.5-5.7,4.3c-1,1.1-1.7,2.4-2.3,3.8c-0.2-0.1-0.5-0.1-0.7-0.1c-0.9,0-1.7,0.4-2.3,1
		c-0.6,0.7-0.8,1.6-0.7,2.5c0,0.3,0.1,0.5,0.2,0.7c0,0.2,0.1,0.3,0.1,0.5l0,0.5c0.1,2.1,0.1,4.3,0.1,6.5c0,0.6-0.1,1.2-0.2,1.7
		c-0.1,0.3-0.1,0.7-0.2,1l-0.3,2.1l2.1,0.3c0.2,0,0.4,0,0.6,0c0.3,0,0.7,0,1-0.1c0.1,0.2,0.1,0.3,0.2,0.5c2.3,5,6.1,8.2,11.5,9.5
		c1,0.2,2,0.3,3,0.3c6,0,11.4-3.9,13.1-9.6c0.2-0.8,0.4-1.7,0.6-2.5c1.6,0,3.1-0.7,4.1-1.9c1.6-1.9,1.7-4.5,0.4-6.7
		c-1-1.6-2.4-2.5-4.2-2.5c-0.1-1.9-0.7-3.8-1.6-5.5c-1.2-2.2-3.5-5.1-7.9-6.7C89.2,55.2,87.5,54.9,85.8,54.9
		C85.8,54.9,85.8,54.9,85.8,54.9z M89.9,69c0.7-1,1.1-2.2,1-3.3c0.5,0.6,0.8,1.4,0.9,2.2c0.1,0.5,0,1-0.4,1.4
		c-0.3,0.3-0.6,0.6-1,0.7C90.3,69.5,90.1,69.2,89.9,69C89.9,68.9,89.9,69,89.9,69z M79.2,79.7c-0.8-0.7-1.3-1.4-1.6-2.3
		c-0.4-1.1,0-1.7,0.2-2c1.2,0.1,2.4,0.3,3.6,0.6c0.2,0.1,0.3,0.4,0.4,0.5C80.3,77.2,79.3,78.4,79.2,79.7L79.2,79.7z M89.7,77.8
		c0.1-0.1,0.2-0.2,0.3-0.3c0.2-0.2,0.3-0.4,0.4-0.7c0.8,0.4,1,0.9,1.1,1.1c0.3,0.8,0,2-0.6,2.8c-0.1,0.2-0.2,0.3-0.3,0.5
		C90.7,79.7,90.3,78.6,89.7,77.8L89.7,77.8L89.7,77.8z"/>
	<path id="svg_32_00000152259159934022000910000000715608522367726741_" class="st11" d="M68.8,80.1c-0.5,0-0.9-0.3-1.1-0.7
		c-0.1-0.2-0.1-0.3-0.2-0.4c-0.2-0.3-0.3-0.7-0.4-1c-0.1-0.2-0.3-0.8-0.4-0.9c-0.1,0-0.3-0.1-1-0.1c-0.4,0-1,0-1.9,0
		c-3.3,0-9,0.1-12.7,0.2l-1.6,0l0.6-1.4l-0.1-0.1l-1.6,0l0,0.1l0.8,1.5l-1.7,0l-4.5,0.1c-5.4,0.2-10.1,0.3-13,0.3
		c-0.7,0-1.3,0-1.8,0c-5.3-0.2-11.6-0.4-18-0.8c-0.1,0-0.2,0-0.3,0c-0.7,0-0.8,0.1-0.9,0.5C9,77.5,8.9,77.8,8.7,78
		c-0.1,0.1-0.1,0.1-0.2,0.2l-0.7,0.9l-6.3-5.4l6.2-5.3l0.7,0.9c0.4,0.5,0.8,0.7,1.8,0.7c0.3,0,0.5,0,0.8,0c0.3,0,0.6,0,0.9,0h0.3
		c1.5,0,3.5,0.1,6.2,0.1c5.5,0,12.8-0.1,20-0.2c7.3-0.1,14.8-0.2,20.4-0.2c3,0,5.2,0,6.8,0.1h0.2c1.2,0,1.7-0.3,2.1-1.2
		c0.4-1.1,1.2-1.2,1.5-1.2c0.5,0,0.9,0.2,1.2,0.5c0.5,0.4,1,0.9,1.2,1.6c0.9,2.9,0.7,5.7-0.5,8.2c-0.3,0.6-0.7,1.1-1.1,1.5
		c-0.1,0.2-0.3,0.3-0.5,0.5C69.5,80,69.1,80.1,68.8,80.1L68.8,80.1z"/>
	<path id="svg_33_00000009552342374896304910000000627927962735511217_" class="st0" d="M69.3,68.4c0.2,0,0.4,0.1,0.5,0.3
		c0.4,0.3,0.8,0.7,0.9,1.2c0.8,2.5,0.7,5-0.4,7.4c-0.3,0.6-0.8,1.1-1.4,1.8c0,0-0.1,0.1-0.1,0.1c-0.1,0-0.1,0-0.2-0.1
		c-0.2-0.4-0.4-0.9-0.6-1.3c-0.5-1.5-0.7-1.7-2.3-1.8c-0.4,0-1.1,0-2,0c-3.1,0-8.9,0.1-12.7,0.2c0.1-0.3,0.1-0.5,0-0.8
		c2.2,0,5,0,7.7,0c3,0,5.8,0,7,0.1h0.1c0.5,0,0.9-0.2,1.6-0.3C67,74.7,52,74.5,37.2,74.5c-14.3,0-28.4,0.2-29,0.5
		c0.3,0.3,0.5,0.7,1,0.5c3.6,0.1,7.4-0.1,11,0c1.3,0,3-0.1,5,0.1c6.2,0.6,14.3-0.2,22.2-0.3c-0.1,0.3-0.1,0.6,0.1,0.8
		c-7,0.2-13.8,0.4-17.4,0.4c-0.7,0-1.3,0-1.7,0c-6-0.2-12-0.5-18-0.8c-0.1,0-0.2,0-0.3,0c-0.9,0-1.2,0.1-1.9,1.2
		c-0.2,0.3-0.3,0.4-0.5,0.6l-4.5-3.9l4.4-3.8c0.7,0.9,1.6,1.1,2.6,1.1c0.6,0,1.1-0.1,1.7-0.1c0.1,0,0.1,0,0.2,0
		c1.6,0,3.7,0.1,6.3,0.1c11,0,29.2-0.4,40.4-0.4c2.7,0,5,0,6.7,0.1c0.1,0,0.2,0,0.2,0c1.5,0,2.5-0.5,3-1.9
		C68.9,68.5,69.1,68.4,69.3,68.4 M69.3,66.3L69.3,66.3c-1.1,0-2,0.7-2.5,1.8c-0.2,0.4-0.2,0.6-1.1,0.6h-0.2
		c-1.6-0.1-3.8-0.1-6.8-0.1c-5.6,0-13.1,0.1-20.4,0.2c-7.1,0.1-14.5,0.2-20,0.2c-2.7,0-4.7,0-6.2-0.1h-0.3c-0.3,0-0.6,0-1,0
		c-0.3,0-0.5,0-0.7,0c-0.7,0-0.8-0.1-0.9-0.3L8,66.9l-1.7,1.5l-3.4,2.9l-1.1,0.9L0,73.7l1.8,1.6l1.5,1.2l3.1,2.6L8,80.5l1.3-1.7
		c0,0,0.1-0.1,0.1-0.2c0.2-0.2,0.4-0.5,0.6-0.8h0h0.2c6.5,0.3,12.7,0.5,18,0.8c0.5,0,1.1,0,1.8,0c2.9,0,7.6-0.1,13-0.3l4.5-0.1
		l0.4,0v0l3.1-0.1c3.7-0.1,9.4-0.2,12.6-0.2c1.1,0,1.7,0,1.9,0c0.1,0,0.2,0,0.3,0c0,0.1,0.1,0.2,0.1,0.3c0.1,0.4,0.3,0.8,0.5,1.2
		c0.1,0.1,0.1,0.3,0.2,0.4c0.5,1.1,1.9,1.6,3,1.1c0.3-0.1,0.6-0.3,0.8-0.6c0.1-0.2,0.3-0.3,0.4-0.5c0.5-0.5,0.9-1.1,1.3-1.7
		c1.4-2.7,1.6-5.7,0.6-8.9c-0.3-0.9-1-1.6-1.5-2.1C70.7,66.6,70,66.3,69.3,66.3L69.3,66.3L69.3,66.3z"/>
	<path id="svg_34_00000010285771362981419060000005258612074676542389_" class="st11" d="M11.6,88.9c-1.2,0-1.9-0.7-2-2v-0.2
		c-0.1-1.2-0.1-1.9,0.4-2.4c0.4-0.5,1-0.5,1.7-0.5c0.2,0,0.5,0,0.7,0c0.1,0,0.2,0,0.3,0l0-0.9c-0.4,0-0.8,0-1.2,0
		c-0.1,0-0.2,0-0.2,0c-0.5,0-0.9-0.2-1.2-0.5c-0.3-0.4-0.5-0.9-0.4-1.4c0,0,0-0.1,0-0.2c0-0.1,0-0.1,0-0.2l-0.1-4.6l16.6-0.2
		l0.1,6.9l-1,0c-0.3,0-0.5,0-0.8,0c-0.4,0-0.9,0-1.3,0h-0.2c0,0.3,0,0.6,0,0.8c0.2,0,0.6,0,0.8,0h0.3c0.2,0,0.4,0,0.6,0l1.5,0l0,1
		c0,0.2,0,0.5,0,0.7c0,0.6,0,1.2,0,1.8c-0.1,0.7-0.9,1.5-1.6,1.5c-1.3,0.1-2.7,0.1-4,0.1l-0.5,0c-0.9,0-1.9-0.5-2-2
		c0-0.4,0-0.8-0.1-1.2c0-0.9-0.1-1.8-0.1-2.7c0,0,0-0.1,0-0.1h0c-0.1,0-0.1,0-0.2,0v0.4c0,1,0,2,0,2.9c0,2-0.8,2.8-2.7,2.8
		c-0.5,0-1,0-1.5,0c-0.6,0-1.1,0-1.7,0L11.6,88.9L11.6,88.9z"/>
	<path id="svg_35_00000010998995017995085530000013032147992456677810_" class="st0" d="M25,76.9c0,1.6,0,3.2,0.1,4.8
		c-0.7,0-1.4,0-2.1,0c-0.2,0-0.4,0-0.5,0h0c-0.4,0-0.6,0.1-0.6,0.6c-0.1,2.1-0.1,2.2,1.8,2.2h0.3c0.3,0,0.6,0,1.1,0
		c0,0.8,0.1,1.6,0,2.4c0,0.2-0.4,0.6-0.6,0.6c-1.5,0.1-3,0.1-4.4,0.1h0c-0.7,0-0.9-0.4-0.9-1c0-1.3-0.2-2.6-0.1-3.9
		c0-0.8-0.2-1.2-0.8-1.2c-0.1,0-0.3,0-0.4,0c-0.3,0.1-0.6,0.1-1.1,0.1c0,1.4,0.1,2.8,0.1,4.2s-0.3,1.8-1.7,1.8c-1.1,0-2.1,0-3.2,0.1
		h-0.1c-0.6,0-0.9-0.2-1-1c-0.1-2.3-0.2-1.9,1.9-2.1c0.4,0,0.8,0,1.2,0c0-1,0-1.9,0-2.9c-0.8,0-1.5,0-2.3,0h-0.1
		c-0.5,0-0.7-0.3-0.6-0.8c0-0.2,0-0.3,0-0.5c0-1.2,0-2.3-0.1-3.5L25,76.9 M27.1,74.9l-2.1,0l-14.5,0.2l-2.1,0l0,2.1l0,0.9
		c0,0.9,0,1.8,0,2.6c0,0.1,0,0.2,0,0.3v0.1c-0.1,1.1,0.4,1.7,0.7,2.1c0.1,0.1,0.2,0.2,0.2,0.2c-0.1,0.1-0.2,0.2-0.3,0.3
		c-0.8,0.8-0.7,1.8-0.7,3.1V87c0.1,1.8,1.3,2.9,3,2.9h0.2c0.6,0,1.1,0,1.7,0c0.5,0,1,0,1.5,0c0.9,0,2-0.2,2.8-1l0,0
		c0.6,0.6,1.4,0.9,2.2,0.9H20h0.5c1.3,0,2.7,0,4.1-0.1c1.2-0.1,2.4-1.2,2.5-2.5c0-0.6,0.1-1.3,0-1.9c0-0.2,0-0.4,0-0.7l0-0.8h0.2
		l0-2.1l-0.1-3.4l0-1.5L27.1,74.9C27.1,74.9,27.1,74.9,27.1,74.9z"/>
	<path id="svg_36_00000007419690773692642060000008832512345920843445_" class="st6" d="M79.4,80.7c-1,0-1.9-0.5-2.4-1.3
		c-0.9-1.6-0.4-3.9,1-4.8c0.6-0.4,1.4-0.6,2.1-0.6c1.4,0,2.6,0.6,3.2,1.6c0.4,0.7,0.3,1.7,0.2,2.2c-0.1,0.7-0.9,1.3-1.6,1.4
		c-0.1,0-0.1,0-0.2,0c-0.1,0-0.2,0-0.3,0c0,0.2-0.1,0.3-0.1,0.4C81,80.2,80.2,80.7,79.4,80.7L79.4,80.7z"/>
	<path id="svg_37_00000019679879419619626010000002851230201889342358_" d="M80.1,74.9c0.9,0,1.9,0.4,2.3,1.1c0.2,0.4,0.2,1,0.1,1.4
		c0,0.3-0.4,0.6-0.7,0.6h0c-0.2,0-0.5-0.3-0.6-0.5c-0.2-0.6-0.6-1-1.2-1h-0.1c-0.3,0-0.7,0.2-0.8,0.4c-0.1,0.3-0.1,0.7,0,1.1
		c0,0.1,0.3,0.1,0.5,0.1c0,0,0.1,0,0.1,0c0.3-0.1,0.5-0.2,0.7-0.4c0,0.3,0.2,0.9,0,1.3s-0.6,0.6-1,0.6c-0.6,0-1.2-0.3-1.5-0.8
		c-0.6-1.1-0.3-2.9,0.7-3.5C79,75,79.5,74.9,80.1,74.9 M80.1,72.8c-1,0-1.9,0.3-2.7,0.8c-1.9,1.2-2.5,4.2-1.3,6.2
		c0.7,1.2,1.9,1.9,3.3,1.9c1.2,0,2.3-0.6,2.8-1.6c1-0.2,2.1-1,2.3-2.2c0.1-0.8,0.2-1.9-0.3-2.9C83.4,73.7,81.8,72.8,80.1,72.8z"/>
	<path id="svg_38_00000170989094626614956490000006040298648318869649_" class="st9" d="M47.5,76.1c-8.3,0.2-16.4,0.6-19.2,0.5
		c-6-0.2-11.9-0.6-17.9-0.9"/>
	<path id="svg_39_00000111164903149370057240000008368982255504327868_" class="st0" d="M29.6,77.6c-0.5,0-1,0-1.3,0
		c-4-0.2-8.1-0.4-12-0.6c-2-0.1-4-0.2-6-0.3l0.1-1.9c2,0.1,4,0.1,6,0.2c3.9,0.2,7.9,0.4,11.9,0.6c1.9,0.1,6.2-0.1,11.2-0.2
		c2.5-0.1,5.3-0.2,8-0.2l0.1,2.1c-2.8,0.1-5.6,0.2-8,0.2C35.3,77.5,31.8,77.6,29.6,77.6L29.6,77.6z"/>
	<path id="svg_53_00000100353834562039489990000009027591403581202865_" class="st0" d="M62.4,81.8l1.4-4.9l1.9,0c0,0,1.6,1.9,2,2.5
		c0.3,0.6-1.5,2.2-1.6,2.5S62.4,81.8,62.4,81.8z"/>
	<g>
		<path class="st1" d="M40.6,66.9c0-0.8,0.2-1.4,0.7-1.7c0.4-0.3,1-0.5,1.6-0.5c0.6,0,1.2,0.2,1.6,0.5c0.4,0.3,0.7,0.9,0.7,1.7
			c0,0.8-0.2,1.4-0.7,1.7c-0.4,0.3-1,0.5-1.6,0.5c-0.6,0-1.2-0.2-1.6-0.5C40.9,68.2,40.6,67.7,40.6,66.9z"/>
	</g>
	<g>
		<path class="st1" d="M53.9,51.5l-0.5,4.8l4.9-1.4l0.4,3.3l-4.4,0.3l2.9,3.9l-3,1.6l-2-4.1L50.4,64l-3.1-1.6l2.9-3.9l-4.4-0.3
			l0.5-3.3l4.8,1.4l-0.5-4.8H53.9z"/>
	</g>
	<path id="svg_40_00000023969414082894091430000000285229096418137231_" class="st1" d="M45.5,81c-0.3,0-0.7-0.2-0.9-0.4
		c-0.7-0.9-1.3-3.5-1.6-5.6c-0.4-3.2-0.1-5.3,0.8-6.2l0,0l0,0c0.4-0.3,0.9-0.4,1.3-0.4c0.4,0,1.2,0.1,1.8,1.1
		c0.5,0.8,0.5,3.4,0.4,5.4c-0.1,1.3-0.3,4.5-0.9,5.5C46.4,80.7,46,81,45.5,81L45.5,81z"/>
	<path id="svg_41_00000179608020922572417220000015957573095404538510_" class="st0" d="M45.2,69.2c0.3,0,0.7,0.1,1,0.6
		C46.9,71,46.4,80,45.5,80c-0.1,0-0.1,0-0.2-0.1c-1-1.2-2.4-9-0.9-10.4C44.7,69.3,45,69.2,45.2,69.2 M45.2,67.3L45.2,67.3
		c-0.7,0-1.3,0.2-1.9,0.6L43.2,68l-0.1,0.1c-0.7,0.7-1.1,1.8-1.3,3.4c-0.1,1.2,0,2.4,0.2,3.6c0.1,0.8,0.6,4.7,1.8,6.1
		c0.7,0.9,2.1,1.1,3,0.3c0.2-0.2,0.4-0.4,0.6-0.7c0.5-0.9,0.9-2.9,1-6c0.2-4.7-0.3-5.6-0.5-5.9C47.3,67.9,46.3,67.3,45.2,67.3
		C45.3,67.3,45.2,67.3,45.2,67.3z"/>
	<path id="svg_42_00000061457070408032832190000006963602292405530760_" class="st1" d="M41.5,81c-0.3,0-0.7-0.2-0.9-0.4
		c-0.7-0.9-1.3-3.5-1.6-5.6c-0.4-3.2-0.1-5.3,0.8-6.2l0,0l0,0c0.4-0.3,0.9-0.4,1.3-0.4c0.4,0,1.2,0.1,1.8,1.1
		c0.5,0.8,0.5,3.4,0.4,5.4c-0.1,1.3-0.3,4.5-0.9,5.5C42.4,80.7,42,81,41.5,81z"/>
	<path id="svg_43_00000162314308372724376670000016761804862737955236_" class="st0" d="M41.3,69.2c0.3,0,0.7,0.1,1,0.6
		C42.9,71,42.4,80,41.5,80c-0.1,0-0.1,0-0.2-0.1c-1-1.2-2.4-9-0.9-10.4C40.7,69.3,41,69.3,41.3,69.2 M41.3,67.3L41.3,67.3
		c-0.7,0-1.3,0.2-1.9,0.6L39.3,68l-0.1,0.1c-0.7,0.7-1.1,1.8-1.3,3.4c-0.1,1.2,0,2.4,0.2,3.6c0.1,0.8,0.6,4.7,1.8,6.1
		c0.7,0.9,2.1,1.1,3,0.3c0.2-0.2,0.4-0.4,0.6-0.7c0.5-0.9,0.9-2.9,1-6c0.2-4.7-0.3-5.6-0.5-5.9C43.3,67.9,42.4,67.3,41.3,67.3
		L41.3,67.3L41.3,67.3z"/>
	<path id="svg_44_00000078762874302810861840000001796820849408708023_" class="st1" d="M37.6,81c-0.3,0-0.7-0.2-0.9-0.4
		c-0.7-0.9-1.3-3.5-1.6-5.6c-0.4-3.2-0.1-5.3,0.8-6.2l0,0l0,0c0.4-0.3,0.9-0.4,1.3-0.4c0.4,0,1.2,0.1,1.8,1.1
		c0.5,0.8,0.5,3.4,0.4,5.4c-0.1,1.3-0.3,4.5-0.9,5.5C38.4,80.7,38,81,37.6,81L37.6,81z"/>
	<path id="svg_45_00000129199068412126943390000014886918027918565288_" class="st0" d="M37.3,69.2c0.3,0,0.7,0.1,1,0.6
		C38.9,71,38.4,80,37.6,80c-0.1,0-0.1,0-0.2-0.1c-1-1.2-2.4-9-0.9-10.4C36.8,69.3,37,69.2,37.3,69.2 M37.3,67.3L37.3,67.3
		c-0.7,0-1.3,0.2-1.9,0.6L35.3,68l-0.1,0.1c-0.7,0.7-1.1,1.8-1.3,3.4c-0.1,1.2,0,2.4,0.2,3.6c0.1,0.8,0.6,4.7,1.8,6.1
		c0.7,0.9,2.1,1.1,3,0.3c0.2-0.2,0.4-0.4,0.6-0.7c0.5-0.9,0.9-2.9,1-6c0.2-4.7-0.3-5.6-0.5-5.9C39.4,67.9,38.4,67.3,37.3,67.3
		C37.3,67.3,37.3,67.3,37.3,67.3z"/>
	<path id="svg_46_00000105387697453148652370000012316430697772808625_" class="st9" d="M53.9,80.5c-0.4,0-0.9-0.3-1-0.7
		c-0.6-1-0.8-4.2-0.9-5.5c-0.1-2-0.1-4.6,0.4-5.4c0.6-1,1.4-1.1,1.8-1.1c0.5,0,1,0.2,1.3,0.4l0,0l0,0c0.9,0.9,1.2,3,0.8,6.2
		c-0.3,2.1-0.9,4.8-1.6,5.6C54.6,80.3,54.2,80.5,53.9,80.5L53.9,80.5z"/>
	<path id="svg_47_00000033336501650393443420000008529800563652005543_" class="st0" d="M54.1,68.8c0.3,0,0.5,0.1,0.8,0.3
		c1.5,1.5,0.1,9.3-0.9,10.4c0,0.1-0.1,0.1-0.2,0.1c-0.9,0-1.4-9-0.7-10.1C53.5,68.9,53.8,68.8,54.1,68.8 M54.1,66.8
		c-1.1,0-2,0.6-2.6,1.6c-0.2,0.3-0.7,1.3-0.5,5.9c0.1,3.1,0.5,5.1,1,6c0.5,1,1.8,1.4,2.8,0.9c0.3-0.1,0.5-0.3,0.7-0.6
		c1.2-1.4,1.7-5.3,1.8-6.1c0.2-1.2,0.2-2.4,0.2-3.6c-0.1-1.6-0.5-2.7-1.3-3.4l-0.1-0.1l-0.1-0.1C55.5,67,54.8,66.8,54.1,66.8
		L54.1,66.8L54.1,66.8z"/>
	<path id="svg_48_00000013891753739763961720000014235702302940715163_" class="st9" d="M57.9,80.5c-0.4,0-0.9-0.3-1-0.7
		c-0.6-1-0.8-4.2-0.9-5.5c-0.1-2-0.1-4.6,0.4-5.4c0.6-1,1.4-1.1,1.8-1.1c0.5,0,0.9,0.2,1.3,0.4l0,0l0,0c0.9,0.9,1.2,3,0.8,6.2
		c-0.3,2.1-0.9,4.8-1.6,5.6C58.5,80.3,58.2,80.5,57.9,80.5z"/>
	<path id="svg_49_00000084529323271052496110000003268910530459812267_" class="st0" d="M58.1,68.8c0.3,0,0.5,0.1,0.8,0.3
		c1.5,1.5,0.1,9.3-0.9,10.4c0,0.1-0.1,0.1-0.2,0.1c-0.9,0-1.4-9-0.7-10.1C57.4,68.9,57.8,68.8,58.1,68.8 M58.1,66.8
		c-1.1,0-2,0.6-2.6,1.6c-0.2,0.3-0.7,1.3-0.5,5.9c0.1,3.1,0.5,5.1,1,6c0.5,1,1.8,1.4,2.8,0.9c0.3-0.1,0.5-0.3,0.7-0.6
		c1.2-1.4,1.7-5.3,1.8-6.1c0.2-1.2,0.2-2.4,0.2-3.6c-0.1-1.6-0.5-2.7-1.3-3.4l-0.1-0.1L60,67.4C59.5,67,58.8,66.8,58.1,66.8
		L58.1,66.8L58.1,66.8z"/>
	<path id="svg_50_00000102524682700016480960000011301622472149065914_" class="st1" d="M61.8,80.5c-0.4,0-0.9-0.3-1-0.7
		c-0.6-1-0.8-4.2-0.9-5.5c-0.1-2-0.1-4.6,0.4-5.4c0.6-1,1.4-1.1,1.8-1.1c0.5,0,0.9,0.2,1.3,0.4l0,0l0,0c0.9,0.9,1.2,3,0.8,6.2
		c-0.3,2.1-0.9,4.8-1.6,5.6C62.5,80.3,62.2,80.5,61.8,80.5z"/>
	<path id="svg_51_00000168825278600168827850000010990823030526943873_" class="st0" d="M62.1,68.8c0.3,0,0.5,0.1,0.8,0.3
		c1.5,1.5,0.1,9.3-0.9,10.4c0,0.1-0.1,0.1-0.2,0.1c-0.9,0-1.4-9-0.7-10.1C61.4,68.9,61.8,68.8,62.1,68.8 M62.1,66.8
		c-1.1,0-2,0.6-2.6,1.6c-0.2,0.3-0.7,1.3-0.5,5.9c0.1,3.1,0.5,5.1,1,6c0.5,1,1.8,1.4,2.8,0.9c0.3-0.1,0.5-0.3,0.7-0.6
		c1.2-1.4,1.7-5.3,1.8-6.1c0.2-1.2,0.2-2.4,0.2-3.6c-0.1-1.6-0.5-2.7-1.3-3.4l-0.1-0.1L64,67.4C63.4,67,62.8,66.8,62.1,66.8
		L62.1,66.8L62.1,66.8z"/>
	<path class="st0" d="M23.8,42.7"/>
	<linearGradient id="SVGID_1_" gradientUnits="userSpaceOnUse" x1="21.2478" y1="52.8385" x2="37.3865" y2="52.8385">
		<stop  offset="0" style="stop-color:#C0C3C4"/>
		<stop  offset="1" style="stop-color:#FFFFFF"/>
	</linearGradient>
	<path class="st12" d="M37.2,51.8c-0.8-0.3-3.7-0.9-5.8-2.2c-3-1.8-3-3.1-4.2-2.8c-0.2,0.1-0.4,0.2-0.6,0.3
		c-3.7,2.3-5.7,7.7-5.2,11.9c1.6-2.7,3.1-5.3,4.7-7.8l0.2,0.1c-1.2,2.2-1.7,4.6-1.2,7.3c1.4-2.2,2.7-4.3,3.9-6.4l0.2,0.1
		c-1,2.1-1.1,4.2-0.4,6.6c1.4-2.2,2.6-4.2,3.9-6.2c-0.6,2-0.5,4-0.2,6l3.2-4.3c0,0,1.3-1.6,1.8-2.2C37.4,51.9,37.2,51.8,37.2,51.8z"
		/>
	
		<linearGradient id="SVGID_00000062166562679287840270000013787835276892394415_" gradientUnits="userSpaceOnUse" x1="-5.943" y1="52.8664" x2="10.1957" y2="52.8664" gradientTransform="matrix(-1 0 0 1 72.3022 0)">
		<stop  offset="0" style="stop-color:#C0C3C4"/>
		<stop  offset="1" style="stop-color:#FFFFFF"/>
	</linearGradient>
	<path style="fill:url(#SVGID_00000062166562679287840270000013787835276892394415_);" d="M62.3,51.8c0.8-0.3,3.7-0.9,5.8-2.2
		c3-1.8,3-3.1,4.2-2.8c0.2,0.1,0.4,0.2,0.6,0.3c3.7,2.3,5.7,7.7,5.2,11.9c-1.6-2.7-3.1-5.3-4.7-7.8l-0.2,0.1
		c1.2,2.2,1.7,4.6,1.2,7.3c-1.4-2.2-2.7-4.3-3.9-6.4l-0.2,0.1c1,2.1,1.1,4.2,0.4,6.6c-1.4-2.2-2.6-4.2-3.9-6.2c0.6,2,0.5,4,0.2,6
		L64,54.3c0,0-1.3-1.6-1.8-2.2C62.1,51.9,62.3,51.8,62.3,51.8z"/>
</g>
</svg>
