<svg width="550" height="150" xmlns="http://www.w3.org/2000/svg">
 <title>Awesome Regex</title>

 <g>
  <title>Layer 1</title>
  <svg preserveAspectRatio="xMinYMin" x="13" y="17.717" width="127" height="114.73532" viewBox="16.360002517700195 123.22000122070312 579.9248046875 523.9200439453125" dataName="Layer 1" id="svg_1" xmlns="http://www.w3.org/2000/svg">
   <path id="svg_6" fill=" #000000" d="m62.65,265.51l1.52,139.49s0.61,77.91 40.79,109.55c0,0 39.79,88 186.68,132.41l16.36,-11.25l-18.69,-512.49l-97.46,64.22s-15.2,5.37 -24.26,-8.4s-20,-37.1 -20,-37.1s-16.45,26.19 -6.38,49.52c0,0 1.54,9.74 1,12.93c-9.54,57.09 -79.56,61.12 -79.56,61.12z"/>
   <path id="svg_7" fill=" #000000" d="m518.49,263.49l-1.49,139.51s-0.62,77.91 -40.8,109.55c0,0 -39.62,92.2 -184.54,134.59l-18.47,-13.44l15.66,-510l100.44,61.75s15.2,5.37 24.26,-8.39s20,-37.11 20,-37.11s16.46,26.19 6.38,49.53c0,0 -0.27,16.29 0.26,19.49c9.55,57.03 78.3,54.52 78.3,54.52z"/>
   <polygon id="svg_8" fill=" #ffffff" points="222.05 550.29 291.15 597.86 369.93 539.2 222.05 550.29" class="cls-1"/>
   <path id="svg_9" fill=" #ffffff" d="m237.09,468.22l17.25,15.28l25.14,-15.28l10.84,10.35l18.24,-11.83l17.75,15.26l17.74,-15.77s15.28,15.77 13.8,16.77s-31.21,28.09 -31.21,28.09l-16.64,-16.75l-19.22,18.24l-14.3,-15.77l-19.18,15.28l-17.25,-15.77l-9.37,-8.55l-5.42,-10.68l11.83,-8.87z" class="cls-1"/>
   <path id="svg_10" fill=" #c9f0b4" d="m494.72,281.67a83.17,83.17 0 0 1 -31.27,-8.21c-12,-5.9 -22.21,-13.58 -28.53,-24.93c-3.47,-6.23 -5,-12.67 -1.76,-19.44a12.27,12.27 0 0 1 0.83,-1.31c1.94,4.58 3.53,9.14 5.73,13.43c9.22,18 25.59,27.36 46.07,31.45a95.41,95.41 0 0 0 13.12,1.28c2.92,0.17 4.4,1.23 4.38,4c0,5.19 0,10.38 0,15.58c0,32.29 0.49,64.6 0,96.89c-0.84,52.85 -18.45,100.52 -54.56,142c-29.51,33.88 -66.31,59.62 -108.2,79.26c-14.66,6.87 -30.1,12.33 -45.17,18.45a12,12 0 0 1 -8.85,0c-59.88,-20.93 -112.86,-51.12 -154.06,-97c-26.62,-29.64 -43.17,-63.5 -49.94,-101.44a261.29,261.29 0 0 1 -4.11,-47.1c0.14,-34.9 0,-69.79 0,-104.68c0,-5.42 0.42,-5.55 6.33,-6c24.62,-1.92 44.62,-11 56.46,-31.87c2.48,-4.37 4,-9.2 6.11,-14.09c2.83,5.29 3.45,10.39 1.39,15.76c-3.84,10 -11.26,17.41 -20.29,23.59a82.17,82.17 0 0 1 -40.3,14.2a9.22,9.22 0 0 0 -1.3,0.32l0,3q0,50.48 0,100.94a228.45,228.45 0 0 0 15.2,82.8c11.86,30.67 31.88,56.61 56.86,79.5c36.75,33.66 80.48,57.11 128.7,74a11.17,11.17 0 0 0 6.45,-0.11c25.19,-7.89 48.54,-19.25 71,-32.19c29.56,-17 55.65,-37.78 77.45,-62.85c26.77,-30.78 43,-65.76 49.22,-104.74a257.24,257.24 0 0 0 3.1,-41.26q-0.11,-47.82 -0.06,-95.65l0,-3.58z" class="cls-2"/>
   <path id="svg_11" fill=" #ffffff" d="m429,201.58c-4.34,11.62 -11.67,20 -21.71,25.43c-10.7,5.82 -21.84,10.85 -33,15.75c-14.59,6.42 -29.43,12.27 -42.41,21.8c-12.37,9.08 -22.07,20.34 -28.25,34.49c-0.27,0.62 -0.56,1.24 -0.8,1.87a6,6 0 0 0 0.07,1.25a35,35 0 0 0 2.52,-2.8c16.19,-22.75 37.78,-38.23 63.7,-48.2c13.46,-5.17 26.6,-11.14 40.17,-16.39c-4.29,2.7 -8.46,5.62 -12.89,8.06c-8.41,4.64 -16.84,9.25 -25.48,13.44c-24.66,12 -44.66,29.37 -61,51.24c-6.61,8.88 -13.25,17.74 -20,26.82c-3.65,-5.17 -7.24,-10.36 -10.93,-15.48c-11.75,-16.27 -24.11,-32 -40.1,-44.44c-13,-10.13 -27.8,-17.28 -42.32,-24.87c-8,-4.18 -15.73,-8.81 -23.58,-13.24l0.31,-0.78a2.79,2.79 0 0 1 1,0q26.37,11.53 52.71,23.12c19,8.33 33.43,22.11 46,38.16q1.77,2.26 3.57,4.53c0.13,0.16 0.36,0.25 1.32,-0.05c-3.11,-5.4 -6,-11 -9.38,-16.16c-10.18,-15.47 -24.87,-25.41 -41.42,-32.86c-13.6,-6.11 -27.39,-11.78 -40.93,-18c-10.84,-5 -21.08,-11.07 -28.1,-21.2c-2,-2.89 -3.56,-6.09 -5.33,-9.14l0.82,-0.54c1.91,1.7 3.77,3.45 5.74,5.08c13.39,11 29.15,17.49 45.14,23.56c10.23,3.88 20.48,7.79 30.47,12.25c20.91,9.35 36.53,24.73 48.58,44c2,3.14 4,6.21 6.36,9.8c2.89,-4.16 5.53,-7.77 8,-11.5c14.47,-22.12 34.16,-37.7 58.7,-47.34c13.45,-5.29 26.93,-10.54 40.22,-16.19a96.56,96.56 0 0 0 30.46,-20c0.35,-0.4 0.77,-0.69 1.77,-1.47z" class="cls-1"/>
   <path id="svg_12" fill=" #ffffff" d="m289.68,287.49c-11.55,-18.57 -25.31,-34.67 -45,-44.44c-10.89,-5.41 -22.22,-10 -33.59,-14.36c-14.71,-5.6 -29.36,-11.2 -42.27,-20.44c-8.8,-6.29 -15.67,-14 -17.92,-25a47.69,47.69 0 0 1 0.54,-21.35c4.23,23 18.1,37 37.25,47c13.74,7.12 28.59,11.14 43,16.48c7.16,2.66 13.5,3.73 21.13,0.8c9.35,-3.59 10,-3.13 17.59,3.73c6.43,5.8 12,12.54 18,18.89c0.83,0.89 1.51,1.94 2.32,3c3.22,-3.89 6.05,-7.89 9.48,-11.28c5.39,-5.46 11.19,-10.52 16.99,-15.52a5.18,5.18 0 0 1 4,-0.93a96.34,96.34 0 0 1 13.31,3.9a9.48,9.48 0 0 0 7.6,-0.17c12.89,-4.86 26.11,-8.92 38.74,-14.35a151.68,151.68 0 0 0 25.57,-14.45c11.31,-7.76 18.2,-19 21.8,-32.22a16.67,16.67 0 0 1 1.51,-3.95c2.19,13.91 0.89,27 -9.26,37.82c-7.15,7.61 -16,13 -25.48,17.09c-11.6,5 -23.31,9.86 -35.21,14.11c-28.78,10.31 -51.78,27.85 -68.34,53.66c-0.31,0.47 -0.65,0.93 -1,1.37a4.89,4.89 0 0 1 -0.76,0.61z" class="cls-1"/>
   <path id="svg_13" fill=" #ffffff" d="m312,335.4c3.21,-3.42 6.35,-6.76 9.85,-10.47c5.73,12.22 14.14,20.87 27.85,22.41a31,31 0 0 0 25,-8.23c9.44,-8.58 13.29,-19.4 11.78,-32.07c-1.53,-12.86 -9.47,-21 -20.86,-27.11c7.42,-2.78 14,-5.36 20.75,-7.65c0.79,-0.27 2.41,0.82 3.15,1.7c6.11,7.28 9.46,15.87 11.35,25c4.31,20.93 1,40.12 -15,55.25s-35.24,18.53 -56.41,12.57c-5.58,-1.57 -8.87,-3.49 -9,-10.07c-0.27,-7.73 -3.88,-14.73 -8.46,-21.33z" class="cls-1"/>
   <path id="svg_14" fill=" #ffffff" d="m215,279.78c-17,9.25 -23.86,22.85 -19.87,41.06c3,13.92 15.06,24.73 28.2,26.51c14.41,2 24.86,-4.55 35.25,-22.26l9.74,10.66c-5.78,7.94 -7.75,17 -8.42,26.49a3,3 0 0 1 -1.57,2.18c-16.56,6.18 -33.22,8.15 -49.59,-0.33c-18.62,-9.65 -28.35,-25.6 -30.14,-46.1c-1.39,-15.89 2.77,-30.68 12,-43.89c1.5,-2.14 2.67,-2.91 5.44,-1.67c5.96,2.67 12.12,4.76 18.96,7.35z" class="cls-1"/>
   <path id="svg_15" fill=" #ffffff" d="m159.42,404.75c-8.39,14.1 -16.79,28.2 -25.65,43.1c-2.74,-24.11 9.91,-55.62 32.29,-66.94c-1.55,6 -3.09,11.88 -4.82,18.5a19.3,19.3 0 0 0 14.3,-8c1.67,4.92 3.28,9.68 4.88,14.44l1.33,0l6.76,-9.46c2.71,4.18 5.38,8.3 8.58,13.22l4.58,-7l19.67,6.59l-27.1,36.35c-1.35,-11.18 -2.19,-22.11 1.18,-33c-7,11.1 -14,22.21 -21.51,34.1c-3.44,-13.16 -2.94,-24.85 2.4,-36.23l-0.83,-0.36c-7.06,11.53 -14.11,23.07 -21.69,35.46c-2.91,-14.93 0.22,-27.76 6.66,-40.05l-1.03,-0.72z" class="cls-1"/>
   <path id="svg_16" fill=" #ffffff" d="m414.68,380.81c24.68,14.43 34.13,43.94 31.75,66l-24.35,-41.38l-1,0.52c6.2,12.23 8.76,25 6.11,39.58l-21.59,-35.88l-0.94,0.3c5.17,11.58 5.62,23.4 2.12,36.59l-20.78,-33.62c2.54,10.76 1.8,21.48 0.48,32.93l-26.94,-36.85l19,-6.52l2.5,3.92c1.39,2.19 2.82,2 4.13,0c2.16,-3.3 4.24,-6.64 6.55,-10.28c2.41,3.32 4.74,6.53 7.31,10.05c4,-4.4 3.75,-9.72 5.33,-14.9c4,3.82 7.95,7.58 14.7,7.86c-1.56,-6.4 -2.94,-12.24 -4.38,-18.32z" class="cls-1"/>
   <path id="svg_17" fill=" #ffffff" d="m165.77,474.67q-1.83,17.91 -3.65,35.81l-1,0.08c-7.43,-11.2 -9.16,-24 -9.6,-37.19l-1,0c-0.67,3.38 -1.46,6.75 -2,10.15c-0.58,3.68 -1,7.38 -1.37,11.09s-0.57,7.21 -0.85,10.82l-1,0.29c-1.42,-4.95 -3.51,-9.83 -4.09,-14.87c-1,-8.85 -1.11,-17.8 -1.51,-26.71a3.57,3.57 0 0 1 0.78,-2.46c2.28,-2.31 4.72,-4.47 6.93,-6.52c1.37,4.07 2.83,8.44 4.3,12.81l1.31,0.11l9.4,-12.18l6.36,13.41l1.41,0l9.34,-13.16l7,12.3l8.17,-9.47l1,0.12a147.23,147.23 0 0 0 0.82,51.45c-9,-9.75 -13.4,-21.63 -16.25,-34.34c-0.47,11.47 0.82,22.95 -2.52,34.71c-7.75,-11.24 -9.75,-23.68 -10.83,-36.42l-1.15,0.17z" class="cls-1"/>
   <path id="svg_18" fill=" #ffffff" d="m416.36,450.51l9.52,12.72c3.93,-4 4.18,-8.81 5.18,-14c4.19,4.11 8.77,6.71 8.39,13.74c-0.62,11.21 -0.85,22.36 -5.05,33c-0.45,1.12 -0.95,2.22 -1.8,4.18c-1.28,-11.16 -1.25,-21.61 -4.43,-31.63c-1,13 -3,25.61 -11.26,36.66q-1.83,-17.7 -3.65,-35.4l-1.07,-0.09c-1.21,12.64 -3.67,24.89 -10.85,36.06c-3.29,-11.53 -3,-23 -2.67,-34.7c-3,12.82 -8,24.55 -16.64,34.57c2.67,-17.07 4.34,-34.1 1.06,-51.29l1,-0.36l7.9,9.45l7.66,-12.42l9.35,13.38c4.36,-3.83 5.66,-8.76 7.36,-13.87z" class="cls-1"/>
   <path id="svg_19" fill=" #c9f0b4" d="m384.91,200.33a8.06,8.06 0 0 0 -1.92,1.15c-3.9,4.43 -7.49,2.64 -11.72,0.11c-26.18,-15.67 -52.52,-31.07 -78.74,-46.67c-1.93,-1.15 -3.12,-0.85 -4.82,0.16q-39.13,23.41 -78.33,46.7c-6.59,3.91 -6.64,3.83 -13.32,-1.5c6.36,-3.85 12.6,-7.64 18.86,-11.41c22.66,-13.63 45.44,-27.09 67.93,-41c5.49,-3.39 9.59,-3.16 15,0.15c26.91,16.41 54.07,32.42 81.14,48.58c1.94,1.16 3.82,2.4 5.92,3.73z" class="cls-2"/>
   <path id="svg_20" fill=" #ffffff" d="m175.26,259.4c1.58,0.89 3,1.63 4.3,2.43c0.67,0.4 1.28,0.89 2.2,1.55c-0.82,1.39 -1.57,2.72 -2.38,4c-14.8,23.51 -18,48.5 -8.37,74.58c8.29,22.34 32.06,44.71 65.86,42c6.32,-0.51 12.51,-2.72 18.75,-4.21c1.6,-0.38 3.15,-1 5.5,-1.77c-0.76,3.87 -1.32,7 -2.07,10.17a2.46,2.46 0 0 1 -1.61,1.35c-25.38,6.57 -49.35,4.78 -70.62,-12.23c-18.16,-14.52 -27.83,-33.62 -29.36,-56.66c-1.39,-20.77 3.13,-40.21 15,-57.61c0.85,-1.21 1.79,-2.31 2.8,-3.6z" class="cls-1"/>
   <path id="svg_21" fill=" #ffffff" d="m399.18,263.52c6.85,-4.5 6.93,-4.55 11.24,2.08c11.54,17.76 14.8,37.44 12.79,58.13c-1.71,17.53 -8.28,33.19 -20.86,45.68c-19.67,19.59 -43.35,27.11 -70.77,21.86c-0.33,-0.07 -0.65,-0.2 -1,-0.26c-8.14,-1.63 -9.72,-3.64 -9.55,-12.66a31.63,31.63 0 0 1 3.74,1.09c35.86,15.13 81.61,-7.57 89.27,-51.07c3.89,-22.12 -0.21,-42.72 -12.86,-61.45c-0.51,-0.75 -1,-1.53 -1.44,-2.3c-0.15,-0.29 -0.29,-0.62 -0.56,-1.1z" class="cls-1"/>
   <path id="svg_22" fill=" #ffffff" d="m276,342.59l14,12.5l14.08,-12.42c7.16,14 -2.45,39.78 -14.07,55.19c-12.62,-19.58 -19.6,-40.69 -14.01,-55.27z" class="cls-1"/>
   <path id="svg_23" fill=" #ffffff" d="m394.61,532.88l4.95,10.27l8.9,-9.35c0.61,1.47 0.83,3.54 1.94,4.29s3.12,0.16 5.17,0.16c-8.22,12.11 -19.22,20.62 -31.56,27.61l-0.78,-0.54l10.32,-17.32c-7.43,6.87 -15.31,13 -24.47,17.27c-0.76,0.36 -1.54,0.68 -2.34,1l14.94,-27.57c0.64,1 1.17,1.83 2.11,3.29l10.82,-9.11z" class="cls-1"/>
   <path id="svg_24" fill=" #ffffff" d="m164.9,537.58c4.6,2.22 7.18,0.93 7.32,-4.42l9.18,10.11c1.78,-3.79 3.3,-7 4.95,-10.52l10.68,9.3l2,-3.12l15,27.12c-10.41,-3.72 -18.5,-10.68 -26.74,-17.69l10.38,17.07c-7.94,-1.54 -28.83,-19.3 -32.77,-27.85z" class="cls-1"/>
   <path id="svg_25" fill=" #ffffff" d="m334.54,317.67c10.25,14.26 19.86,17.32 29.7,9.46c10.84,-8.67 10.13,-20.62 -2.08,-34.89c6.63,-1.49 7.55,-1.29 11.33,4.36c5.68,8.5 6,17.54 1.9,26.76s-11.21,13.92 -21,14.9c-8.64,0.85 -18.95,-5.1 -22.13,-13.31c-0.78,-2 0.69,-4.9 1.13,-7.39l1.15,0.11z" class="cls-1"/>
   <path id="svg_26" fill=" #ffffff" d="m216.81,292.29c-2.5,4.79 -5.77,9.27 -7.25,14.29c-2.74,9.28 2.77,19.45 11.53,23.15c8,3.37 17,0.15 22.66,-8.06c0.63,-0.92 1.24,-1.85 1.87,-2.8c3.83,3.48 4,4.21 1.38,8.2c-4.9,7.48 -11.78,11.61 -20.79,11.07c-10.08,-0.61 -17.21,-6.05 -21.21,-15.14c-4.19,-9.54 -3,-18.79 2.95,-27.33c3.05,-4.31 4.17,-4.61 8.86,-3.38z" class="cls-1"/>
   <path id="svg_27" fill=" #ffffff" d="m290.49,237.28c-6.31,-7.22 -9.26,-6.67 -16.76,-15.25c9.59,-4.17 24.75,-3.7 33.35,0c-7.27,8.02 -9.08,6.97 -16.59,15.25z" class="cls-1"/>
   <path id="svg_28" fill=" #ffffff" d="m343.9,301.66a7.2,7.2 0 0 1 6.94,-7.27a7.3,7.3 0 0 1 7.22,7.36a7.45,7.45 0 0 1 -7.38,7.29a7.1,7.1 0 0 1 -6.78,-7.38z" class="cls-1"/>
   <path id="svg_29" fill=" #ffffff" d="m236.35,301.35c0,4.37 -3.18,7.76 -7.28,7.69a7.14,7.14 0 0 1 -6.66,-7.14a7,7 0 1 1 13.94,-0.55z" class="cls-1"/>
   <path id="svg_30" fill=" #c9f0b4" d="m491.2,620.7a68.5,68.5 0 0 1 -15.45,-1.77c-27.65,-6.43 -47.56,-22.91 -59.17,-49a29.84,29.84 0 0 1 -2.21,-8.82a13.84,13.84 0 0 1 -9.67,3.54a20,20 0 0 1 -2.63,-0.18l-5.76,-0.76l0.89,-5.74c0.29,-1.85 0.64,-3.69 1,-5.47a60.71,60.71 0 0 0 1.42,-10.5c0.13,-11.91 -0.28,-24.1 -0.67,-35.88l-0.1,-2.95a19.77,19.77 0 0 0 -0.73,-3.77c-0.29,-1.15 -0.59,-2.35 -0.81,-3.65a11,11 0 0 1 2.39,-8.92a10.6,10.6 0 0 1 8.1,-3.72a11.66,11.66 0 0 1 5.12,1.21a22.54,22.54 0 0 1 2.21,1.25c6.2,-20.73 20.59,-36.53 42.87,-47a71.59,71.59 0 0 1 30.82,-7a74.5,74.5 0 0 1 25.78,4.7a73.32,73.32 0 0 1 40.2,34.5c5.74,10.69 8.57,22.6 8.11,33.28a32.46,32.46 0 0 1 4,-0.26c8.5,0 15.11,3.8 19.64,11.29c6,10 5.39,21.89 -1.64,30.35a24.9,24.9 0 0 1 -19.38,8.57a29.52,29.52 0 0 1 -3.75,-0.25c-0.1,0.53 -0.19,1 -0.29,1.56a162,162 0 0 1 -3.7,16.63c-8.51,28.69 -35.89,48.76 -66.59,48.76zm10.34,-70.53c7.26,5.91 9.74,14.46 7.39,25.42a21,21 0 0 1 -5.54,10.41c6.83,-2.19 12.85,-7 18.5,-14.8c4.54,-6.23 6.15,-14.59 4,-20.8c-1.84,-5.32 -6.24,-9 -13.09,-11c-0.87,-0.25 -1.77,-0.46 -2.68,-0.64a9.93,9.93 0 0 1 -2.39,7.54a10.89,10.89 0 0 1 -6.19,3.87zm-57.91,-17.48a5.32,5.32 0 0 0 -2.65,1.38c-5.17,5.79 -4.44,12.6 -2.92,17.29c3.53,10.93 12.89,17.71 22.17,23.72c0.46,0.29 0.91,0.57 1.37,0.84a21.15,21.15 0 0 1 -3.54,-8.52c-1.3,-7.2 3.32,-14.35 11.51,-17.8a11.4,11.4 0 0 0 3.14,-1.68a12.61,12.61 0 0 0 -0.59,-3.88c-0.71,-2.94 -2.37,-6.66 -6.19,-7.71a129.34,129.34 0 0 0 -22.3,-3.64zm93.16,-5.16a30.41,30.41 0 0 1 4.48,5.19c0,-2 -0.07,-4 -0.09,-5.93c0,-1.33 0,-2.68 -0.06,-4a25.57,25.57 0 0 1 -4.33,4.74zm25.52,1.11a4.66,4.66 0 0 0 2.22,2.33a5.79,5.79 0 0 0 1.91,-2.35a1.22,1.22 0 0 0 -0.34,-0.75a2,2 0 0 0 -1.39,-0.64l-0.25,0c-1.96,0 -2.11,0.77 -2.15,1.41zm-58.84,-25a16.93,16.93 0 0 1 2.26,1.59c3.9,3.25 4.8,6.75 4.86,9.17c0.89,-0.09 1.8,-0.19 2.73,-0.31a16.85,16.85 0 0 0 11.53,-6.54a15.71,15.71 0 0 0 3,-12c-1.71,-11.05 -10.44,-22.7 -22.41,-27.7a25.67,25.67 0 0 1 5.9,14.2a24.56,24.56 0 0 1 -7.87,21.57l0,0.02zm-35.23,-3.75a10.73,10.73 0 0 1 3.39,7.16c0,0.32 0,0.64 0,1a6,6 0 0 0 1.32,-1.3a5.9,5.9 0 0 0 1.05,-3.75a26.4,26.4 0 0 1 -5.76,-3.13l0,0.02zm-6.9,-2.78a10.17,10.17 0 0 1 5,1.24c-4.86,-4.31 -7.44,-10.16 -6.32,-15.79a17.2,17.2 0 0 1 4.67,-8.47a57.45,57.45 0 0 0 -18.38,13c0.46,-0.05 0.94,-0.08 1.42,-0.09l0.16,0c4.42,0 8.1,3 10.78,5.15l0.43,0.35a5.92,5.92 0 0 1 2.24,4.59l0,0.02z" class="cls-3"/>
   <path id="svg_31" fill=" #000000" d="m488.82,437.11a69,69 0 0 1 23.83,4.35c35.92,13.21 48.63,48.49 43.57,69.75a37.17,37.17 0 0 1 10.65,-1.87c5.79,0 11,2.2 14.79,8.55c4.94,8.17 4.18,17.36 -1.15,23.78a19.18,19.18 0 0 1 -15,6.6a24.67,24.67 0 0 1 -8.19,-1.43c-1.62,7.78 -2.72,15.78 -5,23.43c-8,26.94 -33.78,44.75 -61.15,44.75a62.31,62.31 0 0 1 -14.17,-1.62c-26.15,-6.08 -44.49,-21.57 -55.26,-45.75c-2.45,-5.5 -1.83,-12.37 -2.6,-18.62c-0.12,-1 -0.13,-2 -0.26,-4c-5.27,4.64 -5.4,14 -14.21,14a14.19,14.19 0 0 1 -1.89,-0.13c0.87,-5.61 2.42,-11.23 2.48,-16.86c0.15,-13 -0.34,-26 -0.77,-39.08c-0.09,-2.73 -1.16,-5.42 -1.61,-8.15a5,5 0 0 1 4.89,-6a5.9,5.9 0 0 1 2.62,0.64c2.9,1.42 5.32,3.82 8.2,6c4.41,-24.85 19.75,-41.45 41.83,-51.85a66.13,66.13 0 0 1 28.4,-6.49m4.52,66.68l-1.64,-4.79l-1.85,1.59l-2.85,13.24c3.81,-2 6.78,-6.18 10.59,-6.18a7,7 0 0 1 4.51,1.93c3.84,3.19 3.83,7.11 -0.54,10.91l0.27,0a97.51,97.51 0 0 0 12.17,-0.79c12.52,-1.54 21.36,-12.68 19.46,-25c-2.75,-17.75 -19.94,-35 -40.4,-35a35.78,35.78 0 0 0 -4,0.22a36.78,36.78 0 0 0 -5.21,1.31c10.75,4.21 20.44,8.69 21.83,21.49c1.06,9.69 -3.51,16.44 -12.38,21.12m-47,14a12.73,12.73 0 0 0 3.71,-0.59c-2.76,-1.43 -4.84,-2.21 -6.58,-3.46c-4.34,-3.12 -5.54,-7.67 -4.52,-12.64c0.95,-4.67 4,-8.33 8.82,-8.42l0.07,0c2.58,0 5.38,2.42 7.65,4.25c0.58,0.46 -0.51,3 -0.63,3.57c-2.08,0 -3.92,-0.42 -5.26,-0.42a2.58,2.58 0 0 0 -1.74,0.46c-1,0.9 -1.31,4.46 -0.39,5.46c1.35,1.48 4,1.83 6.2,2.4l0.08,0c0.47,0 1.2,-0.94 2.07,-1.62l-2.8,-2a52.47,52.47 0 0 1 6.49,-1.86a10.47,10.47 0 0 1 1.54,-0.12a4.26,4.26 0 0 1 2.74,0.73c3.53,3.26 2.83,6 -3,12.23c0.73,0 1.45,0.06 2.14,0.06c14.1,0 18.65,-8.66 16,-17.14c-8.57,-2.05 -14.66,-8.85 -13.43,-15c1.05,-5.27 7,-9.89 12.51,-9.89a9.17,9.17 0 0 1 2.39,0.31c2.66,0.71 6.07,2.36 7.12,4.55c1.94,4.07 2.4,8.85 3.52,13.52c4.74,-0.63 7.43,-12.86 3.63,-17.64a24.25,24.25 0 0 0 -18.67,-9.11a21.55,21.55 0 0 0 -5.38,0.67c-13.72,3.46 -24.4,11.73 -33.22,22.32c-6.47,7.77 -5.85,17.73 0.72,25.13c2.15,2.44 4.65,4.24 8.18,4.24m33.87,-24.86c1.78,-2.75 3.09,-3.91 3.26,-5.22c0.45,-3.5 -1.47,-5.84 -4.93,-6l0,0c-1.3,0 -3.85,2.38 -3.73,2.6a92.66,92.66 0 0 0 5.44,8.6m61.83,57c4.36,-3.12 5.43,-6.33 5.15,-10.63c-0.5,-7.65 -0.24,-15.34 -0.62,-23c-0.16,-3.23 -1.12,-6.41 -1.72,-9.62l-1.65,0c-4.26,8 -6.61,17.76 -17.84,20.28c10.22,4.24 14.46,12.57 16.68,23m-59.8,-29l-9.8,3.42l9.51,7.31c0.11,-4 0.19,-7.06 0.29,-10.73m82.52,15.88c2.91,0 7.12,-4.41 7.32,-7.74a7.32,7.32 0 0 0 -7.17,-7.47l-0.48,0c-4.49,0 -7.58,2.67 -7.82,6.85c-0.22,3.67 4,8.1 8,8.36l0.19,0m-88.43,49.14a30.62,30.62 0 0 0 3.91,-0.24a16,16 0 0 0 13.59,-12.88c0.86,-4.28 -2.68,-10.78 -7,-13.14c0.54,3.34 1.94,6.71 1.37,9.71c-1,5.39 -6.16,8.93 -11.29,8.93c-0.3,0 -0.61,0 -0.91,0c-6.18,-0.51 -11.15,-5.3 -12.35,-11.91c-0.82,-4.51 2.46,-9.18 8.12,-11.56c6.65,-2.8 7.6,-5 5.87,-12.14c-1.41,-5.77 -4.79,-10.34 -10.2,-11.83a134.82,134.82 0 0 0 -23.34,-3.94l-0.45,0a10.54,10.54 0 0 0 -6.9,3.28c-5.91,6.61 -6.67,14.86 -4.09,22.82c4,12.43 14,19.95 24.49,26.73c5.91,3.82 12.26,6.11 19.18,6.11m22.26,-41.14a11,11 0 0 1 -7.47,-3.2c-1.17,-1.14 -2.42,-2.19 -4.38,-4l2.12,14.58l1.45,-0.85c2.45,0.93 5.3,1.35 7.28,2.89c6.68,5.19 7.43,12.51 5.79,20.13s-7.8,11.29 -14.46,14.07c-2.12,0.88 -4.4,1.4 -6.6,2.08c0.07,0.51 0.13,1 0.2,1.52c3.94,0.35 7.88,1 11.81,1l0.55,0c13.93,-0.24 23.77,-7.77 31.6,-18.52c9,-12.38 10.13,-34.22 -12.12,-40.55c-4.84,-1.37 -10,-1.69 -15,-2.49c4.92,4.71 6.36,8.3 3.95,11.28a5.91,5.91 0 0 1 -4.74,2m-21.57,26.93c1.5,0 4.3,-2.9 4.34,-4.51c0.05,-2.09 -2.13,-4.23 -4.26,-7.93c-2.83,3 -5.14,4.41 -5.53,6.19c-0.82,3.83 2.21,6.07 5.39,6.25l0.06,0m11.82,-145.9a77.21,77.21 0 0 0 -33.24,7.57c-12.89,6.08 -23.45,14 -31.39,23.49a75.07,75.07 0 0 0 -12.42,21a16.58,16.58 0 0 0 -4,-0.47a16.26,16.26 0 0 0 -12.43,5.72a16.62,16.62 0 0 0 -3.65,13.51c0.25,1.54 0.6,2.91 0.9,4.12a21.1,21.1 0 0 1 0.56,2.57l0.1,3c0.39,11.72 0.8,23.83 0.66,35.62a56.52,56.52 0 0 1 -1.33,9.57c-0.35,1.83 -0.71,3.71 -1,5.67l-1.78,11.48l11.52,1.52a26.1,26.1 0 0 0 3.37,0.22a21.25,21.25 0 0 0 5.68,-0.73a27.75,27.75 0 0 0 1,2.65c12.4,27.72 33.63,45.32 63.09,52.17a73.55,73.55 0 0 0 16.74,1.92c33.19,0 62.82,-21.74 72,-52.87a142.07,142.07 0 0 0 3.22,-13.89a30.43,30.43 0 0 0 22.78,-10.69c8.6,-10.34 9.44,-24.83 2.14,-36.9c-5.26,-8.7 -13.14,-13.51 -22.86,-14a73.8,73.8 0 0 0 -8.7,-30.07c-6.47,-12.08 -19.23,-28.32 -43.25,-37.15a80.19,80.19 0 0 0 -27.74,-5l0.03,-0.03zm22.77,77.23a29.62,29.62 0 0 0 5.62,-18.45a28.55,28.55 0 0 1 5,11.89a10.07,10.07 0 0 1 -1.93,7.69a11.1,11.1 0 0 1 -5.48,3.85a18.76,18.76 0 0 0 -3.26,-5l0.05,0.02zm-59.24,59.3c-4.34,-3.82 -7.31,-7.78 -8.9,-12.68c-2,-6.16 0,-9.57 1.22,-11.14a118.79,118.79 0 0 1 19.75,3.32c1.06,0.29 1.72,2 2,3c-7.94,3.65 -13.09,10.22 -14.1,17.52l0.03,-0.02zm58.24,-10.67a16.4,16.4 0 0 0 1.56,-1.67a17.23,17.23 0 0 0 2.35,-3.83c4.66,2.17 5.66,5.09 6,6.16c1.54,4.47 0.22,10.89 -3.23,15.61c-0.64,0.88 -1.27,1.71 -1.92,2.5c0.53,-8.16 -1.67,-14.27 -4.79,-18.77l0.03,0z"/>
   <path id="svg_32" fill=" #c9f0b4" d="m395.07,564.41a6.7,6.7 0 0 1 -6.05,-3.85c-0.38,-0.83 -0.73,-1.57 -1.06,-2.25a41.92,41.92 0 0 1 -2.43,-5.74c-0.35,-1.13 -1.42,-4.56 -2,-5.14c-0.31,-0.18 -1.51,-0.45 -5.31,-0.58c-1.93,-0.07 -5.59,-0.1 -10.57,-0.1c-18.11,0 -49.39,0.42 -69.74,1l-8.65,0.22l3.16,-7.82l-0.29,-0.64l-8.88,-0.07l-0.15,0.41l4.34,8.11l-9.19,0.24l-24.73,0.68c-29.8,0.83 -55.55,1.55 -71.41,1.55c-4,0 -7.2,0 -9.7,-0.14c-29.1,-1.1 -63.66,-2.45 -99.26,-4.14c-0.48,0 -0.94,0 -1.4,0c-3.79,0 -4.44,0.78 -5.21,2.82a12.33,12.33 0 0 1 -2.42,3.76c-0.28,0.33 -0.58,0.68 -0.9,1.1l-3.65,4.82l-34.47,-29.65l34.2,-29l3.59,5c2,2.83 4.57,3.83 9.66,3.83c1.4,0 2.86,-0.07 4.4,-0.15s3.28,-0.17 5,-0.17l1.4,0c8.2,0.26 19.43,0.39 34.35,0.39c30.05,0 70.77,-0.53 110.15,-1c40,-0.52 81.27,-1 112.21,-1c16.27,0 28.45,0.15 37.24,0.44l1.17,0c6.42,0 9.4,-1.76 11.39,-6.72c2.35,-5.83 6.64,-6.46 8.37,-6.46a10.18,10.18 0 0 1 6.73,2.83c2.66,2.32 5.54,5.2 6.72,9c5,16 4.05,31.16 -2.79,44.94a38.38,38.38 0 0 1 -6.18,8.33c-0.8,0.89 -1.64,1.84 -2.51,2.87a6.63,6.63 0 0 1 -5.13,2.28z" class="cls-3"/>
   <path id="svg_33" fill=" #000000" d="m398.19,499.74a4.84,4.84 0 0 1 3,1.43c2,1.77 4.27,4 5,6.42c4.3,13.82 4.06,27.6 -2.45,40.73c-1.67,3.37 -4.61,6.11 -7.95,10.06a1,1 0 0 1 -0.75,0.35a1,1 0 0 1 -0.9,-0.57a66.12,66.12 0 0 1 -3.23,-7.28c-2.63,-8.46 -3.66,-9.4 -12.56,-9.7c-2.09,-0.07 -5.87,-0.11 -10.78,-0.11c-17.34,0 -48.78,0.41 -69.87,1a5.31,5.31 0 0 0 -0.16,-4.28c11.94,-0.12 27.6,-0.19 42.17,-0.19c16.7,0 32,0.1 38.58,0.35l0.39,0c2.51,0 5.11,-0.88 8.66,-1.49c-2.08,-1.93 -84.73,-2.89 -166.3,-2.89c-78.64,0 -156.29,0.89 -159.85,2.64c2,0.45 4.08,1.24 6.13,1.3c20,0.59 40,0.86 60,1.6c7.05,0.26 16.55,0.36 27.78,0.36c32.33,0 79,-0.86 122.51,-1.38a5.39,5.39 0 0 0 0.4,4.43c-38.66,1 -75.85,2.23 -96,2.23c-3.8,0 -7,-0.05 -9.47,-0.14c-33.08,-1.25 -66.15,-2.57 -99.21,-4.14c-0.57,0 -1.13,0 -1.67,0c-4.89,0 -8.55,1.26 -10.52,6.49c-0.4,1.08 -1.4,1.94 -2.54,3.44l-24.76,-21.4l24.45,-20.71c3.78,5.23 8.88,6.18 14.26,6.18c3.09,0 6.28,-0.31 9.36,-0.31c0.41,0 0.82,0 1.22,0c8.73,0.27 20.57,0.38 34.53,0.38c60.44,0 160.84,-2.07 222.37,-2.07c15.06,0 27.79,0.12 37,0.43c0.46,0 0.91,0 1.36,0c8.09,0 13.57,-2.6 16.66,-10.27c0.83,-2.06 1.91,-2.91 3.1,-2.91m0,-11.35l0,0c-6,0 -11.11,3.75 -13.63,10c-0.87,2.18 -1.27,3.17 -6.13,3.17l-1,0c-8.85,-0.3 -21.09,-0.44 -37.42,-0.44c-31,0 -72.31,0.53 -112.28,1c-39.37,0.51 -80.08,1 -110.09,1c-14.86,0 -26,-0.12 -34.17,-0.38l-1.58,0c-1.83,0 -3.56,0.09 -5.24,0.17c-1.47,0.08 -2.86,0.15 -4.12,0.15c-4,0 -4.46,-0.66 -5.06,-1.48l-7.18,-9.94l-9.25,8l-18.62,15.74l-5.87,5l-10.15,8.6l10.09,8.67l8,6.85l16.85,14.49l9.16,7.87l7.29,-9.63c0.2,-0.26 0.43,-0.53 0.7,-0.85a18.84,18.84 0 0 0 3.06,-4.58l0.25,0l1.13,0c35.63,1.69 70.2,3 99.32,4.14c2.57,0.1 5.81,0.14 9.9,0.14c16,0 41.75,-0.71 71.62,-1.55l24.68,-0.67l2.39,-0.07l0,0.06l17.3,-0.45c20.3,-0.52 51.51,-1 69.57,-1c6.23,0 9.09,0.05 10.39,0.1c0.63,0 1.15,0 1.59,0.07c0.15,0.45 0.33,1 0.53,1.67a46.58,46.58 0 0 0 2.74,6.51c0.31,0.66 0.66,1.38 1,2.18a12.34,12.34 0 0 0 20.62,2.75c0.8,-1 1.62,-1.87 2.41,-2.76a43.18,43.18 0 0 0 7,-9.58c7.51,-15.13 8.56,-31.67 3.13,-49.14c-1.61,-5.18 -5.34,-8.92 -8.4,-11.6a15.78,15.78 0 0 0 -10.47,-4.23l-0.06,0.02z"/>
   <path id="svg_34" fill=" #c9f0b4" d="m80.13,612.94c-6.73,0 -10.64,-3.83 -11,-10.78l0,-1c-0.36,-6.83 -0.53,-10.26 2.11,-13.14c2.45,-2.67 5.64,-2.78 9.33,-2.9c1.19,0 2.53,-0.09 4.11,-0.2c0.47,0 0.94,-0.06 1.41,-0.07l-0.09,-4.85c-2.27,0 -4.45,0 -6.6,0.21c-0.43,0 -0.83,0 -1.22,0a9.09,9.09 0 0 1 -6.87,-2.68a9.75,9.75 0 0 1 -2.38,-7.53c0,-0.25 0,-0.64 0,-1.06s0,-0.79 -0.05,-1.19l-0.38,-25.15l91.4,-1.37l0.56,37.84l-5.67,0.08c-1.47,0 -2.91,0.06 -4.33,0.09c-2.38,0.05 -4.83,0.11 -7.24,0.11l-1.12,0c-0.07,1.62 -0.11,3.14 -0.08,4.19c1.34,0.11 3.34,0.11 4.46,0.11l1.52,0c1,0 2,0 3.32,0l8.17,-0.13l0.08,5.68c0,1.28 0.06,2.52 0.1,3.74a74.93,74.93 0 0 1 -0.1,9.83c-0.37,4.06 -4.7,8.28 -8.73,8.53c-7.4,0.45 -14.87,0.58 -22.1,0.69l-2.74,0.01c-5,0 -10.54,-3 -10.84,-11.26c-0.08,-2.22 -0.21,-4.51 -0.33,-6.72c-0.27,-4.84 -0.55,-9.84 -0.4,-14.87c0,-0.16 0,-0.3 0,-0.44l-0.1,0c-0.39,0.07 -0.77,0.12 -1.15,0.17l0,2c0.09,5.32 0.18,10.81 0.22,16.19c0.09,10.93 -4.14,15.29 -15.11,15.54c-2.67,0.06 -5.34,0.09 -8,0.12c-3.11,0 -6.33,0.07 -9.47,0.16l-0.69,0.05z" class="cls-3"/>
   <path id="svg_35" fill=" #000000" d="m154.28,547c0.13,9 0.26,17.4 0.39,26.49c-3.95,0.06 -7.74,0.2 -11.49,0.2c-1,0 -1.94,0 -2.91,0l-0.27,0c-2.47,0 -3.4,0.82 -3.51,3.58c-0.5,11.57 -0.61,12.09 10,12.09l1.51,0c1.57,0 3.14,-0.05 5.88,-0.09c0.07,4.62 0.41,8.83 0,13c-0.12,1.27 -2.18,3.31 -3.44,3.39c-8.12,0.49 -16.27,0.58 -24.41,0.72l-0.03,0c-3.72,0 -5,-2.34 -5.17,-5.78c-0.26,-7.08 -0.94,-14.16 -0.73,-21.22c0.14,-4.43 -1.2,-6.39 -4.58,-6.39a12.45,12.45 0 0 0 -2.15,0.21c-1.7,0.3 -3.45,0.36 -5.94,0.61c0.12,7.93 0.28,15.66 0.34,23.39s-1.65,9.64 -9.57,9.82c-5.84,0.14 -11.68,0.11 -17.52,0.28l-0.49,0c-3.48,0 -5.12,-1.2 -5.33,-5.4c-0.66,-12.82 -0.85,-10.51 10.23,-11.3c2.09,-0.15 4.19,-0.08 6.77,-0.12c-0.08,-5.29 -0.15,-10.29 -0.24,-16.12c-4.26,0.07 -8.47,-0.08 -12.64,0.26l-0.77,0c-2.78,0 -3.73,-1.42 -3.57,-4.27c0,-0.88 0,-1.76 -0.07,-2.65c-0.09,-6.35 -0.19,-12.7 -0.29,-19.47l80.05,-1.2m11.18,-11.51l-11.35,0.17l-80.05,1.19l-11.34,0.17l0.17,11.35l0.07,5c0.07,5 0.14,9.74 0.22,14.52c0,0.46 0,0.93 0,1.4l0,0.53c-0.31,5.92 1.95,9.63 3.91,11.7a12.85,12.85 0 0 0 1.35,1.25a15.06,15.06 0 0 0 -1.5,1.41c-4.25,4.64 -4,9.94 -3.6,17.27l0,1c0.51,10 6.9,16.16 16.67,16.16l0.94,0c3.1,-0.09 6.3,-0.12 9.4,-0.16c2.63,0 5.35,-0.05 8.06,-0.12c5.22,-0.12 11.17,-0.86 15.63,-5.44l0,0a16,16 0 0 0 11.91,4.77l0.35,0l2.52,0c7.3,-0.12 14.85,-0.24 22.38,-0.71c6.84,-0.41 13.4,-6.8 14,-13.66a81.3,81.3 0 0 0 0.12,-10.55c0,-1.19 -0.08,-2.43 -0.09,-3.64l-0.07,-4.38l1,0l-0.21,-11.4l-0.28,-18.5l-0.12,-8l-0.16,-11.34l0.07,0.01z"/>
   <path id="svg_36" fill=" #c9f0b4" d="m453.49,567.46a15.3,15.3 0 0 1 -13.23,-7.37c-4.94,-8.67 -2.3,-21.62 5.42,-26.65a21.83,21.83 0 0 1 11.82,-3.3c7.69,0 14.44,3.41 17.6,8.9c2.31,4 1.78,9.14 1.26,11.85c-0.77,4 -5.11,7.35 -8.67,7.93a7.34,7.34 0 0 1 -1.06,0.08a7,7 0 0 1 -1.45,-0.15a10.48,10.48 0 0 1 -0.82,2.42c-1.93,3.94 -5.99,6.28 -10.87,6.29z" class="cls-3"/>
   <path id="svg_37" fill=" #000000" d="m457.5,535.81c5.2,0 10.42,2.13 12.69,6.07c1.22,2.11 1.09,5.38 0.6,7.94c-0.27,1.41 -2.46,3.15 -4,3.39l-0.16,0c-1.12,0 -3,-1.71 -3.57,-3c-1.35,-3.11 -3.1,-5.48 -6.55,-5.48l-0.33,0c-1.55,0.07 -3.89,0.88 -4.38,2c-0.75,1.74 -0.45,4.08 -0.08,6.07c0.07,0.37 1.57,0.76 2.72,0.76a3.2,3.2 0 0 0 0.72,-0.07a18.1,18.1 0 0 0 4,-2c0.05,1.61 1.14,4.91 0.05,7.14s-3.31,3.1 -5.77,3.1a9.72,9.72 0 0 1 -8.3,-4.5c-3.4,-6 -1.57,-15.73 3.59,-19.09a16.09,16.09 0 0 1 8.72,-2.38m0,-11.34a27.16,27.16 0 0 0 -14.91,4.21c-10.22,6.66 -13.67,23 -7.25,34.22a21,21 0 0 0 18.15,10.23a17.51,17.51 0 0 0 15.62,-8.81c5.36,-1.08 11.53,-5.66 12.82,-12.36c0.82,-4.25 1.16,-10.43 -1.91,-15.75c-4.18,-7.24 -12.8,-11.74 -22.52,-11.74z"/>
   <path id="svg_38" fill=" #ffffff" d="m278.07,542.48c-45.95,1.23 -90.4,3.23 -106,2.64c-33.07,-1.25 -65.57,-3.12 -98.63,-4.69" class="cls-1"/>
   <path id="svg_39" fill=" #000000" d="m179.18,550.9c-2.87,0 -5.34,0 -7.37,-0.11c-22.11,-0.84 -44.35,-2 -65.86,-3.06q-16.36,-0.83 -32.83,-1.63l0.54,-11.33q16.5,0.78 32.87,1.63c21.47,1.09 43.67,2.21 65.71,3.05c10.26,0.38 34,-0.39 61.44,-1.29c13.59,-0.44 29,-0.94 44.24,-1.35l0.3,11.34c-15.21,0.41 -30.59,0.91 -44.17,1.36c-23.32,0.76 -42.68,1.39 -54.87,1.39z"/>
   <path id="svg_40" fill=" #ffffff" d="m267,569.28a6.34,6.34 0 0 1 -4.93,-2.42c-3.94,-4.72 -7.31,-19.32 -8.78,-30.89c-2.24,-17.63 -0.75,-29 4.43,-33.89l0.25,-0.23l0.26,-0.19a13.36,13.36 0 0 1 7.37,-2.41c2.37,0 6.81,0.8 9.93,6.16c2.68,4.59 2.6,18.75 2.05,29.82c-0.35,7.23 -1.53,24.67 -4.82,30.39a6.51,6.51 0 0 1 -5.76,3.66z" class="cls-1"/>
   <path id="svg_41" fill=" #000000" d="m265.57,504.56c1.76,0 3.74,0.79 5.34,3.53c3.53,6 0.86,55.88 -3.94,55.88a1.15,1.15 0 0 1 -0.85,-0.51c-5.32,-6.39 -13.31,-49.52 -4.79,-57.5a8,8 0 0 1 4.24,-1.4m0,-10.62l0,0a18.61,18.61 0 0 0 -10.49,3.42l-0.54,0.39l-0.48,0.45c-4.06,3.81 -6.33,9.85 -6.93,18.47a108.14,108.14 0 0 0 0.86,20c0.54,4.27 3.57,25.94 10,33.62a11.6,11.6 0 0 0 19.38,-2c2.84,-4.95 4.7,-16 5.52,-32.79c1.26,-25.83 -1.67,-30.86 -2.77,-32.75c-3.26,-5.59 -8.55,-8.79 -14.52,-8.79l-0.03,-0.02z"/>
   <path id="svg_42" fill=" #ffffff" d="m245.14,569.28a6.34,6.34 0 0 1 -4.93,-2.42c-3.94,-4.72 -7.31,-19.32 -8.78,-30.89c-2.24,-17.63 -0.75,-29 4.43,-33.89l0.25,-0.23l0.26,-0.19a13.36,13.36 0 0 1 7.37,-2.41c2.37,0 6.81,0.8 9.93,6.16c2.68,4.59 2.6,18.75 2.05,29.81c-0.35,7.24 -1.53,24.68 -4.82,30.4a6.51,6.51 0 0 1 -5.76,3.66z" class="cls-1"/>
   <path id="svg_43" fill=" #000000" d="m243.75,504.56c1.75,0 3.73,0.79 5.33,3.53c3.53,6 0.86,55.88 -3.94,55.88a1.15,1.15 0 0 1 -0.85,-0.51c-5.29,-6.39 -13.29,-49.52 -4.79,-57.46a8,8 0 0 1 4.25,-1.4m0,-10.62l0,0a18.61,18.61 0 0 0 -10.49,3.42l-0.54,0.39l-0.48,0.45c-4.06,3.81 -6.33,9.85 -6.93,18.47a108.14,108.14 0 0 0 0.86,20c0.54,4.27 3.57,25.94 10,33.62a11.6,11.6 0 0 0 19.38,-2c2.84,-4.95 4.7,-16 5.52,-32.79c1.26,-25.83 -1.67,-30.86 -2.77,-32.75c-3.26,-5.59 -8.55,-8.79 -14.51,-8.79l-0.04,-0.02z"/>
   <path id="svg_44" fill=" #ffffff" d="m223.31,569.28a6.34,6.34 0 0 1 -4.93,-2.42c-3.94,-4.72 -7.31,-19.32 -8.78,-30.89c-2.24,-17.63 -0.75,-29 4.44,-33.89l0.24,-0.23l0.26,-0.19a13.37,13.37 0 0 1 7.38,-2.41c2.36,0 6.8,0.8 9.92,6.16c2.68,4.59 2.6,18.75 2,29.82c-0.35,7.23 -1.53,24.67 -4.82,30.39a6.51,6.51 0 0 1 -5.71,3.66z" class="cls-1"/>
   <path id="svg_45" fill=" #000000" d="m221.92,504.56c1.75,0 3.73,0.79 5.33,3.53c3.53,6 0.86,55.88 -3.94,55.88a1.15,1.15 0 0 1 -0.85,-0.51c-5.32,-6.39 -13.31,-49.52 -4.79,-57.5a8,8 0 0 1 4.25,-1.4m0,-10.62l0,0a18.62,18.62 0 0 0 -10.5,3.42l-0.54,0.39l-0.48,0.45c-4.06,3.81 -6.33,9.85 -6.93,18.47a108.14,108.14 0 0 0 0.86,20c0.54,4.27 3.57,25.94 10,33.62a11.6,11.6 0 0 0 19.38,-2c2.84,-4.95 4.7,-16 5.52,-32.79c1.26,-25.83 -1.67,-30.86 -2.77,-32.75c-3.26,-5.59 -8.55,-8.79 -14.51,-8.79l-0.03,-0.02z"/>
   <path id="svg_46" fill=" #ffffff" d="m313.2,566.62a6.53,6.53 0 0 1 -5.77,-3.66c-3.29,-5.73 -4.46,-23.17 -4.82,-30.4c-0.54,-11.07 -0.62,-25.22 2.06,-29.81c3.12,-5.36 7.56,-6.16 9.92,-6.16a13.2,13.2 0 0 1 7.41,2.41l0.27,0.19l0.24,0.23c5.18,4.85 6.67,16.26 4.43,33.89c-1.46,11.57 -4.84,26.17 -8.77,30.89a6.34,6.34 0 0 1 -4.93,2.42l-0.04,0z" class="cls-1"/>
   <path id="svg_47" fill=" #000000" d="m314.59,501.9a8.07,8.07 0 0 1 4.25,1.39c8.52,8 0.53,51.12 -4.79,57.51a1.19,1.19 0 0 1 -0.85,0.51c-4.8,0 -7.47,-49.84 -3.95,-55.89c1.6,-2.74 3.59,-3.52 5.34,-3.52m0,-10.62c-6,0 -11.25,3.2 -14.51,8.79c-1.11,1.89 -4,6.92 -2.77,32.75c0.82,16.81 2.67,27.84 5.52,32.79a11.61,11.61 0 0 0 19.38,2c6.4,-7.68 9.42,-29.35 10,-33.62a107.28,107.28 0 0 0 0.86,-20c-0.6,-8.62 -2.86,-14.66 -6.92,-18.47l-0.49,-0.45l-0.53,-0.39a18.68,18.68 0 0 0 -10.5,-3.42l-0.04,0.02z"/>
   <path id="svg_48" fill=" #ffffff" d="m335,566.62a6.53,6.53 0 0 1 -5.77,-3.66c-3.29,-5.73 -4.46,-23.17 -4.82,-30.4c-0.54,-11.07 -0.62,-25.22 2.06,-29.81c3.12,-5.36 7.56,-6.16 9.92,-6.16a13.2,13.2 0 0 1 7.37,2.41l0.27,0.19l0.24,0.23c5.18,4.85 6.67,16.26 4.43,33.89c-1.46,11.57 -4.84,26.17 -8.77,30.89a6.35,6.35 0 0 1 -4.93,2.42z" class="cls-1"/>
   <path id="svg_49" fill=" #000000" d="m336.42,501.9a8.07,8.07 0 0 1 4.25,1.39c8.52,8 0.53,51.12 -4.79,57.51a1.19,1.19 0 0 1 -0.85,0.51c-4.8,0 -7.47,-49.84 -3.95,-55.89c1.6,-2.74 3.59,-3.52 5.34,-3.52m0,-10.62c-6,0 -11.25,3.2 -14.51,8.79c-1.11,1.89 -4,6.92 -2.77,32.75c0.82,16.81 2.67,27.84 5.52,32.79a11.61,11.61 0 0 0 19.38,2c6.4,-7.68 9.42,-29.35 10,-33.62a107.28,107.28 0 0 0 0.86,-20c-0.6,-8.62 -2.86,-14.66 -6.92,-18.47l-0.49,-0.45l-0.53,-0.39a18.68,18.68 0 0 0 -10.5,-3.42l-0.04,0.02z"/>
   <path id="svg_50" fill=" #ffffff" d="m356.86,566.62a6.53,6.53 0 0 1 -5.77,-3.66c-3.29,-5.73 -4.46,-23.17 -4.82,-30.4c-0.54,-11.07 -0.62,-25.22 2.06,-29.81c3.12,-5.36 7.56,-6.16 9.92,-6.16a13.2,13.2 0 0 1 7.37,2.41l0.27,0.19l0.24,0.23c5.18,4.85 6.67,16.26 4.43,33.89c-1.46,11.57 -4.84,26.17 -8.77,30.89a6.35,6.35 0 0 1 -4.93,2.42z" class="cls-1"/>
   <path id="svg_51" fill=" #000000" d="m358.25,501.9a8.07,8.07 0 0 1 4.25,1.39c8.52,8 0.53,51.12 -4.79,57.51a1.19,1.19 0 0 1 -0.85,0.51c-4.81,0 -7.47,-49.84 -3.95,-55.89c1.6,-2.74 3.59,-3.52 5.34,-3.52m0,-10.62c-6,0 -11.25,3.2 -14.51,8.79c-1.11,1.89 -4,6.92 -2.77,32.75c0.82,16.81 2.67,27.84 5.51,32.79a11.62,11.62 0 0 0 19.39,2c6.4,-7.68 9.42,-29.35 10,-33.62a107.28,107.28 0 0 0 0.86,-20c-0.6,-8.62 -2.86,-14.66 -6.92,-18.47l-0.49,-0.45l-0.53,-0.39a18.68,18.68 0 0 0 -10.5,-3.42l-0.04,0.02z"/>
   <path id="svg_52" fill=" #ffffff" d="m237.09,417l17.25,15.28l25.14,-15.28l10.84,10.35l18.24,-11.83l17.75,15.28l17.74,-15.8s15.28,15.78 13.8,16.76s-31.21,28.1 -31.21,28.1l-16.64,-16.78l-19.22,18.24l-14.3,-15.77l-19.18,15.28l-17.25,-15.78l-9.37,-8.54l-5.42,-10.68l11.83,-8.83z" class="cls-1"/>
   <path id="svg_53" fill=" #000000" d="m359.83,573.71l7.79,-27l10.57,0.1s9,10.42 10.83,13.71s-8,12.16 -9,13.64s-20.19,-0.45 -20.19,-0.45z"/>
  </svg>
  <svg id="svg_54" width="310.16" height="20.2" x="140.5" viewBox="1.5 5.800000190734863 310.1600036621094 20.200000762939453" y="73.5" xmlns="http://www.w3.org/2000/svg">
   <g id="svg_55" fill="#A6A6A6">
    <path id="svg_56" d="m3.1,21.4l0,-9.2l-1.6,0l0,9.2l1.6,0zm2.78,-7.44l0,0l0.88,-1.32q-0.36,-0.38 -0.79,-0.51q-0.43,-0.13 -0.93,-0.13l0,0q-0.64,0 -1.26,0.5q-0.62,0.5 -1.01,1.35q-0.39,0.85 -0.39,1.95l0,0l0.72,0q0,-0.66 0.13,-1.18q0.13,-0.52 0.47,-0.82q0.34,-0.3 0.94,-0.3l0,0q0.4,0 0.66,0.11q0.26,0.11 0.58,0.35zm8.34,7.64l0,0q1.48,0 2.57,-0.59q1.09,-0.59 1.81,-1.75l0,0l-1.3,-0.82q-0.5,0.84 -1.22,1.25q-0.72,0.41 -1.66,0.41l0,0q-0.94,0 -1.6,-0.4q-0.66,-0.4 -1,-1.16q-0.34,-0.76 -0.34,-1.84l0,0q0.02,-1.06 0.37,-1.79q0.35,-0.73 1,-1.12q0.65,-0.39 1.57,-0.39l0,0q0.78,0 1.36,0.34q0.58,0.34 0.91,0.94q0.33,0.6 0.33,1.42l0,0q0,0.14 -0.06,0.35q-0.06,0.21 -0.12,0.31l0,0l0.64,-0.92l-6.6,0l0,1.36l7.86,0q0,-0.04 0.01,-0.19q0.01,-0.15 0.01,-0.29l0,0q0,-1.46 -0.52,-2.52q-0.52,-1.06 -1.49,-1.63q-0.97,-0.57 -2.33,-0.57l0,0q-1.36,0 -2.39,0.6q-1.03,0.6 -1.6,1.68q-0.57,1.08 -0.57,2.52l0,0q0,1.42 0.55,2.5q0.55,1.08 1.54,1.69q0.99,0.61 2.27,0.61zm10.34,0.4l-1.62,0q0,1.18 0.58,2.09q0.58,0.91 1.61,1.41q1.03,0.5 2.37,0.5l0,0q1.16,0 2.2,-0.54q1.04,-0.54 1.7,-1.61q0.66,-1.07 0.66,-2.65l0,0l0,-9l-1.6,0l0,9q0,1.16 -0.45,1.89q-0.45,0.73 -1.13,1.07q-0.68,0.34 -1.38,0.34l0,0q-0.9,0 -1.56,-0.35q-0.66,-0.35 -1.02,-0.92q-0.36,-0.57 -0.36,-1.23l0,0zm-1.8,-5.2l0,0q0,1.48 0.62,2.56q0.62,1.08 1.66,1.66q1.04,0.58 2.28,0.58l0,0q1.16,0 2.02,-0.58q0.86,-0.58 1.35,-1.66q0.49,-1.08 0.49,-2.56l0,0q0,-1.5 -0.49,-2.57q-0.49,-1.07 -1.35,-1.65q-0.86,-0.58 -2.02,-0.58l0,0q-1.24,0 -2.28,0.58q-1.04,0.58 -1.66,1.65q-0.62,1.07 -0.62,2.57zm1.62,0l0,0q0,-1.06 0.43,-1.8q0.43,-0.74 1.15,-1.12q0.72,-0.38 1.56,-0.38l0,0q0.52,0 1.04,0.22q0.52,0.22 0.95,0.64q0.43,0.42 0.69,1.03q0.26,0.61 0.26,1.41l0,0q0,1.06 -0.44,1.8q-0.44,0.74 -1.12,1.12q-0.68,0.38 -1.38,0.38l0,0q-0.84,0 -1.56,-0.38q-0.72,-0.38 -1.15,-1.12q-0.43,-0.74 -0.43,-1.8zm14.78,1l0,0l0,-5.6l-1.6,0l0,5.8q0,1.64 0.86,2.62q0.86,0.98 2.3,0.98l0,0q0.92,0 1.6,-0.41q0.68,-0.41 1.14,-1.23l0,0l0,1.44l1.6,0l0,-9.2l-1.6,0l0,5.6q0,0.68 -0.29,1.2q-0.29,0.52 -0.82,0.81q-0.53,0.29 -1.23,0.29l0,0q-0.96,0 -1.46,-0.6q-0.5,-0.6 -0.5,-1.7zm13.1,-12l-1.6,0l0,15.6l1.6,0l0,-15.6zm6.32,12.76l0,0q0,-0.5 0.24,-0.86q0.24,-0.36 0.73,-0.56q0.49,-0.2 1.27,-0.2l0,0q0.84,0 1.58,0.21q0.74,0.21 1.44,0.69l0,0l0,-0.94q-0.14,-0.18 -0.54,-0.47q-0.4,-0.29 -1.07,-0.52q-0.67,-0.23 -1.67,-0.23l0,0q-1.7,0 -2.65,0.81q-0.95,0.81 -0.95,2.15l0,0q0,0.94 0.44,1.6q0.44,0.66 1.17,1.01q0.73,0.35 1.57,0.35l0,0q0.76,0 1.53,-0.28q0.77,-0.28 1.3,-0.86q0.53,-0.58 0.53,-1.46l0,0l-0.32,-1.2q0,0.72 -0.35,1.27q-0.35,0.55 -0.94,0.85q-0.59,0.3 -1.33,0.3l0,0q-0.58,0 -1.03,-0.19q-0.45,-0.19 -0.7,-0.57q-0.25,-0.38 -0.25,-0.9zm-1.02,-5.42l0.78,1.18q0.22,-0.16 0.6,-0.38q0.38,-0.22 0.93,-0.38q0.55,-0.16 1.23,-0.16l0,0q0.42,0 0.8,0.08q0.38,0.08 0.67,0.26q0.29,0.18 0.45,0.49q0.16,0.31 0.16,0.79l0,0l0,6.38l1.6,0l0,-6.6q0,-0.9 -0.45,-1.52q-0.45,-0.62 -1.26,-0.95q-0.81,-0.33 -1.89,-0.33l0,0q-1.28,0 -2.19,0.38q-0.91,0.38 -1.43,0.76l0,0zm14.12,8.26l0,-9.2l-1.6,0l0,9.2l1.6,0zm2.78,-7.44l0,0l0.88,-1.32q-0.36,-0.38 -0.79,-0.51q-0.43,-0.13 -0.93,-0.13l0,0q-0.64,0 -1.26,0.5q-0.62,0.5 -1.01,1.35q-0.39,0.85 -0.39,1.95l0,0l0.72,0q0,-0.66 0.13,-1.18q0.13,-0.52 0.47,-0.82q0.34,-0.3 0.94,-0.3l0,0q0.4,0 0.66,0.11q0.26,0.11 0.58,0.35zm17.24,7.64l0,0q1.48,0 2.57,-0.59q1.09,-0.59 1.81,-1.75l0,0l-1.3,-0.82q-0.5,0.84 -1.22,1.25q-0.72,0.41 -1.66,0.41l0,0q-0.94,0 -1.6,-0.4q-0.66,-0.4 -1,-1.16q-0.34,-0.76 -0.34,-1.84l0,0q0.02,-1.06 0.37,-1.79q0.35,-0.73 1,-1.12q0.65,-0.39 1.57,-0.39l0,0q0.78,0 1.36,0.34q0.58,0.34 0.91,0.94q0.33,0.6 0.33,1.42l0,0q0,0.14 -0.06,0.35q-0.06,0.21 -0.12,0.31l0,0l0.64,-0.92l-6.6,0l0,1.36l7.86,0q0,-0.04 0.01,-0.19q0.01,-0.15 0.01,-0.29l0,0q0,-1.46 -0.52,-2.52q-0.52,-1.06 -1.49,-1.63q-0.97,-0.57 -2.33,-0.57l0,0q-1.36,0 -2.39,0.6q-1.03,0.6 -1.6,1.68q-0.57,1.08 -0.57,2.52l0,0q0,1.42 0.55,2.5q0.55,1.08 1.54,1.69q0.99,0.61 2.27,0.61zm15.74,-9.4l-1.8,0l-2.2,3.2l-2.2,-3.2l-1.8,0l3.14,4.46l-3.34,4.74l1.8,0l2.4,-3.48l2.4,3.48l1.8,0l-3.34,-4.74l3.14,-4.46zm4.2,13.6l1.6,0l0,-13.6l-1.6,0l0,13.6zm9.3,-9l0,0q0,-1.5 -0.62,-2.57q-0.62,-1.07 -1.65,-1.65q-1.03,-0.58 -2.29,-0.58l0,0q-1.14,0 -2.01,0.58q-0.87,0.58 -1.36,1.65q-0.49,1.07 -0.49,2.57l0,0q0,1.48 0.49,2.56q0.49,1.08 1.36,1.66q0.87,0.58 2.01,0.58l0,0q1.26,0 2.29,-0.58q1.03,-0.58 1.65,-1.66q0.62,-1.08 0.62,-2.56zm-1.62,0l0,0q0,1.06 -0.43,1.8q-0.43,0.74 -1.14,1.12q-0.71,0.38 -1.57,0.38l0,0q-0.7,0 -1.38,-0.38q-0.68,-0.38 -1.12,-1.12q-0.44,-0.74 -0.44,-1.8l0,0q0,-1.06 0.44,-1.8q0.44,-0.74 1.12,-1.12q0.68,-0.38 1.38,-0.38l0,0q0.86,0 1.57,0.38q0.71,0.38 1.14,1.12q0.43,0.74 0.43,1.8zm8.02,4.6l0,-9.2l-1.6,0l0,9.2l1.6,0zm2.78,-7.44l0,0l0.88,-1.32q-0.36,-0.38 -0.79,-0.51q-0.43,-0.13 -0.93,-0.13l0,0q-0.64,0 -1.26,0.5q-0.62,0.5 -1.01,1.35q-0.39,0.85 -0.39,1.95l0,0l0.72,0q0,-0.66 0.13,-1.18q0.13,-0.52 0.47,-0.82q0.34,-0.3 0.94,-0.3l0,0q0.4,0 0.66,0.11q0.26,0.11 0.58,0.35zm8.34,7.64l0,0q1.48,0 2.57,-0.59q1.09,-0.59 1.81,-1.75l0,0l-1.3,-0.82q-0.5,0.84 -1.22,1.25q-0.72,0.41 -1.66,0.41l0,0q-0.94,0 -1.6,-0.4q-0.66,-0.4 -1,-1.16q-0.34,-0.76 -0.34,-1.84l0,0q0.02,-1.06 0.37,-1.79q0.35,-0.73 1,-1.12q0.65,-0.39 1.57,-0.39l0,0q0.78,0 1.36,0.34q0.58,0.34 0.91,0.94q0.33,0.6 0.33,1.42l0,0q0,0.14 -0.06,0.35q-0.06,0.21 -0.12,0.31l0,0l0.64,-0.92l-6.6,0l0,1.36l7.86,0q0,-0.04 0.01,-0.19q0.01,-0.15 0.01,-0.29l0,0q0,-1.46 -0.52,-2.52q-0.52,-1.06 -1.49,-1.63q-0.97,-0.57 -2.33,-0.57l0,0q-1.36,0 -2.39,0.6q-1.03,0.6 -1.6,1.68q-0.57,1.08 -0.57,2.52l0,0q0,1.42 0.55,2.5q0.55,1.08 1.54,1.69q0.99,0.61 2.27,0.61zm9.72,-3.02l0,0l-1.26,0.78q0.26,0.54 0.77,1.06q0.51,0.52 1.25,0.85q0.74,0.33 1.66,0.33l0,0q1.42,0 2.29,-0.8q0.87,-0.8 0.87,-2l0,0q0,-0.82 -0.39,-1.34q-0.39,-0.52 -1.05,-0.89q-0.66,-0.37 -1.46,-0.69l0,0q-0.48,-0.2 -0.92,-0.42q-0.44,-0.22 -0.72,-0.5q-0.28,-0.28 -0.28,-0.64l0,0q0,-0.46 0.36,-0.68q0.36,-0.22 0.86,-0.22l0,0q0.72,0 1.29,0.34q0.57,0.34 0.95,0.86l0,0l1.28,-0.82q-0.28,-0.52 -0.78,-0.92q-0.5,-0.4 -1.15,-0.64q-0.65,-0.24 -1.39,-0.24l0,0q-0.74,0 -1.43,0.26q-0.69,0.26 -1.12,0.8q-0.43,0.54 -0.43,1.36l0,0q0,0.8 0.41,1.33q0.41,0.53 1.02,0.86q0.61,0.33 1.21,0.57l0,0q0.54,0.2 1.02,0.43q0.48,0.23 0.79,0.56q0.31,0.33 0.31,0.81l0,0q0,0.54 -0.39,0.85q-0.39,0.31 -1.07,0.31l0,0q-0.56,0 -1.03,-0.21q-0.47,-0.21 -0.83,-0.57q-0.36,-0.36 -0.64,-0.78zm10.66,0l0,0l-1.26,0.78q0.26,0.54 0.77,1.06q0.51,0.52 1.25,0.85q0.74,0.33 1.66,0.33l0,0q1.42,0 2.29,-0.8q0.87,-0.8 0.87,-2l0,0q0,-0.82 -0.39,-1.34q-0.39,-0.52 -1.05,-0.89q-0.66,-0.37 -1.46,-0.69l0,0q-0.48,-0.2 -0.92,-0.42q-0.44,-0.22 -0.72,-0.5q-0.28,-0.28 -0.28,-0.64l0,0q0,-0.46 0.36,-0.68q0.36,-0.22 0.86,-0.22l0,0q0.72,0 1.29,0.34q0.57,0.34 0.95,0.86l0,0l1.28,-0.82q-0.28,-0.52 -0.78,-0.92q-0.5,-0.4 -1.15,-0.64q-0.65,-0.24 -1.39,-0.24l0,0q-0.74,0 -1.43,0.26q-0.69,0.26 -1.12,0.8q-0.43,0.54 -0.43,1.36l0,0q0,0.8 0.41,1.33q0.41,0.53 1.02,0.86q0.61,0.33 1.21,0.57l0,0q0.54,0.2 1.02,0.43q0.48,0.23 0.79,0.56q0.31,0.33 0.31,0.81l0,0q0,0.54 -0.39,0.85q-0.39,0.31 -1.07,0.31l0,0q-0.56,0 -1.03,-0.21q-0.47,-0.21 -0.83,-0.57q-0.36,-0.36 -0.64,-0.78zm10.28,-10.18l0,0q0,0.44 0.33,0.77q0.33,0.33 0.77,0.33l0,0q0.46,0 0.78,-0.33q0.32,-0.33 0.32,-0.77l0,0q0,-0.46 -0.32,-0.78q-0.32,-0.32 -0.78,-0.32l0,0q-0.44,0 -0.77,0.32q-0.33,0.32 -0.33,0.78zm1.9,3.8l-1.6,0l0,9.2l1.6,0l0,-9.2zm5.1,4.6l0,0q0,1.38 0.63,2.47q0.63,1.09 1.71,1.71q1.08,0.62 2.42,0.62l0,0q1.36,0 2.43,-0.62q1.07,-0.62 1.7,-1.71q0.63,-1.09 0.63,-2.47l0,0q0,-1.4 -0.63,-2.48q-0.63,-1.08 -1.7,-1.7q-1.07,-0.62 -2.43,-0.62l0,0q-1.34,0 -2.42,0.62q-1.08,0.62 -1.71,1.7q-0.63,1.08 -0.63,2.48zm1.62,0l0,0q0,-0.96 0.41,-1.71q0.41,-0.75 1.12,-1.17q0.71,-0.42 1.61,-0.42l0,0q0.9,0 1.61,0.42q0.71,0.42 1.12,1.17q0.41,0.75 0.41,1.71l0,0q0,0.96 -0.41,1.7q-0.41,0.74 -1.12,1.17q-0.71,0.43 -1.61,0.43l0,0q-0.9,0 -1.61,-0.43q-0.71,-0.43 -1.12,-1.17q-0.41,-0.74 -0.41,-1.7zm18.6,-1l0,0l0,5.6l1.6,0l0,-5.8q0,-1.66 -0.85,-2.63q-0.85,-0.97 -2.31,-0.97l0,0q-0.9,0 -1.59,0.4q-0.69,0.4 -1.15,1.24l0,0l0,-1.44l-1.6,0l0,9.2l1.6,0l0,-5.6q0,-0.68 0.29,-1.2q0.29,-0.52 0.82,-0.81q0.53,-0.29 1.23,-0.29l0,0q0.96,0 1.46,0.58q0.5,0.58 0.5,1.72zm17.4,5.6l0,-9.2l-1.6,0l0,9.2l1.6,0zm2.78,-7.44l0,0l0.88,-1.32q-0.36,-0.38 -0.79,-0.51q-0.43,-0.13 -0.93,-0.13l0,0q-0.64,0 -1.26,0.5q-0.62,0.5 -1.01,1.35q-0.39,0.85 -0.39,1.95l0,0l0.72,0q0,-0.66 0.13,-1.18q0.13,-0.52 0.47,-0.82q0.34,-0.3 0.94,-0.3l0,0q0.4,0 0.66,0.11q0.26,0.11 0.58,0.35zm8.34,7.64l0,0q1.48,0 2.57,-0.59q1.09,-0.59 1.81,-1.75l0,0l-1.3,-0.82q-0.5,0.84 -1.22,1.25q-0.72,0.41 -1.66,0.41l0,0q-0.94,0 -1.6,-0.4q-0.66,-0.4 -1,-1.16q-0.34,-0.76 -0.34,-1.84l0,0q0.02,-1.06 0.37,-1.79q0.35,-0.73 1,-1.12q0.65,-0.39 1.57,-0.39l0,0q0.78,0 1.36,0.34q0.58,0.34 0.91,0.94q0.33,0.6 0.33,1.42l0,0q0,0.14 -0.06,0.35q-0.06,0.21 -0.12,0.31l0,0l0.64,-0.92l-6.6,0l0,1.36l7.86,0q0,-0.04 0.01,-0.19q0.01,-0.15 0.01,-0.29l0,0q0,-1.46 -0.52,-2.52q-0.52,-1.06 -1.49,-1.63q-0.97,-0.57 -2.33,-0.57l0,0q-1.36,0 -2.39,0.6q-1.03,0.6 -1.6,1.68q-0.57,1.08 -0.57,2.52l0,0q0,1.42 0.55,2.5q0.55,1.08 1.54,1.69q0.99,0.61 2.27,0.61zm9.72,-3.02l0,0l-1.26,0.78q0.26,0.54 0.77,1.06q0.51,0.52 1.25,0.85q0.74,0.33 1.66,0.33l0,0q1.42,0 2.29,-0.8q0.87,-0.8 0.87,-2l0,0q0,-0.82 -0.39,-1.34q-0.39,-0.52 -1.05,-0.89q-0.66,-0.37 -1.46,-0.69l0,0q-0.48,-0.2 -0.92,-0.42q-0.44,-0.22 -0.72,-0.5q-0.28,-0.28 -0.28,-0.64l0,0q0,-0.46 0.36,-0.68q0.36,-0.22 0.86,-0.22l0,0q0.72,0 1.29,0.34q0.57,0.34 0.95,0.86l0,0l1.28,-0.82q-0.28,-0.52 -0.78,-0.92q-0.5,-0.4 -1.15,-0.64q-0.65,-0.24 -1.39,-0.24l0,0q-0.74,0 -1.43,0.26q-0.69,0.26 -1.12,0.8q-0.43,0.54 -0.43,1.36l0,0q0,0.8 0.41,1.33q0.41,0.53 1.02,0.86q0.61,0.33 1.21,0.57l0,0q0.54,0.2 1.02,0.43q0.48,0.23 0.79,0.56q0.31,0.33 0.31,0.81l0,0q0,0.54 -0.39,0.85q-0.39,0.31 -1.07,0.31l0,0q-0.56,0 -1.03,-0.21q-0.47,-0.21 -0.83,-0.57q-0.36,-0.36 -0.64,-0.78zm9.48,-1.78l0,0q0,1.38 0.63,2.47q0.63,1.09 1.71,1.71q1.08,0.62 2.42,0.62l0,0q1.36,0 2.43,-0.62q1.07,-0.62 1.7,-1.71q0.63,-1.09 0.63,-2.47l0,0q0,-1.4 -0.63,-2.48q-0.63,-1.08 -1.7,-1.7q-1.07,-0.62 -2.43,-0.62l0,0q-1.34,0 -2.42,0.62q-1.08,0.62 -1.71,1.7q-0.63,1.08 -0.63,2.48zm1.62,0l0,0q0,-0.96 0.41,-1.71q0.41,-0.75 1.12,-1.17q0.71,-0.42 1.61,-0.42l0,0q0.9,0 1.61,0.42q0.71,0.42 1.12,1.17q0.41,0.75 0.41,1.71l0,0q0,0.96 -0.41,1.7q-0.41,0.74 -1.12,1.17q-0.71,0.43 -1.61,0.43l0,0q-0.9,0 -1.61,-0.43q-0.71,-0.43 -1.12,-1.17q-0.41,-0.74 -0.41,-1.7zm14.3,1l0,0l0,-5.6l-1.6,0l0,5.8q0,1.64 0.86,2.62q0.86,0.98 2.3,0.98l0,0q0.92,0 1.6,-0.41q0.68,-0.41 1.14,-1.23l0,0l0,1.44l1.6,0l0,-9.2l-1.6,0l0,5.6q0,0.68 -0.29,1.2q-0.29,0.52 -0.82,0.81q-0.53,0.29 -1.23,0.29l0,0q-0.96,0 -1.46,-0.6q-0.5,-0.6 -0.5,-1.7zm13.1,3.6l0,-9.2l-1.6,0l0,9.2l1.6,0zm2.78,-7.44l0,0l0.88,-1.32q-0.36,-0.38 -0.79,-0.51q-0.43,-0.13 -0.93,-0.13l0,0q-0.64,0 -1.26,0.5q-0.62,0.5 -1.01,1.35q-0.39,0.85 -0.39,1.95l0,0l0.72,0q0,-0.66 0.13,-1.18q0.13,-0.52 0.47,-0.82q0.34,-0.3 0.94,-0.3l0,0q0.4,0 0.66,0.11q0.26,0.11 0.58,0.35zm5.5,2.84l0,0q0,-0.96 0.41,-1.71q0.41,-0.75 1.12,-1.17q0.71,-0.42 1.61,-0.42l0,0q0.74,0 1.39,0.23q0.65,0.23 1.13,0.61q0.48,0.38 0.68,0.84l0,0l0,-2q-0.48,-0.56 -1.37,-0.87q-0.89,-0.31 -1.83,-0.31l0,0q-1.34,0 -2.42,0.62q-1.08,0.62 -1.71,1.7q-0.63,1.08 -0.63,2.48l0,0q0,1.38 0.63,2.47q0.63,1.09 1.71,1.71q1.08,0.62 2.42,0.62l0,0q0.94,0 1.83,-0.31q0.89,-0.31 1.37,-0.87l0,0l0,-2q-0.2,0.44 -0.68,0.83q-0.48,0.39 -1.13,0.62q-0.65,0.23 -1.39,0.23l0,0q-0.9,0 -1.61,-0.43q-0.71,-0.43 -1.12,-1.17q-0.41,-0.74 -0.41,-1.7zm15,4.8l0,0q1.48,0 2.57,-0.59q1.09,-0.59 1.81,-1.75l0,0l-1.3,-0.82q-0.5,0.84 -1.22,1.25q-0.72,0.41 -1.66,0.41l0,0q-0.94,0 -1.6,-0.4q-0.66,-0.4 -1,-1.16q-0.34,-0.76 -0.34,-1.84l0,0q0.02,-1.06 0.37,-1.79q0.35,-0.73 1,-1.12q0.65,-0.39 1.57,-0.39l0,0q0.78,0 1.36,0.34q0.58,0.34 0.91,0.94q0.33,0.6 0.33,1.42l0,0q0,0.14 -0.06,0.35q-0.06,0.21 -0.12,0.31l0,0l0.64,-0.92l-6.6,0l0,1.36l7.86,0q0,-0.04 0.01,-0.19q0.01,-0.15 0.01,-0.29l0,0q0,-1.46 -0.52,-2.52q-0.52,-1.06 -1.49,-1.63q-0.97,-0.57 -2.33,-0.57l0,0q-1.36,0 -2.39,0.6q-1.03,0.6 -1.6,1.68q-0.57,1.08 -0.57,2.52l0,0q0,1.42 0.55,2.5q0.55,1.08 1.54,1.69q0.99,0.61 2.27,0.61zm9.72,-3.02l0,0l-1.26,0.78q0.26,0.54 0.77,1.06q0.51,0.52 1.25,0.85q0.74,0.33 1.66,0.33l0,0q1.42,0 2.29,-0.8q0.87,-0.8 0.87,-2l0,0q0,-0.82 -0.39,-1.34q-0.39,-0.52 -1.05,-0.89q-0.66,-0.37 -1.46,-0.69l0,0q-0.48,-0.2 -0.92,-0.42q-0.44,-0.22 -0.72,-0.5q-0.28,-0.28 -0.28,-0.64l0,0q0,-0.46 0.36,-0.68q0.36,-0.22 0.86,-0.22l0,0q0.72,0 1.29,0.34q0.57,0.34 0.95,0.86l0,0l1.28,-0.82q-0.28,-0.52 -0.78,-0.92q-0.5,-0.4 -1.15,-0.64q-0.65,-0.24 -1.39,-0.24l0,0q-0.74,0 -1.43,0.26q-0.69,0.26 -1.12,0.8q-0.43,0.54 -0.43,1.36l0,0q0,0.8 0.41,1.33q0.41,0.53 1.02,0.86q0.61,0.33 1.21,0.57l0,0q0.54,0.2 1.02,0.43q0.48,0.23 0.79,0.56q0.31,0.33 0.31,0.81l0,0q0,0.54 -0.39,0.85q-0.39,0.31 -1.07,0.31l0,0q-0.56,0 -1.03,-0.21q-0.47,-0.21 -0.83,-0.57q-0.36,-0.36 -0.64,-0.78z"/>
   </g>
  </svg>
  <svg id="svg_57" width="398.31" height="50.83" x="138" viewBox="0.49000000953674316 10.859999656677246 398.30999755859375 50.82999801635742" y="28.67" xmlns="http://www.w3.org/2000/svg">
   <g id="svg_58" fill="#000000">
    <path id="svg_59" d="m0.49,50.24l18.55,-39.38l2.25,1.1l-18.53,39.41l-2.27,-1.13zm55.71,-1.53l-6.69,0l0,-0.1q0.05,-0.12 0.07,-0.37q0.03,-0.24 0.03,-0.44l0,0q0,-0.75 -0.21,-1.67q-0.21,-0.92 -0.79,-2.28l0,0l-2.96,-6.64q-1.36,-0.05 -3.63,-0.05q-2.27,0 -4.91,0l0,0q-1.93,0 -3.72,0q-1.8,0 -3.24,0.05l0,0l-2.81,6.44q-0.36,0.91 -0.78,1.98q-0.41,1.07 -0.41,2.17l0,0q0,0.32 0.05,0.53q0.05,0.21 0.09,0.28l0,0l0,0.1l-4.98,0l0,-0.1q0.44,-0.47 1.1,-1.65q0.66,-1.18 1.44,-2.97l0,0l13.99,-31.03l1.95,0l13.26,29.84q0.47,1.05 0.97,2.04q0.5,0.99 0.94,1.77q0.44,0.78 0.78,1.31q0.34,0.54 0.46,0.69l0,0l0,0.1zm-25.15,-13.65l2.64,0q1.42,0 2.91,-0.01q1.49,-0.02 2.91,-0.03q1.43,-0.01 2.75,-0.02q1.32,-0.01 2.39,-0.04l0,0l-6.86,-15.5l-6.74,15.6zm42.97,-9.11l0.93,0l6.52,16.41l5.44,-13.6q0.17,-0.44 0.39,-0.99q0.22,-0.55 0.4,-1.12q0.17,-0.58 0.29,-1.1q0.12,-0.53 0.12,-0.94l0,0q0,-0.32 -0.05,-0.53q-0.05,-0.2 -0.1,-0.28l0,0l0,-0.09l4.4,0l0,0.09q-0.44,0.47 -1.06,1.53q-0.63,1.06 -1.48,3.09l0,0l-8.67,20.63l-1.39,0l-6.3,-15.29l-6.3,15.29l-1.39,0l-8.01,-19.44q-0.44,-1.07 -0.94,-2.06q-0.5,-0.99 -0.95,-1.77q-0.45,-0.78 -0.79,-1.3q-0.34,-0.53 -0.47,-0.68l0,0l0,-0.09l6.5,0l0,0.09q-0.05,0.13 -0.07,0.37q-0.03,0.24 -0.03,0.44l0,0q0,0.76 0.23,1.67q0.23,0.92 0.77,2.28l0,0l5.45,13.8l6.56,-16.41zm32.94,23.2l0,0q-2.71,0 -5.08,-0.86q-2.37,-0.85 -4.13,-2.5q-1.75,-1.65 -2.77,-4.08q-1.01,-2.43 -1.01,-5.55l0,0q0,-2.76 0.93,-5.12q0.93,-2.35 2.56,-4.09q1.64,-1.73 3.82,-2.71q2.19,-0.97 4.73,-0.97l0,0q2.51,0 4.66,0.86q2.15,0.87 3.72,2.52q1.58,1.65 2.49,4.08q0.92,2.42 0.99,5.52l0,0q-2.76,-0.04 -5.52,-0.07q-2.76,-0.02 -5.73,-0.02l0,0q-2.13,0 -4.14,0.02q-2.02,0.03 -3.63,0.07l0,0q0.15,2.54 0.8,4.59q0.64,2.06 1.78,3.51q1.13,1.45 2.76,2.23q1.62,0.78 3.67,0.78l0,0q1.42,0 2.67,-0.33q1.26,-0.33 2.29,-0.91q1.02,-0.59 1.83,-1.38q0.8,-0.79 1.37,-1.72l0,0l0.29,0.14l-1.81,4.35q-1.32,0.68 -3.15,1.16q-1.83,0.48 -4.39,0.48zm-3.25,-14.9l0,0q2.44,0 4.9,-0.01q2.45,-0.01 4.45,-0.08l0,0q-0.22,-2.13 -0.83,-3.81q-0.61,-1.69 -1.56,-2.86q-0.95,-1.17 -2.25,-1.81q-1.29,-0.63 -2.85,-0.63l0,0q-1.42,0 -2.6,0.62q-1.19,0.62 -2.07,1.8q-0.88,1.17 -1.41,2.86q-0.54,1.7 -0.64,3.87l0,0q1.1,0.05 2.32,0.05q1.22,0 2.54,0zm30.2,-9.69l0.25,4.05l-0.35,0.05q-0.17,-0.56 -0.55,-1.19q-0.37,-0.64 -0.97,-1.18q-0.6,-0.53 -1.44,-0.89q-0.85,-0.35 -1.94,-0.35l0,0q-0.76,0 -1.43,0.22q-0.67,0.22 -1.17,0.65q-0.5,0.42 -0.8,1.06q-0.29,0.63 -0.29,1.49l0,0q0,1.19 0.74,2.28q0.75,1.09 1.87,2.15q1.13,1.06 2.43,2.13q1.31,1.08 2.43,2.25q1.12,1.17 1.87,2.5q0.74,1.33 0.74,2.87l0,0q0,1.25 -0.44,2.43q-0.44,1.18 -1.35,2.11q-0.92,0.93 -2.35,1.5q-1.42,0.58 -3.4,0.58l0,0q-1.17,0 -2.19,-0.22q-1.01,-0.22 -1.85,-0.55q-0.84,-0.33 -1.52,-0.73q-0.67,-0.41 -1.18,-0.77l0,0l0.24,-4.64l0.4,0q0.24,1.15 0.73,2.1q0.49,0.95 1.21,1.62q0.72,0.67 1.64,1.05q0.93,0.38 2.03,0.38l0,0q1.81,0 2.87,-1q1.06,-1 1.06,-2.61l0,0q0,-1.3 -0.72,-2.38q-0.72,-1.09 -1.82,-2.09q-1.1,-1 -2.35,-2q-1.26,-1 -2.36,-2.14q-1.1,-1.13 -1.82,-2.49q-0.72,-1.35 -0.72,-3.09l0,0q0,-1.41 0.53,-2.6q0.52,-1.18 1.46,-2.02q0.94,-0.85 2.23,-1.31q1.3,-0.46 2.84,-0.46l0,0q2.02,0 3.38,0.42q1.35,0.43 2.06,0.82l0,0zm4.86,11.6l0,0q0,-2.76 1.02,-5.12q1.03,-2.35 2.82,-4.09q1.8,-1.73 4.24,-2.71q2.44,-0.97 5.25,-0.97l0,0q2.76,0 5.19,0.91q2.43,0.92 4.23,2.6q1.81,1.69 2.85,4.1q1.04,2.42 1.04,5.42l0,0q0,2.52 -0.88,4.84q-0.88,2.32 -2.59,4.1q-1.71,1.78 -4.19,2.84q-2.48,1.07 -5.7,1.07l0,0q-2.73,0 -5.15,-0.91q-2.42,-0.9 -4.22,-2.59q-1.81,-1.68 -2.86,-4.09q-1.05,-2.4 -1.05,-5.4zm13.84,11.2l0,0q1.74,0 3.19,-0.68q1.45,-0.68 2.5,-1.98q1.05,-1.29 1.64,-3.15q0.58,-1.85 0.58,-4.2l0,0q0,-2.63 -0.56,-4.89q-0.56,-2.26 -1.67,-3.91q-1.11,-1.65 -2.8,-2.57q-1.68,-0.93 -3.93,-0.93l0,0q-1.73,0 -3.17,0.67q-1.44,0.67 -2.5,1.94q-1.07,1.27 -1.65,3.11q-0.59,1.85 -0.59,4.19l0,0q0,2.64 0.58,4.91q0.57,2.27 1.69,3.94q1.13,1.67 2.8,2.61q1.67,0.94 3.89,0.94zm34.55,-8.2l0,-6.91q0,-1.61 -0.33,-2.78q-0.33,-1.17 -0.95,-1.94q-0.63,-0.77 -1.5,-1.15q-0.88,-0.38 -1.96,-0.38l0,0q-0.73,0 -1.63,0.29q-0.91,0.3 -1.87,0.8q-0.97,0.5 -1.93,1.16q-0.96,0.66 -1.82,1.41l0,0q-0.05,0.78 -0.05,1.68q0,0.89 0,1.91l0,0l0,5.91q0,2.08 0.05,3.63q0.05,1.55 0.15,2.67q0.1,1.12 0.22,1.88q0.12,0.76 0.27,1.27l0,0l0,0.1l-5.64,0l0,-0.1q0.14,-0.51 0.28,-1.27q0.13,-0.76 0.22,-1.88q0.08,-1.12 0.14,-2.67q0.06,-1.55 0.06,-3.63l0,0l0,-5.91q0,-2.07 -0.06,-3.62q-0.06,-1.55 -0.14,-2.68q-0.09,-1.12 -0.22,-1.88q-0.14,-0.75 -0.28,-1.27l0,0l0,-0.09l5.64,0l0,0.09q-0.2,0.57 -0.31,1.43q-0.11,0.87 -0.23,2.19l0,0q0.98,-0.78 2.1,-1.54q1.12,-0.76 2.31,-1.34q1.18,-0.59 2.38,-0.96q1.19,-0.36 2.36,-0.36l0,0q1.4,0 2.47,0.36q1.07,0.37 1.88,1q0.81,0.64 1.35,1.49q0.55,0.86 0.85,1.84l0,0q1,-0.86 2.18,-1.7q1.19,-0.84 2.44,-1.5q1.26,-0.66 2.57,-1.08q1.3,-0.41 2.55,-0.41l0,0q1.9,0 3.23,0.66q1.33,0.66 2.18,1.73q0.84,1.07 1.22,2.45q0.37,1.38 0.37,2.8l0,0l0,8.3q0,2.08 0.05,3.63q0.05,1.55 0.15,2.67q0.1,1.12 0.23,1.88q0.14,0.76 0.28,1.27l0,0l0,0.1l-5.66,0l0,-0.1q0.15,-0.51 0.28,-1.27q0.13,-0.76 0.23,-1.88q0.1,-1.12 0.15,-2.67q0.05,-1.55 0.05,-3.63l0,0l0,-6.91q0,-3.22 -1.3,-4.74q-1.29,-1.51 -3.46,-1.51l0,0q-0.76,0 -1.68,0.29q-0.91,0.3 -1.89,0.81q-0.97,0.51 -1.95,1.18q-0.98,0.68 -1.83,1.43l0,0q0.05,0.29 0.05,0.59q0,0.29 0,0.56l0,0l0,8.3q0,2.08 0.06,3.63q0.06,1.55 0.14,2.67q0.09,1.12 0.22,1.88q0.14,0.76 0.28,1.27l0,0l0,0.1l-5.64,0l0,-0.1q0.15,-0.51 0.27,-1.27q0.13,-0.76 0.22,-1.88q0.1,-1.12 0.15,-2.67q0.05,-1.55 0.05,-3.63l0,0zm38.84,9.99l0,0q-2.71,0 -5.08,-0.86q-2.37,-0.85 -4.12,-2.5q-1.76,-1.65 -2.77,-4.08q-1.02,-2.43 -1.02,-5.55l0,0q0,-2.76 0.93,-5.12q0.93,-2.35 2.56,-4.09q1.64,-1.73 3.82,-2.71q2.19,-0.97 4.73,-0.97l0,0q2.51,0 4.66,0.86q2.15,0.87 3.73,2.52q1.57,1.65 2.49,4.08q0.91,2.42 0.98,5.52l0,0q-2.75,-0.04 -5.51,-0.07q-2.76,-0.02 -5.74,-0.02l0,0q-2.12,0 -4.14,0.02q-2.01,0.03 -3.62,0.07l0,0q0.14,2.54 0.79,4.59q0.65,2.06 1.78,3.51q1.14,1.45 2.76,2.23q1.62,0.78 3.67,0.78l0,0q1.42,0 2.68,-0.33q1.25,-0.33 2.28,-0.91q1.03,-0.59 1.83,-1.38q0.81,-0.79 1.37,-1.72l0,0l0.29,0.14l-1.81,4.35q-1.31,0.68 -3.14,1.16q-1.84,0.48 -4.4,0.48zm-3.25,-14.9l0,0q2.45,0 4.9,-0.01q2.45,-0.01 4.45,-0.08l0,0q-0.22,-2.13 -0.83,-3.81q-0.61,-1.69 -1.56,-2.86q-0.95,-1.17 -2.24,-1.81q-1.3,-0.63 -2.86,-0.63l0,0q-1.42,0 -2.6,0.62q-1.18,0.62 -2.06,1.8q-0.88,1.17 -1.42,2.86q-0.54,1.7 -0.63,3.87l0,0q1.09,0.05 2.31,0.05q1.23,0 2.54,0zm16.14,15.99l18.56,-39.38l2.24,1.1l-18.53,39.41l-2.27,-1.13zm29.96,-16.57l0,5.49q0,2.08 0.06,3.63q0.06,1.55 0.15,2.67q0.08,1.12 0.21,1.88q0.14,0.76 0.29,1.27l0,0l0,0.1l-5.86,0l0,-0.1q0.14,-0.51 0.28,-1.27q0.13,-0.76 0.22,-1.88q0.08,-1.12 0.14,-2.66q0.06,-1.54 0.06,-3.64l0,0l0,-15.89q0,-2.08 -0.06,-3.63q-0.06,-1.55 -0.14,-2.67q-0.09,-1.13 -0.22,-1.89q-0.14,-0.77 -0.28,-1.29l0,0l0,-0.09l1.02,0.09q0.47,0.05 1.04,0.06q0.57,0.02 1.18,0.02l0,0q0.96,0 2.58,-0.23q1.62,-0.24 4.14,-0.24l0,0q2.34,0 4.33,0.64q1.99,0.63 3.46,1.85q1.46,1.22 2.28,2.99q0.82,1.77 0.82,4.02l0,0q0,1.76 -0.46,3.26q-0.45,1.5 -1.27,2.72q-0.81,1.22 -1.96,2.16q-1.15,0.94 -2.56,1.58l0,0l8.57,12.03q0.63,0.91 1.18,1.57q0.55,0.66 1.05,1.13q0.5,0.48 0.96,0.78q0.47,0.31 0.96,0.48l0,0l0,0.1l-7.06,0q-0.07,-0.47 -0.48,-1.24q-0.4,-0.77 -0.94,-1.52l0,0l-8.64,-12.19q-0.56,0.05 -1.12,0.09q-0.56,0.04 -1.15,0.04l0,0q-0.68,0 -1.38,-0.05q-0.69,-0.05 -1.4,-0.17l0,0zm0,-18.07l0,16.16q0.66,0.15 1.34,0.21q0.68,0.06 1.32,0.06l0,0q1.83,0 3.34,-0.55q1.52,-0.55 2.58,-1.67q1.06,-1.12 1.65,-2.8q0.58,-1.67 0.58,-3.91l0,0q0,-1.84 -0.41,-3.32q-0.42,-1.49 -1.23,-2.53q-0.82,-1.04 -2.07,-1.61q-1.24,-0.58 -2.9,-0.58l0,0q-1.69,0 -2.69,0.17q-1,0.18 -1.51,0.37l0,0zm35.59,33.55l0,0q-2.71,0 -5.07,-0.86q-2.37,-0.85 -4.13,-2.5q-1.76,-1.65 -2.77,-4.08q-1.01,-2.43 -1.01,-5.55l0,0q0,-2.76 0.92,-5.12q0.93,-2.35 2.57,-4.09q1.63,-1.73 3.82,-2.71q2.18,-0.97 4.72,-0.97l0,0q2.52,0 4.66,0.86q2.15,0.87 3.73,2.52q1.57,1.65 2.49,4.08q0.91,2.42 0.99,5.52l0,0q-2.76,-0.04 -5.52,-0.07q-2.76,-0.02 -5.74,-0.02l0,0q-2.12,0 -4.14,0.02q-2.01,0.03 -3.62,0.07l0,0q0.14,2.54 0.79,4.59q0.65,2.06 1.78,3.51q1.14,1.45 2.76,2.23q1.63,0.78 3.68,0.78l0,0q1.41,0 2.67,-0.33q1.26,-0.33 2.28,-0.91q1.03,-0.59 1.83,-1.38q0.81,-0.79 1.37,-1.72l0,0l0.29,0.14l-1.8,4.35q-1.32,0.68 -3.15,1.16q-1.83,0.48 -4.4,0.48zm-3.24,-14.9l0,0q2.44,0 4.89,-0.01q2.45,-0.01 4.46,-0.08l0,0q-0.22,-2.13 -0.83,-3.81q-0.61,-1.69 -1.57,-2.86q-0.95,-1.17 -2.24,-1.81q-1.3,-0.63 -2.86,-0.63l0,0q-1.41,0 -2.6,0.62q-1.18,0.62 -2.06,1.8q-0.88,1.17 -1.42,2.86q-0.53,1.7 -0.63,3.87l0,0q1.1,0.05 2.32,0.05q1.22,0 2.54,0zm28.85,25.61l0,0q1.98,0 3.35,-0.42q1.37,-0.43 2.26,-1.19q0.89,-0.75 1.36,-1.82q0.48,-1.06 0.71,-2.33q0.23,-1.27 0.27,-2.71q0.04,-1.44 0.04,-2.98l0,0l0,-0.8q-1.2,0.63 -2.88,1.08q-1.69,0.46 -3.81,0.46l0,0q-2.91,0 -5.28,-0.91q-2.36,-0.9 -4.04,-2.59q-1.67,-1.68 -2.57,-4.09q-0.91,-2.4 -0.91,-5.4l0,0q0,-2.76 0.9,-5.13q0.89,-2.37 2.51,-4.1q1.62,-1.73 3.88,-2.72q2.26,-0.99 4.99,-0.99l0,0q1.18,0 2.15,0.19q0.98,0.2 1.82,0.53q0.84,0.33 1.59,0.75q0.74,0.43 1.45,0.92l0,0l-0.24,-1.81l0,-0.09l5.39,0l0,0.09q-0.14,0.52 -0.28,1.27q-0.13,0.76 -0.22,1.88q-0.08,1.13 -0.14,2.68q-0.06,1.55 -0.06,3.62l0,0l0,16.6q0,2.25 -0.6,4.39q-0.6,2.13 -2.03,3.79q-1.43,1.66 -3.77,2.66q-2.35,1 -5.84,1l0,0q-1.22,0 -2.46,-0.23q-1.25,-0.23 -2.37,-0.56q-1.12,-0.33 -2.03,-0.72q-0.9,-0.39 -1.44,-0.68l0,0l-0.75,-4.69l0.39,-0.1q0.58,1.27 1.6,2.24q1.01,0.96 2.21,1.61q1.19,0.64 2.47,0.97q1.29,0.33 2.38,0.33zm2.4,-12.5l0,0q1.75,0 3.18,-0.58q1.43,-0.59 2.41,-1.37l0,0l0,-12.16q0,-1.37 -0.03,-2.48q-0.02,-1.11 -0.02,-2.01l0,0q-0.59,-0.9 -1.36,-1.6q-0.77,-0.7 -1.63,-1.17q-0.87,-0.48 -1.77,-0.73q-0.91,-0.26 -1.78,-0.26l0,0q-1.86,0 -3.35,0.68q-1.49,0.69 -2.53,1.97q-1.03,1.28 -1.58,3.12q-0.55,1.85 -0.55,4.19l0,0q0,2.64 0.58,4.91q0.59,2.27 1.72,3.94q1.14,1.67 2.82,2.61q1.69,0.94 3.89,0.94zm28.29,1.79l0,0q-2.71,0 -5.08,-0.86q-2.36,-0.85 -4.12,-2.5q-1.76,-1.65 -2.77,-4.08q-1.02,-2.43 -1.02,-5.55l0,0q0,-2.76 0.93,-5.12q0.93,-2.35 2.57,-4.09q1.63,-1.73 3.82,-2.71q2.18,-0.97 4.72,-0.97l0,0q2.51,0 4.66,0.86q2.15,0.87 3.73,2.52q1.57,1.65 2.49,4.08q0.91,2.42 0.99,5.52l0,0q-2.76,-0.04 -5.52,-0.07q-2.76,-0.02 -5.74,-0.02l0,0q-2.12,0 -4.14,0.02q-2.01,0.03 -3.62,0.07l0,0q0.14,2.54 0.79,4.59q0.65,2.06 1.78,3.51q1.14,1.45 2.76,2.23q1.62,0.78 3.68,0.78l0,0q1.41,0 2.67,-0.33q1.26,-0.33 2.28,-0.91q1.03,-0.59 1.83,-1.38q0.81,-0.79 1.37,-1.72l0,0l0.29,0.14l-1.8,4.35q-1.32,0.68 -3.15,1.16q-1.83,0.48 -4.4,0.48zm-3.24,-14.9l0,0q2.44,0 4.89,-0.01q2.45,-0.01 4.46,-0.08l0,0q-0.22,-2.13 -0.83,-3.81q-0.61,-1.69 -1.57,-2.86q-0.95,-1.17 -2.24,-1.81q-1.3,-0.63 -2.86,-0.63l0,0q-1.42,0 -2.6,0.62q-1.18,0.62 -2.06,1.8q-0.88,1.17 -1.42,2.86q-0.54,1.7 -0.63,3.87l0,0q1.1,0.05 2.32,0.05q1.22,0 2.54,0zm33.15,11.01l-5.25,-7.05l-5.86,7.4q-0.32,0.41 -0.65,0.85q-0.33,0.44 -0.58,0.85q-0.26,0.42 -0.42,0.79q-0.16,0.36 -0.16,0.61l0,0l-4.1,0l0,-0.1q0.39,-0.34 1.09,-1.03q0.7,-0.68 1.48,-1.68l0,0l7.69,-9.74l-7.55,-10.21q-0.63,-0.83 -1.24,-1.41q-0.61,-0.59 -0.91,-0.74l0,0l0,-0.09l6.69,0q0,0.41 0.31,1.3q0.3,0.89 1.21,2.14l0,0l4.15,5.66l4.73,-6q0.3,-0.39 0.6,-0.83q0.31,-0.44 0.54,-0.87q0.23,-0.43 0.38,-0.79q0.14,-0.37 0.14,-0.61l0,0l4.11,0l0,0.09q-0.35,0.27 -0.86,0.78q-0.51,0.52 -1.34,1.57l0,0l-6.81,8.66l8.2,11.09q0.83,1.1 1.54,1.81q0.71,0.7 1.02,0.9l0,0l0,0.1l-6.66,0q0,-0.42 -0.32,-1.33q-0.32,-0.92 -1.17,-2.12l0,0z"/>
   </g>
  </svg>
 </g>
</svg>