<?xml version="1.0" encoding="utf-8"?>
<!-- Generator: Adobe Illustrator 28.1.0, SVG Export Plug-In . SVG Version: 6.00 Build 0)  -->
<svg version="1.1" id="Awesome_Regex" xmlns="http://www.w3.org/2000/svg" xmlns:xlink="http://www.w3.org/1999/xlink" x="0px"
	 y="0px" viewBox="0 0 537.5 111.6" style="enable-background:new 0 0 537.5 111.6;" xml:space="preserve">
<style type="text/css">
	.st0{fill:url(#svg_59_00000171704666896992046380000001878011448518158721_);}
	.st1{fill:#969696;stroke:#969696;stroke-width:0.12;stroke-miterlimit:10;}
	.st2{fill:#141612;}
	.st3{fill:#F2F2F2;}
	.st4{fill:url(#svg_10_00000042733154404504286840000011357856009159519422_);}
	.st5{fill:url(#svg_11_00000114048400627641605730000012418569537852002705_);}
	.st6{fill:url(#svg_17_00000107578554793321212230000015313303111104712833_);}
	.st7{fill:url(#svg_18_00000142898945235886751980000001250705656087494838_);}
	.st8{fill:#C9F0B4;}
	.st9{fill:url(#svg_20_00000109709125268824004140000007858883155226849701_);}
	.st10{fill:url(#svg_21_00000090257846758117403140000015431157478231083657_);}
	.st11{fill:#FFFFFF;}
	.st12{fill:url(#svg_30_00000028326046779513881870000010811365895564034453_);}
	.st13{fill:#BEEF9E;}
	.st14{fill:url(#SVGID_1_);}
	.st15{fill:url(#SVGID_00000014604692835457880850000005196465121760454847_);}
</style>
<g>
	<g>
		
			<linearGradient id="svg_59_00000106852461528290241450000003961848318979233434_" gradientUnits="userSpaceOnUse" x1="150.1387" y1="49.1922" x2="497.7744" y2="49.1922">
			<stop  offset="0" style="stop-color:#73C673"/>
			<stop  offset="1" style="stop-color:#B7D705"/>
		</linearGradient>
		
			<path id="svg_59_00000111901390419421233100000009142081969592255408_" style="fill:url(#svg_59_00000106852461528290241450000003961848318979233434_);" d="
			M150.1,61.4L166.3,27l2,1l-16.2,34.4C152.1,62.4,150.1,61.4,150.1,61.4z M198.8,60h-5.8V60c0-0.1,0-0.2,0.1-0.3c0-0.1,0-0.3,0-0.4
			l0,0c0-0.4-0.1-0.9-0.2-1.5c-0.1-0.5-0.4-1.2-0.7-2l0,0l-2.6-5.8c-0.8,0-1.8,0-3.2,0s-2.7,0-4.3,0l0,0c-1.1,0-2.2,0-3.2,0
			c-1,0-2,0-2.8,0l0,0l-2.5,5.6c-0.2,0.5-0.4,1.1-0.7,1.7c-0.2,0.6-0.4,1.3-0.4,1.9l0,0c0,0.2,0,0.3,0,0.5c0,0.1,0.1,0.2,0.1,0.2
			l0,0V60h-4.3V60c0.3-0.3,0.6-0.8,1-1.4c0.4-0.7,0.8-1.6,1.3-2.6l0,0l12.2-27.1h1.7l11.6,26c0.3,0.6,0.6,1.2,0.8,1.8
			c0.3,0.6,0.6,1.1,0.8,1.5c0.3,0.5,0.5,0.8,0.7,1.1C198.6,59.7,198.7,59.9,198.8,60L198.8,60L198.8,60z M176.8,48.1h2.3
			c0.8,0,1.7,0,2.5,0c0.9,0,1.7,0,2.5,0c0.8,0,1.6,0,2.4,0c0.8,0,1.5,0,2.1,0l0,0l-6-13.5L176.8,48.1z M214.3,40.2h0.8l5.7,14.3
			l4.7-11.9c0.1-0.3,0.2-0.5,0.3-0.9c0.1-0.3,0.2-0.6,0.3-1c0.1-0.3,0.2-0.7,0.3-1c0.1-0.3,0.1-0.6,0.1-0.8l0,0c0-0.2,0-0.3,0-0.5
			c0-0.1-0.1-0.2-0.1-0.2l0,0v-0.1h3.8v0.1c-0.3,0.3-0.6,0.7-0.9,1.3c-0.4,0.6-0.8,1.5-1.3,2.7l0,0l-7.6,18h-1.2L213.8,47l-5.5,13.3
			h-1.2l-7-17c-0.3-0.6-0.5-1.2-0.8-1.8s-0.6-1.1-0.8-1.5c-0.3-0.5-0.5-0.8-0.7-1.1c-0.2-0.3-0.3-0.5-0.4-0.6l0,0v-0.1h5.7v0.1
			c0,0.1,0,0.2-0.1,0.3c0,0.1,0,0.3,0,0.4l0,0c0,0.4,0.1,0.9,0.2,1.5c0.1,0.5,0.4,1.2,0.7,2l0,0l4.8,12
			C208.6,54.5,214.3,40.2,214.3,40.2z M243.1,60.4L243.1,60.4c-1.6,0-3.1-0.3-4.4-0.8c-1.4-0.5-2.6-1.2-3.6-2.2
			c-1-1-1.8-2.1-2.4-3.6c-0.6-1.4-0.9-3-0.9-4.8l0,0c0-1.6,0.3-3.1,0.8-4.5c0.5-1.4,1.3-2.6,2.2-3.6c1-1,2.1-1.8,3.3-2.4
			c1.3-0.6,2.7-0.8,4.1-0.8l0,0c1.5,0,2.8,0.3,4.1,0.8c1.3,0.5,2.3,1.2,3.2,2.2c0.9,1,1.6,2.1,2.2,3.6c0.5,1.4,0.8,3,0.9,4.8l0,0
			c-1.6,0-3.2,0-4.8-0.1c-1.6,0-3.3,0-5,0l0,0c-1.2,0-2.4,0-3.6,0c-1.2,0-2.2,0-3.2,0.1l0,0c0.1,1.5,0.3,2.8,0.7,4
			c0.4,1.2,0.9,2.2,1.6,3.1c0.7,0.8,1.5,1.5,2.4,1.9c0.9,0.5,2,0.7,3.2,0.7l0,0c0.8,0,1.6-0.1,2.3-0.3c0.7-0.2,1.4-0.5,2-0.8
			c0.6-0.3,1.1-0.7,1.6-1.2c0.5-0.5,0.9-1,1.2-1.5l0,0l0.3,0.1l-1.6,3.8c-0.8,0.4-1.7,0.7-2.7,1C245.8,60.3,244.6,60.4,243.1,60.4
			L243.1,60.4z M240.2,47.4L240.2,47.4c1.4,0,2.8,0,4.3,0c1.4,0,2.7,0,3.9-0.1l0,0c-0.1-1.2-0.4-2.3-0.7-3.3c-0.4-1-0.8-1.8-1.4-2.5
			c-0.6-0.7-1.2-1.2-2-1.6c-0.8-0.4-1.6-0.5-2.5-0.5l0,0c-0.8,0-1.6,0.2-2.3,0.5c-0.7,0.4-1.3,0.9-1.8,1.6c-0.5,0.7-0.9,1.5-1.2,2.5
			c-0.3,1-0.5,2.1-0.6,3.4l0,0c0.6,0,1.3,0,2,0C238.7,47.4,239.5,47.4,240.2,47.4z M266.6,39l0.2,3.5l-0.3,0c-0.1-0.3-0.3-0.7-0.5-1
			c-0.2-0.4-0.5-0.7-0.8-1c-0.3-0.3-0.8-0.6-1.3-0.8c-0.5-0.2-1.1-0.3-1.7-0.3l0,0c-0.4,0-0.9,0.1-1.2,0.2s-0.7,0.3-1,0.6
			c-0.3,0.2-0.5,0.6-0.7,0.9c-0.2,0.4-0.3,0.8-0.3,1.3l0,0c0,0.7,0.2,1.4,0.6,2c0.4,0.6,1,1.3,1.6,1.9c0.7,0.6,1.4,1.2,2.1,1.9
			c0.8,0.6,1.5,1.3,2.1,2c0.7,0.7,1.2,1.4,1.6,2.2c0.4,0.8,0.6,1.6,0.6,2.5l0,0c0,0.7-0.1,1.4-0.4,2.1s-0.6,1.3-1.2,1.8
			c-0.5,0.5-1.2,1-2.1,1.3c-0.8,0.3-1.8,0.5-3,0.5l0,0c-0.7,0-1.3-0.1-1.9-0.2c-0.6-0.1-1.1-0.3-1.6-0.5s-0.9-0.4-1.3-0.6
			c-0.4-0.2-0.7-0.5-1-0.7l0,0l0.2-4h0.3c0.1,0.7,0.4,1.3,0.6,1.8c0.3,0.6,0.6,1,1.1,1.4c0.4,0.4,0.9,0.7,1.4,0.9
			c0.5,0.2,1.1,0.3,1.8,0.3l0,0c1.1,0,1.9-0.3,2.5-0.9s0.9-1.3,0.9-2.3l0,0c0-0.8-0.2-1.4-0.6-2.1c-0.4-0.6-0.9-1.2-1.6-1.8
			c-0.6-0.6-1.3-1.2-2.1-1.7c-0.7-0.6-1.4-1.2-2.1-1.9c-0.6-0.7-1.2-1.4-1.6-2.2c-0.4-0.8-0.6-1.7-0.6-2.7l0,0
			c0-0.8,0.2-1.6,0.5-2.3c0.3-0.7,0.7-1.3,1.3-1.8c0.5-0.5,1.2-0.9,1.9-1.1c0.8-0.3,1.6-0.4,2.5-0.4l0,0c1.2,0,2.2,0.1,2.9,0.4
			C265.6,38.5,266.2,38.7,266.6,39L266.6,39L266.6,39z M270.8,49.1L270.8,49.1c0-1.6,0.3-3.1,0.9-4.5c0.6-1.4,1.4-2.6,2.5-3.6
			c1-1,2.3-1.8,3.7-2.4c1.4-0.6,2.9-0.8,4.6-0.8l0,0c1.6,0,3.1,0.3,4.5,0.8c1.4,0.5,2.6,1.3,3.7,2.3c1.1,1,1.9,2.2,2.5,3.6
			c0.6,1.4,0.9,3,0.9,4.7l0,0c0,1.5-0.3,2.9-0.8,4.2c-0.5,1.3-1.3,2.5-2.3,3.6c-1,1-2.2,1.9-3.7,2.5c-1.4,0.6-3.1,0.9-5,0.9l0,0
			c-1.6,0-3.1-0.3-4.5-0.8c-1.4-0.5-2.6-1.3-3.7-2.3c-1.1-1-1.9-2.2-2.5-3.6C271.1,52.4,270.8,50.8,270.8,49.1L270.8,49.1z
			 M282.9,58.9L282.9,58.9c1,0,1.9-0.2,2.8-0.6s1.6-1,2.2-1.7c0.6-0.8,1.1-1.7,1.4-2.7c0.3-1.1,0.5-2.3,0.5-3.7l0,0
			c0-1.5-0.2-3-0.5-4.3c-0.3-1.3-0.8-2.5-1.5-3.4c-0.6-1-1.5-1.7-2.4-2.2c-1-0.5-2.1-0.8-3.4-0.8l0,0c-1,0-1.9,0.2-2.8,0.6
			c-0.8,0.4-1.6,1-2.2,1.7c-0.6,0.7-1.1,1.6-1.4,2.7c-0.3,1.1-0.5,2.3-0.5,3.7l0,0c0,1.5,0.2,3,0.5,4.3c0.3,1.3,0.8,2.5,1.5,3.4
			c0.7,1,1.5,1.7,2.4,2.3C280.5,58.6,281.6,58.9,282.9,58.9L282.9,58.9z M313.1,51.7v-6c0-0.9-0.1-1.7-0.3-2.4
			c-0.2-0.7-0.5-1.2-0.8-1.7c-0.4-0.4-0.8-0.8-1.3-1c-0.5-0.2-1.1-0.3-1.7-0.3l0,0c-0.4,0-0.9,0.1-1.4,0.3c-0.5,0.2-1.1,0.4-1.6,0.7
			c-0.6,0.3-1.1,0.6-1.7,1c-0.6,0.4-1.1,0.8-1.6,1.2l0,0c0,0.5,0,0.9,0,1.5c0,0.5,0,1.1,0,1.7l0,0v5.2c0,1.2,0,2.3,0,3.2
			c0,0.9,0.1,1.7,0.1,2.3c0.1,0.7,0.1,1.2,0.2,1.6c0.1,0.4,0.1,0.8,0.2,1.1l0,0V60h-4.9V60c0.1-0.3,0.2-0.7,0.2-1.1
			c0.1-0.4,0.1-1,0.2-1.6c0-0.7,0.1-1.4,0.1-2.3c0-0.9,0.1-2,0.1-3.2l0,0v-5.2c0-1.2,0-2.3-0.1-3.2c0-0.9-0.1-1.7-0.1-2.3
			c-0.1-0.7-0.1-1.2-0.2-1.6c-0.1-0.4-0.2-0.8-0.2-1.1l0,0v-0.1h4.9v0.1c-0.1,0.3-0.2,0.7-0.3,1.2c-0.1,0.5-0.1,1.1-0.2,1.9l0,0
			c0.6-0.5,1.2-0.9,1.8-1.3c0.7-0.4,1.3-0.8,2-1.2c0.7-0.3,1.4-0.6,2.1-0.8c0.7-0.2,1.4-0.3,2.1-0.3l0,0c0.8,0,1.5,0.1,2.2,0.3
			c0.6,0.2,1.2,0.5,1.6,0.9c0.5,0.4,0.9,0.8,1.2,1.3c0.3,0.5,0.6,1,0.7,1.6l0,0c0.6-0.5,1.2-1,1.9-1.5c0.7-0.5,1.4-0.9,2.1-1.3
			c0.7-0.4,1.5-0.7,2.2-0.9c0.8-0.2,1.5-0.4,2.2-0.4l0,0c1.1,0,2,0.2,2.8,0.6s1.4,0.9,1.9,1.5c0.5,0.6,0.8,1.3,1.1,2.1
			c0.2,0.8,0.3,1.6,0.3,2.4l0,0v7.2c0,1.2,0,2.3,0,3.2s0.1,1.7,0.1,2.3c0.1,0.7,0.1,1.2,0.2,1.6c0.1,0.4,0.2,0.8,0.2,1.1l0,0V60
			h-4.9V60c0.1-0.3,0.2-0.7,0.2-1.1c0.1-0.4,0.1-1,0.2-1.6c0.1-0.7,0.1-1.4,0.1-2.3c0-0.9,0-2,0-3.2l0,0v-6c0-1.9-0.4-3.3-1.1-4.1
			c-0.8-0.9-1.8-1.3-3-1.3l0,0c-0.4,0-0.9,0.1-1.5,0.3c-0.5,0.2-1.1,0.4-1.6,0.7c-0.6,0.3-1.1,0.6-1.7,1c-0.6,0.4-1.1,0.8-1.6,1.2
			l0,0c0,0.2,0,0.3,0,0.5c0,0.2,0,0.3,0,0.5l0,0v7.2c0,1.2,0,2.3,0.1,3.2c0,0.9,0.1,1.7,0.1,2.3c0.1,0.7,0.1,1.2,0.2,1.6
			c0.1,0.4,0.2,0.8,0.2,1.1l0,0V60h-4.9V60c0.1-0.3,0.2-0.7,0.2-1.1c0.1-0.4,0.1-1,0.2-1.6c0.1-0.7,0.1-1.4,0.1-2.3
			C313,54,313.1,52.9,313.1,51.7C313.1,51.7,313.1,51.7,313.1,51.7z M347,60.4L347,60.4c-1.6,0-3.1-0.3-4.4-0.8
			c-1.4-0.5-2.6-1.2-3.6-2.2c-1-1-1.8-2.1-2.4-3.6c-0.6-1.4-0.9-3-0.9-4.8l0,0c0-1.6,0.3-3.1,0.8-4.5c0.5-1.4,1.3-2.6,2.2-3.6
			c1-1,2.1-1.8,3.3-2.4c1.3-0.6,2.7-0.8,4.1-0.8l0,0c1.5,0,2.8,0.3,4.1,0.8c1.3,0.5,2.3,1.2,3.3,2.2c0.9,1,1.6,2.1,2.2,3.6
			c0.5,1.4,0.8,3,0.9,4.8l0,0c-1.6,0-3.2,0-4.8-0.1c-1.6,0-3.3,0-5,0l0,0c-1.2,0-2.4,0-3.6,0c-1.2,0-2.2,0-3.2,0.1l0,0
			c0.1,1.5,0.3,2.8,0.7,4c0.4,1.2,0.9,2.2,1.6,3.1c0.7,0.8,1.5,1.5,2.4,1.9c0.9,0.5,2,0.7,3.2,0.7l0,0c0.8,0,1.6-0.1,2.3-0.3
			c0.7-0.2,1.4-0.5,2-0.8c0.6-0.3,1.1-0.7,1.6-1.2c0.5-0.5,0.9-1,1.2-1.5l0,0l0.3,0.1l-1.6,3.8c-0.8,0.4-1.7,0.7-2.7,1
			C349.7,60.3,348.4,60.4,347,60.4L347,60.4z M344.1,47.4L344.1,47.4c1.4,0,2.9,0,4.3,0s2.7,0,3.9-0.1l0,0c-0.1-1.2-0.4-2.3-0.7-3.3
			c-0.4-1-0.8-1.8-1.4-2.5c-0.6-0.7-1.2-1.2-2-1.6c-0.8-0.4-1.6-0.5-2.5-0.5l0,0c-0.8,0-1.6,0.2-2.3,0.5s-1.3,0.9-1.8,1.6
			c-0.5,0.7-0.9,1.5-1.2,2.5c-0.3,1-0.5,2.1-0.5,3.4l0,0c0.6,0,1.3,0,2,0C342.6,47.4,343.4,47.4,344.1,47.4L344.1,47.4z M358.2,61.4
			L374.4,27l2,1l-16.2,34.4C360.2,62.4,358.2,61.4,358.2,61.4z M384.4,46.9v4.8c0,1.2,0,2.3,0.1,3.2c0,0.9,0.1,1.7,0.1,2.3
			c0,0.7,0.1,1.2,0.2,1.6c0.1,0.4,0.2,0.8,0.3,1.1l0,0V60h-5.1V60c0.1-0.3,0.2-0.7,0.2-1.1c0.1-0.4,0.1-1,0.2-1.6
			c0-0.7,0.1-1.4,0.1-2.3c0-0.9,0.1-2,0.1-3.2l0,0V37.8c0-1.2,0-2.3-0.1-3.2c0-0.9-0.1-1.7-0.1-2.3c-0.1-0.7-0.1-1.2-0.2-1.6
			c-0.1-0.4-0.2-0.8-0.2-1.1l0,0v-0.1l0.9,0.1c0.3,0,0.6,0,0.9,0.1c0.3,0,0.7,0,1,0l0,0c0.6,0,1.3-0.1,2.3-0.2
			c0.9-0.1,2.1-0.2,3.6-0.2l0,0c1.4,0,2.6,0.2,3.8,0.6c1.2,0.4,2.2,0.9,3,1.6c0.8,0.7,1.5,1.6,2,2.6s0.7,2.2,0.7,3.5l0,0
			c0,1-0.1,2-0.4,2.8c-0.3,0.9-0.6,1.7-1.1,2.4c-0.5,0.7-1,1.3-1.7,1.9c-0.7,0.5-1.4,1-2.2,1.4l0,0l7.5,10.5c0.4,0.5,0.7,1,1,1.4
			s0.6,0.7,0.9,1c0.3,0.3,0.6,0.5,0.8,0.7c0.3,0.2,0.6,0.3,0.8,0.4l0,0V60h-6.2c0-0.3-0.2-0.6-0.4-1.1c-0.2-0.4-0.5-0.9-0.8-1.3l0,0
			L388.8,47c-0.3,0-0.7,0.1-1,0.1c-0.3,0-0.7,0-1,0l0,0c-0.4,0-0.8,0-1.2,0C385.2,47,384.8,47,384.4,46.9L384.4,46.9L384.4,46.9z
			 M384.4,31.1v14.1c0.4,0.1,0.8,0.1,1.2,0.2s0.8,0.1,1.2,0.1l0,0c1.1,0,2-0.2,2.9-0.5c0.9-0.3,1.6-0.8,2.3-1.5s1.1-1.5,1.4-2.4
			c0.3-1,0.5-2.1,0.5-3.4l0,0c0-1.1-0.1-2-0.4-2.9c-0.2-0.9-0.6-1.6-1.1-2.2c-0.5-0.6-1.1-1.1-1.8-1.4c-0.7-0.3-1.6-0.5-2.5-0.5l0,0
			c-1,0-1.8,0-2.3,0.1C385.1,30.9,384.7,31,384.4,31.1L384.4,31.1L384.4,31.1z M415.4,60.4L415.4,60.4c-1.6,0-3.1-0.3-4.4-0.8
			c-1.4-0.5-2.6-1.2-3.6-2.2c-1-1-1.8-2.1-2.4-3.6c-0.6-1.4-0.9-3-0.9-4.8l0,0c0-1.6,0.3-3.1,0.8-4.5c0.5-1.4,1.3-2.6,2.2-3.6
			c0.9-1,2.1-1.8,3.3-2.4c1.3-0.6,2.6-0.8,4.1-0.8l0,0c1.5,0,2.8,0.3,4.1,0.8c1.3,0.5,2.3,1.2,3.3,2.2c0.9,1,1.6,2.1,2.2,3.6
			c0.5,1.4,0.8,3,0.9,4.8l0,0c-1.6,0-3.2,0-4.8-0.1c-1.6,0-3.3,0-5,0l0,0c-1.2,0-2.4,0-3.6,0c-1.2,0-2.2,0-3.2,0.1l0,0
			c0.1,1.5,0.3,2.8,0.7,4c0.4,1.2,0.9,2.2,1.6,3.1c0.7,0.8,1.5,1.5,2.4,1.9c0.9,0.5,2,0.7,3.2,0.7l0,0c0.8,0,1.6-0.1,2.3-0.3
			c0.7-0.2,1.4-0.5,2-0.8c0.6-0.3,1.1-0.7,1.6-1.2c0.5-0.5,0.9-1,1.2-1.5l0,0l0.3,0.1L422,59c-0.8,0.4-1.7,0.7-2.7,1
			C418.2,60.3,416.9,60.4,415.4,60.4L415.4,60.4z M412.6,47.4L412.6,47.4c1.4,0,2.8,0,4.3,0s2.7,0,3.9-0.1l0,0
			c-0.1-1.2-0.4-2.3-0.7-3.3c-0.4-1-0.8-1.8-1.4-2.5c-0.6-0.7-1.2-1.2-2-1.6c-0.8-0.4-1.6-0.5-2.5-0.5l0,0c-0.8,0-1.6,0.2-2.3,0.5
			c-0.7,0.4-1.3,0.9-1.8,1.6c-0.5,0.7-0.9,1.5-1.2,2.5c-0.3,1-0.5,2.1-0.5,3.4l0,0c0.6,0,1.3,0,2,0
			C411.1,47.4,411.8,47.4,412.6,47.4L412.6,47.4z M437.8,69.8L437.8,69.8c1.2,0,2.1-0.1,2.9-0.4c0.8-0.3,1.5-0.6,2-1
			c0.5-0.4,0.9-1,1.2-1.6c0.3-0.6,0.5-1.3,0.6-2c0.1-0.7,0.2-1.5,0.2-2.4c0-0.8,0-1.7,0-2.6l0,0v-0.7c-0.7,0.4-1.5,0.7-2.5,0.9
			c-1,0.3-2.1,0.4-3.3,0.4l0,0c-1.7,0-3.2-0.3-4.6-0.8c-1.4-0.5-2.5-1.3-3.5-2.3c-1-1-1.7-2.2-2.2-3.6c-0.5-1.4-0.8-3-0.8-4.7l0,0
			c0-1.6,0.3-3.1,0.8-4.5c0.5-1.4,1.2-2.6,2.2-3.6c0.9-1,2.1-1.8,3.4-2.4c1.3-0.6,2.8-0.9,4.4-0.9l0,0c0.7,0,1.3,0.1,1.9,0.2
			c0.6,0.1,1.1,0.3,1.6,0.5c0.5,0.2,1,0.4,1.4,0.7c0.4,0.3,0.9,0.5,1.3,0.8l0,0l-0.2-1.6v-0.1h4.7v0.1c-0.1,0.3-0.2,0.7-0.2,1.1
			c-0.1,0.4-0.1,1-0.2,1.6c0,0.7-0.1,1.4-0.1,2.3c0,0.9-0.1,2-0.1,3.2l0,0V61c0,1.3-0.2,2.6-0.5,3.8c-0.3,1.2-0.9,2.3-1.8,3.3
			c-0.8,1-1.9,1.7-3.3,2.3c-1.4,0.6-3.1,0.9-5.1,0.9l0,0c-0.7,0-1.4-0.1-2.1-0.2c-0.7-0.1-1.4-0.3-2.1-0.5c-0.7-0.2-1.2-0.4-1.8-0.6
			c-0.5-0.2-0.9-0.4-1.3-0.6l0,0l-0.7-4.1l0.3-0.1c0.3,0.7,0.8,1.4,1.4,2c0.6,0.6,1.2,1,1.9,1.4c0.7,0.4,1.4,0.7,2.2,0.8
			C436.4,69.7,437.1,69.8,437.8,69.8L437.8,69.8z M439.9,58.9L439.9,58.9c1,0,1.9-0.2,2.8-0.5c0.8-0.3,1.5-0.7,2.1-1.2l0,0V46.6
			c0-0.8,0-1.5,0-2.2c0-0.6,0-1.2,0-1.8l0,0c-0.3-0.5-0.7-1-1.2-1.4c-0.4-0.4-0.9-0.7-1.4-1c-0.5-0.3-1-0.5-1.5-0.6
			c-0.5-0.2-1-0.2-1.6-0.2l0,0c-1.1,0-2.1,0.2-2.9,0.6c-0.9,0.4-1.6,1-2.2,1.7c-0.6,0.7-1.1,1.7-1.4,2.7c-0.3,1.1-0.5,2.3-0.5,3.7
			l0,0c0,1.5,0.2,3,0.5,4.3c0.3,1.3,0.8,2.5,1.5,3.4c0.7,1,1.5,1.7,2.5,2.3C437.5,58.6,438.6,58.9,439.9,58.9L439.9,58.9z
			 M464.6,60.4L464.6,60.4c-1.6,0-3.1-0.3-4.4-0.8c-1.4-0.5-2.6-1.2-3.6-2.2c-1-1-1.8-2.1-2.4-3.6c-0.6-1.4-0.9-3-0.9-4.8l0,0
			c0-1.6,0.3-3.1,0.8-4.5c0.5-1.4,1.3-2.6,2.2-3.6c0.9-1,2.1-1.8,3.3-2.4c1.3-0.6,2.6-0.8,4.1-0.8l0,0c1.5,0,2.8,0.3,4.1,0.8
			c1.3,0.5,2.3,1.2,3.3,2.2c0.9,1,1.6,2.1,2.2,3.6c0.5,1.4,0.8,3,0.9,4.8l0,0c-1.6,0-3.2,0-4.8-0.1c-1.6,0-3.3,0-5,0l0,0
			c-1.2,0-2.4,0-3.6,0c-1.2,0-2.2,0-3.2,0.1l0,0c0.1,1.5,0.3,2.8,0.7,4c0.4,1.2,0.9,2.2,1.6,3.1c0.7,0.8,1.5,1.5,2.4,1.9
			c0.9,0.5,2,0.7,3.2,0.7l0,0c0.8,0,1.6-0.1,2.3-0.3c0.7-0.2,1.4-0.5,2-0.8c0.6-0.3,1.1-0.7,1.6-1.2c0.5-0.5,0.9-1,1.2-1.5l0,0
			l0.3,0.1l-1.6,3.8c-0.8,0.4-1.7,0.7-2.7,1C467.3,60.3,466.1,60.4,464.6,60.4L464.6,60.4z M461.7,47.4L461.7,47.4
			c1.4,0,2.8,0,4.3,0c1.4,0,2.7,0,3.9-0.1l0,0c-0.1-1.2-0.4-2.3-0.7-3.3c-0.4-1-0.8-1.8-1.4-2.5c-0.6-0.7-1.2-1.2-2-1.6
			c-0.8-0.4-1.6-0.5-2.5-0.5l0,0c-0.8,0-1.6,0.2-2.3,0.5s-1.3,0.9-1.8,1.6c-0.5,0.7-0.9,1.5-1.2,2.5c-0.3,1-0.5,2.1-0.5,3.4l0,0
			c0.6,0,1.3,0,2,0S461,47.4,461.7,47.4L461.7,47.4z M490.7,57l-4.6-6.2l-5.1,6.5c-0.2,0.2-0.4,0.5-0.6,0.7
			c-0.2,0.3-0.4,0.5-0.5,0.7c-0.2,0.2-0.3,0.5-0.4,0.7c-0.1,0.2-0.1,0.4-0.1,0.5l0,0h-3.6V60c0.2-0.2,0.5-0.5,1-0.9
			c0.4-0.4,0.8-0.9,1.3-1.5l0,0l6.7-8.5l-6.6-8.9c-0.4-0.5-0.7-0.9-1.1-1.2c-0.4-0.3-0.6-0.6-0.8-0.6l0,0v-0.1h5.8
			c0,0.2,0.1,0.6,0.3,1.1c0.2,0.5,0.5,1.1,1.1,1.9l0,0l3.6,4.9l4.1-5.2c0.2-0.2,0.3-0.5,0.5-0.7c0.2-0.3,0.3-0.5,0.5-0.8
			c0.1-0.3,0.2-0.5,0.3-0.7c0.1-0.2,0.1-0.4,0.1-0.5l0,0h3.6v0.1c-0.2,0.2-0.5,0.4-0.8,0.7c-0.3,0.3-0.7,0.8-1.2,1.4l0,0l-5.9,7.6
			l7.2,9.7c0.5,0.6,0.9,1.2,1.3,1.6c0.4,0.4,0.7,0.7,0.9,0.8l0,0V60H492c0-0.2-0.1-0.6-0.3-1.2C491.5,58.3,491.2,57.7,490.7,57
			L490.7,57L490.7,57z"/>
	</g>
	<g>
		<path class="st1" d="M176.9,71.3v6.2c0,0.7-0.1,1.3-0.4,1.8c-0.3,0.5-0.7,1-1.2,1.3c-0.6,0.3-1.2,0.5-2.1,0.5
			c-1.2,0-2.1-0.3-2.7-1c-0.6-0.6-0.9-1.5-0.9-2.6v-6.2h1.1v6.2c0,0.8,0.2,1.4,0.6,1.9c0.4,0.4,1.1,0.7,1.9,0.7
			c0.6,0,1.1-0.1,1.4-0.3c0.4-0.2,0.7-0.5,0.8-0.9c0.2-0.4,0.3-0.8,0.3-1.3v-6.2H176.9z"/>
		<path class="st1" d="M182.7,73.6c0.9,0,1.5,0.2,1.9,0.6c0.4,0.4,0.7,1.1,0.7,2v4.7h-1.1v-4.6c0-0.6-0.1-1.1-0.4-1.4
			c-0.3-0.3-0.7-0.4-1.3-0.4c-0.8,0-1.4,0.2-1.7,0.7c-0.3,0.5-0.5,1.1-0.5,2v3.8h-1.1v-7.2h0.9l0.2,1h0.1c0.2-0.3,0.3-0.5,0.6-0.6
			c0.2-0.2,0.5-0.3,0.8-0.4C182.1,73.6,182.4,73.6,182.7,73.6z"/>
		<path class="st1" d="M188.6,80.9h-1.1V70.7h1.1V80.9z"/>
		<path class="st1" d="M197.1,77.3c0,0.6-0.1,1.1-0.2,1.6c-0.2,0.5-0.4,0.9-0.7,1.2c-0.3,0.3-0.6,0.6-1.1,0.7
			c-0.4,0.2-0.9,0.3-1.4,0.3c-0.5,0-0.9-0.1-1.3-0.3c-0.4-0.2-0.7-0.4-1-0.7c-0.3-0.3-0.5-0.7-0.7-1.2c-0.2-0.5-0.2-1-0.2-1.6
			c0-0.8,0.1-1.5,0.4-2c0.3-0.6,0.7-1,1.1-1.3c0.5-0.3,1.1-0.4,1.8-0.4c0.7,0,1.2,0.1,1.7,0.4c0.5,0.3,0.9,0.7,1.2,1.3
			C197,75.8,197.1,76.5,197.1,77.3z M191.6,77.3c0,0.6,0.1,1.1,0.2,1.5c0.2,0.4,0.4,0.8,0.7,1c0.3,0.2,0.7,0.3,1.2,0.3
			c0.5,0,0.9-0.1,1.2-0.3s0.6-0.6,0.7-1c0.2-0.4,0.2-0.9,0.2-1.5c0-0.6-0.1-1.1-0.2-1.5c-0.2-0.4-0.4-0.7-0.7-1
			c-0.3-0.2-0.7-0.3-1.2-0.3c-0.8,0-1.3,0.2-1.7,0.7C191.8,75.7,191.6,76.4,191.6,77.3z"/>
		<path class="st1" d="M201.9,81.1c-0.6,0-1.2-0.1-1.7-0.4c-0.5-0.3-0.9-0.7-1.2-1.2c-0.3-0.5-0.4-1.2-0.4-2.1
			c0-0.9,0.1-1.6,0.4-2.1c0.3-0.6,0.7-1,1.2-1.2c0.5-0.3,1.1-0.4,1.8-0.4c0.4,0,0.7,0,1,0.1c0.3,0.1,0.6,0.2,0.8,0.3l-0.3,0.9
			c-0.2-0.1-0.5-0.2-0.8-0.2c-0.3-0.1-0.6-0.1-0.8-0.1c-0.5,0-0.9,0.1-1.2,0.3c-0.3,0.2-0.6,0.5-0.7,0.9c-0.2,0.4-0.2,0.9-0.2,1.5
			c0,0.6,0.1,1.1,0.2,1.5c0.2,0.4,0.4,0.7,0.7,0.9s0.7,0.3,1.2,0.3c0.4,0,0.7,0,1-0.1c0.3-0.1,0.6-0.2,0.8-0.3v1
			c-0.2,0.1-0.5,0.2-0.8,0.3C202.7,81,202.3,81.1,201.9,81.1z"/>
		<path class="st1" d="M206.5,70.7V76c0,0.2,0,0.4,0,0.6c0,0.3,0,0.5,0,0.7h0c0.1-0.1,0.2-0.3,0.4-0.5c0.2-0.2,0.3-0.4,0.5-0.5
			l2.4-2.6h1.3l-2.9,3.1l3.1,4.1H210l-2.6-3.4l-0.9,0.8v2.6h-1.1V70.7H206.5z"/>
		<path class="st1" d="M218.3,80.2c0.2,0,0.4,0,0.6,0c0.2,0,0.3-0.1,0.5-0.1v0.9c-0.1,0.1-0.3,0.1-0.5,0.1c-0.2,0-0.4,0.1-0.7,0.1
			c-0.4,0-0.7-0.1-1-0.2c-0.3-0.1-0.6-0.4-0.7-0.7c-0.2-0.3-0.3-0.8-0.3-1.3v-4.3h-1V74l1-0.4l0.4-1.6h0.7v1.7h2.1v0.9h-2.1v4.3
			c0,0.5,0.1,0.8,0.3,1C217.7,80,218,80.2,218.3,80.2z"/>
		<path class="st1" d="M221.9,70.7v3.1c0,0.2,0,0.4,0,0.5c0,0.2,0,0.3,0,0.5h0.1c0.1-0.3,0.3-0.5,0.6-0.6c0.2-0.2,0.5-0.3,0.8-0.4
			s0.6-0.1,0.9-0.1c0.6,0,1.1,0.1,1.5,0.3c0.4,0.2,0.7,0.5,0.9,0.9c0.2,0.4,0.3,0.9,0.3,1.5v4.7h-1.1v-4.6c0-0.6-0.1-1.1-0.4-1.4
			c-0.3-0.3-0.7-0.4-1.3-0.4c-0.5,0-1,0.1-1.3,0.3c-0.3,0.2-0.5,0.5-0.7,0.9c-0.1,0.4-0.2,0.9-0.2,1.4v3.8h-1.1V70.7H221.9z"/>
		<path class="st1" d="M231.8,73.6c0.6,0,1.1,0.1,1.6,0.4c0.4,0.3,0.8,0.7,1,1.1c0.2,0.5,0.3,1.1,0.3,1.7v0.7h-5
			c0,0.8,0.2,1.5,0.6,1.9c0.4,0.4,1,0.7,1.7,0.7c0.5,0,0.9,0,1.2-0.1c0.4-0.1,0.7-0.2,1.1-0.4v1c-0.4,0.2-0.7,0.3-1.1,0.4
			c-0.4,0.1-0.8,0.1-1.3,0.1c-0.7,0-1.3-0.1-1.8-0.4s-0.9-0.7-1.2-1.2c-0.3-0.5-0.4-1.2-0.4-2c0-0.8,0.1-1.5,0.4-2
			c0.3-0.6,0.6-1,1.1-1.3C230.6,73.7,231.1,73.6,231.8,73.6z M231.8,74.5c-0.6,0-1.1,0.2-1.4,0.6c-0.3,0.4-0.6,0.9-0.6,1.6h3.8
			c0-0.4-0.1-0.8-0.2-1.1c-0.1-0.3-0.3-0.6-0.6-0.8C232.5,74.6,232.2,74.5,231.8,74.5z"/>
		<path class="st1" d="M243.4,73.6c0.9,0,1.6,0.3,2.2,0.9c0.5,0.6,0.8,1.6,0.8,2.8c0,0.8-0.1,1.5-0.4,2.1c-0.2,0.6-0.6,1-1,1.3
			c-0.4,0.3-1,0.4-1.6,0.4c-0.4,0-0.7-0.1-1-0.2c-0.3-0.1-0.5-0.2-0.7-0.4c-0.2-0.2-0.4-0.4-0.5-0.6h-0.1c0,0.2,0,0.4,0,0.6
			c0,0.2,0,0.5,0,0.6v3H240V73.7h0.9l0.1,1.1h0.1c0.1-0.2,0.3-0.4,0.5-0.6c0.2-0.2,0.4-0.3,0.7-0.4C242.7,73.6,243,73.6,243.4,73.6z
			 M243.2,74.5c-0.5,0-0.9,0.1-1.2,0.3c-0.3,0.2-0.5,0.5-0.7,0.9c-0.1,0.4-0.2,0.9-0.2,1.4v0.2c0,0.6,0.1,1.1,0.2,1.5
			c0.1,0.4,0.4,0.7,0.7,1c0.3,0.2,0.7,0.3,1.2,0.3c0.4,0,0.8-0.1,1.1-0.4c0.3-0.2,0.5-0.6,0.7-1c0.1-0.4,0.2-0.9,0.2-1.5
			c0-0.9-0.2-1.5-0.5-2C244.4,74.7,243.9,74.5,243.2,74.5z"/>
		<path class="st1" d="M254.5,77.3c0,0.6-0.1,1.1-0.2,1.6c-0.2,0.5-0.4,0.9-0.7,1.2c-0.3,0.3-0.6,0.6-1.1,0.7
			c-0.4,0.2-0.9,0.3-1.4,0.3c-0.5,0-0.9-0.1-1.3-0.3c-0.4-0.2-0.7-0.4-1-0.7s-0.5-0.7-0.7-1.2s-0.2-1-0.2-1.6c0-0.8,0.1-1.5,0.4-2
			c0.3-0.6,0.7-1,1.1-1.3c0.5-0.3,1.1-0.4,1.8-0.4c0.7,0,1.2,0.1,1.7,0.4c0.5,0.3,0.9,0.7,1.2,1.3C254.4,75.8,254.5,76.5,254.5,77.3
			z M249,77.3c0,0.6,0.1,1.1,0.2,1.5s0.4,0.8,0.7,1c0.3,0.2,0.7,0.3,1.2,0.3c0.5,0,0.9-0.1,1.2-0.3c0.3-0.2,0.6-0.6,0.7-1
			c0.2-0.4,0.2-0.9,0.2-1.5c0-0.6-0.1-1.1-0.2-1.5c-0.2-0.4-0.4-0.7-0.7-1c-0.3-0.2-0.7-0.3-1.2-0.3c-0.8,0-1.3,0.2-1.7,0.7
			C249.2,75.7,249,76.4,249,77.3z"/>
		<path class="st1" d="M262.2,80.9l-1.3-4.2c-0.1-0.2-0.1-0.4-0.2-0.5c-0.1-0.2-0.1-0.3-0.1-0.5c0-0.2-0.1-0.3-0.1-0.4
			s-0.1-0.3-0.1-0.4h0c0,0.1,0,0.2-0.1,0.4c0,0.1-0.1,0.3-0.1,0.5c0,0.2-0.1,0.3-0.1,0.5c0,0.2-0.1,0.4-0.2,0.5l-1.3,4.2h-1.2
			l-2-7.2h1.1l1,4c0.1,0.3,0.1,0.5,0.2,0.8c0.1,0.3,0.1,0.5,0.2,0.7c0,0.2,0.1,0.4,0.1,0.6h0.1c0-0.1,0.1-0.2,0.1-0.4
			c0-0.2,0.1-0.3,0.1-0.5c0-0.2,0.1-0.3,0.1-0.5c0-0.2,0.1-0.3,0.1-0.5l1.3-4.2h1.2l1.3,4.2c0.1,0.2,0.1,0.4,0.2,0.7
			c0.1,0.2,0.1,0.4,0.2,0.7c0.1,0.2,0.1,0.4,0.1,0.6h0.1c0-0.1,0.1-0.3,0.1-0.6c0-0.2,0.1-0.5,0.2-0.7c0.1-0.3,0.1-0.5,0.2-0.8
			l1.1-4h1.1l-2,7.2H262.2z"/>
		<path class="st1" d="M269.6,73.6c0.6,0,1.1,0.1,1.6,0.4c0.4,0.3,0.8,0.7,1,1.1c0.2,0.5,0.3,1.1,0.3,1.7v0.7h-5
			c0,0.8,0.2,1.5,0.6,1.9c0.4,0.4,1,0.7,1.7,0.7c0.5,0,0.9,0,1.2-0.1c0.4-0.1,0.7-0.2,1.1-0.4v1c-0.4,0.2-0.7,0.3-1.1,0.4
			c-0.4,0.1-0.8,0.1-1.3,0.1c-0.7,0-1.3-0.1-1.8-0.4s-0.9-0.7-1.2-1.2s-0.4-1.2-0.4-2c0-0.8,0.1-1.5,0.4-2c0.3-0.6,0.6-1,1.1-1.3
			C268.4,73.7,268.9,73.6,269.6,73.6z M269.6,74.5c-0.6,0-1.1,0.2-1.4,0.6c-0.3,0.4-0.6,0.9-0.6,1.6h3.8c0-0.4-0.1-0.8-0.2-1.1
			c-0.1-0.3-0.3-0.6-0.6-0.8C270.3,74.6,270,74.5,269.6,74.5z"/>
		<path class="st1" d="M277.6,73.6c0.1,0,0.3,0,0.5,0c0.2,0,0.3,0,0.4,0.1l-0.1,1c-0.1,0-0.3-0.1-0.4-0.1c-0.1,0-0.3,0-0.4,0
			c-0.3,0-0.6,0.1-0.8,0.2c-0.3,0.1-0.5,0.3-0.7,0.5c-0.2,0.2-0.3,0.5-0.5,0.8c-0.1,0.3-0.2,0.6-0.2,1v3.9h-1.1v-7.2h0.9l0.1,1.3h0
			c0.1-0.3,0.3-0.5,0.5-0.7c0.2-0.2,0.5-0.4,0.7-0.5C277,73.6,277.3,73.6,277.6,73.6z"/>
		<path class="st1" d="M289.5,77.3c0,0.6-0.1,1.1-0.2,1.6s-0.4,0.9-0.7,1.2c-0.3,0.3-0.6,0.6-1.1,0.7c-0.4,0.2-0.9,0.3-1.4,0.3
			c-0.5,0-0.9-0.1-1.3-0.3c-0.4-0.2-0.7-0.4-1-0.7s-0.5-0.7-0.7-1.2s-0.2-1-0.2-1.6c0-0.8,0.1-1.5,0.4-2c0.3-0.6,0.7-1,1.1-1.3
			c0.5-0.3,1.1-0.4,1.8-0.4c0.7,0,1.2,0.1,1.7,0.4c0.5,0.3,0.9,0.7,1.2,1.3C289.4,75.8,289.5,76.5,289.5,77.3z M284.1,77.3
			c0,0.6,0.1,1.1,0.2,1.5c0.2,0.4,0.4,0.8,0.7,1s0.7,0.3,1.2,0.3c0.5,0,0.9-0.1,1.2-0.3c0.3-0.2,0.6-0.6,0.7-1
			c0.2-0.4,0.2-0.9,0.2-1.5c0-0.6-0.1-1.1-0.2-1.5c-0.2-0.4-0.4-0.7-0.7-1c-0.3-0.2-0.7-0.3-1.2-0.3c-0.8,0-1.3,0.2-1.7,0.7
			C284.2,75.7,284.1,76.4,284.1,77.3z"/>
		<path class="st1" d="M294.6,74.6h-1.8v6.4h-1.1v-6.4h-1.3V74l1.3-0.4v-0.5c0-0.6,0.1-1.1,0.3-1.5c0.2-0.4,0.4-0.7,0.8-0.8
			c0.3-0.2,0.8-0.3,1.3-0.3c0.3,0,0.5,0,0.8,0.1c0.2,0,0.4,0.1,0.6,0.2l-0.3,0.9c-0.1,0-0.3-0.1-0.5-0.1c-0.2,0-0.4-0.1-0.6-0.1
			c-0.4,0-0.7,0.1-0.9,0.4c-0.2,0.3-0.3,0.7-0.3,1.3v0.5h1.8V74.6z"/>
		<path class="st1" d="M302.7,73.6c0.1,0,0.3,0,0.5,0c0.2,0,0.3,0,0.4,0.1l-0.1,1c-0.1,0-0.3-0.1-0.4-0.1c-0.1,0-0.3,0-0.4,0
			c-0.3,0-0.6,0.1-0.8,0.2c-0.3,0.1-0.5,0.3-0.7,0.5c-0.2,0.2-0.3,0.5-0.5,0.8c-0.1,0.3-0.2,0.6-0.2,1v3.9h-1.1v-7.2h0.9l0.1,1.3h0
			c0.1-0.3,0.3-0.5,0.5-0.7c0.2-0.2,0.5-0.4,0.7-0.5C302,73.6,302.3,73.6,302.7,73.6z"/>
		<path class="st1" d="M307.7,73.6c0.6,0,1.1,0.1,1.6,0.4c0.4,0.3,0.8,0.7,1,1.1c0.2,0.5,0.3,1.1,0.3,1.7v0.7h-5
			c0,0.8,0.2,1.5,0.6,1.9c0.4,0.4,1,0.7,1.7,0.7c0.5,0,0.9,0,1.2-0.1c0.4-0.1,0.7-0.2,1.1-0.4v1c-0.4,0.2-0.7,0.3-1.1,0.4
			c-0.4,0.1-0.8,0.1-1.3,0.1c-0.7,0-1.3-0.1-1.8-0.4c-0.5-0.3-0.9-0.7-1.2-1.2c-0.3-0.5-0.4-1.2-0.4-2c0-0.8,0.1-1.5,0.4-2
			c0.3-0.6,0.6-1,1.1-1.3C306.5,73.7,307,73.6,307.7,73.6z M307.7,74.5c-0.6,0-1.1,0.2-1.4,0.6c-0.3,0.4-0.6,0.9-0.6,1.6h3.8
			c0-0.4-0.1-0.8-0.2-1.1c-0.1-0.3-0.3-0.6-0.6-0.8C308.4,74.6,308.1,74.5,307.7,74.5z"/>
		<path class="st1" d="M314.5,84.2c-0.9,0-1.7-0.2-2.2-0.5c-0.5-0.4-0.8-0.8-0.8-1.5c0-0.5,0.1-0.8,0.4-1.2c0.3-0.3,0.7-0.5,1.2-0.6
			c-0.2-0.1-0.4-0.2-0.5-0.4s-0.2-0.4-0.2-0.6c0-0.3,0.1-0.5,0.2-0.7c0.1-0.2,0.4-0.4,0.7-0.6c-0.4-0.2-0.7-0.4-0.9-0.8
			c-0.2-0.4-0.4-0.8-0.4-1.3c0-0.5,0.1-1,0.3-1.3c0.2-0.4,0.5-0.6,0.9-0.8c0.4-0.2,0.9-0.3,1.5-0.3c0.1,0,0.3,0,0.4,0
			c0.1,0,0.3,0,0.4,0c0.1,0,0.2,0,0.3,0.1h2.5v0.7l-1.3,0.2c0.1,0.2,0.2,0.4,0.3,0.6c0.1,0.2,0.1,0.5,0.1,0.8c0,0.7-0.2,1.3-0.7,1.7
			c-0.5,0.4-1.2,0.6-2,0.6c-0.2,0-0.4,0-0.6-0.1c-0.2,0.1-0.4,0.3-0.5,0.4c-0.1,0.1-0.2,0.3-0.2,0.5c0,0.1,0,0.3,0.1,0.3
			c0.1,0.1,0.2,0.1,0.4,0.2c0.2,0,0.4,0.1,0.6,0.1h1.3c0.8,0,1.4,0.2,1.8,0.5c0.4,0.3,0.6,0.8,0.6,1.4c0,0.8-0.3,1.4-1,1.8
			C316.6,83.9,315.7,84.2,314.5,84.2z M314.5,83.3c0.6,0,1.1-0.1,1.5-0.2c0.4-0.1,0.7-0.3,0.9-0.5c0.2-0.2,0.3-0.5,0.3-0.8
			c0-0.3-0.1-0.5-0.2-0.7s-0.3-0.2-0.6-0.3s-0.6-0.1-0.9-0.1h-1.3c-0.3,0-0.6,0.1-0.9,0.2s-0.4,0.3-0.6,0.4
			c-0.1,0.2-0.2,0.4-0.2,0.7c0,0.4,0.2,0.7,0.5,0.9C313.4,83.2,313.9,83.3,314.5,83.3z M314.8,77.5c0.5,0,0.9-0.1,1.2-0.4
			s0.4-0.6,0.4-1.2c0-0.5-0.1-0.9-0.4-1.2c-0.3-0.3-0.7-0.4-1.2-0.4c-0.5,0-0.9,0.1-1.2,0.4s-0.4,0.7-0.4,1.2c0,0.5,0.1,0.9,0.4,1.1
			C313.9,77.4,314.3,77.5,314.8,77.5z"/>
		<path class="st1" d="M325.7,73.7v7.2h-0.9l-0.2-1h-0.1c-0.1,0.3-0.3,0.5-0.6,0.6c-0.2,0.2-0.5,0.3-0.8,0.4
			c-0.3,0.1-0.6,0.1-0.9,0.1c-0.6,0-1-0.1-1.4-0.3s-0.7-0.5-0.9-0.9c-0.2-0.4-0.3-0.9-0.3-1.5v-4.7h1.1v4.7c0,0.6,0.1,1.1,0.4,1.3
			c0.3,0.3,0.7,0.4,1.2,0.4c0.5,0,1-0.1,1.3-0.3c0.3-0.2,0.5-0.5,0.7-0.9c0.1-0.4,0.2-0.9,0.2-1.4v-3.8H325.7z"/>
		<path class="st1" d="M329.1,80.9H328V70.7h1.1V80.9z"/>
		<path class="st1" d="M334.1,73.6c0.9,0,1.5,0.2,1.9,0.6c0.4,0.4,0.6,1,0.6,1.9v4.9h-0.8l-0.2-1.1h-0.1c-0.2,0.3-0.4,0.5-0.6,0.7
			c-0.2,0.2-0.5,0.3-0.8,0.4c-0.3,0.1-0.6,0.1-1.1,0.1c-0.4,0-0.8-0.1-1.2-0.2c-0.3-0.2-0.6-0.4-0.8-0.7c-0.2-0.3-0.3-0.7-0.3-1.2
			c0-0.7,0.3-1.3,0.9-1.7c0.6-0.4,1.4-0.6,2.6-0.6l1.2-0.1v-0.4c0-0.6-0.1-1.1-0.4-1.3c-0.3-0.3-0.6-0.4-1.1-0.4
			c-0.4,0-0.7,0.1-1.1,0.2c-0.3,0.1-0.7,0.2-1,0.4l-0.3-0.8c0.3-0.2,0.7-0.3,1.1-0.4C333.2,73.6,333.6,73.6,334.1,73.6z M335.5,77.4
			l-1.1,0c-0.9,0-1.5,0.2-1.9,0.4c-0.4,0.3-0.6,0.6-0.6,1.1c0,0.4,0.1,0.7,0.4,0.9c0.3,0.2,0.6,0.3,1,0.3c0.6,0,1.2-0.2,1.6-0.5
			c0.4-0.4,0.6-0.9,0.6-1.6V77.4z"/>
		<path class="st1" d="M342.1,73.6c0.1,0,0.3,0,0.5,0c0.2,0,0.3,0,0.4,0.1l-0.1,1c-0.1,0-0.3-0.1-0.4-0.1c-0.1,0-0.3,0-0.4,0
			c-0.3,0-0.6,0.1-0.8,0.2s-0.5,0.3-0.7,0.5c-0.2,0.2-0.3,0.5-0.5,0.8c-0.1,0.3-0.2,0.6-0.2,1v3.9h-1.1v-7.2h0.9l0.1,1.3h0
			c0.1-0.3,0.3-0.5,0.5-0.7c0.2-0.2,0.5-0.4,0.7-0.5S341.8,73.6,342.1,73.6z"/>
		<path class="st1" d="M350.6,73.6c0.6,0,1.1,0.1,1.6,0.4c0.4,0.3,0.8,0.7,1,1.1c0.2,0.5,0.3,1.1,0.3,1.7v0.7h-5
			c0,0.8,0.2,1.5,0.6,1.9c0.4,0.4,1,0.7,1.7,0.7c0.5,0,0.9,0,1.2-0.1c0.4-0.1,0.7-0.2,1.1-0.4v1c-0.4,0.2-0.7,0.3-1.1,0.4
			c-0.4,0.1-0.8,0.1-1.3,0.1c-0.7,0-1.3-0.1-1.8-0.4c-0.5-0.3-0.9-0.7-1.2-1.2c-0.3-0.5-0.4-1.2-0.4-2c0-0.8,0.1-1.5,0.4-2
			c0.3-0.6,0.6-1,1.1-1.3C349.4,73.7,350,73.6,350.6,73.6z M350.6,74.5c-0.6,0-1.1,0.2-1.4,0.6c-0.3,0.4-0.6,0.9-0.6,1.6h3.8
			c0-0.4-0.1-0.8-0.2-1.1c-0.1-0.3-0.3-0.6-0.6-0.8C351.3,74.6,351,74.5,350.6,74.5z"/>
		<path class="st1" d="M357.1,77.2l-2.5-3.5h1.3l1.9,2.8l1.9-2.8h1.2l-2.5,3.5l2.6,3.7h-1.3l-2-2.9l-2,2.9h-1.2L357.1,77.2z"/>
		<path class="st1" d="M365.8,73.6c0.9,0,1.6,0.3,2.2,0.9c0.5,0.6,0.8,1.6,0.8,2.8c0,0.8-0.1,1.5-0.4,2.1c-0.2,0.6-0.6,1-1,1.3
			c-0.4,0.3-1,0.4-1.6,0.4c-0.4,0-0.7-0.1-1-0.2c-0.3-0.1-0.5-0.2-0.7-0.4c-0.2-0.2-0.4-0.4-0.5-0.6h-0.1c0,0.2,0,0.4,0,0.6
			c0,0.2,0,0.5,0,0.6v3h-1.1V73.7h0.9l0.1,1.1h0.1c0.1-0.2,0.3-0.4,0.5-0.6s0.4-0.3,0.7-0.4C365.1,73.6,365.4,73.6,365.8,73.6z
			 M365.6,74.5c-0.5,0-0.9,0.1-1.2,0.3c-0.3,0.2-0.5,0.5-0.7,0.9c-0.1,0.4-0.2,0.9-0.2,1.4v0.2c0,0.6,0.1,1.1,0.2,1.5
			c0.1,0.4,0.4,0.7,0.7,1c0.3,0.2,0.7,0.3,1.2,0.3c0.4,0,0.8-0.1,1.1-0.4c0.3-0.2,0.5-0.6,0.7-1c0.1-0.4,0.2-0.9,0.2-1.5
			c0-0.9-0.2-1.5-0.5-2C366.8,74.7,366.3,74.5,365.6,74.5z"/>
		<path class="st1" d="M373.9,73.6c0.1,0,0.3,0,0.5,0c0.2,0,0.3,0,0.4,0.1l-0.1,1c-0.1,0-0.3-0.1-0.4-0.1c-0.1,0-0.3,0-0.4,0
			c-0.3,0-0.6,0.1-0.8,0.2s-0.5,0.3-0.7,0.5c-0.2,0.2-0.3,0.5-0.5,0.8c-0.1,0.3-0.2,0.6-0.2,1v3.9h-1.1v-7.2h0.9l0.1,1.3h0
			c0.1-0.3,0.3-0.5,0.5-0.7c0.2-0.2,0.5-0.4,0.7-0.5S373.6,73.6,373.9,73.6z"/>
		<path class="st1" d="M378.9,73.6c0.6,0,1.1,0.1,1.6,0.4c0.4,0.3,0.8,0.7,1,1.1c0.2,0.5,0.3,1.1,0.3,1.7v0.7h-5
			c0,0.8,0.2,1.5,0.6,1.9c0.4,0.4,1,0.7,1.7,0.7c0.5,0,0.9,0,1.2-0.1c0.4-0.1,0.7-0.2,1.1-0.4v1c-0.4,0.2-0.7,0.3-1.1,0.4
			c-0.4,0.1-0.8,0.1-1.3,0.1c-0.7,0-1.3-0.1-1.8-0.4c-0.5-0.3-0.9-0.7-1.2-1.2c-0.3-0.5-0.4-1.2-0.4-2c0-0.8,0.1-1.5,0.4-2
			c0.3-0.6,0.6-1,1.1-1.3C377.7,73.7,378.3,73.6,378.9,73.6z M378.9,74.5c-0.6,0-1.1,0.2-1.4,0.6c-0.3,0.4-0.6,0.9-0.6,1.6h3.8
			c0-0.4-0.1-0.8-0.2-1.1c-0.1-0.3-0.3-0.6-0.6-0.8C379.6,74.6,379.3,74.5,378.9,74.5z"/>
		<path class="st1" d="M388.4,78.9c0,0.5-0.1,0.8-0.3,1.2c-0.2,0.3-0.6,0.6-1,0.7c-0.4,0.2-0.9,0.2-1.5,0.2c-0.5,0-0.9,0-1.3-0.1
			c-0.4-0.1-0.7-0.2-1-0.3v-1c0.3,0.1,0.6,0.3,1.1,0.4c0.4,0.1,0.8,0.2,1.3,0.2c0.6,0,1.1-0.1,1.4-0.3c0.3-0.2,0.4-0.5,0.4-0.8
			c0-0.2-0.1-0.4-0.2-0.5c-0.1-0.2-0.3-0.3-0.6-0.4c-0.3-0.1-0.6-0.3-1.1-0.5c-0.5-0.2-0.9-0.3-1.2-0.5s-0.6-0.4-0.8-0.6
			c-0.2-0.3-0.3-0.6-0.3-1c0-0.6,0.2-1.1,0.7-1.4c0.5-0.3,1.1-0.5,1.9-0.5c0.4,0,0.8,0,1.2,0.1c0.4,0.1,0.7,0.2,1.1,0.3l-0.4,0.9
			c-0.3-0.1-0.6-0.2-1-0.3c-0.3-0.1-0.7-0.1-1-0.1c-0.5,0-0.9,0.1-1.2,0.3c-0.3,0.2-0.4,0.4-0.4,0.7c0,0.2,0.1,0.4,0.2,0.6
			c0.1,0.1,0.3,0.3,0.6,0.4c0.3,0.1,0.6,0.3,1.1,0.4c0.5,0.2,0.8,0.3,1.2,0.5c0.3,0.2,0.6,0.4,0.8,0.6
			C388.3,78.2,388.4,78.5,388.4,78.9z"/>
		<path class="st1" d="M394.8,78.9c0,0.5-0.1,0.8-0.3,1.2c-0.2,0.3-0.6,0.6-1,0.7c-0.4,0.2-0.9,0.2-1.5,0.2c-0.5,0-0.9,0-1.3-0.1
			c-0.4-0.1-0.7-0.2-1-0.3v-1c0.3,0.1,0.6,0.3,1.1,0.4c0.4,0.1,0.8,0.2,1.3,0.2c0.6,0,1.1-0.1,1.4-0.3c0.3-0.2,0.4-0.5,0.4-0.8
			c0-0.2-0.1-0.4-0.2-0.5c-0.1-0.2-0.3-0.3-0.6-0.4c-0.3-0.1-0.6-0.3-1.1-0.5c-0.5-0.2-0.9-0.3-1.2-0.5c-0.3-0.2-0.6-0.4-0.8-0.6
			c-0.2-0.3-0.3-0.6-0.3-1c0-0.6,0.2-1.1,0.7-1.4c0.5-0.3,1.1-0.5,1.9-0.5c0.4,0,0.8,0,1.2,0.1c0.4,0.1,0.7,0.2,1.1,0.3l-0.4,0.9
			c-0.3-0.1-0.6-0.2-1-0.3c-0.3-0.1-0.7-0.1-1-0.1c-0.5,0-0.9,0.1-1.2,0.3c-0.3,0.2-0.4,0.4-0.4,0.7c0,0.2,0.1,0.4,0.2,0.6
			c0.1,0.1,0.3,0.3,0.6,0.4c0.3,0.1,0.6,0.3,1.1,0.4c0.5,0.2,0.8,0.3,1.2,0.5c0.3,0.2,0.6,0.4,0.8,0.6
			C394.7,78.2,394.8,78.5,394.8,78.9z"/>
		<path class="st1" d="M397,71c0.2,0,0.3,0.1,0.5,0.2c0.1,0.1,0.2,0.3,0.2,0.5c0,0.2-0.1,0.4-0.2,0.5c-0.1,0.1-0.3,0.2-0.5,0.2
			c-0.2,0-0.3-0.1-0.5-0.2c-0.1-0.1-0.2-0.3-0.2-0.5c0-0.2,0.1-0.4,0.2-0.5C396.7,71.1,396.9,71,397,71z M397.6,73.7v7.2h-1.1v-7.2
			H397.6z"/>
		<path class="st1" d="M406.1,77.3c0,0.6-0.1,1.1-0.2,1.6s-0.4,0.9-0.7,1.2c-0.3,0.3-0.6,0.6-1.1,0.7c-0.4,0.2-0.9,0.3-1.4,0.3
			c-0.5,0-0.9-0.1-1.3-0.3c-0.4-0.2-0.7-0.4-1-0.7s-0.5-0.7-0.7-1.2s-0.2-1-0.2-1.6c0-0.8,0.1-1.5,0.4-2c0.3-0.6,0.7-1,1.1-1.3
			c0.5-0.3,1.1-0.4,1.8-0.4c0.7,0,1.2,0.1,1.7,0.4c0.5,0.3,0.9,0.7,1.2,1.3C406,75.8,406.1,76.5,406.1,77.3z M400.6,77.3
			c0,0.6,0.1,1.1,0.2,1.5c0.2,0.4,0.4,0.8,0.7,1c0.3,0.2,0.7,0.3,1.2,0.3c0.5,0,0.9-0.1,1.2-0.3c0.3-0.2,0.6-0.6,0.7-1
			s0.2-0.9,0.2-1.5c0-0.6-0.1-1.1-0.2-1.5c-0.2-0.4-0.4-0.7-0.7-1c-0.3-0.2-0.7-0.3-1.2-0.3c-0.8,0-1.3,0.2-1.7,0.7
			C400.8,75.7,400.6,76.4,400.6,77.3z"/>
		<path class="st1" d="M411.4,73.6c0.9,0,1.5,0.2,1.9,0.6c0.4,0.4,0.7,1.1,0.7,2v4.7h-1.1v-4.6c0-0.6-0.1-1.1-0.4-1.4
			c-0.3-0.3-0.7-0.4-1.3-0.4c-0.8,0-1.4,0.2-1.7,0.7c-0.3,0.5-0.5,1.1-0.5,2v3.8H408v-7.2h0.9l0.2,1h0.1c0.2-0.3,0.3-0.5,0.6-0.6
			c0.2-0.2,0.5-0.3,0.8-0.4C410.7,73.6,411.1,73.6,411.4,73.6z"/>
		<path class="st1" d="M420.9,78.9c0,0.5-0.1,0.8-0.3,1.2c-0.2,0.3-0.6,0.6-1,0.7c-0.4,0.2-0.9,0.2-1.5,0.2c-0.5,0-0.9,0-1.3-0.1
			c-0.4-0.1-0.7-0.2-1-0.3v-1c0.3,0.1,0.6,0.3,1.1,0.4c0.4,0.1,0.8,0.2,1.3,0.2c0.6,0,1.1-0.1,1.4-0.3c0.3-0.2,0.4-0.5,0.4-0.8
			c0-0.2-0.1-0.4-0.2-0.5c-0.1-0.2-0.3-0.3-0.6-0.4c-0.3-0.1-0.6-0.3-1.1-0.5c-0.5-0.2-0.9-0.3-1.2-0.5c-0.3-0.2-0.6-0.4-0.8-0.6
			c-0.2-0.3-0.3-0.6-0.3-1c0-0.6,0.2-1.1,0.7-1.4c0.5-0.3,1.1-0.5,1.9-0.5c0.4,0,0.8,0,1.2,0.1c0.4,0.1,0.7,0.2,1.1,0.3l-0.4,0.9
			c-0.3-0.1-0.6-0.2-1-0.3c-0.3-0.1-0.7-0.1-1-0.1c-0.5,0-0.9,0.1-1.2,0.3c-0.3,0.2-0.4,0.4-0.4,0.7c0,0.2,0.1,0.4,0.2,0.6
			c0.1,0.1,0.3,0.3,0.6,0.4c0.3,0.1,0.6,0.3,1.1,0.4c0.5,0.2,0.8,0.3,1.2,0.5c0.3,0.2,0.6,0.4,0.8,0.6
			C420.8,78.2,420.9,78.5,420.9,78.9z"/>
	</g>
	<g>
		<path id="svg_6_00000017516935628809647480000006098258233722123954_" class="st2" d="M48.1,34.1l0.3,25.3c0,0,0.1,14.1,7.4,19.9
			c0,0,7.2,16,33.9,24l3-2l-3.4-93L71.5,19.9c0,0-2.8,1-4.4-1.5s-3.6-6.7-3.6-6.7s-3,4.8-1.2,9c0,0,0.3,1.8,0.2,2.3
			C60.8,33.3,48.1,34.1,48.1,34.1z"/>
		<path id="svg_7_00000117676314169768068500000012724671500016810116_" class="st2" d="M130.8,33.7L130.6,59c0,0-0.1,14.1-7.4,19.9
			c0,0-7.2,16.7-33.5,24.4l-3.4-2.4l2.8-92.6l18.2,11.2c0,0,2.8,1,4.4-1.5c1.6-2.5,3.6-6.7,3.6-6.7s3,4.8,1.2,9c0,0,0,3,0,3.5
			C118.4,34.2,130.8,33.7,130.8,33.7L130.8,33.7z"/>
		<polygon id="svg_8_00000081610607062464606590000000229726970045923475_" class="st3" points="77,85.8 89.6,94.4 103.9,83.8 		"/>
		
			<linearGradient id="svg_10_00000029759402844117345220000003377143197295280548_" gradientUnits="userSpaceOnUse" x1="50.9476" y1="63.8238" x2="128.1283" y2="63.8238">
			<stop  offset="0" style="stop-color:#BEEF9E"/>
			<stop  offset="1" style="stop-color:#CFE07A"/>
		</linearGradient>
		
			<path id="svg_10_00000029010028119469889970000012053032405114258837_" style="fill:url(#svg_10_00000029759402844117345220000003377143197295280548_);" d="
			M126.5,37c-2-0.1-3.9-0.6-5.7-1.5c-2.2-1.1-4-2.5-5.2-4.5c-0.6-1.1-0.9-2.3-0.3-3.5c0-0.1,0.1-0.2,0.2-0.2c0.4,0.8,0.6,1.7,1,2.4
			c1.7,3.3,4.6,5,8.4,5.7c0.8,0.1,1.6,0.2,2.4,0.2c0.5,0,0.8,0.2,0.8,0.7c0,0.9,0,1.9,0,2.8c0,5.9,0.1,11.7,0,17.6
			c-0.2,9.6-3.3,18.2-9.9,25.8c-5.4,6.2-12,10.8-19.6,14.4c-2.7,1.2-5.5,2.2-8.2,3.3c-0.5,0.2-1.1,0.2-1.6,0
			c-10.9-3.8-20.5-9.3-28-17.6c-4.8-5.4-7.8-11.5-9.1-18.4c-0.5-2.8-0.8-5.7-0.7-8.6c0-6.3,0-12.7,0-19c0-1,0.1-1,1.1-1.1
			c4.5-0.3,8.1-2,10.3-5.8c0.5-0.8,0.7-1.7,1.1-2.6c0.5,1,0.6,1.9,0.3,2.9c-0.7,1.8-2,3.2-3.7,4.3c-2.2,1.5-4.7,2.4-7.3,2.6
			c-0.1,0-0.2,0-0.2,0.1v0.5c0,6.1,0,12.2,0,18.3c0,5.1,0.9,10.2,2.8,15c2.2,5.6,5.8,10.3,10.3,14.4c6.7,6.1,14.6,10.4,23.4,13.4
			c0.4,0.1,0.8,0.1,1.2,0c4.6-1.4,8.8-3.5,12.9-5.8c5.4-3.1,10.1-6.9,14.1-11.4c4.9-5.6,7.8-11.9,8.9-19c0.4-2.5,0.6-5,0.6-7.5
			c0-5.8,0-11.6,0-17.4L126.5,37L126.5,37z"/>
		
			<linearGradient id="svg_11_00000133500169366831789860000007131202323557657277_" gradientUnits="userSpaceOnUse" x1="64.4447" y1="34.5185" x2="114.601" y2="34.5185">
			<stop  offset="0" style="stop-color:#FFFFFF"/>
			<stop  offset="1" style="stop-color:#C0C3C4"/>
		</linearGradient>
		
			<path id="svg_11_00000114769313467139941950000003360809399522893986_" style="fill:url(#svg_11_00000133500169366831789860000007131202323557657277_);" d="
			M114.6,22.5c-0.8,2.1-2.1,3.6-3.9,4.6c-1.9,1.1-4,2-6,2.9c-2.6,1.2-5.3,2.2-7.7,4c-2.2,1.6-4,3.7-5.1,6.3c0,0.1-0.1,0.2-0.1,0.3
			c0,0.1,0,0.2,0,0.2c0.2-0.2,0.3-0.3,0.5-0.5c2.9-4.1,6.9-6.9,11.6-8.8c2.4-0.9,4.8-2,7.3-3c-0.8,0.5-1.5,1-2.3,1.5
			c-1.5,0.8-3.1,1.7-4.6,2.4c-4.5,2.2-8.1,5.3-11.1,9.3c-1.2,1.6-2.4,3.2-3.6,4.9c-0.7-0.9-1.3-1.9-2-2.8c-2.1-3-4.4-5.8-7.3-8.1
			c-2.4-1.8-5-3.1-7.7-4.5c-1.5-0.8-2.9-1.6-4.3-2.4l0.1-0.1c0.1,0,0.1,0,0.2,0c3.2,1.4,6.4,2.8,9.6,4.2c3.4,1.5,6.1,4,8.4,6.9
			c0.2,0.3,0.4,0.5,0.6,0.8c0,0,0.1,0,0.2,0c-0.6-1-1.1-2-1.7-2.9c-1.8-2.8-4.5-4.6-7.5-6c-2.5-1.1-5-2.1-7.4-3.3
			c-2-0.9-3.8-2-5.1-3.8c-0.4-0.5-0.6-1.1-1-1.7l0.1-0.1c0.3,0.3,0.7,0.6,1,0.9c2.4,2,5.3,3.2,8.2,4.3c1.9,0.7,3.7,1.4,5.5,2.2
			c3.8,1.7,6.6,4.5,8.8,8c0.4,0.6,0.7,1.1,1.2,1.8c0.5-0.8,1-1.4,1.5-2.1c2.6-4,6.2-6.8,10.7-8.6c2.4-1,4.9-1.9,7.3-2.9
			c2.1-0.8,3.9-2.1,5.5-3.6C114.3,22.7,114.4,22.6,114.6,22.5z"/>
		<path id="svg_12_00000016033946166779131320000014224100865915410348_" class="st3" d="M89.3,38.1c-2.1-3.4-4.6-6.3-8.2-8.1
			c-2-1-4-1.8-6.1-2.6c-2.7-1-5.3-2-7.7-3.7c-1.6-1.1-2.8-2.5-3.3-4.5c-0.3-1.3-0.2-2.6,0.1-3.9c0.8,4.2,3.3,6.7,6.8,8.5
			c2.5,1.3,5.2,2,7.8,3c1.3,0.5,2.5,0.7,3.8,0.1c1.7-0.7,1.8-0.6,3.2,0.7c1.2,1.1,2.2,2.3,3.3,3.4c0.2,0.2,0.3,0.4,0.4,0.5
			c0.6-0.7,1.1-1.4,1.7-2c1-1,2-1.9,3.1-2.8c0.2-0.2,0.5-0.2,0.7-0.2c0.8,0.2,1.6,0.4,2.4,0.7c0.4,0.2,0.9,0.2,1.4,0
			c2.3-0.9,4.7-1.6,7-2.6c1.6-0.7,3.2-1.6,4.6-2.6c2.1-1.4,3.3-3.4,4-5.8c0.1-0.2,0.2-0.5,0.3-0.7c0.4,2.5,0.2,4.9-1.7,6.9
			c-1.3,1.4-2.9,2.4-4.6,3.1c-2.1,0.9-4.2,1.8-6.4,2.6c-5.2,1.9-9.4,5.1-12.4,9.7c-0.1,0.1-0.1,0.2-0.2,0.2
			C89.4,38,89.4,38,89.3,38.1L89.3,38.1z"/>
		<path id="svg_13_00000019643742624762082600000000395773420551516301_" class="st3" d="M93.4,46.8c0.6-0.6,1.2-1.2,1.8-1.9
			c1,2.2,2.6,3.8,5.1,4.1c1.7,0.2,3.3-0.3,4.5-1.5c1.7-1.6,2.4-3.5,2.1-5.8c-0.3-2.3-1.7-3.8-3.8-4.9c1.3-0.5,2.5-1,3.8-1.4
			c0.1,0,0.4,0.1,0.6,0.3c1.1,1.3,1.7,2.9,2.1,4.5c0.8,3.8,0.2,7.3-2.7,10c-2.9,2.7-6.4,3.4-10.2,2.3c-1-0.3-1.6-0.6-1.6-1.8
			C94.8,49.2,94.2,48,93.4,46.8z"/>
		<path id="svg_14_00000119088317091280421250000016257238995291892363_" class="st3" d="M75.7,36.7c-3.1,1.7-4.3,4.1-3.6,7.5
			c0.5,2.5,2.7,4.5,5.1,4.8c2.6,0.4,4.5-0.8,6.4-4l1.8,1.9c-1,1.4-1.4,3.1-1.5,4.8c0,0.2-0.1,0.3-0.3,0.4c-3,1.1-6,1.5-9-0.1
			c-3.4-1.8-5.1-4.6-5.5-8.4c-0.3-2.9,0.5-5.6,2.2-8c0.3-0.4,0.5-0.5,1-0.3C73.4,35.8,74.5,36.2,75.7,36.7z"/>
		
			<linearGradient id="svg_17_00000122706325089951486190000016950894882380252823_" gradientUnits="userSpaceOnUse" x1="62.0759" y1="73.5673" x2="72.3932" y2="73.5673">
			<stop  offset="0" style="stop-color:#D7D7D7"/>
			<stop  offset="1" style="stop-color:#FFFFFF"/>
		</linearGradient>
		
			<path id="svg_17_00000054228817850761445840000018437938114190357398_" style="fill:url(#svg_17_00000122706325089951486190000016950894882380252823_);" d="
			M66.8,72c-0.2,2.2-0.4,4.3-0.7,6.5l-0.2,0c-1.3-2-1.7-4.4-1.7-6.8H64c-0.1,0.6-0.3,1.2-0.4,1.8c-0.1,0.7-0.2,1.3-0.2,2
			c-0.1,0.7-0.1,1.3-0.2,2l-0.2,0.1c-0.3-0.9-0.6-1.8-0.7-2.7c-0.2-1.6-0.2-3.2-0.3-4.8c0-0.2,0-0.3,0.1-0.4
			c0.4-0.4,0.9-0.8,1.3-1.2c0.2,0.7,0.5,1.5,0.8,2.3l0.2,0l1.7-2.2l1.2,2.4h0.3l1.7-2.4l1.3,2.2l1.5-1.7l0.2,0
			c-0.5,3.1-0.4,6.3,0.1,9.3c-1.6-1.8-2.4-3.9-3-6.2c-0.1,2.1,0.1,4.2-0.5,6.3c-1.4-2-1.8-4.3-2-6.6L66.8,72z"/>
		
			<linearGradient id="svg_18_00000147906803321792014050000008299943915012799162_" gradientUnits="userSpaceOnUse" x1="106.0734" y1="72.5597" x2="116.5023" y2="72.5597">
			<stop  offset="0" style="stop-color:#FFFFFF"/>
			<stop  offset="1" style="stop-color:#D7D7D7"/>
		</linearGradient>
		
			<path id="svg_18_00000035493981478651720150000004382031805374551185_" style="fill:url(#svg_18_00000147906803321792014050000008299943915012799162_);" d="
			M112.3,67.7L114,70c0.7-0.7,0.8-1.6,0.9-2.5c0.8,0.7,1.6,1.2,1.5,2.5c-0.1,2-0.2,4.1-0.9,6c-0.1,0.2-0.2,0.4-0.3,0.8
			c-0.2-2-0.2-3.9-0.8-5.7c-0.2,2.4-0.5,4.6-2,6.7c-0.2-2.1-0.4-4.3-0.7-6.4l-0.2,0c-0.2,2.3-0.7,4.5-2,6.5
			c-0.6-2.1-0.5-4.2-0.5-6.3c-0.5,2.3-1.5,4.5-3,6.3c0.5-3.1,0.8-6.2,0.2-9.3l0.2-0.1l1.4,1.7l1.4-2.3l1.7,2.4
			C111.8,69.5,112,68.6,112.3,67.7z"/>
		<path id="svg_19_00000136401801633016218030000009162538013016444047_" class="st8" d="M106.6,22.2c-0.1,0.1-0.2,0.1-0.3,0.2
			c-0.7,0.8-1.4,0.5-2.1,0c-4.8-2.8-9.5-5.6-14.3-8.5c-0.4-0.2-0.6-0.2-0.9,0c-4.7,2.8-9.5,5.7-14.2,8.5c-1.2,0.7-1.2,0.7-2.4-0.3
			c1.2-0.7,2.3-1.4,3.4-2.1c4.1-2.5,8.2-4.9,12.3-7.4c1-0.6,1.7-0.6,2.7,0c4.9,3,9.8,5.9,14.7,8.8C105.9,21.8,106.2,22,106.6,22.2z"
			/>
		
			<linearGradient id="svg_20_00000097501042829782584360000002074142521500053934_" gradientUnits="userSpaceOnUse" x1="65.2575" y1="45.0953" x2="84.1216" y2="45.0953">
			<stop  offset="0" style="stop-color:#C0C3C4"/>
			<stop  offset="1" style="stop-color:#FFFFFF"/>
		</linearGradient>
		
			<path id="svg_20_00000015339968307629616130000005352834545961112507_" style="fill:url(#svg_20_00000097501042829782584360000002074142521500053934_);" d="
			M68.5,33c0.3,0.2,0.5,0.3,0.8,0.4c0.1,0.1,0.2,0.2,0.4,0.3c-0.1,0.3-0.3,0.5-0.4,0.7c-2.7,4.3-3.3,8.8-1.5,13.5
			c1.5,4.1,5.8,8.1,12,7.6c1.1-0.1,2.3-0.5,3.4-0.8c0.3-0.1,0.6-0.2,1-0.3c-0.1,0.7-0.2,1.3-0.4,1.8c-0.1,0.1-0.2,0.2-0.3,0.2
			c-4.6,1.2-9,0.9-12.8-2.2c-3.3-2.6-5.1-6.1-5.3-10.3c-0.3-3.8,0.6-7.3,2.7-10.5C68.2,33.4,68.3,33.2,68.5,33z"/>
		
			<linearGradient id="svg_21_00000174567443964965019350000011795252141616841635_" gradientUnits="userSpaceOnUse" x1="94.9964" y1="45.1691" x2="113.6507" y2="45.1691">
			<stop  offset="0" style="stop-color:#FFFFFF"/>
			<stop  offset="1" style="stop-color:#C0C3C4"/>
		</linearGradient>
		
			<path id="svg_21_00000080919127401492226750000010759109296767063206_" style="fill:url(#svg_21_00000174567443964965019350000011795252141616841635_);" d="
			M109.2,33.7c1.2-0.8,1.3-0.8,2,0.4c2.1,3.2,2.7,6.8,2.3,10.6c-0.3,3.2-1.5,6-3.8,8.3c-3.6,3.6-7.9,4.9-12.8,4c-0.1,0-0.1,0-0.2,0
			c-1.5-0.3-1.8-0.7-1.7-2.3c0.2,0.1,0.5,0.1,0.7,0.2c6.5,2.7,14.8-1.4,16.2-9.3c0.7-4,0-7.8-2.3-11.2c-0.1-0.1-0.2-0.3-0.3-0.4
			C109.3,33.9,109.2,33.8,109.2,33.7L109.2,33.7z"/>
		<path id="svg_22_00000150797873266346595990000012954519462693872549_" class="st3" d="M86.8,48.1l2.5,2.3l2.6-2.3
			c1.3,2.5-0.4,7.2-2.6,10C87.1,54.5,85.8,50.7,86.8,48.1z"/>
		<path id="svg_23_00000028285300599219942990000006751464609566235036_" class="st11" d="M108.4,82.6l0.9,1.9l1.6-1.7
			c0.1,0.3,0.2,0.6,0.4,0.8c0.2,0.1,0.6,0,0.9,0c-1.5,2.2-3.5,3.7-5.7,5l-0.1-0.1l1.9-3.1c-1.3,1.2-2.8,2.4-4.4,3.1
			c-0.1,0.1-0.3,0.1-0.4,0.2l2.7-5c0.1,0.2,0.2,0.3,0.4,0.6C106.4,84.3,108.4,82.6,108.4,82.6z"/>
		<path id="svg_24_00000046317068673517610430000011538845699941204904_" class="st3" d="M66.7,83.5c0.8,0.4,1.3,0.2,1.3-0.8
			l1.7,1.8c0.3-0.7,0.6-1.3,0.9-1.9l1.9,1.7l0.4-0.6l2.7,4.9c-1.9-0.7-3.4-1.9-4.9-3.2l1.9,3.1C71.2,88.2,67.4,85,66.7,83.5z"/>
		<path id="svg_25_00000095327646708137119040000013123083564914809757_" class="st3" d="M97.5,43.5c1.9,2.6,3.6,3.1,5.4,1.7
			c2-1.6,1.8-3.7-0.4-6.3c1.2-0.3,1.4-0.2,2.1,0.8c1,1.5,1.1,3.2,0.3,4.9c-0.7,1.7-2,2.5-3.8,2.7c-1.6,0.2-3.4-0.9-4-2.4
			c-0.1-0.4,0.1-0.9,0.2-1.3L97.5,43.5L97.5,43.5z"/>
		<path id="svg_26_00000139282288707796705590000007551416266572691373_" class="st11" d="M76.1,38.9c-0.5,0.9-1,1.7-1.3,2.6
			c-0.5,1.7,0.5,3.5,2.1,4.2c1.5,0.6,3.1,0,4.1-1.5c0.1-0.2,0.2-0.3,0.3-0.5c0.7,0.6,0.7,0.8,0.3,1.5c-0.9,1.4-2.1,2.1-3.8,2
			c-1.8-0.1-3.1-1.1-3.9-2.7c-0.8-1.7-0.5-3.4,0.5-5C75,38.8,75.2,38.7,76.1,38.9z"/>
		<path id="svg_27_00000080183656604436456140000011272925223720639398_" class="st3" d="M89.5,28.9c-1.1-1.3-1.7-1.2-3-2.8
			c1.7-0.8,4.5-0.7,6.1,0C91.1,27.6,90.8,27.4,89.5,28.9z"/>
		<path id="svg_28_00000008839815659737322190000009879929459112391330_" class="st11" d="M99.2,40.6c0-0.7,0.6-1.3,1.3-1.3
			c0.7,0,1.3,0.6,1.3,1.3c0,0.7-0.6,1.3-1.3,1.3C99.7,41.9,99.1,41.3,99.2,40.6z"/>
		<path id="svg_29_00000040559737597971031210000017093942857212129961_" class="st11" d="M79.6,40.6c0,0.8-0.6,1.4-1.3,1.4
			c-0.7,0-1.2-0.6-1.2-1.3c-0.1-0.7,0.4-1.3,1.1-1.4c0.7-0.1,1.3,0.4,1.4,1.1C79.6,40.4,79.6,40.5,79.6,40.6z"/>
		
			<linearGradient id="svg_30_00000051384143819293692860000010756374775303522751_" gradientUnits="userSpaceOnUse" x1="108.666" y1="81.3914" x2="143.9499" y2="81.3914">
			<stop  offset="0" style="stop-color:#BEEF9E"/>
			<stop  offset="1" style="stop-color:#CFE07A"/>
		</linearGradient>
		
			<path id="svg_30_00000095308659813955447450000015165660432223544253_" style="fill:url(#svg_30_00000051384143819293692860000010756374775303522751_);" d="
			M125.9,98.6c-0.9,0-1.9-0.1-2.8-0.3c-5-1.2-8.6-4.2-10.7-8.9c-0.2-0.5-0.4-1.1-0.4-1.6c-0.5,0.4-1.1,0.7-1.8,0.6
			c-0.2,0-0.3,0-0.5,0l-1-0.1l0.2-1c0.1-0.3,0.1-0.7,0.2-1c0.1-0.6,0.2-1.3,0.3-1.9c0-2.2-0.1-4.4-0.1-6.5l0-0.5
			c0-0.2-0.1-0.5-0.1-0.7c-0.1-0.2-0.1-0.4-0.1-0.7c-0.1-0.6,0.1-1.2,0.4-1.6c0.4-0.4,0.9-0.7,1.5-0.7c0.3,0,0.6,0.1,0.9,0.2
			c0.1,0.1,0.3,0.1,0.4,0.2c1.1-3.8,3.7-6.6,7.8-8.5c1.7-0.8,3.7-1.3,5.6-1.3c1.6,0,3.2,0.3,4.7,0.9c3.1,1.1,5.7,3.3,7.3,6.3
			c1,1.9,1.6,4.1,1.5,6c0.2,0,0.5,0,0.7,0c1.5,0,2.7,0.7,3.6,2c1.1,1.8,1,4-0.3,5.5c-0.9,1-2.2,1.6-3.5,1.6c-0.2,0-0.5,0-0.7,0
			c0,0.1,0,0.2-0.1,0.3c-0.2,1-0.4,2-0.7,3C136.4,94.9,131.5,98.6,125.9,98.6L125.9,98.6z M127.8,85.8c1.3,1.1,1.8,2.6,1.3,4.6
			c-0.1,0.7-0.5,1.4-1,1.9c1.2-0.4,2.3-1.3,3.4-2.7c0.8-1.1,1.1-2.6,0.7-3.8c-0.3-1-1.1-1.6-2.4-2c-0.2,0-0.3-0.1-0.5-0.1
			c0.1,0.5-0.1,1-0.4,1.4C128.6,85.4,128.2,85.7,127.8,85.8L127.8,85.8z M117.3,82.6c-0.2,0-0.3,0.1-0.5,0.3
			c-0.9,1.1-0.8,2.3-0.5,3.1c0.6,2,2.3,3.2,4,4.3c0.1,0.1,0.2,0.1,0.2,0.2c-0.3-0.5-0.5-1-0.6-1.5c-0.2-1.3,0.6-2.6,2.1-3.2
			c0.2-0.1,0.4-0.2,0.6-0.3c0-0.2,0-0.5-0.1-0.7c-0.1-0.5-0.4-1.2-1.1-1.4C120,82.9,118.6,82.7,117.3,82.6L117.3,82.6z M134.2,81.6
			c0.3,0.3,0.6,0.6,0.8,0.9c0-0.4,0-0.7,0-1.1c0-0.2,0-0.5,0-0.7C134.7,81.1,134.5,81.4,134.2,81.6L134.2,81.6z M138.8,81.8
			c0.1,0.2,0.2,0.3,0.4,0.4c0.2-0.1,0.3-0.3,0.3-0.4c0-0.1,0-0.1-0.1-0.1c-0.1-0.1-0.2-0.1-0.3-0.1h0
			C138.8,81.6,138.8,81.7,138.8,81.8L138.8,81.8z M128.1,77.3c0.1,0.1,0.3,0.2,0.4,0.3c0.7,0.6,0.9,1.2,0.9,1.7c0.2,0,0.3,0,0.5-0.1
			c0.8-0.1,1.6-0.5,2.1-1.2c0.5-0.6,0.7-1.4,0.5-2.2c-0.3-2-1.9-4.1-4.1-5c0.6,0.7,1,1.6,1.1,2.6C129.8,74.8,129.2,76.3,128.1,77.3
			C128.1,77.3,128.1,77.3,128.1,77.3z M121.7,76.6c0.4,0.3,0.6,0.8,0.6,1.3c0,0.1,0,0.1,0,0.2c0.1-0.1,0.2-0.1,0.2-0.2
			c0.1-0.2,0.2-0.4,0.2-0.7C122.4,77,122,76.9,121.7,76.6L121.7,76.6z M120.5,76.1c0.3,0,0.6,0.1,0.9,0.2c-0.9-0.8-1.4-1.8-1.1-2.9
			c0.1-0.6,0.4-1.1,0.8-1.5c-1.3,0.6-2.4,1.4-3.3,2.4c0.1,0,0.2,0,0.3,0h0c0.8,0,1.5,0.5,2,0.9l0.1,0.1
			C120.3,75.5,120.5,75.8,120.5,76.1C120.5,76.1,120.5,76.1,120.5,76.1z"/>
		<path id="svg_31_00000062879291857029560770000014261322488827304611_" class="st2" d="M125.5,65.2c1.5,0,2.9,0.3,4.3,0.8
			c6.5,2.4,8.8,8.8,7.9,12.7c0.6-0.2,1.3-0.3,1.9-0.3c1.1,0,2,0.4,2.7,1.6c0.9,1.5,0.8,3.2-0.2,4.3c-0.7,0.8-1.7,1.2-2.7,1.2
			c-0.5,0-1-0.1-1.5-0.3c-0.3,1.4-0.5,2.9-0.9,4.3c-1.5,4.9-6.1,8.1-11.1,8.1c-0.9,0-1.7-0.1-2.6-0.3c-4.7-1.1-8.1-3.9-10-8.3
			c-0.4-1-0.3-2.2-0.5-3.4c0-0.2,0-0.4,0-0.7c-1,0.8-1,2.5-2.6,2.5c-0.1,0-0.2,0-0.3,0c0.2-1,0.4-2,0.5-3.1c0-2.4-0.1-4.7-0.1-7.1
			c0-0.5-0.2-1-0.3-1.5c-0.1-0.5,0.2-1,0.7-1.1c0.1,0,0.1,0,0.2,0c0.2,0,0.3,0,0.5,0.1c0.5,0.3,1,0.7,1.5,1.1
			c0.8-4.5,3.6-7.5,7.6-9.4C121.9,65.6,123.7,65.2,125.5,65.2 M126.3,77.3l-0.3-0.9l-0.3,0.3l-0.5,2.4c0.7-0.4,1.2-1.1,1.9-1.1
			c0.3,0,0.6,0.1,0.8,0.4c0.7,0.6,0.7,1.3-0.1,2h0c0.7,0,1.5,0,2.2-0.1c2.3-0.3,3.9-2.3,3.5-4.5c-0.5-3.2-3.6-6.4-7.3-6.4
			c-0.2,0-0.5,0-0.7,0c-0.3,0.1-0.6,0.1-0.9,0.2c2,0.8,3.7,1.6,4,3.9C128.7,75.3,127.9,76.5,126.3,77.3 M117.7,79.9
			c0.2,0,0.5,0,0.7-0.1c-0.5-0.3-0.9-0.4-1.2-0.6c-0.8-0.6-1-1.4-0.8-2.3c0.2-0.8,0.7-1.5,1.6-1.5h0c0.5,0,1,0.4,1.4,0.8
			c0.1,0.1-0.1,0.5-0.1,0.6c-0.4,0-0.7-0.1-1-0.1c-0.1,0-0.2,0-0.3,0.1c-0.2,0.2-0.2,0.8-0.1,1c0.2,0.3,0.7,0.3,1.1,0.4h0
			c0.1,0,0.2-0.2,0.4-0.3l-0.5-0.4c0.4-0.1,0.8-0.3,1.2-0.3c0.1,0,0.2,0,0.3,0c0.2,0,0.4,0,0.5,0.1c0.6,0.6,0.5,1.1-0.5,2.2
			c0.1,0,0.3,0,0.4,0c2.6,0,3.4-1.6,2.9-3.1c-1.6-0.4-2.7-1.6-2.4-2.7c0.2-1,1.3-1.8,2.3-1.8c0.1,0,0.3,0,0.4,0.1
			c0.5,0.1,1.1,0.4,1.3,0.8c0.4,0.7,0.4,1.6,0.6,2.5c0.9-0.1,1.3-2.3,0.7-3.2c-0.8-1-2.1-1.6-3.4-1.7c-0.3,0-0.7,0-1,0.1
			c-2.5,0.6-4.4,2.1-6,4.1c-1.2,1.4-1.1,3.2,0.1,4.6C116.6,79.6,117.1,79.9,117.7,79.9 M123.9,75.4c0.3-0.5,0.6-0.7,0.6-0.9
			c0.1-0.6-0.3-1.1-0.9-1.1l0,0c-0.2,0-0.7,0.4-0.7,0.5C123.2,74.3,123.5,74.9,123.9,75.4 M135.1,85.7c0.8-0.6,1-1.1,0.9-1.9
			c-0.1-1.4,0-2.8-0.1-4.2c0-0.6-0.2-1.2-0.3-1.7h-0.3c-0.8,1.5-1.2,3.2-3.2,3.7C133.9,82.3,134.7,83.8,135.1,85.7 M124.3,80.5
			l-1.8,0.6l1.7,1.3C124.2,81.7,124.2,81.1,124.3,80.5 M139.2,83.3c0.5,0,1.3-0.8,1.3-1.4c0-0.7-0.6-1.3-1.3-1.4c0,0,0,0,0,0h-0.1
			c-0.8,0-1.4,0.5-1.4,1.2C137.7,82.5,138.5,83.3,139.2,83.3L139.2,83.3 M123.2,92.3c0.2,0,0.5,0,0.7,0c1.2-0.2,2.2-1.1,2.5-2.3
			c0.2-0.8-0.5-2-1.3-2.4c0.1,0.6,0.4,1.2,0.2,1.8c-0.2,1-1.1,1.6-2,1.6c-0.1,0-0.1,0-0.2,0c-1.1-0.1-2-1-2.2-2.2
			c-0.1-0.8,0.4-1.7,1.5-2.1c1.2-0.5,1.4-0.9,1.1-2.2c-0.3-1-0.9-1.9-1.9-2.1c-1.4-0.4-2.8-0.6-4.2-0.7h-0.1c-0.5,0-0.9,0.2-1.3,0.6
			c-1.1,1.2-1.2,2.7-0.7,4.1c0.7,2.3,2.5,3.6,4.4,4.9C120.8,91.8,121.9,92.2,123.2,92.3 M127.2,84.8c-0.5,0-1-0.2-1.4-0.6
			c-0.2-0.2-0.4-0.4-0.8-0.7l0.4,2.6l0.3-0.2c0.4,0.2,1,0.2,1.3,0.5c1.2,0.9,1.3,2.3,1.1,3.7c-0.3,1.4-1.4,2-2.6,2.6
			c-0.4,0.2-0.8,0.3-1.2,0.4c0,0.1,0,0.2,0,0.3c0.7,0.1,1.4,0.2,2.1,0.2h0.1c2.5,0,4.3-1.4,5.7-3.4c1.6-2.2,1.8-6.2-2.2-7.4
			c-0.9-0.2-1.8-0.3-2.7-0.5c0.9,0.9,1.2,1.5,0.7,2C127.9,84.7,127.6,84.8,127.2,84.8 M123.3,89.7c0.3,0,0.8-0.5,0.8-0.8
			c0-0.4-0.4-0.8-0.8-1.4c-0.5,0.5-0.9,0.8-1,1.1C122.2,89.2,122.7,89.6,123.3,89.7L123.3,89.7 M125.5,63.2c-2.1,0-4.2,0.5-6,1.4
			c-2.3,1.1-4.3,2.5-5.7,4.3c-1,1.1-1.7,2.4-2.3,3.8c-0.2-0.1-0.5-0.1-0.7-0.1c-0.9,0-1.7,0.4-2.3,1c-0.6,0.7-0.8,1.6-0.7,2.5
			c0,0.3,0.1,0.5,0.2,0.7c0,0.2,0.1,0.3,0.1,0.5l0,0.5c0.1,2.1,0.1,4.3,0.1,6.5c0,0.6-0.1,1.2-0.2,1.7c-0.1,0.3-0.1,0.7-0.2,1
			l-0.3,2.1l2.1,0.3c0.2,0,0.4,0,0.6,0c0.3,0,0.7,0,1-0.1c0.1,0.2,0.1,0.3,0.2,0.5c2.3,5,6.1,8.2,11.5,9.5c1,0.2,2,0.3,3,0.3
			c6,0,11.4-3.9,13.1-9.6c0.2-0.8,0.4-1.7,0.6-2.5c1.6,0,3.1-0.7,4.1-1.9c1.6-1.9,1.7-4.5,0.4-6.7c-1-1.6-2.4-2.5-4.2-2.5
			c-0.1-1.9-0.7-3.8-1.6-5.5c-1.2-2.2-3.5-5.1-7.9-6.7C128.9,63.5,127.2,63.2,125.5,63.2C125.5,63.2,125.5,63.2,125.5,63.2z
			 M129.6,77.2c0.7-1,1.1-2.2,1-3.3c0.5,0.6,0.8,1.4,0.9,2.2c0.1,0.5,0,1-0.4,1.4c-0.3,0.3-0.6,0.6-1,0.7
			C130,77.8,129.8,77.5,129.6,77.2C129.6,77.2,129.6,77.2,129.6,77.2z M118.8,88c-0.8-0.7-1.3-1.4-1.6-2.3c-0.4-1.1,0-1.7,0.2-2
			c1.2,0.1,2.4,0.3,3.6,0.6c0.2,0.1,0.3,0.4,0.4,0.5C120,85.4,119,86.6,118.8,88L118.8,88z M129.4,86c0.1-0.1,0.2-0.2,0.3-0.3
			c0.2-0.2,0.3-0.4,0.4-0.7c0.8,0.4,1,0.9,1.1,1.1c0.3,0.8,0,2-0.6,2.8c-0.1,0.2-0.2,0.3-0.3,0.5C130.4,87.9,130,86.8,129.4,86
			L129.4,86L129.4,86z"/>
		<path id="svg_32_00000152259159934022000910000000715608522367726741_" class="st13" d="M108.4,88.3c-0.5,0-0.9-0.3-1.1-0.7
			c-0.1-0.2-0.1-0.3-0.2-0.4c-0.2-0.3-0.3-0.7-0.4-1c-0.1-0.2-0.3-0.8-0.4-0.9c-0.1,0-0.3-0.1-1-0.1c-0.4,0-1,0-1.9,0
			c-3.3,0-9,0.1-12.7,0.2l-1.6,0l0.6-1.4l-0.1-0.1l-1.6,0l0,0.1l0.8,1.5l-1.7,0l-4.5,0.1c-5.4,0.2-10.1,0.3-13,0.3
			c-0.7,0-1.3,0-1.8,0c-5.3-0.2-11.6-0.4-18-0.8c-0.1,0-0.2,0-0.3,0c-0.7,0-0.8,0.1-0.9,0.5c-0.1,0.3-0.3,0.5-0.4,0.7
			c-0.1,0.1-0.1,0.1-0.2,0.2l-0.7,0.9l-6.3-5.4l6.2-5.3l0.7,0.9c0.4,0.5,0.8,0.7,1.8,0.7c0.3,0,0.5,0,0.8,0c0.3,0,0.6,0,0.9,0h0.3
			c1.5,0,3.5,0.1,6.2,0.1c5.5,0,12.8-0.1,20-0.2c7.3-0.1,14.8-0.2,20.4-0.2c3,0,5.2,0,6.8,0.1h0.2c1.2,0,1.7-0.3,2.1-1.2
			c0.4-1.1,1.2-1.2,1.5-1.2c0.5,0,0.9,0.2,1.2,0.5c0.5,0.4,1,0.9,1.2,1.6c0.9,2.9,0.7,5.7-0.5,8.2c-0.3,0.6-0.7,1.1-1.1,1.5
			c-0.1,0.2-0.3,0.3-0.5,0.5C109.1,88.2,108.8,88.3,108.4,88.3L108.4,88.3z"/>
		<path id="svg_33_00000009552342374896304910000000627927962735511217_" class="st2" d="M109,76.6c0.2,0,0.4,0.1,0.5,0.3
			c0.4,0.3,0.8,0.7,0.9,1.2c0.8,2.5,0.7,5-0.4,7.4c-0.3,0.6-0.8,1.1-1.4,1.8c0,0-0.1,0.1-0.1,0.1c-0.1,0-0.1,0-0.2-0.1
			c-0.2-0.4-0.4-0.9-0.6-1.3c-0.5-1.5-0.7-1.7-2.3-1.8c-0.4,0-1.1,0-2,0c-3.1,0-8.9,0.1-12.7,0.2c0.1-0.3,0.1-0.5,0-0.8
			c2.2,0,5,0,7.7,0c3,0,5.8,0,7,0.1h0.1c0.5,0,0.9-0.2,1.6-0.3c-0.4-0.4-15.4-0.5-30.2-0.5c-14.3,0-28.4,0.2-29,0.5
			c0.3,0.3,0.5,0.7,1,0.5c3.6,0.1,7.4-0.1,11,0c1.3,0,3-0.1,5,0.1c6.2,0.6,14.3-0.2,22.2-0.3c-0.1,0.3-0.1,0.6,0.1,0.8
			c-7,0.2-13.8,0.4-17.4,0.4c-0.7,0-1.3,0-1.7,0c-6-0.2-12-0.5-18-0.8c-0.1,0-0.2,0-0.3,0c-0.9,0-1.2,0.1-1.9,1.2
			c-0.2,0.3-0.3,0.4-0.5,0.6l-4.5-3.9l4.4-3.8c0.7,0.9,1.6,1.1,2.6,1.1c0.6,0,1.1-0.1,1.7-0.1c0.1,0,0.1,0,0.2,0
			c1.6,0,3.7,0.1,6.3,0.1c11,0,29.2-0.4,40.4-0.4c2.7,0,5,0,6.7,0.1c0.1,0,0.2,0,0.2,0c1.5,0,2.5-0.5,3-1.9
			C108.6,76.7,108.8,76.6,109,76.6 M109,74.5L109,74.5c-1.1,0-2,0.7-2.5,1.8c-0.2,0.4-0.2,0.6-1.1,0.6h-0.2
			c-1.6-0.1-3.8-0.1-6.8-0.1c-5.6,0-13.1,0.1-20.4,0.2c-7.1,0.1-14.5,0.2-20,0.2c-2.7,0-4.7,0-6.2-0.1h-0.3c-0.3,0-0.6,0-1,0
			c-0.3,0-0.5,0-0.7,0c-0.7,0-0.8-0.1-0.9-0.3l-1.3-1.8L46,76.6l-3.4,2.9l-1.1,0.9l-1.8,1.6l1.8,1.6l1.5,1.2l3.1,2.6l1.7,1.4L49,87
			c0,0,0.1-0.1,0.1-0.2c0.2-0.2,0.4-0.5,0.6-0.8h0h0.2c6.5,0.3,12.7,0.5,18,0.8c0.5,0,1.1,0,1.8,0c2.9,0,7.6-0.1,13-0.3l4.5-0.1
			l0.4,0v0l3.1-0.1c3.7-0.1,9.4-0.2,12.6-0.2c1.1,0,1.7,0,1.9,0c0.1,0,0.2,0,0.3,0c0,0.1,0.1,0.2,0.1,0.3c0.1,0.4,0.3,0.8,0.5,1.2
			c0.1,0.1,0.1,0.3,0.2,0.4c0.5,1.1,1.9,1.6,3,1.1c0.3-0.1,0.6-0.3,0.8-0.6c0.1-0.2,0.3-0.3,0.4-0.5c0.5-0.5,0.9-1.1,1.3-1.7
			c1.4-2.7,1.6-5.7,0.6-8.9c-0.3-0.9-1-1.6-1.5-2.1C110.4,74.8,109.7,74.5,109,74.5L109,74.5L109,74.5z"/>
		<path id="svg_34_00000010285771362981419060000005258612074676542389_" class="st13" d="M51.3,97.2c-1.2,0-1.9-0.7-2-2V95
			c-0.1-1.2-0.1-1.9,0.4-2.4c0.4-0.5,1-0.5,1.7-0.5c0.2,0,0.5,0,0.7,0c0.1,0,0.2,0,0.3,0l0-0.9c-0.4,0-0.8,0-1.2,0
			c-0.1,0-0.2,0-0.2,0c-0.5,0-0.9-0.2-1.2-0.5c-0.3-0.4-0.5-0.9-0.4-1.4c0,0,0-0.1,0-0.2s0-0.1,0-0.2l-0.1-4.6l16.6-0.2l0.1,6.9
			l-1,0c-0.3,0-0.5,0-0.8,0c-0.4,0-0.9,0-1.3,0h-0.2c0,0.3,0,0.6,0,0.8c0.2,0,0.6,0,0.8,0h0.3c0.2,0,0.4,0,0.6,0l1.5,0l0,1
			c0,0.2,0,0.5,0,0.7c0,0.6,0,1.2,0,1.8c-0.1,0.7-0.9,1.5-1.6,1.5c-1.3,0.1-2.7,0.1-4,0.1l-0.5,0c-0.9,0-1.9-0.5-2-2
			c0-0.4,0-0.8-0.1-1.2c0-0.9-0.1-1.8-0.1-2.7c0,0,0-0.1,0-0.1h0c-0.1,0-0.1,0-0.2,0v0.4c0,1,0,2,0,2.9c0,2-0.8,2.8-2.7,2.8
			c-0.5,0-1,0-1.5,0c-0.6,0-1.1,0-1.7,0L51.3,97.2L51.3,97.2z"/>
		<path id="svg_35_00000010998995017995085530000013032147992456677810_" class="st2" d="M64.7,85.2c0,1.6,0,3.2,0.1,4.8
			c-0.7,0-1.4,0-2.1,0c-0.2,0-0.4,0-0.5,0h0c-0.4,0-0.6,0.1-0.6,0.6c-0.1,2.1-0.1,2.2,1.8,2.2h0.3c0.3,0,0.6,0,1.1,0
			c0,0.8,0.1,1.6,0,2.4c0,0.2-0.4,0.6-0.6,0.6c-1.5,0.1-3,0.1-4.4,0.1h0c-0.7,0-0.9-0.4-0.9-1c0-1.3-0.2-2.6-0.1-3.9
			c0-0.8-0.2-1.2-0.8-1.2c-0.1,0-0.3,0-0.4,0C57,90,56.7,90,56.2,90c0,1.4,0.1,2.8,0.1,4.2c0,1.4-0.3,1.8-1.7,1.8
			c-1.1,0-2.1,0-3.2,0.1h-0.1c-0.6,0-0.9-0.2-1-1c-0.1-2.3-0.2-1.9,1.9-2.1c0.4,0,0.8,0,1.2,0c0-1,0-1.9,0-2.9c-0.8,0-1.5,0-2.3,0
			h-0.1c-0.5,0-0.7-0.3-0.6-0.8c0-0.2,0-0.3,0-0.5c0-1.2,0-2.3-0.1-3.5L64.7,85.2 M66.8,83.1l-2.1,0l-14.5,0.2l-2.1,0l0,2.1l0,0.9
			c0,0.9,0,1.8,0,2.6c0,0.1,0,0.2,0,0.3v0.1c-0.1,1.1,0.4,1.7,0.7,2.1c0.1,0.1,0.2,0.2,0.2,0.2c-0.1,0.1-0.2,0.2-0.3,0.3
			c-0.8,0.8-0.7,1.8-0.7,3.1v0.2c0.1,1.8,1.3,2.9,3,2.9h0.2c0.6,0,1.1,0,1.7,0c0.5,0,1,0,1.5,0c0.9,0,2-0.2,2.8-1l0,0
			c0.6,0.6,1.4,0.9,2.2,0.9h0.1h0.5c1.3,0,2.7,0,4.1-0.1c1.2-0.1,2.4-1.2,2.5-2.5c0-0.6,0.1-1.3,0-1.9c0-0.2,0-0.4,0-0.7l0-0.8h0.2
			l0-2.1l-0.1-3.4l0-1.5L66.8,83.1C66.8,83.1,66.8,83.1,66.8,83.1z"/>
		<path id="svg_36_00000007419690773692642060000008832512345920843445_" class="st8" d="M119,88.9c-1,0-1.9-0.5-2.4-1.3
			c-0.9-1.6-0.4-3.9,1-4.8c0.6-0.4,1.4-0.6,2.1-0.6c1.4,0,2.6,0.6,3.2,1.6c0.4,0.7,0.3,1.7,0.2,2.2c-0.1,0.7-0.9,1.3-1.6,1.4
			c-0.1,0-0.1,0-0.2,0c-0.1,0-0.2,0-0.3,0c0,0.2-0.1,0.3-0.1,0.4C120.7,88.5,119.9,88.9,119,88.9L119,88.9z"/>
		<path id="svg_37_00000019679879419619626010000002851230201889342358_" d="M119.8,83.1c0.9,0,1.9,0.4,2.3,1.1
			c0.2,0.4,0.2,1,0.1,1.4c0,0.3-0.4,0.6-0.7,0.6h0c-0.2,0-0.5-0.3-0.6-0.5c-0.2-0.6-0.6-1-1.2-1h-0.1c-0.3,0-0.7,0.2-0.8,0.4
			c-0.1,0.3-0.1,0.7,0,1.1c0,0.1,0.3,0.1,0.5,0.1c0,0,0.1,0,0.1,0c0.3-0.1,0.5-0.2,0.7-0.4c0,0.3,0.2,0.9,0,1.3
			c-0.2,0.4-0.6,0.6-1,0.6c-0.6,0-1.2-0.3-1.5-0.8c-0.6-1.1-0.3-2.9,0.7-3.5C118.7,83.3,119.2,83.1,119.8,83.1 M119.8,81.1
			c-1,0-1.9,0.3-2.7,0.8c-1.9,1.2-2.5,4.2-1.3,6.2c0.7,1.2,1.9,1.9,3.3,1.9c1.2,0,2.3-0.6,2.8-1.6c1-0.2,2.1-1,2.3-2.2
			c0.1-0.8,0.2-1.9-0.3-2.9C123.1,81.9,121.5,81.1,119.8,81.1z"/>
		<path id="svg_38_00000170989094626614956490000006040298648318869649_" class="st11" d="M87.2,84.4c-8.3,0.2-16.4,0.6-19.2,0.5
			C62,84.6,56,84.3,50,84"/>
		<path id="svg_39_00000111164903149370057240000008368982255504327868_" class="st2" d="M69.2,85.9c-0.5,0-1,0-1.3,0
			c-4-0.2-8.1-0.4-12-0.6c-2-0.1-4-0.2-6-0.3l0.1-1.9c2,0.1,4,0.1,6,0.2C60,83.5,64,83.7,68,83.8c1.9,0.1,6.2-0.1,11.2-0.2
			c2.5-0.1,5.3-0.2,8-0.2l0.1,2.1c-2.8,0.1-5.6,0.2-8,0.2C75,85.8,71.5,85.9,69.2,85.9L69.2,85.9z"/>
		<path id="svg_53_00000100353834562039489990000009027591403581202865_" class="st2" d="M102,90l1.4-4.9l1.9,0c0,0,1.6,1.9,2,2.5
			c0.3,0.6-1.5,2.2-1.6,2.5C105.5,90.4,102,90,102,90z"/>
		<g>
			<path class="st3" d="M80.3,75.1c0-0.8,0.2-1.4,0.7-1.7c0.4-0.3,1-0.5,1.6-0.5c0.6,0,1.2,0.2,1.6,0.5c0.4,0.3,0.7,0.9,0.7,1.7
				c0,0.8-0.2,1.4-0.7,1.7c-0.4,0.3-1,0.5-1.6,0.5c-0.6,0-1.2-0.2-1.6-0.5C80.5,76.5,80.3,75.9,80.3,75.1z"/>
		</g>
		<g>
			<path class="st3" d="M93.6,59.8l-0.5,4.8l4.9-1.4l0.4,3.3l-4.4,0.3l2.9,3.9l-3,1.6l-2-4.1L90,72.3L87,70.7l2.9-3.9l-4.4-0.3
				l0.5-3.3l4.8,1.4l-0.5-4.8H93.6z"/>
		</g>
		<path id="svg_40_00000023969414082894091430000000285229096418137231_" class="st3" d="M85.2,89.2c-0.3,0-0.7-0.2-0.9-0.4
			c-0.7-0.9-1.3-3.5-1.6-5.6c-0.4-3.2-0.1-5.3,0.8-6.2l0,0l0,0c0.4-0.3,0.9-0.4,1.3-0.4c0.4,0,1.2,0.1,1.8,1.1
			c0.5,0.8,0.5,3.4,0.4,5.4c-0.1,1.3-0.3,4.5-0.9,5.5C86,89,85.6,89.2,85.2,89.2L85.2,89.2z"/>
		<path id="svg_41_00000179608020922572417220000015957573095404538510_" class="st2" d="M84.9,77.5c0.3,0,0.7,0.1,1,0.6
			c0.6,1.1,0.2,10.1-0.7,10.1c-0.1,0-0.1,0-0.2-0.1c-1-1.2-2.4-9-0.9-10.4C84.4,77.6,84.7,77.5,84.9,77.5 M84.9,75.5L84.9,75.5
			c-0.7,0-1.3,0.2-1.9,0.6l-0.1,0.1l-0.1,0.1c-0.7,0.7-1.1,1.8-1.3,3.4c-0.1,1.2,0,2.4,0.2,3.6c0.1,0.8,0.6,4.7,1.8,6.1
			c0.7,0.9,2.1,1.1,3,0.3c0.2-0.2,0.4-0.4,0.6-0.7c0.5-0.9,0.9-2.9,1-6c0.2-4.7-0.3-5.6-0.5-5.9C87,76.1,86,75.6,84.9,75.5
			C84.9,75.6,84.9,75.5,84.9,75.5z"/>
		<path id="svg_42_00000061457070408032832190000006963602292405530760_" class="st3" d="M81.2,89.2c-0.3,0-0.7-0.2-0.9-0.4
			c-0.7-0.9-1.3-3.5-1.6-5.6c-0.4-3.2-0.1-5.3,0.8-6.2l0,0l0,0c0.4-0.3,0.9-0.4,1.3-0.4c0.4,0,1.2,0.1,1.8,1.1
			c0.5,0.8,0.5,3.4,0.4,5.4c-0.1,1.3-0.3,4.5-0.9,5.5C82.1,89,81.7,89.2,81.2,89.2z"/>
		<path id="svg_43_00000162314308372724376670000016761804862737955236_" class="st2" d="M81,77.5c0.3,0,0.7,0.1,1,0.6
			c0.6,1.1,0.2,10.1-0.7,10.1c-0.1,0-0.1,0-0.2-0.1c-1-1.2-2.4-9-0.9-10.4C80.4,77.6,80.7,77.5,81,77.5 M81,75.6L81,75.6
			c-0.7,0-1.3,0.2-1.9,0.6L79,76.2l-0.1,0.1c-0.7,0.7-1.1,1.8-1.3,3.4c-0.1,1.2,0,2.4,0.2,3.6c0.1,0.8,0.6,4.7,1.8,6.1
			c0.7,0.9,2.1,1.1,3,0.3c0.2-0.2,0.4-0.4,0.6-0.7c0.5-0.9,0.9-2.9,1-6c0.2-4.7-0.3-5.6-0.5-5.9C83,76.1,82.1,75.6,81,75.6L81,75.6
			L81,75.6z"/>
		<path id="svg_44_00000078762874302810861840000001796820849408708023_" class="st3" d="M77.3,89.2c-0.3,0-0.7-0.2-0.9-0.4
			c-0.7-0.9-1.3-3.5-1.6-5.6c-0.4-3.2-0.1-5.3,0.8-6.2l0,0l0,0c0.4-0.3,0.9-0.4,1.3-0.4c0.4,0,1.2,0.1,1.8,1.1
			c0.5,0.8,0.5,3.4,0.4,5.4c-0.1,1.3-0.3,4.5-0.9,5.5C78.1,89,77.7,89.2,77.3,89.2L77.3,89.2z"/>
		<path id="svg_45_00000129199068412126943390000014886918027918565288_" class="st2" d="M77,77.5c0.3,0,0.7,0.1,1,0.6
			c0.6,1.1,0.2,10.1-0.7,10.1c-0.1,0-0.1,0-0.2-0.1c-1-1.2-2.4-9-0.9-10.4C76.5,77.6,76.7,77.5,77,77.5 M77,75.5L77,75.5
			c-0.7,0-1.3,0.2-1.9,0.6L75,76.2l-0.1,0.1c-0.7,0.7-1.1,1.8-1.3,3.4c-0.1,1.2,0,2.4,0.2,3.6c0.1,0.8,0.6,4.7,1.8,6.1
			c0.7,0.9,2.1,1.1,3,0.3c0.2-0.2,0.4-0.4,0.6-0.7c0.5-0.9,0.9-2.9,1-6c0.2-4.7-0.3-5.6-0.5-5.9C79.1,76.1,78.1,75.5,77,75.5
			C77,75.5,77,75.5,77,75.5z"/>
		<path id="svg_46_00000105387697453148652370000012316430697772808625_" class="st11" d="M93.6,88.7c-0.4,0-0.9-0.3-1-0.7
			c-0.6-1-0.8-4.2-0.9-5.5c-0.1-2-0.1-4.6,0.4-5.4c0.6-1,1.4-1.1,1.8-1.1c0.5,0,1,0.2,1.3,0.4l0,0l0,0c0.9,0.9,1.2,3,0.8,6.2
			c-0.3,2.1-0.9,4.8-1.6,5.6C94.3,88.6,93.9,88.7,93.6,88.7L93.6,88.7z"/>
		<path id="svg_47_00000033336501650393443420000008529800563652005543_" class="st2" d="M93.8,77c0.3,0,0.5,0.1,0.8,0.3
			c1.5,1.5,0.1,9.3-0.9,10.4c0,0.1-0.1,0.1-0.2,0.1c-0.9,0-1.4-9-0.7-10.1C93.2,77.1,93.5,77,93.8,77 M93.8,75.1
			c-1.1,0-2,0.6-2.6,1.6c-0.2,0.3-0.7,1.3-0.5,5.9c0.1,3.1,0.5,5.1,1,6c0.5,1,1.8,1.4,2.8,0.9c0.3-0.1,0.5-0.3,0.7-0.6
			c1.2-1.4,1.7-5.3,1.8-6.1c0.2-1.2,0.2-2.4,0.2-3.6c-0.1-1.6-0.5-2.7-1.3-3.4l-0.1-0.1l-0.1-0.1C95.2,75.3,94.5,75.1,93.8,75.1
			L93.8,75.1L93.8,75.1z"/>
		<path id="svg_48_00000013891753739763961720000014235702302940715163_" class="st11" d="M97.5,88.7c-0.4,0-0.9-0.3-1-0.7
			c-0.6-1-0.8-4.2-0.9-5.5c-0.1-2-0.1-4.6,0.4-5.4c0.6-1,1.4-1.1,1.8-1.1c0.5,0,0.9,0.2,1.3,0.4l0,0l0,0c0.9,0.9,1.2,3,0.8,6.2
			c-0.3,2.1-0.9,4.8-1.6,5.6C98.2,88.6,97.9,88.7,97.5,88.7z"/>
		<path id="svg_49_00000084529323271052496110000003268910530459812267_" class="st2" d="M97.8,77c0.3,0,0.5,0.1,0.8,0.3
			c1.5,1.5,0.1,9.3-0.9,10.4c0,0.1-0.1,0.1-0.2,0.1c-0.9,0-1.4-9-0.7-10.1C97.1,77.1,97.5,77,97.8,77 M97.8,75.1
			c-1.1,0-2,0.6-2.6,1.6c-0.2,0.3-0.7,1.3-0.5,5.9c0.1,3.1,0.5,5.1,1,6c0.5,1,1.8,1.4,2.8,0.9c0.3-0.1,0.5-0.3,0.7-0.6
			c1.2-1.4,1.7-5.3,1.8-6.1c0.2-1.2,0.2-2.4,0.2-3.6c-0.1-1.6-0.5-2.7-1.3-3.4l-0.1-0.1l-0.1-0.1C99.1,75.3,98.5,75.1,97.8,75.1
			L97.8,75.1L97.8,75.1z"/>
		<path id="svg_50_00000102524682700016480960000011301622472149065914_" class="st3" d="M101.5,88.7c-0.4,0-0.9-0.3-1-0.7
			c-0.6-1-0.8-4.2-0.9-5.5c-0.1-2-0.1-4.6,0.4-5.4c0.6-1,1.4-1.1,1.8-1.1c0.5,0,0.9,0.2,1.3,0.4l0,0l0,0c0.9,0.9,1.2,3,0.8,6.2
			c-0.3,2.1-0.9,4.8-1.6,5.6C102.2,88.6,101.9,88.7,101.5,88.7z"/>
		<path id="svg_51_00000168825278600168827850000010990823030526943873_" class="st2" d="M101.8,77c0.3,0,0.5,0.1,0.8,0.3
			c1.5,1.5,0.1,9.3-0.9,10.4c0,0.1-0.1,0.1-0.2,0.1c-0.9,0-1.4-9-0.7-10.1C101.1,77.1,101.4,77,101.8,77 M101.8,75.1
			c-1.1,0-2,0.6-2.6,1.6c-0.2,0.3-0.7,1.3-0.5,5.9c0.1,3.1,0.5,5.1,1,6c0.5,1,1.8,1.4,2.8,0.9c0.3-0.1,0.5-0.3,0.7-0.6
			c1.2-1.4,1.7-5.3,1.8-6.1c0.2-1.2,0.2-2.4,0.2-3.6c-0.1-1.6-0.5-2.7-1.3-3.4l-0.1-0.1l-0.1-0.1C103.1,75.3,102.4,75.1,101.8,75.1
			L101.8,75.1L101.8,75.1z"/>
		<path class="st2" d="M63.5,50.9"/>
		<linearGradient id="SVGID_1_" gradientUnits="userSpaceOnUse" x1="60.932" y1="61.0787" x2="77.0707" y2="61.0787">
			<stop  offset="0" style="stop-color:#C0C3C4"/>
			<stop  offset="1" style="stop-color:#FFFFFF"/>
		</linearGradient>
		<path class="st14" d="M76.8,60c-0.8-0.3-3.7-0.9-5.8-2.2c-3-1.8-3-3.1-4.2-2.8c-0.2,0.1-0.4,0.2-0.6,0.3
			c-3.7,2.3-5.7,7.7-5.2,11.9c1.6-2.7,3.1-5.3,4.7-7.8l0.2,0.1c-1.2,2.2-1.7,4.6-1.2,7.3c1.4-2.2,2.7-4.3,3.9-6.4l0.2,0.1
			c-1,2.1-1.1,4.2-0.4,6.6c1.4-2.2,2.6-4.2,3.9-6.2c-0.6,2-0.5,4-0.2,6l3.2-4.3c0,0,1.3-1.6,1.8-2.2C77,60.1,76.9,60.1,76.8,60z"/>
		
			<linearGradient id="SVGID_00000169528482227021395020000017149871763722113724_" gradientUnits="userSpaceOnUse" x1="46.1622" y1="61.1067" x2="62.301" y2="61.1067" gradientTransform="matrix(-1 0 0 1 164.0917 0)">
			<stop  offset="0" style="stop-color:#C0C3C4"/>
			<stop  offset="1" style="stop-color:#FFFFFF"/>
		</linearGradient>
		<path style="fill:url(#SVGID_00000169528482227021395020000017149871763722113724_);" d="M102,60.1c0.8-0.3,3.7-0.9,5.8-2.2
			c3-1.8,3-3.1,4.2-2.8c0.2,0.1,0.4,0.2,0.6,0.3c3.7,2.3,5.7,7.7,5.2,11.9c-1.6-2.7-3.1-5.3-4.7-7.8l-0.2,0.1
			c1.2,2.2,1.7,4.6,1.2,7.3c-1.4-2.2-2.7-4.3-3.9-6.4l-0.2,0.1c1,2.1,1.1,4.2,0.4,6.6c-1.4-2.2-2.6-4.2-3.9-6.2c0.6,2,0.5,4,0.2,6
			l-3.2-4.3c0,0-1.3-1.6-1.8-2.2C101.8,60.2,102,60.1,102,60.1z"/>
	</g>
</g>
</svg>
