<?xml version="1.0" encoding="utf-8"?>
<!-- Generator: Adobe Illustrator 28.1.0, SVG Export Plug-In . SVG Version: 6.00 Build 0)  -->
<svg version="1.1" id="Awesome_Regex" xmlns="http://www.w3.org/2000/svg" xmlns:xlink="http://www.w3.org/1999/xlink" x="0px"
	 y="0px" viewBox="0 0 580.6 111.6" style="enable-background:new 0 0 580.6 111.6;" xml:space="preserve">
<style type="text/css">
	.st0{fill:url(#svg_59_00000102532924456865257060000017872176351212203171_);}
	.st1{fill:#969696;stroke:#969696;stroke-width:0.12;stroke-miterlimit:10;}
	.st2{fill:#141612;}
	.st3{fill:#F2F2F2;}
	.st4{fill:url(#svg_10_00000081611344258189622020000017098529236361696426_);}
	.st5{fill:url(#svg_11_00000142142228025245405820000006665464384261364885_);}
	.st6{fill:url(#svg_17_00000021112045625707238760000005908037590742088090_);}
	.st7{fill:url(#svg_18_00000016072179792133793640000010701223760033791121_);}
	.st8{fill:#C9F0B4;}
	.st9{fill:url(#svg_20_00000160179126726395615460000002636661473018463877_);}
	.st10{fill:url(#svg_21_00000070086057262298757860000012271298839677192071_);}
	.st11{fill:#FFFFFF;}
	.st12{fill:url(#svg_30_00000036949086954508573460000001494274080671932849_);}
	.st13{fill:#BEEF9E;}
	.st14{fill:url(#SVGID_1_);}
	.st15{fill:url(#SVGID_00000132052528912921570100000002835068525129579689_);}
</style>
<g>
	<g>
		
			<linearGradient id="svg_59_00000009579975723930692840000001093594912647616641_" gradientUnits="userSpaceOnUse" x1="171.5071" y1="49.1922" x2="519.1429" y2="49.1922">
			<stop  offset="0" style="stop-color:#73C673"/>
			<stop  offset="1" style="stop-color:#B7D705"/>
		</linearGradient>
		
			<path id="svg_59_00000111901390419421233100000009142081969592255408_" style="fill:url(#svg_59_00000009579975723930692840000001093594912647616641_);" d="
			M171.5,61.4L187.7,27l2,1l-16.2,34.4C173.5,62.4,171.5,61.4,171.5,61.4z M220.1,60h-5.8V60c0-0.1,0-0.2,0.1-0.3c0-0.1,0-0.3,0-0.4
			l0,0c0-0.4-0.1-0.9-0.2-1.5s-0.4-1.2-0.7-2l0,0l-2.6-5.8c-0.8,0-1.8,0-3.2,0s-2.7,0-4.3,0l0,0c-1.1,0-2.2,0-3.2,0c-1,0-2,0-2.8,0
			l0,0l-2.5,5.6c-0.2,0.5-0.4,1.1-0.7,1.7c-0.2,0.6-0.4,1.3-0.4,1.9l0,0c0,0.2,0,0.3,0,0.5c0,0.1,0.1,0.2,0.1,0.2l0,0V60h-4.3V60
			c0.3-0.3,0.6-0.8,1-1.4c0.4-0.7,0.8-1.6,1.3-2.6l0,0l12.2-27.1h1.7l11.6,26c0.3,0.6,0.6,1.2,0.8,1.8c0.3,0.6,0.6,1.1,0.8,1.5
			c0.3,0.5,0.5,0.8,0.7,1.1C219.9,59.7,220.1,59.9,220.1,60L220.1,60L220.1,60z M198.2,48.1h2.3c0.8,0,1.7,0,2.5,0
			c0.9,0,1.7,0,2.5,0c0.8,0,1.6,0,2.4,0c0.8,0,1.5,0,2.1,0l0,0l-6-13.5L198.2,48.1z M235.7,40.2h0.8l5.7,14.3l4.7-11.9
			c0.1-0.3,0.2-0.5,0.3-0.9c0.1-0.3,0.2-0.6,0.3-1c0.1-0.3,0.2-0.7,0.3-1c0.1-0.3,0.1-0.6,0.1-0.8l0,0c0-0.2,0-0.3,0-0.5
			c0-0.1-0.1-0.2-0.1-0.2l0,0v-0.1h3.8v0.1c-0.3,0.3-0.6,0.7-0.9,1.3c-0.4,0.6-0.8,1.5-1.3,2.7l0,0l-7.6,18h-1.2L235.2,47l-5.5,13.3
			h-1.2l-7-17c-0.3-0.6-0.5-1.2-0.8-1.8s-0.6-1.1-0.8-1.5c-0.3-0.5-0.5-0.8-0.7-1.1c-0.2-0.3-0.3-0.5-0.4-0.6l0,0v-0.1h5.7v0.1
			c0,0.1,0,0.2-0.1,0.3c0,0.1,0,0.3,0,0.4l0,0c0,0.4,0.1,0.9,0.2,1.5c0.1,0.5,0.4,1.2,0.7,2l0,0l4.8,12
			C230,54.5,235.7,40.2,235.7,40.2z M264.4,60.4L264.4,60.4c-1.6,0-3.1-0.3-4.4-0.8c-1.4-0.5-2.6-1.2-3.6-2.2c-1-1-1.8-2.1-2.4-3.6
			c-0.6-1.4-0.9-3-0.9-4.8l0,0c0-1.6,0.3-3.1,0.8-4.5c0.5-1.4,1.3-2.6,2.2-3.6c1-1,2.1-1.8,3.3-2.4c1.3-0.6,2.7-0.8,4.1-0.8l0,0
			c1.5,0,2.8,0.3,4.1,0.8c1.3,0.5,2.3,1.2,3.2,2.2c0.9,1,1.6,2.1,2.2,3.6c0.5,1.4,0.8,3,0.9,4.8l0,0c-1.6,0-3.2,0-4.8-0.1
			c-1.6,0-3.3,0-5,0l0,0c-1.2,0-2.4,0-3.6,0c-1.2,0-2.2,0-3.2,0.1l0,0c0.1,1.5,0.3,2.8,0.7,4c0.4,1.2,0.9,2.2,1.6,3.1
			c0.7,0.8,1.5,1.5,2.4,1.9c0.9,0.5,2,0.7,3.2,0.7l0,0c0.8,0,1.6-0.1,2.3-0.3c0.7-0.2,1.4-0.5,2-0.8c0.6-0.3,1.1-0.7,1.6-1.2
			c0.5-0.5,0.9-1,1.2-1.5l0,0l0.3,0.1L271,59c-0.8,0.4-1.7,0.7-2.7,1C267.2,60.3,265.9,60.4,264.4,60.4L264.4,60.4z M261.6,47.4
			L261.6,47.4c1.4,0,2.8,0,4.3,0c1.4,0,2.7,0,3.9-0.1l0,0c-0.1-1.2-0.4-2.3-0.7-3.3c-0.4-1-0.8-1.8-1.4-2.5c-0.6-0.7-1.2-1.2-2-1.6
			c-0.8-0.4-1.6-0.5-2.5-0.5l0,0c-0.8,0-1.6,0.2-2.3,0.5c-0.7,0.4-1.3,0.9-1.8,1.6c-0.5,0.7-0.9,1.5-1.2,2.5c-0.3,1-0.5,2.1-0.6,3.4
			l0,0c0.6,0,1.3,0,2,0C260.1,47.4,260.8,47.4,261.6,47.4z M288,39l0.2,3.5l-0.3,0c-0.1-0.3-0.3-0.7-0.5-1c-0.2-0.4-0.5-0.7-0.8-1
			c-0.3-0.3-0.8-0.6-1.3-0.8c-0.5-0.2-1.1-0.3-1.7-0.3l0,0c-0.4,0-0.9,0.1-1.2,0.2c-0.4,0.1-0.7,0.3-1,0.6c-0.3,0.2-0.5,0.6-0.7,0.9
			c-0.2,0.4-0.3,0.8-0.3,1.3l0,0c0,0.7,0.2,1.4,0.6,2c0.4,0.6,1,1.3,1.6,1.9c0.7,0.6,1.4,1.2,2.1,1.9c0.8,0.6,1.5,1.3,2.1,2
			c0.7,0.7,1.2,1.4,1.6,2.2c0.4,0.8,0.6,1.6,0.6,2.5l0,0c0,0.7-0.1,1.4-0.4,2.1c-0.3,0.7-0.6,1.3-1.2,1.8c-0.5,0.5-1.2,1-2.1,1.3
			c-0.8,0.3-1.8,0.5-3,0.5l0,0c-0.7,0-1.3-0.1-1.9-0.2c-0.6-0.1-1.1-0.3-1.6-0.5c-0.5-0.2-0.9-0.4-1.3-0.6c-0.4-0.2-0.7-0.5-1-0.7
			l0,0l0.2-4h0.3c0.1,0.7,0.4,1.3,0.6,1.8s0.6,1,1.1,1.4c0.4,0.4,0.9,0.7,1.4,0.9c0.5,0.2,1.1,0.3,1.8,0.3l0,0
			c1.1,0,1.9-0.3,2.5-0.9s0.9-1.3,0.9-2.3l0,0c0-0.8-0.2-1.4-0.6-2.1c-0.4-0.6-0.9-1.2-1.6-1.8c-0.6-0.6-1.3-1.2-2.1-1.7
			c-0.7-0.6-1.4-1.2-2.1-1.9c-0.6-0.7-1.2-1.4-1.6-2.2c-0.4-0.8-0.6-1.7-0.6-2.7l0,0c0-0.8,0.2-1.6,0.5-2.3c0.3-0.7,0.7-1.3,1.3-1.8
			c0.5-0.5,1.2-0.9,1.9-1.1c0.8-0.3,1.6-0.4,2.5-0.4l0,0c1.2,0,2.2,0.1,2.9,0.4C286.9,38.5,287.5,38.7,288,39L288,39L288,39z
			 M292.2,49.1L292.2,49.1c0-1.6,0.3-3.1,0.9-4.5c0.6-1.4,1.4-2.6,2.5-3.6c1-1,2.3-1.8,3.7-2.4c1.4-0.6,2.9-0.8,4.6-0.8l0,0
			c1.6,0,3.1,0.3,4.5,0.8c1.4,0.5,2.6,1.3,3.7,2.3c1.1,1,1.9,2.2,2.5,3.6c0.6,1.4,0.9,3,0.9,4.7l0,0c0,1.5-0.3,2.9-0.8,4.2
			c-0.5,1.3-1.3,2.5-2.3,3.6c-1,1-2.2,1.9-3.7,2.5c-1.4,0.6-3.1,0.9-5,0.9l0,0c-1.6,0-3.1-0.3-4.5-0.8c-1.4-0.5-2.6-1.3-3.7-2.3
			c-1.1-1-1.9-2.2-2.5-3.6C292.5,52.4,292.2,50.8,292.2,49.1L292.2,49.1z M304.3,58.9L304.3,58.9c1,0,1.9-0.2,2.8-0.6s1.6-1,2.2-1.7
			c0.6-0.8,1.1-1.7,1.4-2.7c0.3-1.1,0.5-2.3,0.5-3.7l0,0c0-1.5-0.2-3-0.5-4.3c-0.3-1.3-0.8-2.5-1.5-3.4c-0.6-1-1.5-1.7-2.4-2.2
			c-1-0.5-2.1-0.8-3.4-0.8l0,0c-1,0-1.9,0.2-2.8,0.6c-0.8,0.4-1.6,1-2.2,1.7c-0.6,0.7-1.1,1.6-1.4,2.7c-0.3,1.1-0.5,2.3-0.5,3.7l0,0
			c0,1.5,0.2,3,0.5,4.3c0.3,1.3,0.8,2.5,1.5,3.4c0.7,1,1.5,1.7,2.4,2.3C301.9,58.6,303,58.9,304.3,58.9L304.3,58.9z M334.4,51.7v-6
			c0-0.9-0.1-1.7-0.3-2.4c-0.2-0.7-0.5-1.2-0.8-1.7c-0.4-0.4-0.8-0.8-1.3-1c-0.5-0.2-1.1-0.3-1.7-0.3l0,0c-0.4,0-0.9,0.1-1.4,0.3
			c-0.5,0.2-1.1,0.4-1.6,0.7c-0.6,0.3-1.1,0.6-1.7,1c-0.6,0.4-1.1,0.8-1.6,1.2l0,0c0,0.5,0,0.9,0,1.5c0,0.5,0,1.1,0,1.7l0,0v5.2
			c0,1.2,0,2.3,0,3.2c0,0.9,0.1,1.7,0.1,2.3c0.1,0.7,0.1,1.2,0.2,1.6c0.1,0.4,0.1,0.8,0.2,1.1l0,0V60h-4.9V60
			c0.1-0.3,0.2-0.7,0.2-1.1c0.1-0.4,0.1-1,0.2-1.6c0-0.7,0.1-1.4,0.1-2.3c0-0.9,0.1-2,0.1-3.2l0,0v-5.2c0-1.2,0-2.3-0.1-3.2
			c0-0.9-0.1-1.7-0.1-2.3c-0.1-0.7-0.1-1.2-0.2-1.6c-0.1-0.4-0.2-0.8-0.2-1.1l0,0v-0.1h4.9v0.1c-0.1,0.3-0.2,0.7-0.3,1.2
			c-0.1,0.5-0.1,1.1-0.2,1.9l0,0c0.6-0.5,1.2-0.9,1.8-1.3c0.7-0.4,1.3-0.8,2-1.2c0.7-0.3,1.4-0.6,2.1-0.8c0.7-0.2,1.4-0.3,2.1-0.3
			l0,0c0.8,0,1.5,0.1,2.2,0.3c0.6,0.2,1.2,0.5,1.6,0.9c0.5,0.4,0.9,0.8,1.2,1.3c0.3,0.5,0.6,1,0.7,1.6l0,0c0.6-0.5,1.2-1,1.9-1.5
			c0.7-0.5,1.4-0.9,2.1-1.3c0.7-0.4,1.5-0.7,2.2-0.9c0.8-0.2,1.5-0.4,2.2-0.4l0,0c1.1,0,2,0.2,2.8,0.6s1.4,0.9,1.9,1.5
			c0.5,0.6,0.8,1.3,1.1,2.1c0.2,0.8,0.3,1.6,0.3,2.4l0,0v7.2c0,1.2,0,2.3,0,3.2c0,0.9,0.1,1.7,0.1,2.3c0.1,0.7,0.1,1.2,0.2,1.6
			c0.1,0.4,0.2,0.8,0.2,1.1l0,0V60H348V60c0.1-0.3,0.2-0.7,0.2-1.1c0.1-0.4,0.1-1,0.2-1.6c0.1-0.7,0.1-1.4,0.1-2.3c0-0.9,0-2,0-3.2
			l0,0v-6c0-1.9-0.4-3.3-1.1-4.1c-0.8-0.9-1.8-1.3-3-1.3l0,0c-0.4,0-0.9,0.1-1.5,0.3c-0.5,0.2-1.1,0.4-1.6,0.7
			c-0.6,0.3-1.1,0.6-1.7,1c-0.6,0.4-1.1,0.8-1.6,1.2l0,0c0,0.2,0,0.3,0,0.5c0,0.2,0,0.3,0,0.5l0,0v7.2c0,1.2,0,2.3,0.1,3.2
			s0.1,1.7,0.1,2.3c0.1,0.7,0.1,1.2,0.2,1.6c0.1,0.4,0.2,0.8,0.2,1.1l0,0V60h-4.9V60c0.1-0.3,0.2-0.7,0.2-1.1c0.1-0.4,0.1-1,0.2-1.6
			c0.1-0.7,0.1-1.4,0.1-2.3C334.4,54,334.4,52.9,334.4,51.7C334.4,51.7,334.4,51.7,334.4,51.7z M368.3,60.4L368.3,60.4
			c-1.6,0-3.1-0.3-4.4-0.8c-1.4-0.5-2.6-1.2-3.6-2.2c-1-1-1.8-2.1-2.4-3.6c-0.6-1.4-0.9-3-0.9-4.8l0,0c0-1.6,0.3-3.1,0.8-4.5
			c0.5-1.4,1.3-2.6,2.2-3.6c1-1,2.1-1.8,3.3-2.4c1.3-0.6,2.7-0.8,4.1-0.8l0,0c1.5,0,2.8,0.3,4.1,0.8c1.3,0.5,2.3,1.2,3.3,2.2
			c0.9,1,1.6,2.1,2.2,3.6c0.5,1.4,0.8,3,0.9,4.8l0,0c-1.6,0-3.2,0-4.8-0.1c-1.6,0-3.3,0-5,0l0,0c-1.2,0-2.4,0-3.6,0
			c-1.2,0-2.2,0-3.2,0.1l0,0c0.1,1.5,0.3,2.8,0.7,4c0.4,1.2,0.9,2.2,1.6,3.1c0.7,0.8,1.5,1.5,2.4,1.9c0.9,0.5,2,0.7,3.2,0.7l0,0
			c0.8,0,1.6-0.1,2.3-0.3c0.7-0.2,1.4-0.5,2-0.8c0.6-0.3,1.1-0.7,1.6-1.2c0.5-0.5,0.9-1,1.2-1.5l0,0l0.3,0.1l-1.6,3.8
			c-0.8,0.4-1.7,0.7-2.7,1C371.1,60.3,369.8,60.4,368.3,60.4L368.3,60.4z M365.5,47.4L365.5,47.4c1.4,0,2.9,0,4.3,0
			c1.4,0,2.7,0,3.9-0.1l0,0c-0.1-1.2-0.4-2.3-0.7-3.3c-0.4-1-0.8-1.8-1.4-2.5s-1.2-1.2-2-1.6c-0.8-0.4-1.6-0.5-2.5-0.5l0,0
			c-0.8,0-1.6,0.2-2.3,0.5s-1.3,0.9-1.8,1.6c-0.5,0.7-0.9,1.5-1.2,2.5c-0.3,1-0.5,2.1-0.5,3.4l0,0c0.6,0,1.3,0,2,0
			C364,47.4,364.7,47.4,365.5,47.4L365.5,47.4z M379.6,61.4L395.8,27l2,1l-16.2,34.4C381.6,62.4,379.6,61.4,379.6,61.4z M405.7,46.9
			v4.8c0,1.2,0,2.3,0.1,3.2c0,0.9,0.1,1.7,0.1,2.3c0,0.7,0.1,1.2,0.2,1.6c0.1,0.4,0.2,0.8,0.3,1.1l0,0V60h-5.1V60
			c0.1-0.3,0.2-0.7,0.2-1.1c0.1-0.4,0.1-1,0.2-1.6c0-0.7,0.1-1.4,0.1-2.3c0-0.9,0.1-2,0.1-3.2l0,0V37.8c0-1.2,0-2.3-0.1-3.2
			c0-0.9-0.1-1.7-0.1-2.3c-0.1-0.7-0.1-1.2-0.2-1.6c-0.1-0.4-0.2-0.8-0.2-1.1l0,0v-0.1l0.9,0.1c0.3,0,0.6,0,0.9,0.1c0.3,0,0.7,0,1,0
			l0,0c0.6,0,1.3-0.1,2.3-0.2c0.9-0.1,2.1-0.2,3.6-0.2l0,0c1.4,0,2.6,0.2,3.8,0.6c1.2,0.4,2.2,0.9,3,1.6c0.8,0.7,1.5,1.6,2,2.6
			s0.7,2.2,0.7,3.5l0,0c0,1-0.1,2-0.4,2.8c-0.3,0.9-0.6,1.7-1.1,2.4c-0.5,0.7-1,1.3-1.7,1.9c-0.7,0.5-1.4,1-2.2,1.4l0,0l7.5,10.5
			c0.4,0.5,0.7,1,1,1.4c0.3,0.4,0.6,0.7,0.9,1c0.3,0.3,0.6,0.5,0.8,0.7c0.3,0.2,0.6,0.3,0.8,0.4l0,0V60h-6.2c0-0.3-0.2-0.6-0.4-1.1
			c-0.2-0.4-0.5-0.9-0.8-1.3l0,0L410.1,47c-0.3,0-0.7,0.1-1,0.1c-0.3,0-0.7,0-1,0l0,0c-0.4,0-0.8,0-1.2,0
			C406.5,47,406.1,47,405.7,46.9L405.7,46.9L405.7,46.9z M405.7,31.1v14.1c0.4,0.1,0.8,0.1,1.2,0.2s0.8,0.1,1.2,0.1l0,0
			c1.1,0,2-0.2,2.9-0.5c0.9-0.3,1.6-0.8,2.3-1.5s1.1-1.5,1.4-2.4c0.3-1,0.5-2.1,0.5-3.4l0,0c0-1.1-0.1-2-0.4-2.9
			c-0.2-0.9-0.6-1.6-1.1-2.2c-0.5-0.6-1.1-1.1-1.8-1.4c-0.7-0.3-1.6-0.5-2.5-0.5l0,0c-1,0-1.8,0-2.3,0.1
			C406.5,30.9,406,31,405.7,31.1L405.7,31.1L405.7,31.1z M436.8,60.4L436.8,60.4c-1.6,0-3.1-0.3-4.4-0.8c-1.4-0.5-2.6-1.2-3.6-2.2
			c-1-1-1.8-2.1-2.4-3.6c-0.6-1.4-0.9-3-0.9-4.8l0,0c0-1.6,0.3-3.1,0.8-4.5c0.5-1.4,1.3-2.6,2.2-3.6c0.9-1,2.1-1.8,3.3-2.4
			c1.3-0.6,2.6-0.8,4.1-0.8l0,0c1.5,0,2.8,0.3,4.1,0.8c1.3,0.5,2.3,1.2,3.3,2.2c0.9,1,1.6,2.1,2.2,3.6c0.5,1.4,0.8,3,0.9,4.8l0,0
			c-1.6,0-3.2,0-4.8-0.1c-1.6,0-3.3,0-5,0l0,0c-1.2,0-2.4,0-3.6,0c-1.2,0-2.2,0-3.2,0.1l0,0c0.1,1.5,0.3,2.8,0.7,4
			c0.4,1.2,0.9,2.2,1.6,3.1c0.7,0.8,1.5,1.5,2.4,1.9c0.9,0.5,2,0.7,3.2,0.7l0,0c0.8,0,1.6-0.1,2.3-0.3c0.7-0.2,1.4-0.5,2-0.8
			c0.6-0.3,1.1-0.7,1.6-1.2c0.5-0.5,0.9-1,1.2-1.5l0,0l0.3,0.1l-1.6,3.8c-0.8,0.4-1.7,0.7-2.7,1C439.6,60.3,438.3,60.4,436.8,60.4
			L436.8,60.4z M434,47.4L434,47.4c1.4,0,2.8,0,4.3,0s2.7,0,3.9-0.1l0,0c-0.1-1.2-0.4-2.3-0.7-3.3c-0.4-1-0.8-1.8-1.4-2.5
			c-0.6-0.7-1.2-1.2-2-1.6c-0.8-0.4-1.6-0.5-2.5-0.5l0,0c-0.8,0-1.6,0.2-2.3,0.5c-0.7,0.4-1.3,0.9-1.8,1.6c-0.5,0.7-0.9,1.5-1.2,2.5
			c-0.3,1-0.5,2.1-0.5,3.4l0,0c0.6,0,1.3,0,2,0C432.5,47.4,433.2,47.4,434,47.4L434,47.4z M459.1,69.8L459.1,69.8
			c1.2,0,2.1-0.1,2.9-0.4c0.8-0.3,1.5-0.6,2-1c0.5-0.4,0.9-1,1.2-1.6c0.3-0.6,0.5-1.3,0.6-2c0.1-0.7,0.2-1.5,0.2-2.4
			c0-0.8,0-1.7,0-2.6l0,0v-0.7c-0.7,0.4-1.5,0.7-2.5,0.9c-1,0.3-2.1,0.4-3.3,0.4l0,0c-1.7,0-3.2-0.3-4.6-0.8
			c-1.4-0.5-2.5-1.3-3.5-2.3c-1-1-1.7-2.2-2.2-3.6c-0.5-1.4-0.8-3-0.8-4.7l0,0c0-1.6,0.3-3.1,0.8-4.5c0.5-1.4,1.2-2.6,2.2-3.6
			s2.1-1.8,3.4-2.4c1.3-0.6,2.8-0.9,4.4-0.9l0,0c0.7,0,1.3,0.1,1.9,0.2c0.6,0.1,1.1,0.3,1.6,0.5c0.5,0.2,1,0.4,1.4,0.7
			c0.4,0.3,0.9,0.5,1.3,0.8l0,0l-0.2-1.6v-0.1h4.7v0.1c-0.1,0.3-0.2,0.7-0.2,1.1c-0.1,0.4-0.1,1-0.2,1.6c0,0.7-0.1,1.4-0.1,2.3
			s-0.1,2-0.1,3.2l0,0V61c0,1.3-0.2,2.6-0.5,3.8c-0.3,1.2-0.9,2.3-1.8,3.3c-0.8,1-1.9,1.7-3.3,2.3c-1.4,0.6-3.1,0.9-5.1,0.9l0,0
			c-0.7,0-1.4-0.1-2.1-0.2c-0.7-0.1-1.4-0.3-2.1-0.5c-0.7-0.2-1.2-0.4-1.8-0.6c-0.5-0.2-0.9-0.4-1.3-0.6l0,0l-0.7-4.1l0.3-0.1
			c0.3,0.7,0.8,1.4,1.4,2c0.6,0.6,1.2,1,1.9,1.4c0.7,0.4,1.4,0.7,2.2,0.8C457.8,69.7,458.5,69.8,459.1,69.8L459.1,69.8z M461.2,58.9
			L461.2,58.9c1,0,1.9-0.2,2.8-0.5c0.8-0.3,1.5-0.7,2.1-1.2l0,0V46.6c0-0.8,0-1.5,0-2.2c0-0.6,0-1.2,0-1.8l0,0
			c-0.3-0.5-0.7-1-1.2-1.4c-0.4-0.4-0.9-0.7-1.4-1c-0.5-0.3-1-0.5-1.5-0.6c-0.5-0.2-1-0.2-1.6-0.2l0,0c-1.1,0-2.1,0.2-2.9,0.6
			c-0.9,0.4-1.6,1-2.2,1.7c-0.6,0.7-1.1,1.7-1.4,2.7c-0.3,1.1-0.5,2.3-0.5,3.7l0,0c0,1.5,0.2,3,0.5,4.3c0.3,1.3,0.8,2.5,1.5,3.4
			c0.7,1,1.5,1.7,2.5,2.3C458.8,58.6,460,58.9,461.2,58.9L461.2,58.9z M485.9,60.4L485.9,60.4c-1.6,0-3.1-0.3-4.4-0.8
			c-1.4-0.5-2.6-1.2-3.6-2.2c-1-1-1.8-2.1-2.4-3.6c-0.6-1.4-0.9-3-0.9-4.8l0,0c0-1.6,0.3-3.1,0.8-4.5c0.5-1.4,1.3-2.6,2.2-3.6
			c0.9-1,2.1-1.8,3.3-2.4c1.3-0.6,2.6-0.8,4.1-0.8l0,0c1.5,0,2.8,0.3,4.1,0.8c1.3,0.5,2.3,1.2,3.3,2.2c0.9,1,1.6,2.1,2.2,3.6
			c0.5,1.4,0.8,3,0.9,4.8l0,0c-1.6,0-3.2,0-4.8-0.1c-1.6,0-3.3,0-5,0l0,0c-1.2,0-2.4,0-3.6,0c-1.2,0-2.2,0-3.2,0.1l0,0
			c0.1,1.5,0.3,2.8,0.7,4c0.4,1.2,0.9,2.2,1.6,3.1c0.7,0.8,1.5,1.5,2.4,1.9c0.9,0.5,2,0.7,3.2,0.7l0,0c0.8,0,1.6-0.1,2.3-0.3
			c0.7-0.2,1.4-0.5,2-0.8c0.6-0.3,1.1-0.7,1.6-1.2c0.5-0.5,0.9-1,1.2-1.5l0,0l0.3,0.1l-1.6,3.8c-0.8,0.4-1.7,0.7-2.7,1
			C488.7,60.3,487.4,60.4,485.9,60.4L485.9,60.4z M483.1,47.4L483.1,47.4c1.4,0,2.8,0,4.3,0s2.7,0,3.9-0.1l0,0
			c-0.1-1.2-0.4-2.3-0.7-3.3c-0.4-1-0.8-1.8-1.4-2.5c-0.6-0.7-1.2-1.2-2-1.6c-0.8-0.4-1.6-0.5-2.5-0.5l0,0c-0.8,0-1.6,0.2-2.3,0.5
			c-0.7,0.4-1.3,0.9-1.8,1.6c-0.5,0.7-0.9,1.5-1.2,2.5c-0.3,1-0.5,2.1-0.5,3.4l0,0c0.6,0,1.3,0,2,0
			C481.6,47.4,482.3,47.4,483.1,47.4L483.1,47.4z M512,57l-4.6-6.2l-5.1,6.5c-0.2,0.2-0.4,0.5-0.6,0.7c-0.2,0.3-0.4,0.5-0.5,0.7
			c-0.2,0.2-0.3,0.5-0.4,0.7c-0.1,0.2-0.1,0.4-0.1,0.5l0,0h-3.6V60c0.2-0.2,0.5-0.5,1-0.9c0.4-0.4,0.8-0.9,1.3-1.5l0,0l6.7-8.5
			l-6.6-8.9c-0.4-0.5-0.7-0.9-1.1-1.2c-0.4-0.3-0.6-0.6-0.8-0.6l0,0v-0.1h5.8c0,0.2,0.1,0.6,0.3,1.1c0.2,0.5,0.5,1.1,1.1,1.9l0,0
			l3.6,4.9l4.1-5.2c0.2-0.2,0.3-0.5,0.5-0.7c0.2-0.3,0.3-0.5,0.5-0.8c0.1-0.3,0.2-0.5,0.3-0.7c0.1-0.2,0.1-0.4,0.1-0.5l0,0h3.6v0.1
			c-0.2,0.2-0.5,0.4-0.8,0.7c-0.3,0.3-0.7,0.8-1.2,1.4l0,0l-5.9,7.6l7.2,9.7c0.5,0.6,0.9,1.2,1.3,1.6c0.4,0.4,0.7,0.7,0.9,0.8l0,0
			V60h-5.8c0-0.2-0.1-0.6-0.3-1.2C512.9,58.3,512.5,57.7,512,57L512,57L512,57z"/>
	</g>
	<g>
		<path class="st1" d="M198.3,71.3v6.2c0,0.7-0.1,1.3-0.4,1.8c-0.3,0.5-0.7,1-1.2,1.3c-0.6,0.3-1.2,0.5-2.1,0.5
			c-1.2,0-2.1-0.3-2.7-1c-0.6-0.6-0.9-1.5-0.9-2.6v-6.2h1.1v6.2c0,0.8,0.2,1.4,0.6,1.9c0.4,0.4,1.1,0.7,1.9,0.7
			c0.6,0,1.1-0.1,1.4-0.3c0.4-0.2,0.7-0.5,0.8-0.9c0.2-0.4,0.3-0.8,0.3-1.3v-6.2H198.3z"/>
		<path class="st1" d="M204.1,73.6c0.9,0,1.5,0.2,1.9,0.6c0.4,0.4,0.7,1.1,0.7,2v4.7h-1.1v-4.6c0-0.6-0.1-1.1-0.4-1.4
			s-0.7-0.4-1.3-0.4c-0.8,0-1.4,0.2-1.7,0.7c-0.3,0.5-0.5,1.1-0.5,2v3.8h-1.1v-7.2h0.9l0.2,1h0.1c0.2-0.3,0.3-0.5,0.6-0.6
			c0.2-0.2,0.5-0.3,0.8-0.4C203.4,73.6,203.7,73.6,204.1,73.6z"/>
		<path class="st1" d="M210,80.9h-1.1V70.7h1.1V80.9z"/>
		<path class="st1" d="M218.5,77.3c0,0.6-0.1,1.1-0.2,1.6c-0.2,0.5-0.4,0.9-0.7,1.2c-0.3,0.3-0.6,0.6-1.1,0.7
			c-0.4,0.2-0.9,0.3-1.4,0.3c-0.5,0-0.9-0.1-1.3-0.3c-0.4-0.2-0.7-0.4-1-0.7c-0.3-0.3-0.5-0.7-0.7-1.2c-0.2-0.5-0.2-1-0.2-1.6
			c0-0.8,0.1-1.5,0.4-2c0.3-0.6,0.7-1,1.1-1.3c0.5-0.3,1.1-0.4,1.8-0.4c0.7,0,1.2,0.1,1.7,0.4c0.5,0.3,0.9,0.7,1.2,1.3
			C218.4,75.8,218.5,76.5,218.5,77.3z M213,77.3c0,0.6,0.1,1.1,0.2,1.5c0.2,0.4,0.4,0.8,0.7,1c0.3,0.2,0.7,0.3,1.2,0.3
			c0.5,0,0.9-0.1,1.2-0.3s0.6-0.6,0.7-1c0.2-0.4,0.2-0.9,0.2-1.5c0-0.6-0.1-1.1-0.2-1.5c-0.2-0.4-0.4-0.7-0.7-1
			c-0.3-0.2-0.7-0.3-1.2-0.3c-0.8,0-1.3,0.2-1.7,0.7C213.2,75.7,213,76.4,213,77.3z"/>
		<path class="st1" d="M223.3,81.1c-0.6,0-1.2-0.1-1.7-0.4c-0.5-0.3-0.9-0.7-1.2-1.2c-0.3-0.5-0.4-1.2-0.4-2.1
			c0-0.9,0.1-1.6,0.4-2.1c0.3-0.6,0.7-1,1.2-1.2c0.5-0.3,1.1-0.4,1.8-0.4c0.4,0,0.7,0,1,0.1c0.3,0.1,0.6,0.2,0.8,0.3l-0.3,0.9
			c-0.2-0.1-0.5-0.2-0.8-0.2c-0.3-0.1-0.6-0.1-0.8-0.1c-0.5,0-0.9,0.1-1.2,0.3c-0.3,0.2-0.6,0.5-0.7,0.9c-0.2,0.4-0.2,0.9-0.2,1.5
			c0,0.6,0.1,1.1,0.2,1.5c0.2,0.4,0.4,0.7,0.7,0.9s0.7,0.3,1.2,0.3c0.4,0,0.7,0,1-0.1s0.6-0.2,0.8-0.3v1c-0.2,0.1-0.5,0.2-0.8,0.3
			C224,81,223.7,81.1,223.3,81.1z"/>
		<path class="st1" d="M227.9,70.7V76c0,0.2,0,0.4,0,0.6c0,0.3,0,0.5,0,0.7h0c0.1-0.1,0.2-0.3,0.4-0.5c0.2-0.2,0.3-0.4,0.5-0.5
			l2.4-2.6h1.3l-2.9,3.1l3.1,4.1h-1.3l-2.6-3.4l-0.9,0.8v2.6h-1.1V70.7H227.9z"/>
		<path class="st1" d="M239.7,80.2c0.2,0,0.4,0,0.6,0c0.2,0,0.3-0.1,0.5-0.1v0.9c-0.1,0.1-0.3,0.1-0.5,0.1c-0.2,0-0.4,0.1-0.7,0.1
			c-0.4,0-0.7-0.1-1-0.2c-0.3-0.1-0.6-0.4-0.7-0.7c-0.2-0.3-0.3-0.8-0.3-1.3v-4.3h-1V74l1-0.4l0.4-1.6h0.7v1.7h2.1v0.9h-2.1v4.3
			c0,0.5,0.1,0.8,0.3,1C239.1,80,239.3,80.2,239.7,80.2z"/>
		<path class="st1" d="M243.2,70.7v3.1c0,0.2,0,0.4,0,0.5c0,0.2,0,0.3,0,0.5h0.1c0.1-0.3,0.3-0.5,0.6-0.6c0.2-0.2,0.5-0.3,0.8-0.4
			s0.6-0.1,0.9-0.1c0.6,0,1.1,0.1,1.5,0.3c0.4,0.2,0.7,0.5,0.9,0.9c0.2,0.4,0.3,0.9,0.3,1.5v4.7h-1.1v-4.6c0-0.6-0.1-1.1-0.4-1.4
			c-0.3-0.3-0.7-0.4-1.3-0.4c-0.5,0-1,0.1-1.3,0.3c-0.3,0.2-0.5,0.5-0.7,0.9c-0.1,0.4-0.2,0.9-0.2,1.4v3.8h-1.1V70.7H243.2z"/>
		<path class="st1" d="M253.2,73.6c0.6,0,1.1,0.1,1.6,0.4c0.4,0.3,0.8,0.7,1,1.1c0.2,0.5,0.3,1.1,0.3,1.7v0.7h-5
			c0,0.8,0.2,1.5,0.6,1.9c0.4,0.4,1,0.7,1.7,0.7c0.5,0,0.9,0,1.2-0.1c0.4-0.1,0.7-0.2,1.1-0.4v1c-0.4,0.2-0.7,0.3-1.1,0.4
			c-0.4,0.1-0.8,0.1-1.3,0.1c-0.7,0-1.3-0.1-1.8-0.4s-0.9-0.7-1.2-1.2c-0.3-0.5-0.4-1.2-0.4-2c0-0.8,0.1-1.5,0.4-2
			c0.3-0.6,0.6-1,1.1-1.3C252,73.7,252.5,73.6,253.2,73.6z M253.1,74.5c-0.6,0-1.1,0.2-1.4,0.6c-0.3,0.4-0.6,0.9-0.6,1.6h3.8
			c0-0.4-0.1-0.8-0.2-1.1c-0.1-0.3-0.3-0.6-0.6-0.8C253.9,74.6,253.6,74.5,253.1,74.5z"/>
		<path class="st1" d="M264.8,73.6c0.9,0,1.6,0.3,2.2,0.9c0.5,0.6,0.8,1.6,0.8,2.8c0,0.8-0.1,1.5-0.4,2.1c-0.2,0.6-0.6,1-1,1.3
			c-0.4,0.3-1,0.4-1.6,0.4c-0.4,0-0.7-0.1-1-0.2c-0.3-0.1-0.5-0.2-0.7-0.4c-0.2-0.2-0.4-0.4-0.5-0.6h-0.1c0,0.2,0,0.4,0,0.6
			c0,0.2,0,0.5,0,0.6v3h-1.1V73.7h0.9l0.1,1.1h0.1c0.1-0.2,0.3-0.4,0.5-0.6s0.4-0.3,0.7-0.4C264.1,73.6,264.4,73.6,264.8,73.6z
			 M264.6,74.5c-0.5,0-0.9,0.1-1.2,0.3c-0.3,0.2-0.5,0.5-0.7,0.9c-0.1,0.4-0.2,0.9-0.2,1.4v0.2c0,0.6,0.1,1.1,0.2,1.5
			c0.1,0.4,0.4,0.7,0.7,1c0.3,0.2,0.7,0.3,1.2,0.3c0.4,0,0.8-0.1,1.1-0.4c0.3-0.2,0.5-0.6,0.7-1s0.2-0.9,0.2-1.5
			c0-0.9-0.2-1.5-0.5-2C265.8,74.7,265.3,74.5,264.6,74.5z"/>
		<path class="st1" d="M275.9,77.3c0,0.6-0.1,1.1-0.2,1.6s-0.4,0.9-0.7,1.2s-0.6,0.6-1.1,0.7c-0.4,0.2-0.9,0.3-1.4,0.3
			c-0.5,0-0.9-0.1-1.3-0.3c-0.4-0.2-0.7-0.4-1-0.7c-0.3-0.3-0.5-0.7-0.7-1.2s-0.2-1-0.2-1.6c0-0.8,0.1-1.5,0.4-2
			c0.3-0.6,0.7-1,1.1-1.3c0.5-0.3,1.1-0.4,1.8-0.4c0.7,0,1.2,0.1,1.7,0.4c0.5,0.3,0.9,0.7,1.2,1.3C275.7,75.8,275.9,76.5,275.9,77.3
			z M270.4,77.3c0,0.6,0.1,1.1,0.2,1.5s0.4,0.8,0.7,1c0.3,0.2,0.7,0.3,1.2,0.3c0.5,0,0.9-0.1,1.2-0.3c0.3-0.2,0.6-0.6,0.7-1
			c0.2-0.4,0.2-0.9,0.2-1.5c0-0.6-0.1-1.1-0.2-1.5c-0.2-0.4-0.4-0.7-0.7-1c-0.3-0.2-0.7-0.3-1.2-0.3c-0.8,0-1.3,0.2-1.7,0.7
			C270.5,75.7,270.4,76.4,270.4,77.3z"/>
		<path class="st1" d="M283.6,80.9l-1.3-4.2c-0.1-0.2-0.1-0.4-0.2-0.5c-0.1-0.2-0.1-0.3-0.1-0.5c0-0.2-0.1-0.3-0.1-0.4
			c0-0.1-0.1-0.3-0.1-0.4h0c0,0.1,0,0.2-0.1,0.4c0,0.1-0.1,0.3-0.1,0.5c0,0.2-0.1,0.3-0.1,0.5c0,0.2-0.1,0.4-0.2,0.5l-1.3,4.2h-1.2
			l-2-7.2h1.1l1,4c0.1,0.3,0.1,0.5,0.2,0.8c0.1,0.3,0.1,0.5,0.2,0.7c0,0.2,0.1,0.4,0.1,0.6h0.1c0-0.1,0.1-0.2,0.1-0.4
			c0-0.2,0.1-0.3,0.1-0.5c0-0.2,0.1-0.3,0.1-0.5c0-0.2,0.1-0.3,0.1-0.5l1.3-4.2h1.2l1.3,4.2c0.1,0.2,0.1,0.4,0.2,0.7
			c0.1,0.2,0.1,0.4,0.2,0.7c0.1,0.2,0.1,0.4,0.1,0.6h0.1c0-0.1,0.1-0.3,0.1-0.6c0-0.2,0.1-0.5,0.2-0.7c0.1-0.3,0.1-0.5,0.2-0.8
			l1.1-4h1.1l-2,7.2H283.6z"/>
		<path class="st1" d="M290.9,73.6c0.6,0,1.1,0.1,1.6,0.4c0.4,0.3,0.8,0.7,1,1.1c0.2,0.5,0.3,1.1,0.3,1.7v0.7h-5
			c0,0.8,0.2,1.5,0.6,1.9c0.4,0.4,1,0.7,1.7,0.7c0.5,0,0.9,0,1.2-0.1c0.4-0.1,0.7-0.2,1.1-0.4v1c-0.4,0.2-0.7,0.3-1.1,0.4
			c-0.4,0.1-0.8,0.1-1.3,0.1c-0.7,0-1.3-0.1-1.8-0.4s-0.9-0.7-1.2-1.2c-0.3-0.5-0.4-1.2-0.4-2c0-0.8,0.1-1.5,0.4-2
			c0.3-0.6,0.6-1,1.1-1.3C289.7,73.7,290.3,73.6,290.9,73.6z M290.9,74.5c-0.6,0-1.1,0.2-1.4,0.6c-0.3,0.4-0.6,0.9-0.6,1.6h3.8
			c0-0.4-0.1-0.8-0.2-1.1c-0.1-0.3-0.3-0.6-0.6-0.8C291.7,74.6,291.3,74.5,290.9,74.5z"/>
		<path class="st1" d="M299,73.6c0.1,0,0.3,0,0.5,0s0.3,0,0.4,0.1l-0.1,1c-0.1,0-0.3-0.1-0.4-0.1c-0.1,0-0.3,0-0.4,0
			c-0.3,0-0.6,0.1-0.8,0.2s-0.5,0.3-0.7,0.5c-0.2,0.2-0.3,0.5-0.5,0.8c-0.1,0.3-0.2,0.6-0.2,1v3.9h-1.1v-7.2h0.9l0.1,1.3h0
			c0.1-0.3,0.3-0.5,0.5-0.7c0.2-0.2,0.5-0.4,0.7-0.5C298.3,73.6,298.7,73.6,299,73.6z"/>
		<path class="st1" d="M310.9,77.3c0,0.6-0.1,1.1-0.2,1.6c-0.2,0.5-0.4,0.9-0.7,1.2c-0.3,0.3-0.6,0.6-1.1,0.7
			c-0.4,0.2-0.9,0.3-1.4,0.3c-0.5,0-0.9-0.1-1.3-0.3c-0.4-0.2-0.7-0.4-1-0.7s-0.5-0.7-0.7-1.2c-0.2-0.5-0.2-1-0.2-1.6
			c0-0.8,0.1-1.5,0.4-2c0.3-0.6,0.7-1,1.1-1.3c0.5-0.3,1.1-0.4,1.8-0.4c0.7,0,1.2,0.1,1.7,0.4c0.5,0.3,0.9,0.7,1.2,1.3
			C310.8,75.8,310.9,76.5,310.9,77.3z M305.4,77.3c0,0.6,0.1,1.1,0.2,1.5s0.4,0.8,0.7,1c0.3,0.2,0.7,0.3,1.2,0.3
			c0.5,0,0.9-0.1,1.2-0.3c0.3-0.2,0.6-0.6,0.7-1s0.2-0.9,0.2-1.5c0-0.6-0.1-1.1-0.2-1.5c-0.2-0.4-0.4-0.7-0.7-1
			c-0.3-0.2-0.7-0.3-1.2-0.3c-0.8,0-1.3,0.2-1.7,0.7C305.6,75.7,305.4,76.4,305.4,77.3z"/>
		<path class="st1" d="M316,74.6h-1.8v6.4h-1.1v-6.4h-1.3V74l1.3-0.4v-0.5c0-0.6,0.1-1.1,0.3-1.5c0.2-0.4,0.4-0.7,0.8-0.8
			c0.3-0.2,0.8-0.3,1.3-0.3c0.3,0,0.5,0,0.8,0.1c0.2,0,0.4,0.1,0.6,0.2l-0.3,0.9c-0.1,0-0.3-0.1-0.5-0.1c-0.2,0-0.4-0.1-0.6-0.1
			c-0.4,0-0.7,0.1-0.9,0.4s-0.3,0.7-0.3,1.3v0.5h1.8V74.6z"/>
		<path class="st1" d="M324.1,73.6c0.1,0,0.3,0,0.5,0c0.2,0,0.3,0,0.4,0.1l-0.1,1c-0.1,0-0.3-0.1-0.4-0.1c-0.1,0-0.3,0-0.4,0
			c-0.3,0-0.6,0.1-0.8,0.2c-0.3,0.1-0.5,0.3-0.7,0.5c-0.2,0.2-0.3,0.5-0.5,0.8c-0.1,0.3-0.2,0.6-0.2,1v3.9h-1.1v-7.2h0.9l0.1,1.3h0
			c0.1-0.3,0.3-0.5,0.5-0.7c0.2-0.2,0.5-0.4,0.7-0.5S323.7,73.6,324.1,73.6z"/>
		<path class="st1" d="M329,73.6c0.6,0,1.1,0.1,1.6,0.4c0.4,0.3,0.8,0.7,1,1.1c0.2,0.5,0.3,1.1,0.3,1.7v0.7h-5
			c0,0.8,0.2,1.5,0.6,1.9c0.4,0.4,1,0.7,1.7,0.7c0.5,0,0.9,0,1.2-0.1c0.4-0.1,0.7-0.2,1.1-0.4v1c-0.4,0.2-0.7,0.3-1.1,0.4
			c-0.4,0.1-0.8,0.1-1.3,0.1c-0.7,0-1.3-0.1-1.8-0.4c-0.5-0.3-0.9-0.7-1.2-1.2s-0.4-1.2-0.4-2c0-0.8,0.1-1.5,0.4-2
			c0.3-0.6,0.6-1,1.1-1.3C327.8,73.7,328.4,73.6,329,73.6z M329,74.5c-0.6,0-1.1,0.2-1.4,0.6c-0.3,0.4-0.6,0.9-0.6,1.6h3.8
			c0-0.4-0.1-0.8-0.2-1.1c-0.1-0.3-0.3-0.6-0.6-0.8C329.8,74.6,329.4,74.5,329,74.5z"/>
		<path class="st1" d="M335.8,84.2c-0.9,0-1.7-0.2-2.2-0.5c-0.5-0.4-0.8-0.8-0.8-1.5c0-0.5,0.1-0.8,0.4-1.2c0.3-0.3,0.7-0.5,1.2-0.6
			c-0.2-0.1-0.4-0.2-0.5-0.4c-0.1-0.2-0.2-0.4-0.2-0.6c0-0.3,0.1-0.5,0.2-0.7c0.1-0.2,0.4-0.4,0.7-0.6c-0.4-0.2-0.7-0.4-0.9-0.8
			c-0.2-0.4-0.4-0.8-0.4-1.3c0-0.5,0.1-1,0.3-1.3c0.2-0.4,0.5-0.6,0.9-0.8c0.4-0.2,0.9-0.3,1.5-0.3c0.1,0,0.3,0,0.4,0
			c0.1,0,0.3,0,0.4,0c0.1,0,0.2,0,0.3,0.1h2.5v0.7l-1.3,0.2c0.1,0.2,0.2,0.4,0.3,0.6c0.1,0.2,0.1,0.5,0.1,0.8c0,0.7-0.2,1.3-0.7,1.7
			c-0.5,0.4-1.2,0.6-2,0.6c-0.2,0-0.4,0-0.6-0.1c-0.2,0.1-0.4,0.3-0.5,0.4c-0.1,0.1-0.2,0.3-0.2,0.5c0,0.1,0,0.3,0.1,0.3
			c0.1,0.1,0.2,0.1,0.4,0.2c0.2,0,0.4,0.1,0.6,0.1h1.3c0.8,0,1.4,0.2,1.8,0.5c0.4,0.3,0.6,0.8,0.6,1.4c0,0.8-0.3,1.4-1,1.8
			C338,83.9,337.1,84.2,335.8,84.2z M335.9,83.3c0.6,0,1.1-0.1,1.5-0.2c0.4-0.1,0.7-0.3,0.9-0.5c0.2-0.2,0.3-0.5,0.3-0.8
			c0-0.3-0.1-0.5-0.2-0.7s-0.3-0.2-0.6-0.3c-0.3-0.1-0.6-0.1-0.9-0.1h-1.3c-0.3,0-0.6,0.1-0.9,0.2s-0.4,0.3-0.6,0.4
			c-0.1,0.2-0.2,0.4-0.2,0.7c0,0.4,0.2,0.7,0.5,0.9C334.8,83.2,335.3,83.3,335.9,83.3z M336.1,77.5c0.5,0,0.9-0.1,1.2-0.4
			s0.4-0.6,0.4-1.2c0-0.5-0.1-0.9-0.4-1.2c-0.3-0.3-0.7-0.4-1.2-0.4c-0.5,0-0.9,0.1-1.2,0.4s-0.4,0.7-0.4,1.2c0,0.5,0.1,0.9,0.4,1.1
			C335.3,77.4,335.6,77.5,336.1,77.5z"/>
		<path class="st1" d="M347.1,73.7v7.2h-0.9l-0.2-1H346c-0.1,0.3-0.3,0.5-0.6,0.6c-0.2,0.2-0.5,0.3-0.8,0.4
			c-0.3,0.1-0.6,0.1-0.9,0.1c-0.6,0-1-0.1-1.4-0.3c-0.4-0.2-0.7-0.5-0.9-0.9c-0.2-0.4-0.3-0.9-0.3-1.5v-4.7h1.1v4.7
			c0,0.6,0.1,1.1,0.4,1.3c0.3,0.3,0.7,0.4,1.2,0.4c0.5,0,1-0.1,1.3-0.3c0.3-0.2,0.5-0.5,0.7-0.9c0.1-0.4,0.2-0.9,0.2-1.4v-3.8H347.1
			z"/>
		<path class="st1" d="M350.5,80.9h-1.1V70.7h1.1V80.9z"/>
		<path class="st1" d="M355.4,73.6c0.9,0,1.5,0.2,1.9,0.6c0.4,0.4,0.6,1,0.6,1.9v4.9h-0.8l-0.2-1.1h-0.1c-0.2,0.3-0.4,0.5-0.6,0.7
			c-0.2,0.2-0.5,0.3-0.8,0.4c-0.3,0.1-0.6,0.1-1.1,0.1c-0.4,0-0.8-0.1-1.2-0.2c-0.3-0.2-0.6-0.4-0.8-0.7c-0.2-0.3-0.3-0.7-0.3-1.2
			c0-0.7,0.3-1.3,0.9-1.7c0.6-0.4,1.4-0.6,2.6-0.6l1.2-0.1v-0.4c0-0.6-0.1-1.1-0.4-1.3c-0.3-0.3-0.6-0.4-1.1-0.4
			c-0.4,0-0.7,0.1-1.1,0.2c-0.3,0.1-0.7,0.2-1,0.4l-0.3-0.8c0.3-0.2,0.7-0.3,1.1-0.4C354.5,73.6,355,73.6,355.4,73.6z M356.9,77.4
			l-1.1,0c-0.9,0-1.5,0.2-1.9,0.4c-0.4,0.3-0.6,0.6-0.6,1.1c0,0.4,0.1,0.7,0.4,0.9c0.3,0.2,0.6,0.3,1,0.3c0.6,0,1.2-0.2,1.6-0.5
			c0.4-0.4,0.6-0.9,0.6-1.6V77.4z"/>
		<path class="st1" d="M363.5,73.6c0.1,0,0.3,0,0.5,0c0.2,0,0.3,0,0.4,0.1l-0.1,1c-0.1,0-0.3-0.1-0.4-0.1c-0.1,0-0.3,0-0.4,0
			c-0.3,0-0.6,0.1-0.8,0.2s-0.5,0.3-0.7,0.5c-0.2,0.2-0.3,0.5-0.5,0.8c-0.1,0.3-0.2,0.6-0.2,1v3.9h-1.1v-7.2h0.9l0.1,1.3h0
			c0.1-0.3,0.3-0.5,0.5-0.7c0.2-0.2,0.5-0.4,0.7-0.5C362.8,73.6,363.2,73.6,363.5,73.6z"/>
		<path class="st1" d="M372,73.6c0.6,0,1.1,0.1,1.6,0.4c0.4,0.3,0.8,0.7,1,1.1c0.2,0.5,0.3,1.1,0.3,1.7v0.7h-5
			c0,0.8,0.2,1.5,0.6,1.9c0.4,0.4,1,0.7,1.7,0.7c0.5,0,0.9,0,1.2-0.1c0.4-0.1,0.7-0.2,1.1-0.4v1c-0.4,0.2-0.7,0.3-1.1,0.4
			c-0.4,0.1-0.8,0.1-1.3,0.1c-0.7,0-1.3-0.1-1.8-0.4c-0.5-0.3-0.9-0.7-1.2-1.2s-0.4-1.2-0.4-2c0-0.8,0.1-1.5,0.4-2
			c0.3-0.6,0.6-1,1.1-1.3C370.8,73.7,371.3,73.6,372,73.6z M372,74.5c-0.6,0-1.1,0.2-1.4,0.6c-0.3,0.4-0.6,0.9-0.6,1.6h3.8
			c0-0.4-0.1-0.8-0.2-1.1c-0.1-0.3-0.3-0.6-0.6-0.8C372.7,74.6,372.4,74.5,372,74.5z"/>
		<path class="st1" d="M378.5,77.2l-2.5-3.5h1.3l1.9,2.8l1.9-2.8h1.2l-2.5,3.5l2.6,3.7h-1.3l-2-2.9l-2,2.9h-1.2L378.5,77.2z"/>
		<path class="st1" d="M387.2,73.6c0.9,0,1.6,0.3,2.2,0.9c0.5,0.6,0.8,1.6,0.8,2.8c0,0.8-0.1,1.5-0.4,2.1c-0.2,0.6-0.6,1-1,1.3
			c-0.4,0.3-1,0.4-1.6,0.4c-0.4,0-0.7-0.1-1-0.2c-0.3-0.1-0.5-0.2-0.7-0.4c-0.2-0.2-0.4-0.4-0.5-0.6h-0.1c0,0.2,0,0.4,0,0.6
			c0,0.2,0,0.5,0,0.6v3h-1.1V73.7h0.9l0.1,1.1h0.1c0.1-0.2,0.3-0.4,0.5-0.6c0.2-0.2,0.4-0.3,0.7-0.4
			C386.4,73.6,386.8,73.6,387.2,73.6z M387,74.5c-0.5,0-0.9,0.1-1.2,0.3c-0.3,0.2-0.5,0.5-0.7,0.9c-0.1,0.4-0.2,0.9-0.2,1.4v0.2
			c0,0.6,0.1,1.1,0.2,1.5c0.1,0.4,0.4,0.7,0.7,1s0.7,0.3,1.2,0.3c0.4,0,0.8-0.1,1.1-0.4c0.3-0.2,0.5-0.6,0.7-1s0.2-0.9,0.2-1.5
			c0-0.9-0.2-1.5-0.5-2C388.2,74.7,387.7,74.5,387,74.5z"/>
		<path class="st1" d="M395.3,73.6c0.1,0,0.3,0,0.5,0c0.2,0,0.3,0,0.4,0.1l-0.1,1c-0.1,0-0.3-0.1-0.4-0.1c-0.1,0-0.3,0-0.4,0
			c-0.3,0-0.6,0.1-0.8,0.2s-0.5,0.3-0.7,0.5c-0.2,0.2-0.3,0.5-0.5,0.8c-0.1,0.3-0.2,0.6-0.2,1v3.9H392v-7.2h0.9L393,75h0
			c0.1-0.3,0.3-0.5,0.5-0.7c0.2-0.2,0.5-0.4,0.7-0.5S394.9,73.6,395.3,73.6z"/>
		<path class="st1" d="M400.3,73.6c0.6,0,1.1,0.1,1.6,0.4c0.4,0.3,0.8,0.7,1,1.1c0.2,0.5,0.3,1.1,0.3,1.7v0.7h-5
			c0,0.8,0.2,1.5,0.6,1.9c0.4,0.4,1,0.7,1.7,0.7c0.5,0,0.9,0,1.2-0.1c0.4-0.1,0.7-0.2,1.1-0.4v1c-0.4,0.2-0.7,0.3-1.1,0.4
			c-0.4,0.1-0.8,0.1-1.3,0.1c-0.7,0-1.3-0.1-1.8-0.4c-0.5-0.3-0.9-0.7-1.2-1.2s-0.4-1.2-0.4-2c0-0.8,0.1-1.5,0.4-2
			c0.3-0.6,0.6-1,1.1-1.3C399.1,73.7,399.6,73.6,400.3,73.6z M400.3,74.5c-0.6,0-1.1,0.2-1.4,0.6c-0.3,0.4-0.6,0.9-0.6,1.6h3.8
			c0-0.4-0.1-0.8-0.2-1.1c-0.1-0.3-0.3-0.6-0.6-0.8C401,74.6,400.7,74.5,400.3,74.5z"/>
		<path class="st1" d="M409.7,78.9c0,0.5-0.1,0.8-0.3,1.2c-0.2,0.3-0.6,0.6-1,0.7c-0.4,0.2-0.9,0.2-1.5,0.2c-0.5,0-0.9,0-1.3-0.1
			c-0.4-0.1-0.7-0.2-1-0.3v-1c0.3,0.1,0.6,0.3,1.1,0.4c0.4,0.1,0.8,0.2,1.3,0.2c0.6,0,1.1-0.1,1.4-0.3c0.3-0.2,0.4-0.5,0.4-0.8
			c0-0.2-0.1-0.4-0.2-0.5c-0.1-0.2-0.3-0.3-0.6-0.4c-0.3-0.1-0.6-0.3-1.1-0.5c-0.5-0.2-0.9-0.3-1.2-0.5c-0.3-0.2-0.6-0.4-0.8-0.6
			c-0.2-0.3-0.3-0.6-0.3-1c0-0.6,0.2-1.1,0.7-1.4c0.5-0.3,1.1-0.5,1.9-0.5c0.4,0,0.8,0,1.2,0.1c0.4,0.1,0.7,0.2,1.1,0.3l-0.4,0.9
			c-0.3-0.1-0.6-0.2-1-0.3c-0.3-0.1-0.7-0.1-1-0.1c-0.5,0-0.9,0.1-1.2,0.3c-0.3,0.2-0.4,0.4-0.4,0.7c0,0.2,0.1,0.4,0.2,0.6
			c0.1,0.1,0.3,0.3,0.6,0.4c0.3,0.1,0.6,0.3,1.1,0.4c0.5,0.2,0.8,0.3,1.2,0.5c0.3,0.2,0.6,0.4,0.8,0.6
			C409.6,78.2,409.7,78.5,409.7,78.9z"/>
		<path class="st1" d="M416.1,78.9c0,0.5-0.1,0.8-0.3,1.2c-0.2,0.3-0.6,0.6-1,0.7c-0.4,0.2-0.9,0.2-1.5,0.2c-0.5,0-0.9,0-1.3-0.1
			c-0.4-0.1-0.7-0.2-1-0.3v-1c0.3,0.1,0.6,0.3,1.1,0.4c0.4,0.1,0.8,0.2,1.3,0.2c0.6,0,1.1-0.1,1.4-0.3c0.3-0.2,0.4-0.5,0.4-0.8
			c0-0.2-0.1-0.4-0.2-0.5c-0.1-0.2-0.3-0.3-0.6-0.4c-0.3-0.1-0.6-0.3-1.1-0.5c-0.5-0.2-0.9-0.3-1.2-0.5c-0.3-0.2-0.6-0.4-0.8-0.6
			c-0.2-0.3-0.3-0.6-0.3-1c0-0.6,0.2-1.1,0.7-1.4c0.5-0.3,1.1-0.5,1.9-0.5c0.4,0,0.8,0,1.2,0.1c0.4,0.1,0.7,0.2,1.1,0.3l-0.4,0.9
			c-0.3-0.1-0.6-0.2-1-0.3c-0.3-0.1-0.7-0.1-1-0.1c-0.5,0-0.9,0.1-1.2,0.3c-0.3,0.2-0.4,0.4-0.4,0.7c0,0.2,0.1,0.4,0.2,0.6
			c0.1,0.1,0.3,0.3,0.6,0.4c0.3,0.1,0.6,0.3,1.1,0.4c0.5,0.2,0.8,0.3,1.2,0.5s0.6,0.4,0.8,0.6C416,78.2,416.1,78.5,416.1,78.9z"/>
		<path class="st1" d="M418.4,71c0.2,0,0.3,0.1,0.5,0.2c0.1,0.1,0.2,0.3,0.2,0.5c0,0.2-0.1,0.4-0.2,0.5c-0.1,0.1-0.3,0.2-0.5,0.2
			c-0.2,0-0.3-0.1-0.5-0.2c-0.1-0.1-0.2-0.3-0.2-0.5c0-0.2,0.1-0.4,0.2-0.5C418.1,71.1,418.2,71,418.4,71z M419,73.7v7.2h-1.1v-7.2
			H419z"/>
		<path class="st1" d="M427.5,77.3c0,0.6-0.1,1.1-0.2,1.6c-0.2,0.5-0.4,0.9-0.7,1.2c-0.3,0.3-0.6,0.6-1.1,0.7
			c-0.4,0.2-0.9,0.3-1.4,0.3c-0.5,0-0.9-0.1-1.3-0.3c-0.4-0.2-0.7-0.4-1-0.7c-0.3-0.3-0.5-0.7-0.7-1.2s-0.2-1-0.2-1.6
			c0-0.8,0.1-1.5,0.4-2c0.3-0.6,0.7-1,1.1-1.3c0.5-0.3,1.1-0.4,1.8-0.4c0.7,0,1.2,0.1,1.7,0.4c0.5,0.3,0.9,0.7,1.2,1.3
			C427.3,75.8,427.5,76.5,427.5,77.3z M422,77.3c0,0.6,0.1,1.1,0.2,1.5s0.4,0.8,0.7,1s0.7,0.3,1.2,0.3c0.5,0,0.9-0.1,1.2-0.3
			c0.3-0.2,0.6-0.6,0.7-1s0.2-0.9,0.2-1.5c0-0.6-0.1-1.1-0.2-1.5c-0.2-0.4-0.4-0.7-0.7-1c-0.3-0.2-0.7-0.3-1.2-0.3
			c-0.8,0-1.3,0.2-1.7,0.7C422.1,75.7,422,76.4,422,77.3z"/>
		<path class="st1" d="M432.7,73.6c0.9,0,1.5,0.2,1.9,0.6c0.4,0.4,0.7,1.1,0.7,2v4.7h-1.1v-4.6c0-0.6-0.1-1.1-0.4-1.4
			c-0.3-0.3-0.7-0.4-1.3-0.4c-0.8,0-1.4,0.2-1.7,0.7c-0.3,0.5-0.5,1.1-0.5,2v3.8h-1.1v-7.2h0.9l0.2,1h0.1c0.2-0.3,0.3-0.5,0.6-0.6
			c0.2-0.2,0.5-0.3,0.8-0.4C432.1,73.6,432.4,73.6,432.7,73.6z"/>
		<path class="st1" d="M442.3,78.9c0,0.5-0.1,0.8-0.3,1.2c-0.2,0.3-0.6,0.6-1,0.7c-0.4,0.2-0.9,0.2-1.5,0.2c-0.5,0-0.9,0-1.3-0.1
			c-0.4-0.1-0.7-0.2-1-0.3v-1c0.3,0.1,0.6,0.3,1.1,0.4c0.4,0.1,0.8,0.2,1.3,0.2c0.6,0,1.1-0.1,1.4-0.3c0.3-0.2,0.4-0.5,0.4-0.8
			c0-0.2-0.1-0.4-0.2-0.5c-0.1-0.2-0.3-0.3-0.6-0.4c-0.3-0.1-0.6-0.3-1.1-0.5c-0.5-0.2-0.9-0.3-1.2-0.5c-0.3-0.2-0.6-0.4-0.8-0.6
			c-0.2-0.3-0.3-0.6-0.3-1c0-0.6,0.2-1.1,0.7-1.4c0.5-0.3,1.1-0.5,1.9-0.5c0.4,0,0.8,0,1.2,0.1c0.4,0.1,0.7,0.2,1.1,0.3l-0.4,0.9
			c-0.3-0.1-0.6-0.2-1-0.3c-0.3-0.1-0.7-0.1-1-0.1c-0.5,0-0.9,0.1-1.2,0.3c-0.3,0.2-0.4,0.4-0.4,0.7c0,0.2,0.1,0.4,0.2,0.6
			c0.1,0.1,0.3,0.3,0.6,0.4c0.3,0.1,0.6,0.3,1.1,0.4c0.5,0.2,0.8,0.3,1.2,0.5c0.3,0.2,0.6,0.4,0.8,0.6
			C442.2,78.2,442.3,78.5,442.3,78.9z"/>
	</g>
	<g>
		<path id="svg_6_00000017516935628809647480000006098258233722123954_" class="st2" d="M69.5,34.1l0.3,25.3c0,0,0.1,14.1,7.4,19.9
			c0,0,7.2,16,33.9,24l3-2l-3.4-93L92.9,19.9c0,0-2.8,1-4.4-1.5c-1.6-2.5-3.6-6.7-3.6-6.7s-3,4.8-1.2,9c0,0,0.3,1.8,0.2,2.3
			C82.2,33.3,69.5,34.1,69.5,34.1z"/>
		<path id="svg_7_00000117676314169768068500000012724671500016810116_" class="st2" d="M152.2,33.7L151.9,59c0,0-0.1,14.1-7.4,19.9
			c0,0-7.2,16.7-33.5,24.4l-3.4-2.4l2.8-92.6l18.2,11.2c0,0,2.8,1,4.4-1.5c1.6-2.5,3.6-6.7,3.6-6.7s3,4.8,1.2,9c0,0,0,3,0,3.5
			C139.7,34.2,152.2,33.7,152.2,33.7L152.2,33.7z"/>
		<polygon id="svg_8_00000081610607062464606590000000229726970045923475_" class="st3" points="98.4,85.8 110.9,94.4 125.2,83.8 		
			"/>
		
			<linearGradient id="svg_10_00000047062171840253333570000012563968821938001586_" gradientUnits="userSpaceOnUse" x1="72.316" y1="63.8238" x2="149.4967" y2="63.8238">
			<stop  offset="0" style="stop-color:#BEEF9E"/>
			<stop  offset="1" style="stop-color:#CFE07A"/>
		</linearGradient>
		
			<path id="svg_10_00000029010028119469889970000012053032405114258837_" style="fill:url(#svg_10_00000047062171840253333570000012563968821938001586_);" d="
			M147.9,37c-2-0.1-3.9-0.6-5.7-1.5c-2.2-1.1-4-2.5-5.2-4.5c-0.6-1.1-0.9-2.3-0.3-3.5c0-0.1,0.1-0.2,0.2-0.2c0.4,0.8,0.6,1.7,1,2.4
			c1.7,3.3,4.6,5,8.4,5.7c0.8,0.1,1.6,0.2,2.4,0.2c0.5,0,0.8,0.2,0.8,0.7c0,0.9,0,1.9,0,2.8c0,5.9,0.1,11.7,0,17.6
			c-0.2,9.6-3.3,18.2-9.9,25.8c-5.4,6.2-12,10.8-19.6,14.4c-2.7,1.2-5.5,2.2-8.2,3.3c-0.5,0.2-1.1,0.2-1.6,0
			c-10.9-3.8-20.5-9.3-28-17.6c-4.8-5.4-7.8-11.5-9.1-18.4c-0.5-2.8-0.8-5.7-0.7-8.6c0-6.3,0-12.7,0-19c0-1,0.1-1,1.1-1.1
			c4.5-0.3,8.1-2,10.3-5.8c0.5-0.8,0.7-1.7,1.1-2.6c0.5,1,0.6,1.9,0.3,2.9c-0.7,1.8-2,3.2-3.7,4.3c-2.2,1.5-4.7,2.4-7.3,2.6
			c-0.1,0-0.2,0-0.2,0.1v0.5c0,6.1,0,12.2,0,18.3c0,5.1,0.9,10.2,2.8,15c2.2,5.6,5.8,10.3,10.3,14.4c6.7,6.1,14.6,10.4,23.4,13.4
			c0.4,0.1,0.8,0.1,1.2,0c4.6-1.4,8.8-3.5,12.9-5.8c5.4-3.1,10.1-6.9,14.1-11.4c4.9-5.6,7.8-11.9,8.9-19c0.4-2.5,0.6-5,0.6-7.5
			c0-5.8,0-11.6,0-17.4L147.9,37L147.9,37z"/>
		
			<linearGradient id="svg_11_00000102528429032158171940000018081989690253168016_" gradientUnits="userSpaceOnUse" x1="85.8131" y1="34.5185" x2="135.9695" y2="34.5185">
			<stop  offset="0" style="stop-color:#FFFFFF"/>
			<stop  offset="1" style="stop-color:#C0C3C4"/>
		</linearGradient>
		
			<path id="svg_11_00000114769313467139941950000003360809399522893986_" style="fill:url(#svg_11_00000102528429032158171940000018081989690253168016_);" d="
			M136,22.5c-0.8,2.1-2.1,3.6-3.9,4.6c-1.9,1.1-4,2-6,2.9c-2.6,1.2-5.3,2.2-7.7,4c-2.2,1.6-4,3.7-5.1,6.3c0,0.1-0.1,0.2-0.1,0.3
			c0,0.1,0,0.2,0,0.2c0.2-0.2,0.3-0.3,0.5-0.5c2.9-4.1,6.9-6.9,11.6-8.8c2.4-0.9,4.8-2,7.3-3c-0.8,0.5-1.5,1-2.3,1.5
			c-1.5,0.8-3.1,1.7-4.6,2.4c-4.5,2.2-8.1,5.3-11.1,9.3c-1.2,1.6-2.4,3.2-3.6,4.9c-0.7-0.9-1.3-1.9-2-2.8c-2.1-3-4.4-5.8-7.3-8.1
			c-2.4-1.8-5-3.1-7.7-4.5c-1.5-0.8-2.9-1.6-4.3-2.4l0.1-0.1c0.1,0,0.1,0,0.2,0c3.2,1.4,6.4,2.8,9.6,4.2c3.4,1.5,6.1,4,8.4,6.9
			c0.2,0.3,0.4,0.5,0.6,0.8c0,0,0.1,0,0.2,0c-0.6-1-1.1-2-1.7-2.9c-1.8-2.8-4.5-4.6-7.5-6c-2.5-1.1-5-2.1-7.4-3.3
			c-2-0.9-3.8-2-5.1-3.8c-0.4-0.5-0.6-1.1-1-1.7l0.1-0.1c0.3,0.3,0.7,0.6,1,0.9c2.4,2,5.3,3.2,8.2,4.3c1.9,0.7,3.7,1.4,5.5,2.2
			c3.8,1.7,6.6,4.5,8.8,8c0.4,0.6,0.7,1.1,1.2,1.8c0.5-0.8,1-1.4,1.5-2.1c2.6-4,6.2-6.8,10.7-8.6c2.4-1,4.9-1.9,7.3-2.9
			c2.1-0.8,3.9-2.1,5.5-3.6C135.7,22.7,135.8,22.6,136,22.5z"/>
		<path id="svg_12_00000016033946166779131320000014224100865915410348_" class="st3" d="M110.7,38.1c-2.1-3.4-4.6-6.3-8.2-8.1
			c-2-1-4-1.8-6.1-2.6c-2.7-1-5.3-2-7.7-3.7c-1.6-1.1-2.8-2.5-3.3-4.5c-0.3-1.3-0.2-2.6,0.1-3.9c0.8,4.2,3.3,6.7,6.8,8.5
			c2.5,1.3,5.2,2,7.8,3c1.3,0.5,2.5,0.7,3.8,0.1c1.7-0.7,1.8-0.6,3.2,0.7c1.2,1.1,2.2,2.3,3.3,3.4c0.2,0.2,0.3,0.4,0.4,0.5
			c0.6-0.7,1.1-1.4,1.7-2c1-1,2-1.9,3.1-2.8c0.2-0.2,0.5-0.2,0.7-0.2c0.8,0.2,1.6,0.4,2.4,0.7c0.4,0.2,0.9,0.2,1.4,0
			c2.3-0.9,4.7-1.6,7-2.6c1.6-0.7,3.2-1.6,4.6-2.6c2.1-1.4,3.3-3.4,4-5.8c0.1-0.2,0.2-0.5,0.3-0.7c0.4,2.5,0.2,4.9-1.7,6.9
			c-1.3,1.4-2.9,2.4-4.6,3.1c-2.1,0.9-4.2,1.8-6.4,2.6c-5.2,1.9-9.4,5.1-12.4,9.7c-0.1,0.1-0.1,0.2-0.2,0.2
			C110.8,38,110.7,38,110.7,38.1L110.7,38.1z"/>
		<path id="svg_13_00000019643742624762082600000000395773420551516301_" class="st3" d="M114.7,46.8c0.6-0.6,1.2-1.2,1.8-1.9
			c1,2.2,2.6,3.8,5.1,4.1c1.7,0.2,3.3-0.3,4.5-1.5c1.7-1.6,2.4-3.5,2.1-5.8c-0.3-2.3-1.7-3.8-3.8-4.9c1.3-0.5,2.5-1,3.8-1.4
			c0.1,0,0.4,0.1,0.6,0.3c1.1,1.3,1.7,2.9,2.1,4.5c0.8,3.8,0.2,7.3-2.7,10c-2.9,2.7-6.4,3.4-10.2,2.3c-1-0.3-1.6-0.6-1.6-1.8
			C116.2,49.2,115.6,48,114.7,46.8z"/>
		<path id="svg_14_00000119088317091280421250000016257238995291892363_" class="st3" d="M97.1,36.7c-3.1,1.7-4.3,4.1-3.6,7.5
			c0.5,2.5,2.7,4.5,5.1,4.8c2.6,0.4,4.5-0.8,6.4-4l1.8,1.9c-1,1.4-1.4,3.1-1.5,4.8c0,0.2-0.1,0.3-0.3,0.4c-3,1.1-6,1.5-9-0.1
			c-3.4-1.8-5.1-4.6-5.5-8.4c-0.3-2.9,0.5-5.6,2.2-8c0.3-0.4,0.5-0.5,1-0.3C94.8,35.8,95.9,36.2,97.1,36.7z"/>
		
			<linearGradient id="svg_17_00000080177675381258517170000010263678978040447660_" gradientUnits="userSpaceOnUse" x1="83.4443" y1="73.5673" x2="93.7616" y2="73.5673">
			<stop  offset="0" style="stop-color:#D7D7D7"/>
			<stop  offset="1" style="stop-color:#FFFFFF"/>
		</linearGradient>
		
			<path id="svg_17_00000054228817850761445840000018437938114190357398_" style="fill:url(#svg_17_00000080177675381258517170000010263678978040447660_);" d="
			M88.2,72c-0.2,2.2-0.4,4.3-0.7,6.5l-0.2,0c-1.3-2-1.7-4.4-1.7-6.8h-0.2c-0.1,0.6-0.3,1.2-0.4,1.8c-0.1,0.7-0.2,1.3-0.2,2
			c-0.1,0.7-0.1,1.3-0.2,2l-0.2,0.1c-0.3-0.9-0.6-1.8-0.7-2.7c-0.2-1.6-0.2-3.2-0.3-4.8c0-0.2,0-0.3,0.1-0.4
			c0.4-0.4,0.9-0.8,1.3-1.2c0.2,0.7,0.5,1.5,0.8,2.3l0.2,0l1.7-2.2l1.2,2.4H89l1.7-2.4l1.3,2.2l1.5-1.7l0.2,0
			c-0.5,3.1-0.4,6.3,0.1,9.3c-1.6-1.8-2.4-3.9-3-6.2c-0.1,2.1,0.1,4.2-0.5,6.3c-1.4-2-1.8-4.3-2-6.6L88.2,72z"/>
		
			<linearGradient id="svg_18_00000049186862122345461560000005101036394279666566_" gradientUnits="userSpaceOnUse" x1="127.4418" y1="72.5597" x2="137.8707" y2="72.5597">
			<stop  offset="0" style="stop-color:#FFFFFF"/>
			<stop  offset="1" style="stop-color:#D7D7D7"/>
		</linearGradient>
		
			<path id="svg_18_00000035493981478651720150000004382031805374551185_" style="fill:url(#svg_18_00000049186862122345461560000005101036394279666566_);" d="
			M133.7,67.7l1.7,2.3c0.7-0.7,0.8-1.6,0.9-2.5c0.8,0.7,1.6,1.2,1.5,2.5c-0.1,2-0.2,4.1-0.9,6c-0.1,0.2-0.2,0.4-0.3,0.8
			c-0.2-2-0.2-3.9-0.8-5.7c-0.2,2.4-0.5,4.6-2,6.7c-0.2-2.1-0.4-4.3-0.7-6.4l-0.2,0c-0.2,2.3-0.7,4.5-2,6.5
			c-0.6-2.1-0.5-4.2-0.5-6.3c-0.5,2.3-1.5,4.5-3,6.3c0.5-3.1,0.8-6.2,0.2-9.3l0.2-0.1l1.4,1.7l1.4-2.3l1.7,2.4
			C133.1,69.5,133.4,68.6,133.7,67.7z"/>
		<path id="svg_19_00000136401801633016218030000009162538013016444047_" class="st8" d="M128,22.2c-0.1,0.1-0.2,0.1-0.3,0.2
			c-0.7,0.8-1.4,0.5-2.1,0c-4.8-2.8-9.5-5.6-14.3-8.5c-0.4-0.2-0.6-0.2-0.9,0c-4.7,2.8-9.5,5.7-14.2,8.5c-1.2,0.7-1.2,0.7-2.4-0.3
			c1.2-0.7,2.3-1.4,3.4-2.1c4.1-2.5,8.2-4.9,12.3-7.4c1-0.6,1.7-0.6,2.7,0c4.9,3,9.8,5.9,14.7,8.8C127.2,21.8,127.6,22,128,22.2z"/>
		
			<linearGradient id="svg_20_00000000203217471041540790000010504345572992762273_" gradientUnits="userSpaceOnUse" x1="86.6259" y1="45.0953" x2="105.49" y2="45.0953">
			<stop  offset="0" style="stop-color:#C0C3C4"/>
			<stop  offset="1" style="stop-color:#FFFFFF"/>
		</linearGradient>
		
			<path id="svg_20_00000015339968307629616130000005352834545961112507_" style="fill:url(#svg_20_00000000203217471041540790000010504345572992762273_);" d="
			M89.9,33c0.3,0.2,0.5,0.3,0.8,0.4c0.1,0.1,0.2,0.2,0.4,0.3c-0.1,0.3-0.3,0.5-0.4,0.7c-2.7,4.3-3.3,8.8-1.5,13.5
			c1.5,4.1,5.8,8.1,12,7.6c1.1-0.1,2.3-0.5,3.4-0.8c0.3-0.1,0.6-0.2,1-0.3c-0.1,0.7-0.2,1.3-0.4,1.8c-0.1,0.1-0.2,0.2-0.3,0.2
			c-4.6,1.2-9,0.9-12.8-2.2c-3.3-2.6-5.1-6.1-5.3-10.3c-0.3-3.8,0.6-7.3,2.7-10.5C89.5,33.4,89.7,33.2,89.9,33z"/>
		
			<linearGradient id="svg_21_00000004518197778843338330000006623776608411467398_" gradientUnits="userSpaceOnUse" x1="116.3648" y1="45.1691" x2="135.0191" y2="45.1691">
			<stop  offset="0" style="stop-color:#FFFFFF"/>
			<stop  offset="1" style="stop-color:#C0C3C4"/>
		</linearGradient>
		
			<path id="svg_21_00000080919127401492226750000010759109296767063206_" style="fill:url(#svg_21_00000004518197778843338330000006623776608411467398_);" d="
			M130.6,33.7c1.2-0.8,1.3-0.8,2,0.4c2.1,3.2,2.7,6.8,2.3,10.6c-0.3,3.2-1.5,6-3.8,8.3c-3.6,3.6-7.9,4.9-12.8,4c-0.1,0-0.1,0-0.2,0
			c-1.5-0.3-1.8-0.7-1.7-2.3c0.2,0.1,0.5,0.1,0.7,0.2c6.5,2.7,14.8-1.4,16.2-9.3c0.7-4,0-7.8-2.3-11.2c-0.1-0.1-0.2-0.3-0.3-0.4
			C130.6,33.9,130.6,33.8,130.6,33.7L130.6,33.7z"/>
		<path id="svg_22_00000150797873266346595990000012954519462693872549_" class="st3" d="M108.2,48.1l2.5,2.3l2.6-2.3
			c1.3,2.5-0.4,7.2-2.6,10C108.4,54.5,107.2,50.7,108.2,48.1z"/>
		<path id="svg_23_00000028285300599219942990000006751464609566235036_" class="st11" d="M129.7,82.6l0.9,1.9l1.6-1.7
			c0.1,0.3,0.2,0.6,0.4,0.8c0.2,0.1,0.6,0,0.9,0c-1.5,2.2-3.5,3.7-5.7,5l-0.1-0.1l1.9-3.1c-1.3,1.2-2.8,2.4-4.4,3.1
			c-0.1,0.1-0.3,0.1-0.4,0.2l2.7-5c0.1,0.2,0.2,0.3,0.4,0.6C127.8,84.3,129.7,82.6,129.7,82.6z"/>
		<path id="svg_24_00000046317068673517610430000011538845699941204904_" class="st3" d="M88,83.5c0.8,0.4,1.3,0.2,1.3-0.8l1.7,1.8
			c0.3-0.7,0.6-1.3,0.9-1.9l1.9,1.7l0.4-0.6l2.7,4.9c-1.9-0.7-3.4-1.9-4.9-3.2l1.9,3.1C92.5,88.2,88.7,85,88,83.5z"/>
		<path id="svg_25_00000095327646708137119040000013123083564914809757_" class="st3" d="M118.8,43.5c1.9,2.6,3.6,3.1,5.4,1.7
			c2-1.6,1.8-3.7-0.4-6.3c1.2-0.3,1.4-0.2,2.1,0.8c1,1.5,1.1,3.2,0.3,4.9c-0.7,1.7-2,2.5-3.8,2.7c-1.6,0.2-3.4-0.9-4-2.4
			c-0.1-0.4,0.1-0.9,0.2-1.3L118.8,43.5L118.8,43.5z"/>
		<path id="svg_26_00000139282288707796705590000007551416266572691373_" class="st11" d="M97.4,38.9c-0.5,0.9-1,1.7-1.3,2.6
			c-0.5,1.7,0.5,3.5,2.1,4.2c1.5,0.6,3.1,0,4.1-1.5c0.1-0.2,0.2-0.3,0.3-0.5c0.7,0.6,0.7,0.8,0.3,1.5c-0.9,1.4-2.1,2.1-3.8,2
			c-1.8-0.1-3.1-1.1-3.9-2.7c-0.8-1.7-0.5-3.4,0.5-5C96.4,38.8,96.6,38.7,97.4,38.9z"/>
		<path id="svg_27_00000080183656604436456140000011272925223720639398_" class="st3" d="M110.8,28.9c-1.1-1.3-1.7-1.2-3-2.8
			c1.7-0.8,4.5-0.7,6.1,0C112.5,27.6,112.2,27.4,110.8,28.9z"/>
		<path id="svg_28_00000008839815659737322190000009879929459112391330_" class="st11" d="M120.5,40.6c0-0.7,0.6-1.3,1.3-1.3
			c0.7,0,1.3,0.6,1.3,1.3c0,0.7-0.6,1.3-1.3,1.3C121,41.9,120.5,41.3,120.5,40.6z"/>
		<path id="svg_29_00000040559737597971031210000017093942857212129961_" class="st11" d="M101,40.6c0,0.8-0.6,1.4-1.3,1.4
			c-0.7,0-1.2-0.6-1.2-1.3c-0.1-0.7,0.4-1.3,1.1-1.4c0.7-0.1,1.3,0.4,1.4,1.1C101,40.4,101,40.5,101,40.6z"/>
		
			<linearGradient id="svg_30_00000063618347700534864100000002932002677129322921_" gradientUnits="userSpaceOnUse" x1="130.0344" y1="81.3914" x2="165.3183" y2="81.3914">
			<stop  offset="0" style="stop-color:#BEEF9E"/>
			<stop  offset="1" style="stop-color:#CFE07A"/>
		</linearGradient>
		
			<path id="svg_30_00000095308659813955447450000015165660432223544253_" style="fill:url(#svg_30_00000063618347700534864100000002932002677129322921_);" d="
			M147.3,98.6c-0.9,0-1.9-0.1-2.8-0.3c-5-1.2-8.6-4.2-10.7-8.9c-0.2-0.5-0.4-1.1-0.4-1.6c-0.5,0.4-1.1,0.7-1.8,0.6
			c-0.2,0-0.3,0-0.5,0l-1-0.1l0.2-1c0.1-0.3,0.1-0.7,0.2-1c0.1-0.6,0.2-1.3,0.3-1.9c0-2.2-0.1-4.4-0.1-6.5l0-0.5
			c0-0.2-0.1-0.5-0.1-0.7c-0.1-0.2-0.1-0.4-0.1-0.7c-0.1-0.6,0.1-1.2,0.4-1.6c0.4-0.4,0.9-0.7,1.5-0.7c0.3,0,0.6,0.1,0.9,0.2
			c0.1,0.1,0.3,0.1,0.4,0.2c1.1-3.8,3.7-6.6,7.8-8.5c1.7-0.8,3.7-1.3,5.6-1.3c1.6,0,3.2,0.3,4.7,0.9c3.1,1.1,5.7,3.3,7.3,6.3
			c1,1.9,1.6,4.1,1.5,6c0.2,0,0.5,0,0.7,0c1.5,0,2.7,0.7,3.6,2c1.1,1.8,1,4-0.3,5.5c-0.9,1-2.2,1.6-3.5,1.6c-0.2,0-0.5,0-0.7,0
			c0,0.1,0,0.2-0.1,0.3c-0.2,1-0.4,2-0.7,3C157.8,94.9,152.8,98.6,147.3,98.6L147.3,98.6z M149.1,85.8c1.3,1.1,1.8,2.6,1.3,4.6
			c-0.1,0.7-0.5,1.4-1,1.9c1.2-0.4,2.3-1.3,3.4-2.7c0.8-1.1,1.1-2.6,0.7-3.8c-0.3-1-1.1-1.6-2.4-2c-0.2,0-0.3-0.1-0.5-0.1
			c0.1,0.5-0.1,1-0.4,1.4C150,85.4,149.6,85.7,149.1,85.8L149.1,85.8z M138.6,82.6c-0.2,0-0.3,0.1-0.5,0.3c-0.9,1.1-0.8,2.3-0.5,3.1
			c0.6,2,2.3,3.2,4,4.3c0.1,0.1,0.2,0.1,0.2,0.2c-0.3-0.5-0.5-1-0.6-1.5c-0.2-1.3,0.6-2.6,2.1-3.2c0.2-0.1,0.4-0.2,0.6-0.3
			c0-0.2,0-0.5-0.1-0.7c-0.1-0.5-0.4-1.2-1.1-1.4C141.3,82.9,140,82.7,138.6,82.6L138.6,82.6z M155.5,81.6c0.3,0.3,0.6,0.6,0.8,0.9
			c0-0.4,0-0.7,0-1.1c0-0.2,0-0.5,0-0.7C156.1,81.1,155.8,81.4,155.5,81.6L155.5,81.6z M160.2,81.8c0.1,0.2,0.2,0.3,0.4,0.4
			c0.2-0.1,0.3-0.3,0.3-0.4c0-0.1,0-0.1-0.1-0.1c-0.1-0.1-0.2-0.1-0.3-0.1h0C160.2,81.6,160.2,81.7,160.2,81.8L160.2,81.8z
			 M149.5,77.3c0.1,0.1,0.3,0.2,0.4,0.3c0.7,0.6,0.9,1.2,0.9,1.7c0.2,0,0.3,0,0.5-0.1c0.8-0.1,1.6-0.5,2.1-1.2
			c0.5-0.6,0.7-1.4,0.5-2.2c-0.3-2-1.9-4.1-4.1-5c0.6,0.7,1,1.6,1.1,2.6C151.1,74.8,150.6,76.3,149.5,77.3
			C149.5,77.3,149.5,77.3,149.5,77.3z M143.1,76.6c0.4,0.3,0.6,0.8,0.6,1.3c0,0.1,0,0.1,0,0.2c0.1-0.1,0.2-0.1,0.2-0.2
			c0.1-0.2,0.2-0.4,0.2-0.7C143.8,77,143.4,76.9,143.1,76.6L143.1,76.6z M141.8,76.1c0.3,0,0.6,0.1,0.9,0.2
			c-0.9-0.8-1.4-1.8-1.1-2.9c0.1-0.6,0.4-1.1,0.8-1.5c-1.3,0.6-2.4,1.4-3.3,2.4c0.1,0,0.2,0,0.3,0h0c0.8,0,1.5,0.5,2,0.9l0.1,0.1
			C141.7,75.5,141.8,75.8,141.8,76.1C141.8,76.1,141.8,76.1,141.8,76.1z"/>
		<path id="svg_31_00000062879291857029560770000014261322488827304611_" class="st2" d="M146.8,65.2c1.5,0,2.9,0.3,4.3,0.8
			c6.5,2.4,8.8,8.8,7.9,12.7c0.6-0.2,1.3-0.3,1.9-0.3c1.1,0,2,0.4,2.7,1.6c0.9,1.5,0.8,3.2-0.2,4.3c-0.7,0.8-1.7,1.2-2.7,1.2
			c-0.5,0-1-0.1-1.5-0.3c-0.3,1.4-0.5,2.9-0.9,4.3c-1.5,4.9-6.1,8.1-11.1,8.1c-0.9,0-1.7-0.1-2.6-0.3c-4.7-1.1-8.1-3.9-10-8.3
			c-0.4-1-0.3-2.2-0.5-3.4c0-0.2,0-0.4,0-0.7c-1,0.8-1,2.5-2.6,2.5c-0.1,0-0.2,0-0.3,0c0.2-1,0.4-2,0.5-3.1c0-2.4-0.1-4.7-0.1-7.1
			c0-0.5-0.2-1-0.3-1.5c-0.1-0.5,0.2-1,0.7-1.1c0.1,0,0.1,0,0.2,0c0.2,0,0.3,0,0.5,0.1c0.5,0.3,1,0.7,1.5,1.1
			c0.8-4.5,3.6-7.5,7.6-9.4C143.3,65.6,145,65.2,146.8,65.2 M147.7,77.3l-0.3-0.9l-0.3,0.3l-0.5,2.4c0.7-0.4,1.2-1.1,1.9-1.1
			c0.3,0,0.6,0.1,0.8,0.4c0.7,0.6,0.7,1.3-0.1,2h0c0.7,0,1.5,0,2.2-0.1c2.3-0.3,3.9-2.3,3.5-4.5c-0.5-3.2-3.6-6.4-7.3-6.4
			c-0.2,0-0.5,0-0.7,0c-0.3,0.1-0.6,0.1-0.9,0.2c2,0.8,3.7,1.6,4,3.9C150.1,75.3,149.3,76.5,147.7,77.3 M139.1,79.9
			c0.2,0,0.5,0,0.7-0.1c-0.5-0.3-0.9-0.4-1.2-0.6c-0.8-0.6-1-1.4-0.8-2.3c0.2-0.8,0.7-1.5,1.6-1.5h0c0.5,0,1,0.4,1.4,0.8
			c0.1,0.1-0.1,0.5-0.1,0.6c-0.4,0-0.7-0.1-1-0.1c-0.1,0-0.2,0-0.3,0.1c-0.2,0.2-0.2,0.8-0.1,1c0.2,0.3,0.7,0.3,1.1,0.4h0
			c0.1,0,0.2-0.2,0.4-0.3l-0.5-0.4c0.4-0.1,0.8-0.3,1.2-0.3c0.1,0,0.2,0,0.3,0c0.2,0,0.4,0,0.5,0.1c0.6,0.6,0.5,1.1-0.5,2.2
			c0.1,0,0.3,0,0.4,0c2.6,0,3.4-1.6,2.9-3.1c-1.6-0.4-2.7-1.6-2.4-2.7c0.2-1,1.3-1.8,2.3-1.8c0.1,0,0.3,0,0.4,0.1
			c0.5,0.1,1.1,0.4,1.3,0.8c0.4,0.7,0.4,1.6,0.6,2.5c0.9-0.1,1.3-2.3,0.7-3.2c-0.8-1-2.1-1.6-3.4-1.7c-0.3,0-0.7,0-1,0.1
			c-2.5,0.6-4.4,2.1-6,4.1c-1.2,1.4-1.1,3.2,0.1,4.6C138,79.6,138.5,79.9,139.1,79.9 M145.3,75.4c0.3-0.5,0.6-0.7,0.6-0.9
			c0.1-0.6-0.3-1.1-0.9-1.1l0,0c-0.2,0-0.7,0.4-0.7,0.5C144.6,74.3,144.9,74.9,145.3,75.4 M156.5,85.7c0.8-0.6,1-1.1,0.9-1.9
			c-0.1-1.4,0-2.8-0.1-4.2c0-0.6-0.2-1.2-0.3-1.7h-0.3c-0.8,1.5-1.2,3.2-3.2,3.7C155.3,82.3,156.1,83.8,156.5,85.7 M145.6,80.5
			l-1.8,0.6l1.7,1.3C145.6,81.7,145.6,81.1,145.6,80.5 M160.6,83.3c0.5,0,1.3-0.8,1.3-1.4c0-0.7-0.6-1.3-1.3-1.4c0,0,0,0,0,0h-0.1
			c-0.8,0-1.4,0.5-1.4,1.2C159.1,82.5,159.9,83.3,160.6,83.3L160.6,83.3 M144.6,92.3c0.2,0,0.5,0,0.7,0c1.2-0.2,2.2-1.1,2.5-2.3
			c0.2-0.8-0.5-2-1.3-2.4c0.1,0.6,0.4,1.2,0.2,1.8c-0.2,1-1.1,1.6-2,1.6c-0.1,0-0.1,0-0.2,0c-1.1-0.1-2-1-2.2-2.2
			c-0.1-0.8,0.4-1.7,1.5-2.1c1.2-0.5,1.4-0.9,1.1-2.2c-0.3-1-0.9-1.9-1.9-2.1c-1.4-0.4-2.8-0.6-4.2-0.7h-0.1c-0.5,0-0.9,0.2-1.3,0.6
			c-1.1,1.2-1.2,2.7-0.7,4.1c0.7,2.3,2.5,3.6,4.4,4.9C142.2,91.8,143.3,92.2,144.6,92.3 M148.6,84.8c-0.5,0-1-0.2-1.4-0.6
			c-0.2-0.2-0.4-0.4-0.8-0.7l0.4,2.6l0.3-0.2c0.4,0.2,1,0.2,1.3,0.5c1.2,0.9,1.3,2.3,1.1,3.7c-0.3,1.4-1.4,2-2.6,2.6
			c-0.4,0.2-0.8,0.3-1.2,0.4c0,0.1,0,0.2,0,0.3c0.7,0.1,1.4,0.2,2.1,0.2h0.1c2.5,0,4.3-1.4,5.7-3.4c1.6-2.2,1.8-6.2-2.2-7.4
			c-0.9-0.2-1.8-0.3-2.7-0.5c0.9,0.9,1.2,1.5,0.7,2C149.2,84.7,148.9,84.8,148.6,84.8 M144.7,89.7c0.3,0,0.8-0.5,0.8-0.8
			c0-0.4-0.4-0.8-0.8-1.4c-0.5,0.5-0.9,0.8-1,1.1C143.5,89.2,144.1,89.6,144.7,89.7L144.7,89.7 M146.8,63.2c-2.1,0-4.2,0.5-6,1.4
			c-2.3,1.1-4.3,2.5-5.7,4.3c-1,1.1-1.7,2.4-2.3,3.8c-0.2-0.1-0.5-0.1-0.7-0.1c-0.9,0-1.7,0.4-2.3,1c-0.6,0.7-0.8,1.6-0.7,2.5
			c0,0.3,0.1,0.5,0.2,0.7c0,0.2,0.1,0.3,0.1,0.5l0,0.5c0.1,2.1,0.1,4.3,0.1,6.5c0,0.6-0.1,1.2-0.2,1.7c-0.1,0.3-0.1,0.7-0.2,1
			l-0.3,2.1l2.1,0.3c0.2,0,0.4,0,0.6,0c0.3,0,0.7,0,1-0.1c0.1,0.2,0.1,0.3,0.2,0.5c2.3,5,6.1,8.2,11.5,9.5c1,0.2,2,0.3,3,0.3
			c6,0,11.4-3.9,13.1-9.6c0.2-0.8,0.4-1.7,0.6-2.5c1.6,0,3.1-0.7,4.1-1.9c1.6-1.9,1.7-4.5,0.4-6.7c-1-1.6-2.4-2.5-4.2-2.5
			c-0.1-1.9-0.7-3.8-1.6-5.5c-1.2-2.2-3.5-5.1-7.9-6.7C150.2,63.5,148.5,63.2,146.8,63.2C146.8,63.2,146.8,63.2,146.8,63.2z
			 M151,77.2c0.7-1,1.1-2.2,1-3.3c0.5,0.6,0.8,1.4,0.9,2.2c0.1,0.5,0,1-0.4,1.4c-0.3,0.3-0.6,0.6-1,0.7
			C151.4,77.8,151.2,77.5,151,77.2C151,77.2,151,77.2,151,77.2z M140.2,88c-0.8-0.7-1.3-1.4-1.6-2.3c-0.4-1.1,0-1.7,0.2-2
			c1.2,0.1,2.4,0.3,3.6,0.6c0.2,0.1,0.3,0.4,0.4,0.5C141.3,85.4,140.4,86.6,140.2,88L140.2,88z M150.8,86c0.1-0.1,0.2-0.2,0.3-0.3
			c0.2-0.2,0.3-0.4,0.4-0.7c0.8,0.4,1,0.9,1.1,1.1c0.3,0.8,0,2-0.6,2.8c-0.1,0.2-0.2,0.3-0.3,0.5C151.7,87.9,151.3,86.8,150.8,86
			L150.8,86L150.8,86z"/>
		<path id="svg_32_00000152259159934022000910000000715608522367726741_" class="st13" d="M129.8,88.3c-0.5,0-0.9-0.3-1.1-0.7
			c-0.1-0.2-0.1-0.3-0.2-0.4c-0.2-0.3-0.3-0.7-0.4-1c-0.1-0.2-0.3-0.8-0.4-0.9c-0.1,0-0.3-0.1-1-0.1c-0.4,0-1,0-1.9,0
			c-3.3,0-9,0.1-12.7,0.2l-1.6,0l0.6-1.4l-0.1-0.1l-1.6,0l0,0.1l0.8,1.5l-1.7,0l-4.5,0.1c-5.4,0.2-10.1,0.3-13,0.3
			c-0.7,0-1.3,0-1.8,0c-5.3-0.2-11.6-0.4-18-0.8c-0.1,0-0.2,0-0.3,0c-0.7,0-0.8,0.1-0.9,0.5c-0.1,0.3-0.3,0.5-0.4,0.7
			c-0.1,0.1-0.1,0.1-0.2,0.2l-0.7,0.9l-6.3-5.4l6.2-5.3l0.7,0.9c0.4,0.5,0.8,0.7,1.8,0.7c0.3,0,0.5,0,0.8,0c0.3,0,0.6,0,0.9,0h0.3
			c1.5,0,3.5,0.1,6.2,0.1c5.5,0,12.8-0.1,20-0.2c7.3-0.1,14.8-0.2,20.4-0.2c3,0,5.2,0,6.8,0.1h0.2c1.2,0,1.7-0.3,2.1-1.2
			c0.4-1.1,1.2-1.2,1.5-1.2c0.5,0,0.9,0.2,1.2,0.5c0.5,0.4,1,0.9,1.2,1.6c0.9,2.9,0.7,5.7-0.5,8.2c-0.3,0.6-0.7,1.1-1.1,1.5
			c-0.1,0.2-0.3,0.3-0.5,0.5C130.5,88.2,130.2,88.3,129.8,88.3L129.8,88.3z"/>
		<path id="svg_33_00000009552342374896304910000000627927962735511217_" class="st2" d="M130.4,76.6c0.2,0,0.4,0.1,0.5,0.3
			c0.4,0.3,0.8,0.7,0.9,1.2c0.8,2.5,0.7,5-0.4,7.4c-0.3,0.6-0.8,1.1-1.4,1.8c0,0-0.1,0.1-0.1,0.1c-0.1,0-0.1,0-0.2-0.1
			c-0.2-0.4-0.4-0.9-0.6-1.3c-0.5-1.5-0.7-1.7-2.3-1.8c-0.4,0-1.1,0-2,0c-3.1,0-8.9,0.1-12.7,0.2c0.1-0.3,0.1-0.5,0-0.8
			c2.2,0,5,0,7.7,0c3,0,5.8,0,7,0.1h0.1c0.5,0,0.9-0.2,1.6-0.3c-0.4-0.4-15.4-0.5-30.2-0.5c-14.3,0-28.4,0.2-29,0.5
			c0.3,0.3,0.5,0.7,1,0.5c3.6,0.1,7.4-0.1,11,0c1.3,0,3-0.1,5,0.1c6.2,0.6,14.3-0.2,22.2-0.3c-0.1,0.3-0.1,0.6,0.1,0.8
			c-7,0.2-13.8,0.4-17.4,0.4c-0.7,0-1.3,0-1.7,0c-6-0.2-12-0.5-18-0.8c-0.1,0-0.2,0-0.3,0c-0.9,0-1.2,0.1-1.9,1.2
			c-0.2,0.3-0.3,0.4-0.5,0.6l-4.5-3.9l4.4-3.8c0.7,0.9,1.6,1.1,2.6,1.1c0.6,0,1.1-0.1,1.7-0.1c0.1,0,0.1,0,0.2,0
			c1.6,0,3.7,0.1,6.3,0.1c11,0,29.2-0.4,40.4-0.4c2.7,0,5,0,6.7,0.1c0.1,0,0.2,0,0.2,0c1.5,0,2.5-0.5,3-1.9
			C130,76.7,130.2,76.6,130.4,76.6 M130.4,74.5L130.4,74.5c-1.1,0-2,0.7-2.5,1.8c-0.2,0.4-0.2,0.6-1.1,0.6h-0.2
			c-1.6-0.1-3.8-0.1-6.8-0.1c-5.6,0-13.1,0.1-20.4,0.2c-7.1,0.1-14.5,0.2-20,0.2c-2.7,0-4.7,0-6.2-0.1h-0.3c-0.3,0-0.6,0-1,0
			c-0.3,0-0.5,0-0.7,0c-0.7,0-0.8-0.1-0.9-0.3L69,75.1l-1.7,1.5L64,79.4l-1.1,0.9l-1.8,1.6l1.8,1.6l1.5,1.2l3.1,2.6l1.7,1.4l1.3-1.7
			c0,0,0.1-0.1,0.1-0.2c0.2-0.2,0.4-0.5,0.6-0.8h0h0.2c6.5,0.3,12.7,0.5,18,0.8c0.5,0,1.1,0,1.8,0c2.9,0,7.6-0.1,13-0.3l4.5-0.1
			l0.4,0v0l3.1-0.1c3.7-0.1,9.4-0.2,12.6-0.2c1.1,0,1.7,0,1.9,0c0.1,0,0.2,0,0.3,0c0,0.1,0.1,0.2,0.1,0.3c0.1,0.4,0.3,0.8,0.5,1.2
			c0.1,0.1,0.1,0.3,0.2,0.4c0.5,1.1,1.9,1.6,3,1.1c0.3-0.1,0.6-0.3,0.8-0.6c0.1-0.2,0.3-0.3,0.4-0.5c0.5-0.5,0.9-1.1,1.3-1.7
			c1.4-2.7,1.6-5.7,0.6-8.9c-0.3-0.9-1-1.6-1.5-2.1C131.8,74.8,131.1,74.5,130.4,74.5L130.4,74.5L130.4,74.5z"/>
		<path id="svg_34_00000010285771362981419060000005258612074676542389_" class="st13" d="M72.6,97.2c-1.2,0-1.9-0.7-2-2V95
			c-0.1-1.2-0.1-1.9,0.4-2.4c0.4-0.5,1-0.5,1.7-0.5c0.2,0,0.5,0,0.7,0c0.1,0,0.2,0,0.3,0l0-0.9c-0.4,0-0.8,0-1.2,0
			c-0.1,0-0.2,0-0.2,0c-0.5,0-0.9-0.2-1.2-0.5c-0.3-0.4-0.5-0.9-0.4-1.4c0,0,0-0.1,0-0.2s0-0.1,0-0.2l-0.1-4.6l16.6-0.2l0.1,6.9
			l-1,0c-0.3,0-0.5,0-0.8,0c-0.4,0-0.9,0-1.3,0h-0.2c0,0.3,0,0.6,0,0.8c0.2,0,0.6,0,0.8,0H85c0.2,0,0.4,0,0.6,0l1.5,0l0,1
			c0,0.2,0,0.5,0,0.7c0,0.6,0,1.2,0,1.8c-0.1,0.7-0.9,1.5-1.6,1.5c-1.3,0.1-2.7,0.1-4,0.1L81,97c-0.9,0-1.9-0.5-2-2
			c0-0.4,0-0.8-0.1-1.2c0-0.9-0.1-1.8-0.1-2.7c0,0,0-0.1,0-0.1h0c-0.1,0-0.1,0-0.2,0v0.4c0,1,0,2,0,2.9c0,2-0.8,2.8-2.7,2.8
			c-0.5,0-1,0-1.5,0c-0.6,0-1.1,0-1.7,0L72.6,97.2L72.6,97.2z"/>
		<path id="svg_35_00000010998995017995085530000013032147992456677810_" class="st2" d="M86.1,85.2c0,1.6,0,3.2,0.1,4.8
			c-0.7,0-1.4,0-2.1,0c-0.2,0-0.4,0-0.5,0h0c-0.4,0-0.6,0.1-0.6,0.6c-0.1,2.1-0.1,2.2,1.8,2.2H85c0.3,0,0.6,0,1.1,0
			c0,0.8,0.1,1.6,0,2.4c0,0.2-0.4,0.6-0.6,0.6c-1.5,0.1-3,0.1-4.4,0.1h0c-0.7,0-0.9-0.4-0.9-1c0-1.3-0.2-2.6-0.1-3.9
			c0-0.8-0.2-1.2-0.8-1.2c-0.1,0-0.3,0-0.4,0C78.4,90,78,90,77.6,90c0,1.4,0.1,2.8,0.1,4.2s-0.3,1.8-1.7,1.8c-1.1,0-2.1,0-3.2,0.1
			h-0.1c-0.6,0-0.9-0.2-1-1c-0.1-2.3-0.2-1.9,1.9-2.1c0.4,0,0.8,0,1.2,0c0-1,0-1.9,0-2.9c-0.8,0-1.5,0-2.3,0h-0.1
			c-0.5,0-0.7-0.3-0.6-0.8c0-0.2,0-0.3,0-0.5c0-1.2,0-2.3-0.1-3.5L86.1,85.2 M88.1,83.1l-2.1,0l-14.5,0.2l-2.1,0l0,2.1l0,0.9
			c0,0.9,0,1.8,0,2.6c0,0.1,0,0.2,0,0.3v0.1c-0.1,1.1,0.4,1.7,0.7,2.1c0.1,0.1,0.2,0.2,0.2,0.2c-0.1,0.1-0.2,0.2-0.3,0.3
			c-0.8,0.8-0.7,1.8-0.7,3.1v0.2c0.1,1.8,1.3,2.9,3,2.9h0.2c0.6,0,1.1,0,1.7,0c0.5,0,1,0,1.5,0c0.9,0,2-0.2,2.8-1l0,0
			c0.6,0.6,1.4,0.9,2.2,0.9H81h0.5c1.3,0,2.7,0,4.1-0.1c1.2-0.1,2.4-1.2,2.5-2.5c0-0.6,0.1-1.3,0-1.9c0-0.2,0-0.4,0-0.7l0-0.8h0.2
			l0-2.1l-0.1-3.4l0-1.5L88.1,83.1C88.1,83.1,88.1,83.1,88.1,83.1z"/>
		<path id="svg_36_00000007419690773692642060000008832512345920843445_" class="st8" d="M140.4,88.9c-1,0-1.9-0.5-2.4-1.3
			c-0.9-1.6-0.4-3.9,1-4.8c0.6-0.4,1.4-0.6,2.1-0.6c1.4,0,2.6,0.6,3.2,1.6c0.4,0.7,0.3,1.7,0.2,2.2c-0.1,0.7-0.9,1.3-1.6,1.4
			c-0.1,0-0.1,0-0.2,0c-0.1,0-0.2,0-0.3,0c0,0.2-0.1,0.3-0.1,0.4C142,88.5,141.3,88.9,140.4,88.9L140.4,88.9z"/>
		<path id="svg_37_00000019679879419619626010000002851230201889342358_" d="M141.1,83.1c0.9,0,1.9,0.4,2.3,1.1
			c0.2,0.4,0.2,1,0.1,1.4c0,0.3-0.4,0.6-0.7,0.6h0c-0.2,0-0.5-0.3-0.6-0.5c-0.2-0.6-0.6-1-1.2-1h-0.1c-0.3,0-0.7,0.2-0.8,0.4
			c-0.1,0.3-0.1,0.7,0,1.1c0,0.1,0.3,0.1,0.5,0.1c0,0,0.1,0,0.1,0c0.3-0.1,0.5-0.2,0.7-0.4c0,0.3,0.2,0.9,0,1.3
			c-0.2,0.4-0.6,0.6-1,0.6c-0.6,0-1.2-0.3-1.5-0.8c-0.6-1.1-0.3-2.9,0.7-3.5C140,83.3,140.6,83.1,141.1,83.1 M141.1,81.1
			c-1,0-1.9,0.3-2.7,0.8c-1.9,1.2-2.5,4.2-1.3,6.2c0.7,1.2,1.9,1.9,3.3,1.9c1.2,0,2.3-0.6,2.8-1.6c1-0.2,2.1-1,2.3-2.2
			c0.1-0.8,0.2-1.9-0.3-2.9C144.5,81.9,142.9,81.1,141.1,81.1z"/>
		<path id="svg_38_00000170989094626614956490000006040298648318869649_" class="st11" d="M108.6,84.4c-8.3,0.2-16.4,0.6-19.2,0.5
			c-6-0.2-11.9-0.6-17.9-0.9"/>
		<path id="svg_39_00000111164903149370057240000008368982255504327868_" class="st2" d="M90.6,85.9c-0.5,0-1,0-1.3,0
			c-4-0.2-8.1-0.4-12-0.6c-2-0.1-4-0.2-6-0.3l0.1-1.9c2,0.1,4,0.1,6,0.2c3.9,0.2,7.9,0.4,11.9,0.6c1.9,0.1,6.2-0.1,11.2-0.2
			c2.5-0.1,5.3-0.2,8-0.2l0.1,2.1c-2.8,0.1-5.6,0.2-8,0.2C96.3,85.8,92.8,85.9,90.6,85.9L90.6,85.9z"/>
		<path id="svg_53_00000100353834562039489990000009027591403581202865_" class="st2" d="M123.4,90l1.4-4.9l1.9,0c0,0,1.6,1.9,2,2.5
			s-1.5,2.2-1.6,2.5C126.9,90.4,123.4,90,123.4,90z"/>
		<g>
			<path class="st3" d="M101.7,75.1c0-0.8,0.2-1.4,0.7-1.7c0.4-0.3,1-0.5,1.6-0.5c0.6,0,1.2,0.2,1.6,0.5c0.4,0.3,0.7,0.9,0.7,1.7
				c0,0.8-0.2,1.4-0.7,1.7s-1,0.5-1.6,0.5c-0.6,0-1.2-0.2-1.6-0.5S101.7,75.9,101.7,75.1z"/>
		</g>
		<g>
			<path class="st3" d="M115,59.8l-0.5,4.8l4.9-1.4l0.4,3.3l-4.4,0.3l2.9,3.9l-3,1.6l-2-4.1l-1.8,4.1l-3.1-1.6l2.9-3.9l-4.4-0.3
				l0.5-3.3l4.8,1.4l-0.5-4.8H115z"/>
		</g>
		<path id="svg_40_00000023969414082894091430000000285229096418137231_" class="st3" d="M106.6,89.2c-0.3,0-0.7-0.2-0.9-0.4
			c-0.7-0.9-1.3-3.5-1.6-5.6c-0.4-3.2-0.1-5.3,0.8-6.2l0,0l0,0c0.4-0.3,0.9-0.4,1.3-0.4c0.4,0,1.2,0.1,1.8,1.1
			c0.5,0.8,0.5,3.4,0.4,5.4c-0.1,1.3-0.3,4.5-0.9,5.5C107.4,89,107,89.2,106.6,89.2L106.6,89.2z"/>
		<path id="svg_41_00000179608020922572417220000015957573095404538510_" class="st2" d="M106.3,77.5c0.3,0,0.7,0.1,1,0.6
			c0.6,1.1,0.2,10.1-0.7,10.1c-0.1,0-0.1,0-0.2-0.1c-1-1.2-2.4-9-0.9-10.4C105.8,77.6,106,77.5,106.3,77.5 M106.3,75.5L106.3,75.5
			c-0.7,0-1.3,0.2-1.9,0.6l-0.1,0.1l-0.1,0.1c-0.7,0.7-1.1,1.8-1.3,3.4c-0.1,1.2,0,2.4,0.2,3.6c0.1,0.8,0.6,4.7,1.8,6.1
			c0.7,0.9,2.1,1.1,3,0.3c0.2-0.2,0.4-0.4,0.6-0.7c0.5-0.9,0.9-2.9,1-6c0.2-4.7-0.3-5.6-0.5-5.9C108.3,76.1,107.4,75.6,106.3,75.5
			C106.3,75.6,106.3,75.5,106.3,75.5z"/>
		<path id="svg_42_00000061457070408032832190000006963602292405530760_" class="st3" d="M102.6,89.2c-0.3,0-0.7-0.2-0.9-0.4
			c-0.7-0.9-1.3-3.5-1.6-5.6c-0.4-3.2-0.1-5.3,0.8-6.2l0,0l0,0c0.4-0.3,0.9-0.4,1.3-0.4c0.4,0,1.2,0.1,1.8,1.1
			c0.5,0.8,0.5,3.4,0.4,5.4c-0.1,1.3-0.3,4.5-0.9,5.5C103.4,89,103,89.2,102.6,89.2z"/>
		<path id="svg_43_00000162314308372724376670000016761804862737955236_" class="st2" d="M102.3,77.5c0.3,0,0.7,0.1,1,0.6
			c0.6,1.1,0.2,10.1-0.7,10.1c-0.1,0-0.1,0-0.2-0.1c-1-1.2-2.4-9-0.9-10.4C101.8,77.6,102.1,77.5,102.3,77.5 M102.3,75.6L102.3,75.6
			c-0.7,0-1.3,0.2-1.9,0.6l-0.1,0.1l-0.1,0.1c-0.7,0.7-1.1,1.8-1.3,3.4c-0.1,1.2,0,2.4,0.2,3.6c0.1,0.8,0.6,4.7,1.8,6.1
			c0.7,0.9,2.1,1.1,3,0.3c0.2-0.2,0.4-0.4,0.6-0.7c0.5-0.9,0.9-2.9,1-6c0.2-4.7-0.3-5.6-0.5-5.9C104.4,76.1,103.4,75.6,102.3,75.6
			L102.3,75.6L102.3,75.6z"/>
		<path id="svg_44_00000078762874302810861840000001796820849408708023_" class="st3" d="M98.6,89.2c-0.3,0-0.7-0.2-0.9-0.4
			c-0.7-0.9-1.3-3.5-1.6-5.6C95.7,80,96,77.9,96.9,77l0,0l0,0c0.4-0.3,0.9-0.4,1.3-0.4c0.4,0,1.2,0.1,1.8,1.1
			c0.5,0.8,0.5,3.4,0.4,5.4c-0.1,1.3-0.3,4.5-0.9,5.5C99.5,89,99.1,89.2,98.6,89.2L98.6,89.2z"/>
		<path id="svg_45_00000129199068412126943390000014886918027918565288_" class="st2" d="M98.4,77.5c0.3,0,0.7,0.1,1,0.6
			c0.6,1.1,0.2,10.1-0.7,10.1c-0.1,0-0.1,0-0.2-0.1c-1-1.2-2.4-9-0.9-10.4C97.8,77.6,98.1,77.5,98.4,77.5 M98.4,75.5L98.4,75.5
			c-0.7,0-1.3,0.2-1.9,0.6l-0.1,0.1l-0.1,0.1c-0.7,0.7-1.1,1.8-1.3,3.4c-0.1,1.2,0,2.4,0.2,3.6c0.1,0.8,0.6,4.7,1.8,6.1
			c0.7,0.9,2.1,1.1,3,0.3c0.2-0.2,0.4-0.4,0.6-0.7c0.5-0.9,0.9-2.9,1-6c0.2-4.7-0.3-5.6-0.5-5.9C100.4,76.1,99.5,75.5,98.4,75.5
			C98.4,75.5,98.4,75.5,98.4,75.5z"/>
		<path id="svg_46_00000105387697453148652370000012316430697772808625_" class="st11" d="M114.9,88.7c-0.4,0-0.9-0.3-1-0.7
			c-0.6-1-0.8-4.2-0.9-5.5c-0.1-2-0.1-4.6,0.4-5.4c0.6-1,1.4-1.1,1.8-1.1c0.5,0,1,0.2,1.3,0.4l0,0l0,0c0.9,0.9,1.2,3,0.8,6.2
			c-0.3,2.1-0.9,4.8-1.6,5.6C115.6,88.6,115.3,88.7,114.9,88.7L114.9,88.7z"/>
		<path id="svg_47_00000033336501650393443420000008529800563652005543_" class="st2" d="M115.2,77c0.3,0,0.5,0.1,0.8,0.3
			c1.5,1.5,0.1,9.3-0.9,10.4c0,0.1-0.1,0.1-0.2,0.1c-0.9,0-1.4-9-0.7-10.1C114.5,77.1,114.9,77,115.2,77 M115.2,75.1
			c-1.1,0-2,0.6-2.6,1.6c-0.2,0.3-0.7,1.3-0.5,5.9c0.1,3.1,0.5,5.1,1,6c0.5,1,1.8,1.4,2.8,0.9c0.3-0.1,0.5-0.3,0.7-0.6
			c1.2-1.4,1.7-5.3,1.8-6.1c0.2-1.2,0.2-2.4,0.2-3.6c-0.1-1.6-0.5-2.7-1.3-3.4l-0.1-0.1l-0.1-0.1C116.6,75.3,115.9,75.1,115.2,75.1
			L115.2,75.1L115.2,75.1z"/>
		<path id="svg_48_00000013891753739763961720000014235702302940715163_" class="st11" d="M118.9,88.7c-0.4,0-0.9-0.3-1-0.7
			c-0.6-1-0.8-4.2-0.9-5.5c-0.1-2-0.1-4.6,0.4-5.4c0.6-1,1.4-1.1,1.8-1.1c0.5,0,0.9,0.2,1.3,0.4l0,0l0,0c0.9,0.9,1.2,3,0.8,6.2
			c-0.3,2.1-0.9,4.8-1.6,5.6C119.6,88.6,119.3,88.7,118.9,88.7z"/>
		<path id="svg_49_00000084529323271052496110000003268910530459812267_" class="st2" d="M119.2,77c0.3,0,0.5,0.1,0.8,0.3
			c1.5,1.5,0.1,9.3-0.9,10.4c0,0.1-0.1,0.1-0.2,0.1c-0.9,0-1.4-9-0.7-10.1C118.5,77.1,118.8,77,119.2,77 M119.2,75.1
			c-1.1,0-2,0.6-2.6,1.6c-0.2,0.3-0.7,1.3-0.5,5.9c0.1,3.1,0.5,5.1,1,6c0.5,1,1.8,1.4,2.8,0.9c0.3-0.1,0.5-0.3,0.7-0.6
			c1.2-1.4,1.7-5.3,1.8-6.1c0.2-1.2,0.2-2.4,0.2-3.6c-0.1-1.6-0.5-2.7-1.3-3.4l-0.1-0.1l-0.1-0.1C120.5,75.3,119.9,75.1,119.2,75.1
			L119.2,75.1L119.2,75.1z"/>
		<path id="svg_50_00000102524682700016480960000011301622472149065914_" class="st3" d="M122.9,88.7c-0.4,0-0.9-0.3-1-0.7
			c-0.6-1-0.8-4.2-0.9-5.5c-0.1-2-0.1-4.6,0.4-5.4c0.6-1,1.4-1.1,1.8-1.1c0.5,0,0.9,0.2,1.3,0.4l0,0l0,0c0.9,0.9,1.2,3,0.8,6.2
			c-0.3,2.1-0.9,4.8-1.6,5.6C123.6,88.6,123.2,88.7,122.9,88.7z"/>
		<path id="svg_51_00000168825278600168827850000010990823030526943873_" class="st2" d="M123.1,77c0.3,0,0.5,0.1,0.8,0.3
			c1.5,1.5,0.1,9.3-0.9,10.4c0,0.1-0.1,0.1-0.2,0.1c-0.9,0-1.4-9-0.7-10.1C122.4,77.1,122.8,77,123.1,77 M123.1,75.1
			c-1.1,0-2,0.6-2.6,1.6c-0.2,0.3-0.7,1.3-0.5,5.9c0.1,3.1,0.5,5.1,1,6c0.5,1,1.8,1.4,2.8,0.9c0.3-0.1,0.5-0.3,0.7-0.6
			c1.2-1.4,1.7-5.3,1.8-6.1c0.2-1.2,0.2-2.4,0.2-3.6c-0.1-1.6-0.5-2.7-1.3-3.4l-0.1-0.1l-0.1-0.1C124.5,75.3,123.8,75.1,123.1,75.1
			L123.1,75.1L123.1,75.1z"/>
		<path class="st2" d="M84.9,50.9"/>
		<linearGradient id="SVGID_1_" gradientUnits="userSpaceOnUse" x1="82.3004" y1="61.0787" x2="98.4391" y2="61.0787">
			<stop  offset="0" style="stop-color:#C0C3C4"/>
			<stop  offset="1" style="stop-color:#FFFFFF"/>
		</linearGradient>
		<path class="st14" d="M98.2,60c-0.8-0.3-3.7-0.9-5.8-2.2c-3-1.8-3-3.1-4.2-2.8c-0.2,0.1-0.4,0.2-0.6,0.3
			c-3.7,2.3-5.7,7.7-5.2,11.9c1.6-2.7,3.1-5.3,4.7-7.8l0.2,0.1C86,61.7,85.5,64,86,66.8c1.4-2.2,2.7-4.3,3.9-6.4l0.2,0.1
			c-1,2.1-1.1,4.2-0.4,6.6c1.4-2.2,2.6-4.2,3.9-6.2c-0.6,2-0.5,4-0.2,6l3.2-4.3c0,0,1.3-1.6,1.8-2.2C98.4,60.1,98.2,60.1,98.2,60z"
			/>
		
			<linearGradient id="SVGID_00000168832975296142239020000011710373413127943808_" gradientUnits="userSpaceOnUse" x1="55.1096" y1="61.1067" x2="71.2483" y2="61.1067" gradientTransform="matrix(-1 0 0 1 194.4075 0)">
			<stop  offset="0" style="stop-color:#C0C3C4"/>
			<stop  offset="1" style="stop-color:#FFFFFF"/>
		</linearGradient>
		<path style="fill:url(#SVGID_00000168832975296142239020000011710373413127943808_);" d="M123.4,60.1c0.8-0.3,3.7-0.9,5.8-2.2
			c3-1.8,3-3.1,4.2-2.8c0.2,0.1,0.4,0.2,0.6,0.3c3.7,2.3,5.7,7.7,5.2,11.9c-1.6-2.7-3.1-5.3-4.7-7.8l-0.2,0.1
			c1.2,2.2,1.7,4.6,1.2,7.3c-1.4-2.2-2.7-4.3-3.9-6.4l-0.2,0.1c1,2.1,1.1,4.2,0.4,6.6c-1.4-2.2-2.6-4.2-3.9-6.2c0.6,2,0.5,4,0.2,6
			l-3.2-4.3c0,0-1.3-1.6-1.8-2.2C123.2,60.2,123.4,60.1,123.4,60.1z"/>
	</g>
</g>
</svg>
