<?xml version="1.0" encoding="utf-8"?>
<!-- Generator: Adobe Illustrator 28.1.0, SVG Export Plug-In . SVG Version: 6.00 Build 0)  -->
<svg version="1.1" id="Awesome_Regex" xmlns="http://www.w3.org/2000/svg" xmlns:xlink="http://www.w3.org/1999/xlink" x="0px"
	 y="0px" viewBox="0 0 605.8 111.6" style="enable-background:new 0 0 605.8 111.6;" xml:space="preserve">
<style type="text/css">
	.st0{fill:url(#svg_59_00000045590408485848121700000006632138112825096331_);}
	.st1{fill:#969696;stroke:#969696;stroke-width:0.12;stroke-miterlimit:10;}
	.st2{fill:#141612;}
	.st3{fill:#F2F2F2;}
	.st4{fill:url(#svg_10_00000072979408522485505690000001533780588385667750_);}
	.st5{fill:url(#svg_11_00000001643774474170627010000006084005946991996597_);}
	.st6{fill:url(#svg_17_00000052819007222581525090000002626434032008642192_);}
	.st7{fill:url(#svg_18_00000098202679647754963840000012774315165432553644_);}
	.st8{fill:#C9F0B4;}
	.st9{fill:url(#svg_20_00000180364179076926448140000003376444610351001748_);}
	.st10{fill:url(#svg_21_00000035526857585427465800000010004510609038745002_);}
	.st11{fill:#FFFFFF;}
	.st12{fill:url(#svg_30_00000066514216550820264880000013122568538198388106_);}
	.st13{fill:#BEEF9E;}
	.st14{fill:url(#SVGID_1_);}
	.st15{fill:url(#SVGID_00000016796377122991915250000015746573725362645126_);}
</style>
<g>
	<g>
		
			<linearGradient id="svg_59_00000075875051730707358090000016111189395175358390_" gradientUnits="userSpaceOnUse" x1="184.2966" y1="49.1922" x2="531.9323" y2="49.1922">
			<stop  offset="0" style="stop-color:#73C673"/>
			<stop  offset="1" style="stop-color:#B7D705"/>
		</linearGradient>
		
			<path id="svg_59_00000111901390419421233100000009142081969592255408_" style="fill:url(#svg_59_00000075875051730707358090000016111189395175358390_);" d="
			M184.3,61.4L200.5,27l2,1l-16.2,34.4C186.3,62.4,184.3,61.4,184.3,61.4z M232.9,60h-5.8V60c0-0.1,0-0.2,0.1-0.3c0-0.1,0-0.3,0-0.4
			l0,0c0-0.4-0.1-0.9-0.2-1.5s-0.4-1.2-0.7-2l0,0l-2.6-5.8c-0.8,0-1.8,0-3.2,0s-2.7,0-4.3,0l0,0c-1.1,0-2.2,0-3.2,0c-1,0-2,0-2.8,0
			l0,0l-2.5,5.6c-0.2,0.5-0.4,1.1-0.7,1.7c-0.2,0.6-0.4,1.3-0.4,1.9l0,0c0,0.2,0,0.3,0,0.5c0,0.1,0.1,0.2,0.1,0.2l0,0V60h-4.3V60
			c0.3-0.3,0.6-0.8,1-1.4c0.4-0.7,0.8-1.6,1.3-2.6l0,0l12.2-27.1h1.7l11.6,26c0.3,0.6,0.6,1.2,0.8,1.8c0.3,0.6,0.6,1.1,0.8,1.5
			c0.3,0.5,0.5,0.8,0.7,1.1C232.7,59.7,232.8,59.9,232.9,60L232.9,60L232.9,60z M211,48.1h2.3c0.8,0,1.7,0,2.5,0c0.9,0,1.7,0,2.5,0
			c0.8,0,1.6,0,2.4,0c0.8,0,1.5,0,2.1,0l0,0l-6-13.5L211,48.1z M248.5,40.2h0.8l5.7,14.3l4.7-11.9c0.1-0.3,0.2-0.5,0.3-0.9
			c0.1-0.3,0.2-0.6,0.3-1c0.1-0.3,0.2-0.7,0.3-1c0.1-0.3,0.1-0.6,0.1-0.8l0,0c0-0.2,0-0.3,0-0.5c0-0.1-0.1-0.2-0.1-0.2l0,0v-0.1h3.8
			v0.1c-0.3,0.3-0.6,0.7-0.9,1.3c-0.4,0.6-0.8,1.5-1.3,2.7l0,0l-7.6,18h-1.2L248,47l-5.5,13.3h-1.2l-7-17c-0.3-0.6-0.5-1.2-0.8-1.8
			c-0.3-0.6-0.6-1.1-0.8-1.5c-0.3-0.5-0.5-0.8-0.7-1.1c-0.2-0.3-0.3-0.5-0.4-0.6l0,0v-0.1h5.7v0.1c0,0.1,0,0.2-0.1,0.3
			c0,0.1,0,0.3,0,0.4l0,0c0,0.4,0.1,0.9,0.2,1.5c0.1,0.5,0.4,1.2,0.7,2l0,0l4.8,12C242.7,54.5,248.5,40.2,248.5,40.2z M277.2,60.4
			L277.2,60.4c-1.6,0-3.1-0.3-4.4-0.8c-1.4-0.5-2.6-1.2-3.6-2.2c-1-1-1.8-2.1-2.4-3.6c-0.6-1.4-0.9-3-0.9-4.8l0,0
			c0-1.6,0.3-3.1,0.8-4.5c0.5-1.4,1.3-2.6,2.2-3.6c1-1,2.1-1.8,3.3-2.4c1.3-0.6,2.7-0.8,4.1-0.8l0,0c1.5,0,2.8,0.3,4.1,0.8
			c1.3,0.5,2.3,1.2,3.2,2.2c0.9,1,1.6,2.1,2.2,3.6c0.5,1.4,0.8,3,0.9,4.8l0,0c-1.6,0-3.2,0-4.8-0.1c-1.6,0-3.3,0-5,0l0,0
			c-1.2,0-2.4,0-3.6,0c-1.2,0-2.2,0-3.2,0.1l0,0c0.1,1.5,0.3,2.8,0.7,4c0.4,1.2,0.9,2.2,1.6,3.1c0.7,0.8,1.5,1.5,2.4,1.9
			c0.9,0.5,2,0.7,3.2,0.7l0,0c0.8,0,1.6-0.1,2.3-0.3c0.7-0.2,1.4-0.5,2-0.8c0.6-0.3,1.1-0.7,1.6-1.2c0.5-0.5,0.9-1,1.2-1.5l0,0
			l0.3,0.1l-1.6,3.8c-0.8,0.4-1.7,0.7-2.7,1C280,60.3,278.7,60.4,277.2,60.4L277.2,60.4z M274.4,47.4L274.4,47.4c1.4,0,2.8,0,4.3,0
			c1.4,0,2.7,0,3.9-0.1l0,0c-0.1-1.2-0.4-2.3-0.7-3.3c-0.4-1-0.8-1.8-1.4-2.5c-0.6-0.7-1.2-1.2-2-1.6c-0.8-0.4-1.6-0.5-2.5-0.5l0,0
			c-0.8,0-1.6,0.2-2.3,0.5c-0.7,0.4-1.3,0.9-1.8,1.6c-0.5,0.7-0.9,1.5-1.2,2.5c-0.3,1-0.5,2.1-0.6,3.4l0,0c0.6,0,1.3,0,2,0
			C272.9,47.4,273.6,47.4,274.4,47.4z M300.7,39l0.2,3.5l-0.3,0c-0.1-0.3-0.3-0.7-0.5-1c-0.2-0.4-0.5-0.7-0.8-1
			c-0.3-0.3-0.8-0.6-1.3-0.8c-0.5-0.2-1.1-0.3-1.7-0.3l0,0c-0.4,0-0.9,0.1-1.2,0.2s-0.7,0.3-1,0.6c-0.3,0.2-0.5,0.6-0.7,0.9
			c-0.2,0.4-0.3,0.8-0.3,1.3l0,0c0,0.7,0.2,1.4,0.6,2c0.4,0.6,1,1.3,1.6,1.9c0.7,0.6,1.4,1.2,2.1,1.9c0.8,0.6,1.5,1.3,2.1,2
			c0.7,0.7,1.2,1.4,1.6,2.2c0.4,0.8,0.6,1.6,0.6,2.5l0,0c0,0.7-0.1,1.4-0.4,2.1s-0.6,1.3-1.2,1.8c-0.5,0.5-1.2,1-2.1,1.3
			c-0.8,0.3-1.8,0.5-3,0.5l0,0c-0.7,0-1.3-0.1-1.9-0.2c-0.6-0.1-1.1-0.3-1.6-0.5c-0.5-0.2-0.9-0.4-1.3-0.6c-0.4-0.2-0.7-0.5-1-0.7
			l0,0l0.2-4h0.3c0.1,0.7,0.4,1.3,0.6,1.8c0.3,0.6,0.6,1,1.1,1.4c0.4,0.4,0.9,0.7,1.4,0.9c0.5,0.2,1.1,0.3,1.8,0.3l0,0
			c1.1,0,1.9-0.3,2.5-0.9s0.9-1.3,0.9-2.3l0,0c0-0.8-0.2-1.4-0.6-2.1c-0.4-0.6-0.9-1.2-1.6-1.8c-0.6-0.6-1.3-1.2-2.1-1.7
			c-0.7-0.6-1.4-1.2-2.1-1.9c-0.6-0.7-1.2-1.4-1.6-2.2c-0.4-0.8-0.6-1.7-0.6-2.7l0,0c0-0.8,0.2-1.6,0.5-2.3c0.3-0.7,0.7-1.3,1.3-1.8
			c0.5-0.5,1.2-0.9,1.9-1.1c0.8-0.3,1.6-0.4,2.5-0.4l0,0c1.2,0,2.2,0.1,2.9,0.4C299.7,38.5,300.3,38.7,300.7,39L300.7,39L300.7,39z
			 M305,49.1L305,49.1c0-1.6,0.3-3.1,0.9-4.5c0.6-1.4,1.4-2.6,2.5-3.6c1-1,2.3-1.8,3.7-2.4c1.4-0.6,2.9-0.8,4.6-0.8l0,0
			c1.6,0,3.1,0.3,4.5,0.8c1.4,0.5,2.6,1.3,3.7,2.3c1.1,1,1.9,2.2,2.5,3.6c0.6,1.4,0.9,3,0.9,4.7l0,0c0,1.5-0.3,2.9-0.8,4.2
			c-0.5,1.3-1.3,2.5-2.3,3.6c-1,1-2.2,1.9-3.7,2.5c-1.4,0.6-3.1,0.9-5,0.9l0,0c-1.6,0-3.1-0.3-4.5-0.8c-1.4-0.5-2.6-1.3-3.7-2.3
			c-1.1-1-1.9-2.2-2.5-3.6C305.3,52.4,305,50.8,305,49.1L305,49.1z M317.1,58.9L317.1,58.9c1,0,1.9-0.2,2.8-0.6s1.6-1,2.2-1.7
			c0.6-0.8,1.1-1.7,1.4-2.7c0.3-1.1,0.5-2.3,0.5-3.7l0,0c0-1.5-0.2-3-0.5-4.3c-0.3-1.3-0.8-2.5-1.5-3.4s-1.5-1.7-2.4-2.2
			c-1-0.5-2.1-0.8-3.4-0.8l0,0c-1,0-1.9,0.2-2.8,0.6c-0.8,0.4-1.6,1-2.2,1.7c-0.6,0.7-1.1,1.6-1.4,2.7c-0.3,1.1-0.5,2.3-0.5,3.7l0,0
			c0,1.5,0.2,3,0.5,4.3c0.3,1.3,0.8,2.5,1.5,3.4c0.7,1,1.5,1.7,2.4,2.3C314.6,58.6,315.8,58.9,317.1,58.9L317.1,58.9z M347.2,51.7
			v-6c0-0.9-0.1-1.7-0.3-2.4c-0.2-0.7-0.5-1.2-0.8-1.7c-0.4-0.4-0.8-0.8-1.3-1c-0.5-0.2-1.1-0.3-1.7-0.3l0,0c-0.4,0-0.9,0.1-1.4,0.3
			c-0.5,0.2-1.1,0.4-1.6,0.7c-0.6,0.3-1.1,0.6-1.7,1c-0.6,0.4-1.1,0.8-1.6,1.2l0,0c0,0.5,0,0.9,0,1.5c0,0.5,0,1.1,0,1.7l0,0v5.2
			c0,1.2,0,2.3,0,3.2c0,0.9,0.1,1.7,0.1,2.3c0.1,0.7,0.1,1.2,0.2,1.6c0.1,0.4,0.1,0.8,0.2,1.1l0,0V60h-4.9V60
			c0.1-0.3,0.2-0.7,0.2-1.1c0.1-0.4,0.1-1,0.2-1.6c0-0.7,0.1-1.4,0.1-2.3c0-0.9,0.1-2,0.1-3.2l0,0v-5.2c0-1.2,0-2.3-0.1-3.2
			c0-0.9-0.1-1.7-0.1-2.3c-0.1-0.7-0.1-1.2-0.2-1.6c-0.1-0.4-0.2-0.8-0.2-1.1l0,0v-0.1h4.9v0.1c-0.1,0.3-0.2,0.7-0.3,1.2
			c-0.1,0.5-0.1,1.1-0.2,1.9l0,0c0.6-0.5,1.2-0.9,1.8-1.3c0.7-0.4,1.3-0.8,2-1.2c0.7-0.3,1.4-0.6,2.1-0.8c0.7-0.2,1.4-0.3,2.1-0.3
			l0,0c0.8,0,1.5,0.1,2.2,0.3c0.6,0.2,1.2,0.5,1.6,0.9c0.5,0.4,0.9,0.8,1.2,1.3c0.3,0.5,0.6,1,0.7,1.6l0,0c0.6-0.5,1.2-1,1.9-1.5
			c0.7-0.5,1.4-0.9,2.1-1.3c0.7-0.4,1.5-0.7,2.2-0.9c0.8-0.2,1.5-0.4,2.2-0.4l0,0c1.1,0,2,0.2,2.8,0.6c0.8,0.4,1.4,0.9,1.9,1.5
			c0.5,0.6,0.8,1.3,1.1,2.1c0.2,0.8,0.3,1.6,0.3,2.4l0,0v7.2c0,1.2,0,2.3,0,3.2s0.1,1.7,0.1,2.3c0.1,0.7,0.1,1.2,0.2,1.6
			c0.1,0.4,0.2,0.8,0.2,1.1l0,0V60h-4.9V60c0.1-0.3,0.2-0.7,0.2-1.1c0.1-0.4,0.1-1,0.2-1.6c0.1-0.7,0.1-1.4,0.1-2.3c0-0.9,0-2,0-3.2
			l0,0v-6c0-1.9-0.4-3.3-1.1-4.1c-0.8-0.9-1.8-1.3-3-1.3l0,0c-0.4,0-0.9,0.1-1.5,0.3c-0.5,0.2-1.1,0.4-1.6,0.7
			c-0.6,0.3-1.1,0.6-1.7,1c-0.6,0.4-1.1,0.8-1.6,1.2l0,0c0,0.2,0,0.3,0,0.5c0,0.2,0,0.3,0,0.5l0,0v7.2c0,1.2,0,2.3,0.1,3.2
			c0,0.9,0.1,1.7,0.1,2.3c0.1,0.7,0.1,1.2,0.2,1.6c0.1,0.4,0.2,0.8,0.2,1.1l0,0V60h-4.9V60c0.1-0.3,0.2-0.7,0.2-1.1
			c0.1-0.4,0.1-1,0.2-1.6c0.1-0.7,0.1-1.4,0.1-2.3C347.2,54,347.2,52.9,347.2,51.7C347.2,51.7,347.2,51.7,347.2,51.7z M381.1,60.4
			L381.1,60.4c-1.6,0-3.1-0.3-4.4-0.8c-1.4-0.5-2.6-1.2-3.6-2.2c-1-1-1.8-2.1-2.4-3.6c-0.6-1.4-0.9-3-0.9-4.8l0,0
			c0-1.6,0.3-3.1,0.8-4.5c0.5-1.4,1.3-2.6,2.2-3.6c1-1,2.1-1.8,3.3-2.4c1.3-0.6,2.7-0.8,4.1-0.8l0,0c1.5,0,2.8,0.3,4.1,0.8
			c1.3,0.5,2.3,1.2,3.3,2.2c0.9,1,1.6,2.1,2.2,3.6c0.5,1.4,0.8,3,0.9,4.8l0,0c-1.6,0-3.2,0-4.8-0.1c-1.6,0-3.3,0-5,0l0,0
			c-1.2,0-2.4,0-3.6,0c-1.2,0-2.2,0-3.2,0.1l0,0c0.1,1.5,0.3,2.8,0.7,4c0.4,1.2,0.9,2.2,1.6,3.1c0.7,0.8,1.5,1.5,2.4,1.9
			c0.9,0.5,2,0.7,3.2,0.7l0,0c0.8,0,1.6-0.1,2.3-0.3c0.7-0.2,1.4-0.5,2-0.8c0.6-0.3,1.1-0.7,1.6-1.2c0.5-0.5,0.9-1,1.2-1.5l0,0
			l0.3,0.1l-1.6,3.8c-0.8,0.4-1.7,0.7-2.7,1C383.9,60.3,382.6,60.4,381.1,60.4L381.1,60.4z M378.3,47.4L378.3,47.4
			c1.4,0,2.9,0,4.3,0s2.7,0,3.9-0.1l0,0c-0.1-1.2-0.4-2.3-0.7-3.3c-0.4-1-0.8-1.8-1.4-2.5c-0.6-0.7-1.2-1.2-2-1.6
			c-0.8-0.4-1.6-0.5-2.5-0.5l0,0c-0.8,0-1.6,0.2-2.3,0.5c-0.7,0.4-1.3,0.9-1.8,1.6c-0.5,0.7-0.9,1.5-1.2,2.5c-0.3,1-0.5,2.1-0.5,3.4
			l0,0c0.6,0,1.3,0,2,0C376.8,47.4,377.5,47.4,378.3,47.4L378.3,47.4z M392.4,61.4L408.6,27l2,1l-16.2,34.4
			C394.3,62.4,392.4,61.4,392.4,61.4z M418.5,46.9v4.8c0,1.2,0,2.3,0.1,3.2c0,0.9,0.1,1.7,0.1,2.3c0,0.7,0.1,1.2,0.2,1.6
			c0.1,0.4,0.2,0.8,0.3,1.1l0,0V60H414V60c0.1-0.3,0.2-0.7,0.2-1.1c0.1-0.4,0.1-1,0.2-1.6c0-0.7,0.1-1.4,0.1-2.3
			c0-0.9,0.1-2,0.1-3.2l0,0V37.8c0-1.2,0-2.3-0.1-3.2c0-0.9-0.1-1.7-0.1-2.3c-0.1-0.7-0.1-1.2-0.2-1.6c-0.1-0.4-0.2-0.8-0.2-1.1l0,0
			v-0.1l0.9,0.1c0.3,0,0.6,0,0.9,0.1c0.3,0,0.7,0,1,0l0,0c0.6,0,1.3-0.1,2.3-0.2c0.9-0.1,2.1-0.2,3.6-0.2l0,0c1.4,0,2.6,0.2,3.8,0.6
			c1.2,0.4,2.2,0.9,3,1.6c0.8,0.7,1.5,1.6,2,2.6s0.7,2.2,0.7,3.5l0,0c0,1-0.1,2-0.4,2.8c-0.3,0.9-0.6,1.7-1.1,2.4
			c-0.5,0.7-1,1.3-1.7,1.9c-0.7,0.5-1.4,1-2.2,1.4l0,0l7.5,10.5c0.4,0.5,0.7,1,1,1.4s0.6,0.7,0.9,1c0.3,0.3,0.6,0.5,0.8,0.7
			c0.3,0.2,0.6,0.3,0.8,0.4l0,0V60h-6.2c0-0.3-0.2-0.6-0.4-1.1c-0.2-0.4-0.5-0.9-0.8-1.3l0,0L422.9,47c-0.3,0-0.7,0.1-1,0.1
			c-0.3,0-0.7,0-1,0l0,0c-0.4,0-0.8,0-1.2,0C419.3,47,418.9,47,418.5,46.9L418.5,46.9L418.5,46.9z M418.5,31.1v14.1
			c0.4,0.1,0.8,0.1,1.2,0.2s0.8,0.1,1.2,0.1l0,0c1.1,0,2-0.2,2.9-0.5c0.9-0.3,1.6-0.8,2.3-1.5s1.1-1.5,1.4-2.4
			c0.3-1,0.5-2.1,0.5-3.4l0,0c0-1.1-0.1-2-0.4-2.9c-0.2-0.9-0.6-1.6-1.1-2.2c-0.5-0.6-1.1-1.1-1.8-1.4c-0.7-0.3-1.6-0.5-2.5-0.5l0,0
			c-1,0-1.8,0-2.3,0.1C419.3,30.9,418.8,31,418.5,31.1L418.5,31.1L418.5,31.1z M449.6,60.4L449.6,60.4c-1.6,0-3.1-0.3-4.4-0.8
			c-1.4-0.5-2.6-1.2-3.6-2.2c-1-1-1.8-2.1-2.4-3.6c-0.6-1.4-0.9-3-0.9-4.8l0,0c0-1.6,0.3-3.1,0.8-4.5c0.5-1.4,1.3-2.6,2.2-3.6
			c0.9-1,2.1-1.8,3.3-2.4c1.3-0.6,2.6-0.8,4.1-0.8l0,0c1.5,0,2.8,0.3,4.1,0.8c1.3,0.5,2.3,1.2,3.3,2.2c0.9,1,1.6,2.1,2.2,3.6
			c0.5,1.4,0.8,3,0.9,4.8l0,0c-1.6,0-3.2,0-4.8-0.1c-1.6,0-3.3,0-5,0l0,0c-1.2,0-2.4,0-3.6,0c-1.2,0-2.2,0-3.2,0.1l0,0
			c0.1,1.5,0.3,2.8,0.7,4c0.4,1.2,0.9,2.2,1.6,3.1c0.7,0.8,1.5,1.5,2.4,1.9c0.9,0.5,2,0.7,3.2,0.7l0,0c0.8,0,1.6-0.1,2.3-0.3
			c0.7-0.2,1.4-0.5,2-0.8c0.6-0.3,1.1-0.7,1.6-1.2c0.5-0.5,0.9-1,1.2-1.5l0,0l0.3,0.1l-1.6,3.8c-0.8,0.4-1.7,0.7-2.7,1
			C452.4,60.3,451.1,60.4,449.6,60.4L449.6,60.4z M446.7,47.4L446.7,47.4c1.4,0,2.8,0,4.3,0s2.7,0,3.9-0.1l0,0
			c-0.1-1.2-0.4-2.3-0.7-3.3c-0.4-1-0.8-1.8-1.4-2.5c-0.6-0.7-1.2-1.2-2-1.6c-0.8-0.4-1.6-0.5-2.5-0.5l0,0c-0.8,0-1.6,0.2-2.3,0.5
			c-0.7,0.4-1.3,0.9-1.8,1.6c-0.5,0.7-0.9,1.5-1.2,2.5c-0.3,1-0.5,2.1-0.5,3.4l0,0c0.6,0,1.3,0,2,0C445.2,47.4,446,47.4,446.7,47.4
			L446.7,47.4z M471.9,69.8L471.9,69.8c1.2,0,2.1-0.1,2.9-0.4c0.8-0.3,1.5-0.6,2-1c0.5-0.4,0.9-1,1.2-1.6c0.3-0.6,0.5-1.3,0.6-2
			c0.1-0.7,0.2-1.5,0.2-2.4s0-1.7,0-2.6l0,0v-0.7c-0.7,0.4-1.5,0.7-2.5,0.9c-1,0.3-2.1,0.4-3.3,0.4l0,0c-1.7,0-3.2-0.3-4.6-0.8
			c-1.4-0.5-2.5-1.3-3.5-2.3c-1-1-1.7-2.2-2.2-3.6c-0.5-1.4-0.8-3-0.8-4.7l0,0c0-1.6,0.3-3.1,0.8-4.5c0.5-1.4,1.2-2.6,2.2-3.6
			c0.9-1,2.1-1.8,3.4-2.4c1.3-0.6,2.8-0.9,4.4-0.9l0,0c0.7,0,1.3,0.1,1.9,0.2c0.6,0.1,1.1,0.3,1.6,0.5c0.5,0.2,1,0.4,1.4,0.7
			c0.4,0.3,0.9,0.5,1.3,0.8l0,0l-0.2-1.6v-0.1h4.7v0.1c-0.1,0.3-0.2,0.7-0.2,1.1c-0.1,0.4-0.1,1-0.2,1.6c0,0.7-0.1,1.4-0.1,2.3
			c0,0.9-0.1,2-0.1,3.2l0,0V61c0,1.3-0.2,2.6-0.5,3.8c-0.3,1.2-0.9,2.3-1.8,3.3c-0.8,1-1.9,1.7-3.3,2.3c-1.4,0.6-3.1,0.9-5.1,0.9
			l0,0c-0.7,0-1.4-0.1-2.1-0.2c-0.7-0.1-1.4-0.3-2.1-0.5c-0.7-0.2-1.2-0.4-1.8-0.6c-0.5-0.2-0.9-0.4-1.3-0.6l0,0l-0.7-4.1l0.3-0.1
			c0.3,0.7,0.8,1.4,1.4,2c0.6,0.6,1.2,1,1.9,1.4c0.7,0.4,1.4,0.7,2.2,0.8C470.6,69.7,471.3,69.8,471.9,69.8L471.9,69.8z M474,58.9
			L474,58.9c1,0,1.9-0.2,2.8-0.5c0.8-0.3,1.5-0.7,2.1-1.2l0,0V46.6c0-0.8,0-1.5,0-2.2c0-0.6,0-1.2,0-1.8l0,0c-0.3-0.5-0.7-1-1.2-1.4
			c-0.4-0.4-0.9-0.7-1.4-1c-0.5-0.3-1-0.5-1.5-0.6c-0.5-0.2-1-0.2-1.6-0.2l0,0c-1.1,0-2.1,0.2-2.9,0.6c-0.9,0.4-1.6,1-2.2,1.7
			c-0.6,0.7-1.1,1.7-1.4,2.7c-0.3,1.1-0.5,2.3-0.5,3.7l0,0c0,1.5,0.2,3,0.5,4.3c0.3,1.3,0.8,2.5,1.5,3.4c0.7,1,1.5,1.7,2.5,2.3
			C471.6,58.6,472.7,58.9,474,58.9L474,58.9z M498.7,60.4L498.7,60.4c-1.6,0-3.1-0.3-4.4-0.8c-1.4-0.5-2.6-1.2-3.6-2.2
			c-1-1-1.8-2.1-2.4-3.6c-0.6-1.4-0.9-3-0.9-4.8l0,0c0-1.6,0.3-3.1,0.8-4.5c0.5-1.4,1.3-2.6,2.2-3.6c0.9-1,2.1-1.8,3.3-2.4
			c1.3-0.6,2.6-0.8,4.1-0.8l0,0c1.5,0,2.8,0.3,4.1,0.8c1.3,0.5,2.3,1.2,3.3,2.2c0.9,1,1.6,2.1,2.2,3.6c0.5,1.4,0.8,3,0.9,4.8l0,0
			c-1.6,0-3.2,0-4.8-0.1c-1.6,0-3.3,0-5,0l0,0c-1.2,0-2.4,0-3.6,0c-1.2,0-2.2,0-3.2,0.1l0,0c0.1,1.5,0.3,2.8,0.7,4
			c0.4,1.2,0.9,2.2,1.6,3.1c0.7,0.8,1.5,1.5,2.4,1.9c0.9,0.5,2,0.7,3.2,0.7l0,0c0.8,0,1.6-0.1,2.3-0.3c0.7-0.2,1.4-0.5,2-0.8
			c0.6-0.3,1.1-0.7,1.6-1.2c0.5-0.5,0.9-1,1.2-1.5l0,0l0.3,0.1l-1.6,3.8c-0.8,0.4-1.7,0.7-2.7,1C501.5,60.3,500.2,60.4,498.7,60.4
			L498.7,60.4z M495.9,47.4L495.9,47.4c1.4,0,2.8,0,4.3,0c1.4,0,2.7,0,3.9-0.1l0,0c-0.1-1.2-0.4-2.3-0.7-3.3c-0.4-1-0.8-1.8-1.4-2.5
			c-0.6-0.7-1.2-1.2-2-1.6c-0.8-0.4-1.6-0.5-2.5-0.5l0,0c-0.8,0-1.6,0.2-2.3,0.5s-1.3,0.9-1.8,1.6c-0.5,0.7-0.9,1.5-1.2,2.5
			c-0.3,1-0.5,2.1-0.5,3.4l0,0c0.6,0,1.3,0,2,0S495.1,47.4,495.9,47.4L495.9,47.4z M524.8,57l-4.6-6.2l-5.1,6.5
			c-0.2,0.2-0.4,0.5-0.6,0.7c-0.2,0.3-0.4,0.5-0.5,0.7c-0.2,0.2-0.3,0.5-0.4,0.7c-0.1,0.2-0.1,0.4-0.1,0.5l0,0H510V60
			c0.2-0.2,0.5-0.5,1-0.9c0.4-0.4,0.8-0.9,1.3-1.5l0,0l6.7-8.5l-6.6-8.9c-0.4-0.5-0.7-0.9-1.1-1.2c-0.4-0.3-0.6-0.6-0.8-0.6l0,0
			v-0.1h5.8c0,0.2,0.1,0.6,0.3,1.1c0.2,0.5,0.5,1.1,1.1,1.9l0,0l3.6,4.9l4.1-5.2c0.2-0.2,0.3-0.5,0.5-0.7c0.2-0.3,0.3-0.5,0.5-0.8
			c0.1-0.3,0.2-0.5,0.3-0.7c0.1-0.2,0.1-0.4,0.1-0.5l0,0h3.6v0.1c-0.2,0.2-0.5,0.4-0.8,0.7c-0.3,0.3-0.7,0.8-1.2,1.4l0,0l-5.9,7.6
			l7.2,9.7c0.5,0.6,0.9,1.2,1.3,1.6c0.4,0.4,0.7,0.7,0.9,0.8l0,0V60h-5.8c0-0.2-0.1-0.6-0.3-1.2C525.7,58.3,525.3,57.7,524.8,57
			L524.8,57L524.8,57z"/>
	</g>
	<g>
		<path class="st1" d="M211.1,71.3v6.2c0,0.7-0.1,1.3-0.4,1.8c-0.3,0.5-0.7,1-1.2,1.3c-0.6,0.3-1.2,0.5-2.1,0.5
			c-1.2,0-2.1-0.3-2.7-1c-0.6-0.6-0.9-1.5-0.9-2.6v-6.2h1.1v6.2c0,0.8,0.2,1.4,0.6,1.9c0.4,0.4,1.1,0.7,1.9,0.7
			c0.6,0,1.1-0.1,1.4-0.3c0.4-0.2,0.7-0.5,0.8-0.9c0.2-0.4,0.3-0.8,0.3-1.3v-6.2H211.1z"/>
		<path class="st1" d="M216.9,73.6c0.9,0,1.5,0.2,1.9,0.6c0.4,0.4,0.7,1.1,0.7,2v4.7h-1.1v-4.6c0-0.6-0.1-1.1-0.4-1.4
			s-0.7-0.4-1.3-0.4c-0.8,0-1.4,0.2-1.7,0.7c-0.3,0.5-0.5,1.1-0.5,2v3.8h-1.1v-7.2h0.9l0.2,1h0.1c0.2-0.3,0.3-0.5,0.6-0.6
			c0.2-0.2,0.5-0.3,0.8-0.4C216.2,73.6,216.5,73.6,216.9,73.6z"/>
		<path class="st1" d="M222.8,80.9h-1.1V70.7h1.1V80.9z"/>
		<path class="st1" d="M231.3,77.3c0,0.6-0.1,1.1-0.2,1.6c-0.2,0.5-0.4,0.9-0.7,1.2c-0.3,0.3-0.6,0.6-1.1,0.7
			c-0.4,0.2-0.9,0.3-1.4,0.3c-0.5,0-0.9-0.1-1.3-0.3c-0.4-0.2-0.7-0.4-1-0.7c-0.3-0.3-0.5-0.7-0.7-1.2s-0.2-1-0.2-1.6
			c0-0.8,0.1-1.5,0.4-2c0.3-0.6,0.7-1,1.1-1.3c0.5-0.3,1.1-0.4,1.8-0.4c0.7,0,1.2,0.1,1.7,0.4c0.5,0.3,0.9,0.7,1.2,1.3
			C231.2,75.8,231.3,76.5,231.3,77.3z M225.8,77.3c0,0.6,0.1,1.1,0.2,1.5c0.2,0.4,0.4,0.8,0.7,1c0.3,0.2,0.7,0.3,1.2,0.3
			c0.5,0,0.9-0.1,1.2-0.3s0.6-0.6,0.7-1c0.2-0.4,0.2-0.9,0.2-1.5c0-0.6-0.1-1.1-0.2-1.5c-0.2-0.4-0.4-0.7-0.7-1
			c-0.3-0.2-0.7-0.3-1.2-0.3c-0.8,0-1.3,0.2-1.7,0.7C226,75.7,225.8,76.4,225.8,77.3z"/>
		<path class="st1" d="M236,81.1c-0.6,0-1.2-0.1-1.7-0.4c-0.5-0.3-0.9-0.7-1.2-1.2c-0.3-0.5-0.4-1.2-0.4-2.1c0-0.9,0.1-1.6,0.4-2.1
			c0.3-0.6,0.7-1,1.2-1.2c0.5-0.3,1.1-0.4,1.8-0.4c0.4,0,0.7,0,1,0.1c0.3,0.1,0.6,0.2,0.8,0.3l-0.3,0.9c-0.2-0.1-0.5-0.2-0.8-0.2
			c-0.3-0.1-0.6-0.1-0.8-0.1c-0.5,0-0.9,0.1-1.2,0.3c-0.3,0.2-0.6,0.5-0.7,0.9c-0.2,0.4-0.2,0.9-0.2,1.5c0,0.6,0.1,1.1,0.2,1.5
			c0.2,0.4,0.4,0.7,0.7,0.9s0.7,0.3,1.2,0.3c0.4,0,0.7,0,1-0.1s0.6-0.2,0.8-0.3v1c-0.2,0.1-0.5,0.2-0.8,0.3
			C236.8,81,236.5,81.1,236,81.1z"/>
		<path class="st1" d="M240.7,70.7V76c0,0.2,0,0.4,0,0.6c0,0.3,0,0.5,0,0.7h0c0.1-0.1,0.2-0.3,0.4-0.5c0.2-0.2,0.3-0.4,0.5-0.5
			l2.4-2.6h1.3l-2.9,3.1l3.1,4.1h-1.3l-2.6-3.4l-0.9,0.8v2.6h-1.1V70.7H240.7z"/>
		<path class="st1" d="M252.5,80.2c0.2,0,0.4,0,0.6,0c0.2,0,0.3-0.1,0.5-0.1v0.9c-0.1,0.1-0.3,0.1-0.5,0.1c-0.2,0-0.4,0.1-0.7,0.1
			c-0.4,0-0.7-0.1-1-0.2c-0.3-0.1-0.6-0.4-0.7-0.7c-0.2-0.3-0.3-0.8-0.3-1.3v-4.3h-1V74l1-0.4l0.4-1.6h0.7v1.7h2.1v0.9h-2.1v4.3
			c0,0.5,0.1,0.8,0.3,1C251.8,80,252.1,80.2,252.5,80.2z"/>
		<path class="st1" d="M256,70.7v3.1c0,0.2,0,0.4,0,0.5c0,0.2,0,0.3,0,0.5h0.1c0.1-0.3,0.3-0.5,0.6-0.6s0.5-0.3,0.8-0.4
			c0.3-0.1,0.6-0.1,0.9-0.1c0.6,0,1.1,0.1,1.5,0.3c0.4,0.2,0.7,0.5,0.9,0.9c0.2,0.4,0.3,0.9,0.3,1.5v4.7h-1.1v-4.6
			c0-0.6-0.1-1.1-0.4-1.4s-0.7-0.4-1.3-0.4c-0.5,0-1,0.1-1.3,0.3c-0.3,0.2-0.5,0.5-0.7,0.9c-0.1,0.4-0.2,0.9-0.2,1.4v3.8h-1.1V70.7
			H256z"/>
		<path class="st1" d="M266,73.6c0.6,0,1.1,0.1,1.6,0.4c0.4,0.3,0.8,0.7,1,1.1c0.2,0.5,0.3,1.1,0.3,1.7v0.7h-5
			c0,0.8,0.2,1.5,0.6,1.9c0.4,0.4,1,0.7,1.7,0.7c0.5,0,0.9,0,1.2-0.1c0.4-0.1,0.7-0.2,1.1-0.4v1c-0.4,0.2-0.7,0.3-1.1,0.4
			c-0.4,0.1-0.8,0.1-1.3,0.1c-0.7,0-1.3-0.1-1.8-0.4s-0.9-0.7-1.2-1.2s-0.4-1.2-0.4-2c0-0.8,0.1-1.5,0.4-2c0.3-0.6,0.6-1,1.1-1.3
			C264.7,73.7,265.3,73.6,266,73.6z M265.9,74.5c-0.6,0-1.1,0.2-1.4,0.6c-0.3,0.4-0.6,0.9-0.6,1.6h3.8c0-0.4-0.1-0.8-0.2-1.1
			c-0.1-0.3-0.3-0.6-0.6-0.8C266.7,74.6,266.4,74.5,265.9,74.5z"/>
		<path class="st1" d="M277.6,73.6c0.9,0,1.6,0.3,2.2,0.9c0.5,0.6,0.8,1.6,0.8,2.8c0,0.8-0.1,1.5-0.4,2.1c-0.2,0.6-0.6,1-1,1.3
			c-0.4,0.3-1,0.4-1.6,0.4c-0.4,0-0.7-0.1-1-0.2c-0.3-0.1-0.5-0.2-0.7-0.4c-0.2-0.2-0.4-0.4-0.5-0.6h-0.1c0,0.2,0,0.4,0,0.6
			c0,0.2,0,0.5,0,0.6v3h-1.1V73.7h0.9l0.1,1.1h0.1c0.1-0.2,0.3-0.4,0.5-0.6c0.2-0.2,0.4-0.3,0.7-0.4
			C276.9,73.6,277.2,73.6,277.6,73.6z M277.4,74.5c-0.5,0-0.9,0.1-1.2,0.3c-0.3,0.2-0.5,0.5-0.7,0.9c-0.1,0.4-0.2,0.9-0.2,1.4v0.2
			c0,0.6,0.1,1.1,0.2,1.5c0.1,0.4,0.4,0.7,0.7,1c0.3,0.2,0.7,0.3,1.2,0.3c0.4,0,0.8-0.1,1.1-0.4c0.3-0.2,0.5-0.6,0.7-1
			c0.1-0.4,0.2-0.9,0.2-1.5c0-0.9-0.2-1.5-0.5-2C278.6,74.7,278.1,74.5,277.4,74.5z"/>
		<path class="st1" d="M288.7,77.3c0,0.6-0.1,1.1-0.2,1.6c-0.2,0.5-0.4,0.9-0.7,1.2c-0.3,0.3-0.6,0.6-1.1,0.7
			c-0.4,0.2-0.9,0.3-1.4,0.3c-0.5,0-0.9-0.1-1.3-0.3c-0.4-0.2-0.7-0.4-1-0.7s-0.5-0.7-0.7-1.2c-0.2-0.5-0.2-1-0.2-1.6
			c0-0.8,0.1-1.5,0.4-2c0.3-0.6,0.7-1,1.1-1.3c0.5-0.3,1.1-0.4,1.8-0.4c0.7,0,1.2,0.1,1.7,0.4c0.5,0.3,0.9,0.7,1.2,1.3
			C288.5,75.8,288.7,76.5,288.7,77.3z M283.2,77.3c0,0.6,0.1,1.1,0.2,1.5c0.2,0.4,0.4,0.8,0.7,1c0.3,0.2,0.7,0.3,1.2,0.3
			c0.5,0,0.9-0.1,1.2-0.3c0.3-0.2,0.6-0.6,0.7-1s0.2-0.9,0.2-1.5c0-0.6-0.1-1.1-0.2-1.5c-0.2-0.4-0.4-0.7-0.7-1
			c-0.3-0.2-0.7-0.3-1.2-0.3c-0.8,0-1.3,0.2-1.7,0.7C283.3,75.7,283.2,76.4,283.2,77.3z"/>
		<path class="st1" d="M296.4,80.9l-1.3-4.2c-0.1-0.2-0.1-0.4-0.2-0.5c-0.1-0.2-0.1-0.3-0.1-0.5c0-0.2-0.1-0.3-0.1-0.4
			s-0.1-0.3-0.1-0.4h0c0,0.1,0,0.2-0.1,0.4c0,0.1-0.1,0.3-0.1,0.5c0,0.2-0.1,0.3-0.1,0.5c0,0.2-0.1,0.4-0.2,0.5l-1.3,4.2h-1.2
			l-2-7.2h1.1l1,4c0.1,0.3,0.1,0.5,0.2,0.8c0.1,0.3,0.1,0.5,0.2,0.7c0,0.2,0.1,0.4,0.1,0.6h0.1c0-0.1,0.1-0.2,0.1-0.4
			c0-0.2,0.1-0.3,0.1-0.5c0-0.2,0.1-0.3,0.1-0.5c0-0.2,0.1-0.3,0.1-0.5l1.3-4.2h1.2l1.3,4.2c0.1,0.2,0.1,0.4,0.2,0.7
			c0.1,0.2,0.1,0.4,0.2,0.7c0.1,0.2,0.1,0.4,0.1,0.6h0.1c0-0.1,0.1-0.3,0.1-0.6c0-0.2,0.1-0.5,0.2-0.7c0.1-0.3,0.1-0.5,0.2-0.8
			l1.1-4h1.1l-2,7.2H296.4z"/>
		<path class="st1" d="M303.7,73.6c0.6,0,1.1,0.1,1.6,0.4c0.4,0.3,0.8,0.7,1,1.1c0.2,0.5,0.3,1.1,0.3,1.7v0.7h-5
			c0,0.8,0.2,1.5,0.6,1.9c0.4,0.4,1,0.7,1.7,0.7c0.5,0,0.9,0,1.2-0.1c0.4-0.1,0.7-0.2,1.1-0.4v1c-0.4,0.2-0.7,0.3-1.1,0.4
			c-0.4,0.1-0.8,0.1-1.3,0.1c-0.7,0-1.3-0.1-1.8-0.4s-0.9-0.7-1.2-1.2s-0.4-1.2-0.4-2c0-0.8,0.1-1.5,0.4-2c0.3-0.6,0.6-1,1.1-1.3
			C302.5,73.7,303.1,73.6,303.7,73.6z M303.7,74.5c-0.6,0-1.1,0.2-1.4,0.6c-0.3,0.4-0.6,0.9-0.6,1.6h3.8c0-0.4-0.1-0.8-0.2-1.1
			c-0.1-0.3-0.3-0.6-0.6-0.8C304.5,74.6,304.1,74.5,303.7,74.5z"/>
		<path class="st1" d="M311.8,73.6c0.1,0,0.3,0,0.5,0c0.2,0,0.3,0,0.4,0.1l-0.1,1c-0.1,0-0.3-0.1-0.4-0.1c-0.1,0-0.3,0-0.4,0
			c-0.3,0-0.6,0.1-0.8,0.2c-0.3,0.1-0.5,0.3-0.7,0.5c-0.2,0.2-0.3,0.5-0.5,0.8c-0.1,0.3-0.2,0.6-0.2,1v3.9h-1.1v-7.2h0.9l0.1,1.3h0
			c0.1-0.3,0.3-0.5,0.5-0.7c0.2-0.2,0.5-0.4,0.7-0.5C311.1,73.6,311.4,73.6,311.8,73.6z"/>
		<path class="st1" d="M323.7,77.3c0,0.6-0.1,1.1-0.2,1.6s-0.4,0.9-0.7,1.2c-0.3,0.3-0.6,0.6-1.1,0.7c-0.4,0.2-0.9,0.3-1.4,0.3
			c-0.5,0-0.9-0.1-1.3-0.3c-0.4-0.2-0.7-0.4-1-0.7s-0.5-0.7-0.7-1.2s-0.2-1-0.2-1.6c0-0.8,0.1-1.5,0.4-2c0.3-0.6,0.7-1,1.1-1.3
			c0.5-0.3,1.1-0.4,1.8-0.4c0.7,0,1.2,0.1,1.7,0.4c0.5,0.3,0.9,0.7,1.2,1.3C323.6,75.8,323.7,76.5,323.7,77.3z M318.2,77.3
			c0,0.6,0.1,1.1,0.2,1.5c0.2,0.4,0.4,0.8,0.7,1s0.7,0.3,1.2,0.3c0.5,0,0.9-0.1,1.2-0.3c0.3-0.2,0.6-0.6,0.7-1
			c0.2-0.4,0.2-0.9,0.2-1.5c0-0.6-0.1-1.1-0.2-1.5c-0.2-0.4-0.4-0.7-0.7-1c-0.3-0.2-0.7-0.3-1.2-0.3c-0.8,0-1.3,0.2-1.7,0.7
			C318.4,75.7,318.2,76.4,318.2,77.3z"/>
		<path class="st1" d="M328.8,74.6H327v6.4h-1.1v-6.4h-1.3V74l1.3-0.4v-0.5c0-0.6,0.1-1.1,0.3-1.5c0.2-0.4,0.4-0.7,0.8-0.8
			c0.3-0.2,0.8-0.3,1.3-0.3c0.3,0,0.5,0,0.8,0.1c0.2,0,0.4,0.1,0.6,0.2l-0.3,0.9c-0.1,0-0.3-0.1-0.5-0.1c-0.2,0-0.4-0.1-0.6-0.1
			c-0.4,0-0.7,0.1-0.9,0.4s-0.3,0.7-0.3,1.3v0.5h1.8V74.6z"/>
		<path class="st1" d="M336.8,73.6c0.1,0,0.3,0,0.5,0c0.2,0,0.3,0,0.4,0.1l-0.1,1c-0.1,0-0.3-0.1-0.4-0.1c-0.1,0-0.3,0-0.4,0
			c-0.3,0-0.6,0.1-0.8,0.2c-0.3,0.1-0.5,0.3-0.7,0.5c-0.2,0.2-0.3,0.5-0.5,0.8c-0.1,0.3-0.2,0.6-0.2,1v3.9h-1.1v-7.2h0.9l0.1,1.3h0
			c0.1-0.3,0.3-0.5,0.5-0.7c0.2-0.2,0.5-0.4,0.7-0.5C336.2,73.6,336.5,73.6,336.8,73.6z"/>
		<path class="st1" d="M341.8,73.6c0.6,0,1.1,0.1,1.6,0.4c0.4,0.3,0.8,0.7,1,1.1c0.2,0.5,0.3,1.1,0.3,1.7v0.7h-5
			c0,0.8,0.2,1.5,0.6,1.9c0.4,0.4,1,0.7,1.7,0.7c0.5,0,0.9,0,1.2-0.1c0.4-0.1,0.7-0.2,1.1-0.4v1c-0.4,0.2-0.7,0.3-1.1,0.4
			c-0.4,0.1-0.8,0.1-1.3,0.1c-0.7,0-1.3-0.1-1.8-0.4c-0.5-0.3-0.9-0.7-1.2-1.2s-0.4-1.2-0.4-2c0-0.8,0.1-1.5,0.4-2
			c0.3-0.6,0.6-1,1.1-1.3C340.6,73.7,341.2,73.6,341.8,73.6z M341.8,74.5c-0.6,0-1.1,0.2-1.4,0.6c-0.3,0.4-0.6,0.9-0.6,1.6h3.8
			c0-0.4-0.1-0.8-0.2-1.1c-0.1-0.3-0.3-0.6-0.6-0.8C342.6,74.6,342.2,74.5,341.8,74.5z"/>
		<path class="st1" d="M348.6,84.2c-0.9,0-1.7-0.2-2.2-0.5c-0.5-0.4-0.8-0.8-0.8-1.5c0-0.5,0.1-0.8,0.4-1.2c0.3-0.3,0.7-0.5,1.2-0.6
			c-0.2-0.1-0.4-0.2-0.5-0.4s-0.2-0.4-0.2-0.6c0-0.3,0.1-0.5,0.2-0.7s0.4-0.4,0.7-0.6c-0.4-0.2-0.7-0.4-0.9-0.8
			c-0.2-0.4-0.4-0.8-0.4-1.3c0-0.5,0.1-1,0.3-1.3c0.2-0.4,0.5-0.6,0.9-0.8c0.4-0.2,0.9-0.3,1.5-0.3c0.1,0,0.3,0,0.4,0
			c0.1,0,0.3,0,0.4,0c0.1,0,0.2,0,0.3,0.1h2.5v0.7l-1.3,0.2c0.1,0.2,0.2,0.4,0.3,0.6c0.1,0.2,0.1,0.5,0.1,0.8c0,0.7-0.2,1.3-0.7,1.7
			c-0.5,0.4-1.2,0.6-2,0.6c-0.2,0-0.4,0-0.6-0.1c-0.2,0.1-0.4,0.3-0.5,0.4c-0.1,0.1-0.2,0.3-0.2,0.5c0,0.1,0,0.3,0.1,0.3
			c0.1,0.1,0.2,0.1,0.4,0.2c0.2,0,0.4,0.1,0.6,0.1h1.3c0.8,0,1.4,0.2,1.8,0.5c0.4,0.3,0.6,0.8,0.6,1.4c0,0.8-0.3,1.4-1,1.8
			C350.8,83.9,349.8,84.2,348.6,84.2z M348.7,83.3c0.6,0,1.1-0.1,1.5-0.2c0.4-0.1,0.7-0.3,0.9-0.5c0.2-0.2,0.3-0.5,0.3-0.8
			c0-0.3-0.1-0.5-0.2-0.7s-0.3-0.2-0.6-0.3s-0.6-0.1-0.9-0.1h-1.3c-0.3,0-0.6,0.1-0.9,0.2s-0.4,0.3-0.6,0.4
			c-0.1,0.2-0.2,0.4-0.2,0.7c0,0.4,0.2,0.7,0.5,0.9C347.6,83.2,348,83.3,348.7,83.3z M348.9,77.5c0.5,0,0.9-0.1,1.2-0.4
			s0.4-0.6,0.4-1.2c0-0.5-0.1-0.9-0.4-1.2c-0.3-0.3-0.7-0.4-1.2-0.4c-0.5,0-0.9,0.1-1.2,0.4s-0.4,0.7-0.4,1.2c0,0.5,0.1,0.9,0.4,1.1
			C348,77.4,348.4,77.5,348.9,77.5z"/>
		<path class="st1" d="M359.9,73.7v7.2H359l-0.2-1h-0.1c-0.1,0.3-0.3,0.5-0.6,0.6c-0.2,0.2-0.5,0.3-0.8,0.4
			c-0.3,0.1-0.6,0.1-0.9,0.1c-0.6,0-1-0.1-1.4-0.3s-0.7-0.5-0.9-0.9c-0.2-0.4-0.3-0.9-0.3-1.5v-4.7h1.1v4.7c0,0.6,0.1,1.1,0.4,1.3
			c0.3,0.3,0.7,0.4,1.2,0.4c0.5,0,1-0.1,1.3-0.3c0.3-0.2,0.5-0.5,0.7-0.9c0.1-0.4,0.2-0.9,0.2-1.4v-3.8H359.9z"/>
		<path class="st1" d="M363.3,80.9h-1.1V70.7h1.1V80.9z"/>
		<path class="st1" d="M368.2,73.6c0.9,0,1.5,0.2,1.9,0.6c0.4,0.4,0.6,1,0.6,1.9v4.9H370l-0.2-1.1h-0.1c-0.2,0.3-0.4,0.5-0.6,0.7
			c-0.2,0.2-0.5,0.3-0.8,0.4c-0.3,0.1-0.6,0.1-1.1,0.1c-0.4,0-0.8-0.1-1.2-0.2c-0.3-0.2-0.6-0.4-0.8-0.7c-0.2-0.3-0.3-0.7-0.3-1.2
			c0-0.7,0.3-1.3,0.9-1.7c0.6-0.4,1.4-0.6,2.6-0.6l1.2-0.1v-0.4c0-0.6-0.1-1.1-0.4-1.3c-0.3-0.3-0.6-0.4-1.1-0.4
			c-0.4,0-0.7,0.1-1.1,0.2c-0.3,0.1-0.7,0.2-1,0.4l-0.3-0.8c0.3-0.2,0.7-0.3,1.1-0.4C367.3,73.6,367.8,73.6,368.2,73.6z M369.7,77.4
			l-1.1,0c-0.9,0-1.5,0.2-1.9,0.4c-0.4,0.3-0.6,0.6-0.6,1.1c0,0.4,0.1,0.7,0.4,0.9c0.3,0.2,0.6,0.3,1,0.3c0.6,0,1.2-0.2,1.6-0.5
			c0.4-0.4,0.6-0.9,0.6-1.6V77.4z"/>
		<path class="st1" d="M376.3,73.6c0.1,0,0.3,0,0.5,0c0.2,0,0.3,0,0.4,0.1l-0.1,1c-0.1,0-0.3-0.1-0.4-0.1c-0.1,0-0.3,0-0.4,0
			c-0.3,0-0.6,0.1-0.8,0.2s-0.5,0.3-0.7,0.5c-0.2,0.2-0.3,0.5-0.5,0.8c-0.1,0.3-0.2,0.6-0.2,1v3.9H373v-7.2h0.9L374,75h0
			c0.1-0.3,0.3-0.5,0.5-0.7c0.2-0.2,0.5-0.4,0.7-0.5C375.6,73.6,375.9,73.6,376.3,73.6z"/>
		<path class="st1" d="M384.8,73.6c0.6,0,1.1,0.1,1.6,0.4c0.4,0.3,0.8,0.7,1,1.1c0.2,0.5,0.3,1.1,0.3,1.7v0.7h-5
			c0,0.8,0.2,1.5,0.6,1.9c0.4,0.4,1,0.7,1.7,0.7c0.5,0,0.9,0,1.2-0.1c0.4-0.1,0.7-0.2,1.1-0.4v1c-0.4,0.2-0.7,0.3-1.1,0.4
			c-0.4,0.1-0.8,0.1-1.3,0.1c-0.7,0-1.3-0.1-1.8-0.4c-0.5-0.3-0.9-0.7-1.2-1.2s-0.4-1.2-0.4-2c0-0.8,0.1-1.5,0.4-2
			c0.3-0.6,0.6-1,1.1-1.3C383.5,73.7,384.1,73.6,384.8,73.6z M384.7,74.5c-0.6,0-1.1,0.2-1.4,0.6c-0.3,0.4-0.6,0.9-0.6,1.6h3.8
			c0-0.4-0.1-0.8-0.2-1.1c-0.1-0.3-0.3-0.6-0.6-0.8C385.5,74.6,385.2,74.5,384.7,74.5z"/>
		<path class="st1" d="M391.2,77.2l-2.5-3.5h1.3l1.9,2.8l1.9-2.8h1.2l-2.5,3.5l2.6,3.7h-1.3l-2-2.9l-2,2.9h-1.2L391.2,77.2z"/>
		<path class="st1" d="M400,73.6c0.9,0,1.6,0.3,2.2,0.9c0.5,0.6,0.8,1.6,0.8,2.8c0,0.8-0.1,1.5-0.4,2.1c-0.2,0.6-0.6,1-1,1.3
			c-0.4,0.3-1,0.4-1.6,0.4c-0.4,0-0.7-0.1-1-0.2c-0.3-0.1-0.5-0.2-0.7-0.4c-0.2-0.2-0.4-0.4-0.5-0.6h-0.1c0,0.2,0,0.4,0,0.6
			c0,0.2,0,0.5,0,0.6v3h-1.1V73.7h0.9l0.1,1.1h0.1c0.1-0.2,0.3-0.4,0.5-0.6s0.4-0.3,0.7-0.4C399.2,73.6,399.6,73.6,400,73.6z
			 M399.8,74.5c-0.5,0-0.9,0.1-1.2,0.3c-0.3,0.2-0.5,0.5-0.7,0.9c-0.1,0.4-0.2,0.9-0.2,1.4v0.2c0,0.6,0.1,1.1,0.2,1.5
			c0.1,0.4,0.4,0.7,0.7,1c0.3,0.2,0.7,0.3,1.2,0.3c0.4,0,0.8-0.1,1.1-0.4c0.3-0.2,0.5-0.6,0.7-1c0.1-0.4,0.2-0.9,0.2-1.5
			c0-0.9-0.2-1.5-0.5-2C401,74.7,400.5,74.5,399.8,74.5z"/>
		<path class="st1" d="M408.1,73.6c0.1,0,0.3,0,0.5,0c0.2,0,0.3,0,0.4,0.1l-0.1,1c-0.1,0-0.3-0.1-0.4-0.1c-0.1,0-0.3,0-0.4,0
			c-0.3,0-0.6,0.1-0.8,0.2s-0.5,0.3-0.7,0.5c-0.2,0.2-0.3,0.5-0.5,0.8c-0.1,0.3-0.2,0.6-0.2,1v3.9h-1.1v-7.2h0.9l0.1,1.3h0
			c0.1-0.3,0.3-0.5,0.5-0.7c0.2-0.2,0.5-0.4,0.7-0.5C407.4,73.6,407.7,73.6,408.1,73.6z"/>
		<path class="st1" d="M413.1,73.6c0.6,0,1.1,0.1,1.6,0.4c0.4,0.3,0.8,0.7,1,1.1c0.2,0.5,0.3,1.1,0.3,1.7v0.7h-5
			c0,0.8,0.2,1.5,0.6,1.9c0.4,0.4,1,0.7,1.7,0.7c0.5,0,0.9,0,1.2-0.1c0.4-0.1,0.7-0.2,1.1-0.4v1c-0.4,0.2-0.7,0.3-1.1,0.4
			c-0.4,0.1-0.8,0.1-1.3,0.1c-0.7,0-1.3-0.1-1.8-0.4c-0.5-0.3-0.9-0.7-1.2-1.2s-0.4-1.2-0.4-2c0-0.8,0.1-1.5,0.4-2
			c0.3-0.6,0.6-1,1.1-1.3C411.9,73.7,412.4,73.6,413.1,73.6z M413.1,74.5c-0.6,0-1.1,0.2-1.4,0.6c-0.3,0.4-0.6,0.9-0.6,1.6h3.8
			c0-0.4-0.1-0.8-0.2-1.1c-0.1-0.3-0.3-0.6-0.6-0.8C413.8,74.6,413.5,74.5,413.1,74.5z"/>
		<path class="st1" d="M422.5,78.9c0,0.5-0.1,0.8-0.3,1.2c-0.2,0.3-0.6,0.6-1,0.7c-0.4,0.2-0.9,0.2-1.5,0.2c-0.5,0-0.9,0-1.3-0.1
			c-0.4-0.1-0.7-0.2-1-0.3v-1c0.3,0.1,0.6,0.3,1.1,0.4c0.4,0.1,0.8,0.2,1.3,0.2c0.6,0,1.1-0.1,1.4-0.3c0.3-0.2,0.4-0.5,0.4-0.8
			c0-0.2-0.1-0.4-0.2-0.5c-0.1-0.2-0.3-0.3-0.6-0.4c-0.3-0.1-0.6-0.3-1.1-0.5c-0.5-0.2-0.9-0.3-1.2-0.5c-0.3-0.2-0.6-0.4-0.8-0.6
			c-0.2-0.3-0.3-0.6-0.3-1c0-0.6,0.2-1.1,0.7-1.4c0.5-0.3,1.1-0.5,1.9-0.5c0.4,0,0.8,0,1.2,0.1c0.4,0.1,0.7,0.2,1.1,0.3l-0.4,0.9
			c-0.3-0.1-0.6-0.2-1-0.3c-0.3-0.1-0.7-0.1-1-0.1c-0.5,0-0.9,0.1-1.2,0.3c-0.3,0.2-0.4,0.4-0.4,0.7c0,0.2,0.1,0.4,0.2,0.6
			c0.1,0.1,0.3,0.3,0.6,0.4c0.3,0.1,0.6,0.3,1.1,0.4c0.5,0.2,0.8,0.3,1.2,0.5c0.3,0.2,0.6,0.4,0.8,0.6
			C422.4,78.2,422.5,78.5,422.5,78.9z"/>
		<path class="st1" d="M428.9,78.9c0,0.5-0.1,0.8-0.3,1.2c-0.2,0.3-0.6,0.6-1,0.7c-0.4,0.2-0.9,0.2-1.5,0.2c-0.5,0-0.9,0-1.3-0.1
			c-0.4-0.1-0.7-0.2-1-0.3v-1c0.3,0.1,0.6,0.3,1.1,0.4c0.4,0.1,0.8,0.2,1.3,0.2c0.6,0,1.1-0.1,1.4-0.3c0.3-0.2,0.4-0.5,0.4-0.8
			c0-0.2-0.1-0.4-0.2-0.5c-0.1-0.2-0.3-0.3-0.6-0.4c-0.3-0.1-0.6-0.3-1.1-0.5c-0.5-0.2-0.9-0.3-1.2-0.5c-0.3-0.2-0.6-0.4-0.8-0.6
			c-0.2-0.3-0.3-0.6-0.3-1c0-0.6,0.2-1.1,0.7-1.4c0.5-0.3,1.1-0.5,1.9-0.5c0.4,0,0.8,0,1.2,0.1c0.4,0.1,0.7,0.2,1.1,0.3l-0.4,0.9
			c-0.3-0.1-0.6-0.2-1-0.3c-0.3-0.1-0.7-0.1-1-0.1c-0.5,0-0.9,0.1-1.2,0.3c-0.3,0.2-0.4,0.4-0.4,0.7c0,0.2,0.1,0.4,0.2,0.6
			c0.1,0.1,0.3,0.3,0.6,0.4c0.3,0.1,0.6,0.3,1.1,0.4c0.5,0.2,0.8,0.3,1.2,0.5c0.3,0.2,0.6,0.4,0.8,0.6
			C428.8,78.2,428.9,78.5,428.9,78.9z"/>
		<path class="st1" d="M431.2,71c0.2,0,0.3,0.1,0.5,0.2c0.1,0.1,0.2,0.3,0.2,0.5c0,0.2-0.1,0.4-0.2,0.5c-0.1,0.1-0.3,0.2-0.5,0.2
			c-0.2,0-0.3-0.1-0.5-0.2c-0.1-0.1-0.2-0.3-0.2-0.5c0-0.2,0.1-0.4,0.2-0.5C430.9,71.1,431,71,431.2,71z M431.7,73.7v7.2h-1.1v-7.2
			H431.7z"/>
		<path class="st1" d="M440.3,77.3c0,0.6-0.1,1.1-0.2,1.6s-0.4,0.9-0.7,1.2c-0.3,0.3-0.6,0.6-1.1,0.7c-0.4,0.2-0.9,0.3-1.4,0.3
			c-0.5,0-0.9-0.1-1.3-0.3c-0.4-0.2-0.7-0.4-1-0.7s-0.5-0.7-0.7-1.2s-0.2-1-0.2-1.6c0-0.8,0.1-1.5,0.4-2c0.3-0.6,0.7-1,1.1-1.3
			c0.5-0.3,1.1-0.4,1.8-0.4c0.7,0,1.2,0.1,1.7,0.4c0.5,0.3,0.9,0.7,1.2,1.3C440.1,75.8,440.3,76.5,440.3,77.3z M434.8,77.3
			c0,0.6,0.1,1.1,0.2,1.5s0.4,0.8,0.7,1c0.3,0.2,0.7,0.3,1.2,0.3c0.5,0,0.9-0.1,1.2-0.3c0.3-0.2,0.6-0.6,0.7-1
			c0.2-0.4,0.2-0.9,0.2-1.5c0-0.6-0.1-1.1-0.2-1.5c-0.2-0.4-0.4-0.7-0.7-1c-0.3-0.2-0.7-0.3-1.2-0.3c-0.8,0-1.3,0.2-1.7,0.7
			C434.9,75.7,434.8,76.4,434.8,77.3z"/>
		<path class="st1" d="M445.5,73.6c0.9,0,1.5,0.2,1.9,0.6c0.4,0.4,0.7,1.1,0.7,2v4.7h-1.1v-4.6c0-0.6-0.1-1.1-0.4-1.4
			c-0.3-0.3-0.7-0.4-1.3-0.4c-0.8,0-1.4,0.2-1.7,0.7c-0.3,0.5-0.5,1.1-0.5,2v3.8h-1.1v-7.2h0.9l0.2,1h0.1c0.2-0.3,0.3-0.5,0.6-0.6
			c0.2-0.2,0.5-0.3,0.8-0.4C444.9,73.6,445.2,73.6,445.5,73.6z"/>
		<path class="st1" d="M455,78.9c0,0.5-0.1,0.8-0.3,1.2c-0.2,0.3-0.6,0.6-1,0.7c-0.4,0.2-0.9,0.2-1.5,0.2c-0.5,0-0.9,0-1.3-0.1
			c-0.4-0.1-0.7-0.2-1-0.3v-1c0.3,0.1,0.6,0.3,1.1,0.4c0.4,0.1,0.8,0.2,1.3,0.2c0.6,0,1.1-0.1,1.4-0.3c0.3-0.2,0.4-0.5,0.4-0.8
			c0-0.2-0.1-0.4-0.2-0.5c-0.1-0.2-0.3-0.3-0.6-0.4c-0.3-0.1-0.6-0.3-1.1-0.5c-0.5-0.2-0.9-0.3-1.2-0.5c-0.3-0.2-0.6-0.4-0.8-0.6
			c-0.2-0.3-0.3-0.6-0.3-1c0-0.6,0.2-1.1,0.7-1.4c0.5-0.3,1.1-0.5,1.9-0.5c0.4,0,0.8,0,1.2,0.1c0.4,0.1,0.7,0.2,1.1,0.3l-0.4,0.9
			c-0.3-0.1-0.6-0.2-1-0.3c-0.3-0.1-0.7-0.1-1-0.1c-0.5,0-0.9,0.1-1.2,0.3c-0.3,0.2-0.4,0.4-0.4,0.7c0,0.2,0.1,0.4,0.2,0.6
			c0.1,0.1,0.3,0.3,0.6,0.4c0.3,0.1,0.6,0.3,1.1,0.4c0.5,0.2,0.8,0.3,1.2,0.5c0.3,0.2,0.6,0.4,0.8,0.6C455,78.2,455,78.5,455,78.9z"
			/>
	</g>
	<g>
		<path id="svg_6_00000017516935628809647480000006098258233722123954_" class="st2" d="M82.2,34.1l0.3,25.3c0,0,0.1,14.1,7.4,19.9
			c0,0,7.2,16,33.9,24l3-2l-3.4-93l-17.7,11.7c0,0-2.8,1-4.4-1.5c-1.6-2.5-3.6-6.7-3.6-6.7s-3,4.8-1.2,9c0,0,0.3,1.8,0.2,2.3
			C95,33.3,82.2,34.1,82.2,34.1z"/>
		<path id="svg_7_00000117676314169768068500000012724671500016810116_" class="st2" d="M165,33.7L164.7,59c0,0-0.1,14.1-7.4,19.9
			c0,0-7.2,16.7-33.5,24.4l-3.4-2.4l2.8-92.6l18.2,11.2c0,0,2.8,1,4.4-1.5s3.6-6.7,3.6-6.7s3,4.8,1.2,9c0,0,0,3,0,3.5
			C152.5,34.2,165,33.7,165,33.7L165,33.7z"/>
		<polygon id="svg_8_00000081610607062464606590000000229726970045923475_" class="st3" points="111.2,85.8 123.7,94.4 138,83.8 		
			"/>
		
			<linearGradient id="svg_10_00000111911826452279484800000010321423314661323178_" gradientUnits="userSpaceOnUse" x1="85.1055" y1="63.8238" x2="162.2862" y2="63.8238">
			<stop  offset="0" style="stop-color:#BEEF9E"/>
			<stop  offset="1" style="stop-color:#CFE07A"/>
		</linearGradient>
		
			<path id="svg_10_00000029010028119469889970000012053032405114258837_" style="fill:url(#svg_10_00000111911826452279484800000010321423314661323178_);" d="
			M160.7,37c-2-0.1-3.9-0.6-5.7-1.5c-2.2-1.1-4-2.5-5.2-4.5c-0.6-1.1-0.9-2.3-0.3-3.5c0-0.1,0.1-0.2,0.2-0.2c0.4,0.8,0.6,1.7,1,2.4
			c1.7,3.3,4.6,5,8.4,5.7c0.8,0.1,1.6,0.2,2.4,0.2c0.5,0,0.8,0.2,0.8,0.7c0,0.9,0,1.9,0,2.8c0,5.9,0.1,11.7,0,17.6
			c-0.2,9.6-3.3,18.2-9.9,25.8c-5.4,6.2-12,10.8-19.6,14.4c-2.7,1.2-5.5,2.2-8.2,3.3c-0.5,0.2-1.1,0.2-1.6,0
			c-10.9-3.8-20.5-9.3-28-17.6c-4.8-5.4-7.8-11.5-9.1-18.4c-0.5-2.8-0.8-5.7-0.7-8.6c0-6.3,0-12.7,0-19c0-1,0.1-1,1.1-1.1
			c4.5-0.3,8.1-2,10.3-5.8c0.5-0.8,0.7-1.7,1.1-2.6c0.5,1,0.6,1.9,0.3,2.9c-0.7,1.8-2,3.2-3.7,4.3c-2.2,1.5-4.7,2.4-7.3,2.6
			c-0.1,0-0.2,0-0.2,0.1v0.5c0,6.1,0,12.2,0,18.3c0,5.1,0.9,10.2,2.8,15c2.2,5.6,5.8,10.3,10.3,14.4c6.7,6.1,14.6,10.4,23.4,13.4
			c0.4,0.1,0.8,0.1,1.2,0c4.6-1.4,8.8-3.5,12.9-5.8c5.4-3.1,10.1-6.9,14.1-11.4c4.9-5.6,7.8-11.9,8.9-19c0.4-2.5,0.6-5,0.6-7.5
			c0-5.8,0-11.6,0-17.4L160.7,37L160.7,37z"/>
		
			<linearGradient id="svg_11_00000077284182816652722520000012423386254503402396_" gradientUnits="userSpaceOnUse" x1="98.6026" y1="34.5185" x2="148.7589" y2="34.5185">
			<stop  offset="0" style="stop-color:#FFFFFF"/>
			<stop  offset="1" style="stop-color:#C0C3C4"/>
		</linearGradient>
		
			<path id="svg_11_00000114769313467139941950000003360809399522893986_" style="fill:url(#svg_11_00000077284182816652722520000012423386254503402396_);" d="
			M148.8,22.5c-0.8,2.1-2.1,3.6-3.9,4.6c-1.9,1.1-4,2-6,2.9c-2.6,1.2-5.3,2.2-7.7,4c-2.2,1.6-4,3.7-5.1,6.3c0,0.1-0.1,0.2-0.1,0.3
			c0,0.1,0,0.2,0,0.2c0.2-0.2,0.3-0.3,0.5-0.5c2.9-4.1,6.9-6.9,11.6-8.8c2.4-0.9,4.8-2,7.3-3c-0.8,0.5-1.5,1-2.3,1.5
			c-1.5,0.8-3.1,1.7-4.6,2.4c-4.5,2.2-8.1,5.3-11.1,9.3c-1.2,1.6-2.4,3.2-3.6,4.9c-0.7-0.9-1.3-1.9-2-2.8c-2.1-3-4.4-5.8-7.3-8.1
			c-2.4-1.8-5-3.1-7.7-4.5c-1.5-0.8-2.9-1.6-4.3-2.4l0.1-0.1c0.1,0,0.1,0,0.2,0c3.2,1.4,6.4,2.8,9.6,4.2c3.4,1.5,6.1,4,8.4,6.9
			c0.2,0.3,0.4,0.5,0.6,0.8c0,0,0.1,0,0.2,0c-0.6-1-1.1-2-1.7-2.9c-1.8-2.8-4.5-4.6-7.5-6c-2.5-1.1-5-2.1-7.4-3.3
			c-2-0.9-3.8-2-5.1-3.8c-0.4-0.5-0.6-1.1-1-1.7l0.1-0.1c0.3,0.3,0.7,0.6,1,0.9c2.4,2,5.3,3.2,8.2,4.3c1.9,0.7,3.7,1.4,5.5,2.2
			c3.8,1.7,6.6,4.5,8.8,8c0.4,0.6,0.7,1.1,1.2,1.8c0.5-0.8,1-1.4,1.5-2.1c2.6-4,6.2-6.8,10.7-8.6c2.4-1,4.9-1.9,7.3-2.9
			c2.1-0.8,3.9-2.1,5.5-3.6C148.5,22.7,148.6,22.6,148.8,22.5z"/>
		<path id="svg_12_00000016033946166779131320000014224100865915410348_" class="st3" d="M123.5,38.1c-2.1-3.4-4.6-6.3-8.2-8.1
			c-2-1-4-1.8-6.1-2.6c-2.7-1-5.3-2-7.7-3.7c-1.6-1.1-2.8-2.5-3.3-4.5c-0.3-1.3-0.2-2.6,0.1-3.9c0.8,4.2,3.3,6.7,6.8,8.5
			c2.5,1.3,5.2,2,7.8,3c1.3,0.5,2.5,0.7,3.8,0.1c1.7-0.7,1.8-0.6,3.2,0.7c1.2,1.1,2.2,2.3,3.3,3.4c0.2,0.2,0.3,0.4,0.4,0.5
			c0.6-0.7,1.1-1.4,1.7-2c1-1,2-1.9,3.1-2.8c0.2-0.2,0.5-0.2,0.7-0.2c0.8,0.2,1.6,0.4,2.4,0.7c0.4,0.2,0.9,0.2,1.4,0
			c2.3-0.9,4.7-1.6,7-2.6c1.6-0.7,3.2-1.6,4.6-2.6c2.1-1.4,3.3-3.4,4-5.8c0.1-0.2,0.2-0.5,0.3-0.7c0.4,2.5,0.2,4.9-1.7,6.9
			c-1.3,1.4-2.9,2.4-4.6,3.1c-2.1,0.9-4.2,1.8-6.4,2.6c-5.2,1.9-9.4,5.1-12.4,9.7c-0.1,0.1-0.1,0.2-0.2,0.2
			C123.6,38,123.5,38,123.5,38.1L123.5,38.1z"/>
		<path id="svg_13_00000019643742624762082600000000395773420551516301_" class="st3" d="M127.5,46.8c0.6-0.6,1.2-1.2,1.8-1.9
			c1,2.2,2.6,3.8,5.1,4.1c1.7,0.2,3.3-0.3,4.5-1.5c1.7-1.6,2.4-3.5,2.1-5.8c-0.3-2.3-1.7-3.8-3.8-4.9c1.3-0.5,2.5-1,3.8-1.4
			c0.1,0,0.4,0.1,0.6,0.3c1.1,1.3,1.7,2.9,2.1,4.5c0.8,3.8,0.2,7.3-2.7,10c-2.9,2.7-6.4,3.4-10.2,2.3c-1-0.3-1.6-0.6-1.6-1.8
			C129,49.2,128.3,48,127.5,46.8z"/>
		<path id="svg_14_00000119088317091280421250000016257238995291892363_" class="st3" d="M109.9,36.7c-3.1,1.7-4.3,4.1-3.6,7.5
			c0.5,2.5,2.7,4.5,5.1,4.8c2.6,0.4,4.5-0.8,6.4-4l1.8,1.9c-1,1.4-1.4,3.1-1.5,4.8c0,0.2-0.1,0.3-0.3,0.4c-3,1.1-6,1.5-9-0.1
			c-3.4-1.8-5.1-4.6-5.5-8.4c-0.3-2.9,0.5-5.6,2.2-8c0.3-0.4,0.5-0.5,1-0.3C107.5,35.8,108.7,36.2,109.9,36.7z"/>
		
			<linearGradient id="svg_17_00000109017500844753264240000011555132230855878315_" gradientUnits="userSpaceOnUse" x1="96.2338" y1="73.5673" x2="106.551" y2="73.5673">
			<stop  offset="0" style="stop-color:#D7D7D7"/>
			<stop  offset="1" style="stop-color:#FFFFFF"/>
		</linearGradient>
		
			<path id="svg_17_00000054228817850761445840000018437938114190357398_" style="fill:url(#svg_17_00000109017500844753264240000011555132230855878315_);" d="
			M101,72c-0.2,2.2-0.4,4.3-0.7,6.5l-0.2,0c-1.3-2-1.7-4.4-1.7-6.8h-0.2c-0.1,0.6-0.3,1.2-0.4,1.8c-0.1,0.7-0.2,1.3-0.2,2
			c-0.1,0.7-0.1,1.3-0.2,2l-0.2,0.1c-0.3-0.9-0.6-1.8-0.7-2.7c-0.2-1.6-0.2-3.2-0.3-4.8c0-0.2,0-0.3,0.1-0.4
			c0.4-0.4,0.9-0.8,1.3-1.2c0.2,0.7,0.5,1.5,0.8,2.3l0.2,0l1.7-2.2l1.2,2.4h0.3l1.7-2.4l1.3,2.2l1.5-1.7l0.2,0
			c-0.5,3.1-0.4,6.3,0.1,9.3c-1.6-1.8-2.4-3.9-3-6.2c-0.1,2.1,0.1,4.2-0.5,6.3c-1.4-2-1.8-4.3-2-6.6L101,72z"/>
		
			<linearGradient id="svg_18_00000158709808120343974560000008334642658134886784_" gradientUnits="userSpaceOnUse" x1="140.2313" y1="72.5597" x2="150.6602" y2="72.5597">
			<stop  offset="0" style="stop-color:#FFFFFF"/>
			<stop  offset="1" style="stop-color:#D7D7D7"/>
		</linearGradient>
		
			<path id="svg_18_00000035493981478651720150000004382031805374551185_" style="fill:url(#svg_18_00000158709808120343974560000008334642658134886784_);" d="
			M146.5,67.7l1.7,2.3c0.7-0.7,0.8-1.6,0.9-2.5c0.8,0.7,1.6,1.2,1.5,2.5c-0.1,2-0.2,4.1-0.9,6c-0.1,0.2-0.2,0.4-0.3,0.8
			c-0.2-2-0.2-3.9-0.8-5.7c-0.2,2.4-0.5,4.6-2,6.7c-0.2-2.1-0.4-4.3-0.7-6.4l-0.2,0c-0.2,2.3-0.7,4.5-2,6.5
			c-0.6-2.1-0.5-4.2-0.5-6.3c-0.5,2.3-1.5,4.5-3,6.3c0.5-3.1,0.8-6.2,0.2-9.3l0.2-0.1L142,70l1.4-2.3l1.7,2.4
			C145.9,69.5,146.2,68.6,146.5,67.7z"/>
		<path id="svg_19_00000136401801633016218030000009162538013016444047_" class="st8" d="M140.8,22.2c-0.1,0.1-0.2,0.1-0.3,0.2
			c-0.7,0.8-1.4,0.5-2.1,0c-4.8-2.8-9.5-5.6-14.3-8.5c-0.4-0.2-0.6-0.2-0.9,0c-4.7,2.8-9.5,5.7-14.2,8.5c-1.2,0.7-1.2,0.7-2.4-0.3
			c1.2-0.7,2.3-1.4,3.4-2.1c4.1-2.5,8.2-4.9,12.3-7.4c1-0.6,1.7-0.6,2.7,0c4.9,3,9.8,5.9,14.7,8.8C140,21.8,140.4,22,140.8,22.2z"/>
		
			<linearGradient id="svg_20_00000079467280904203959470000014441954127242545570_" gradientUnits="userSpaceOnUse" x1="99.4154" y1="45.0953" x2="118.2795" y2="45.0953">
			<stop  offset="0" style="stop-color:#C0C3C4"/>
			<stop  offset="1" style="stop-color:#FFFFFF"/>
		</linearGradient>
		
			<path id="svg_20_00000015339968307629616130000005352834545961112507_" style="fill:url(#svg_20_00000079467280904203959470000014441954127242545570_);" d="
			M102.7,33c0.3,0.2,0.5,0.3,0.8,0.4c0.1,0.1,0.2,0.2,0.4,0.3c-0.1,0.3-0.3,0.5-0.4,0.7c-2.7,4.3-3.3,8.8-1.5,13.5
			c1.5,4.1,5.8,8.1,12,7.6c1.1-0.1,2.3-0.5,3.4-0.8c0.3-0.1,0.6-0.2,1-0.3c-0.1,0.7-0.2,1.3-0.4,1.8c-0.1,0.1-0.2,0.2-0.3,0.2
			c-4.6,1.2-9,0.9-12.8-2.2c-3.3-2.6-5.1-6.1-5.3-10.3c-0.3-3.8,0.6-7.3,2.7-10.5C102.3,33.4,102.5,33.2,102.7,33z"/>
		
			<linearGradient id="svg_21_00000176002127552023199850000009311030587754072462_" gradientUnits="userSpaceOnUse" x1="129.1543" y1="45.1691" x2="147.8086" y2="45.1691">
			<stop  offset="0" style="stop-color:#FFFFFF"/>
			<stop  offset="1" style="stop-color:#C0C3C4"/>
		</linearGradient>
		
			<path id="svg_21_00000080919127401492226750000010759109296767063206_" style="fill:url(#svg_21_00000176002127552023199850000009311030587754072462_);" d="
			M143.3,33.7c1.2-0.8,1.3-0.8,2,0.4c2.1,3.2,2.7,6.8,2.3,10.6c-0.3,3.2-1.5,6-3.8,8.3c-3.6,3.6-7.9,4.9-12.8,4c-0.1,0-0.1,0-0.2,0
			c-1.5-0.3-1.8-0.7-1.7-2.3c0.2,0.1,0.5,0.1,0.7,0.2c6.5,2.7,14.8-1.4,16.2-9.3c0.7-4,0-7.8-2.3-11.2c-0.1-0.1-0.2-0.3-0.3-0.4
			C143.4,33.9,143.4,33.8,143.3,33.7L143.3,33.7z"/>
		<path id="svg_22_00000150797873266346595990000012954519462693872549_" class="st3" d="M121,48.1l2.5,2.3l2.6-2.3
			c1.3,2.5-0.4,7.2-2.6,10C121.2,54.5,120,50.7,121,48.1z"/>
		<path id="svg_23_00000028285300599219942990000006751464609566235036_" class="st11" d="M142.5,82.6l0.9,1.9l1.6-1.7
			c0.1,0.3,0.2,0.6,0.4,0.8c0.2,0.1,0.6,0,0.9,0c-1.5,2.2-3.5,3.7-5.7,5l-0.1-0.1l1.9-3.1c-1.3,1.2-2.8,2.4-4.4,3.1
			c-0.1,0.1-0.3,0.1-0.4,0.2l2.7-5c0.1,0.2,0.2,0.3,0.4,0.6C140.6,84.3,142.5,82.6,142.5,82.6z"/>
		<path id="svg_24_00000046317068673517610430000011538845699941204904_" class="st3" d="M100.8,83.5c0.8,0.4,1.3,0.2,1.3-0.8
			l1.7,1.8c0.3-0.7,0.6-1.3,0.9-1.9l1.9,1.7l0.4-0.6l2.7,4.9c-1.9-0.7-3.4-1.9-4.9-3.2l1.9,3.1C105.3,88.2,101.5,85,100.8,83.5z"/>
		<path id="svg_25_00000095327646708137119040000013123083564914809757_" class="st3" d="M131.6,43.5c1.9,2.6,3.6,3.1,5.4,1.7
			c2-1.6,1.8-3.7-0.4-6.3c1.2-0.3,1.4-0.2,2.1,0.8c1,1.5,1.1,3.2,0.3,4.9c-0.7,1.7-2,2.5-3.8,2.7c-1.6,0.2-3.4-0.9-4-2.4
			c-0.1-0.4,0.1-0.9,0.2-1.3L131.6,43.5L131.6,43.5z"/>
		<path id="svg_26_00000139282288707796705590000007551416266572691373_" class="st11" d="M110.2,38.9c-0.5,0.9-1,1.7-1.3,2.6
			c-0.5,1.7,0.5,3.5,2.1,4.2c1.5,0.6,3.1,0,4.1-1.5c0.1-0.2,0.2-0.3,0.3-0.5c0.7,0.6,0.7,0.8,0.3,1.5c-0.9,1.4-2.1,2.1-3.8,2
			c-1.8-0.1-3.1-1.1-3.9-2.7c-0.8-1.7-0.5-3.4,0.5-5C109.2,38.8,109.4,38.7,110.2,38.9z"/>
		<path id="svg_27_00000080183656604436456140000011272925223720639398_" class="st3" d="M123.6,28.9c-1.1-1.3-1.7-1.2-3-2.8
			c1.7-0.8,4.5-0.7,6.1,0C125.3,27.6,125,27.4,123.6,28.9z"/>
		<path id="svg_28_00000008839815659737322190000009879929459112391330_" class="st11" d="M133.3,40.6c0-0.7,0.6-1.3,1.3-1.3
			c0.7,0,1.3,0.6,1.3,1.3c0,0.7-0.6,1.3-1.3,1.3C133.8,41.9,133.3,41.3,133.3,40.6z"/>
		<path id="svg_29_00000040559737597971031210000017093942857212129961_" class="st11" d="M113.8,40.6c0,0.8-0.6,1.4-1.3,1.4
			c-0.7,0-1.2-0.6-1.2-1.3c-0.1-0.7,0.4-1.3,1.1-1.4c0.7-0.1,1.3,0.4,1.4,1.1C113.8,40.4,113.8,40.5,113.8,40.6z"/>
		
			<linearGradient id="svg_30_00000134955742274685650550000015270336533960744852_" gradientUnits="userSpaceOnUse" x1="142.8239" y1="81.3914" x2="178.1078" y2="81.3914">
			<stop  offset="0" style="stop-color:#BEEF9E"/>
			<stop  offset="1" style="stop-color:#CFE07A"/>
		</linearGradient>
		
			<path id="svg_30_00000095308659813955447450000015165660432223544253_" style="fill:url(#svg_30_00000134955742274685650550000015270336533960744852_);" d="
			M160.1,98.6c-0.9,0-1.9-0.1-2.8-0.3c-5-1.2-8.6-4.2-10.7-8.9c-0.2-0.5-0.4-1.1-0.4-1.6c-0.5,0.4-1.1,0.7-1.8,0.6
			c-0.2,0-0.3,0-0.5,0l-1-0.1l0.2-1c0.1-0.3,0.1-0.7,0.2-1c0.1-0.6,0.2-1.3,0.3-1.9c0-2.2-0.1-4.4-0.1-6.5l0-0.5
			c0-0.2-0.1-0.5-0.1-0.7c-0.1-0.2-0.1-0.4-0.1-0.7c-0.1-0.6,0.1-1.2,0.4-1.6c0.4-0.4,0.9-0.7,1.5-0.7c0.3,0,0.6,0.1,0.9,0.2
			c0.1,0.1,0.3,0.1,0.4,0.2c1.1-3.8,3.7-6.6,7.8-8.5c1.7-0.8,3.7-1.3,5.6-1.3c1.6,0,3.2,0.3,4.7,0.9c3.1,1.1,5.7,3.3,7.3,6.3
			c1,1.9,1.6,4.1,1.5,6c0.2,0,0.5,0,0.7,0c1.5,0,2.7,0.7,3.6,2c1.1,1.8,1,4-0.3,5.5c-0.9,1-2.2,1.6-3.5,1.6c-0.2,0-0.5,0-0.7,0
			c0,0.1,0,0.2-0.1,0.3c-0.2,1-0.4,2-0.7,3C170.6,94.9,165.6,98.6,160.1,98.6L160.1,98.6z M161.9,85.8c1.3,1.1,1.8,2.6,1.3,4.6
			c-0.1,0.7-0.5,1.4-1,1.9c1.2-0.4,2.3-1.3,3.4-2.7c0.8-1.1,1.1-2.6,0.7-3.8c-0.3-1-1.1-1.6-2.4-2c-0.2,0-0.3-0.1-0.5-0.1
			c0.1,0.5-0.1,1-0.4,1.4C162.8,85.4,162.4,85.7,161.9,85.8L161.9,85.8z M151.4,82.6c-0.2,0-0.3,0.1-0.5,0.3
			c-0.9,1.1-0.8,2.3-0.5,3.1c0.6,2,2.3,3.2,4,4.3c0.1,0.1,0.2,0.1,0.2,0.2c-0.3-0.5-0.5-1-0.6-1.5c-0.2-1.3,0.6-2.6,2.1-3.2
			c0.2-0.1,0.4-0.2,0.6-0.3c0-0.2,0-0.5-0.1-0.7c-0.1-0.5-0.4-1.2-1.1-1.4C154.1,82.9,152.8,82.7,151.4,82.6L151.4,82.6z
			 M168.3,81.6c0.3,0.3,0.6,0.6,0.8,0.9c0-0.4,0-0.7,0-1.1c0-0.2,0-0.5,0-0.7C168.9,81.1,168.6,81.4,168.3,81.6L168.3,81.6z
			 M173,81.8c0.1,0.2,0.2,0.3,0.4,0.4c0.2-0.1,0.3-0.3,0.3-0.4c0-0.1,0-0.1-0.1-0.1c-0.1-0.1-0.2-0.1-0.3-0.1h0
			C173,81.6,173,81.7,173,81.8L173,81.8z M162.3,77.3c0.1,0.1,0.3,0.2,0.4,0.3c0.7,0.6,0.9,1.2,0.9,1.7c0.2,0,0.3,0,0.5-0.1
			c0.8-0.1,1.6-0.5,2.1-1.2c0.5-0.6,0.7-1.4,0.5-2.2c-0.3-2-1.9-4.1-4.1-5c0.6,0.7,1,1.6,1.1,2.6C163.9,74.8,163.4,76.3,162.3,77.3
			C162.3,77.3,162.3,77.3,162.3,77.3z M155.9,76.6c0.4,0.3,0.6,0.8,0.6,1.3c0,0.1,0,0.1,0,0.2c0.1-0.1,0.2-0.1,0.2-0.2
			c0.1-0.2,0.2-0.4,0.2-0.7C156.6,77,156.2,76.9,155.9,76.6L155.9,76.6z M154.6,76.1c0.3,0,0.6,0.1,0.9,0.2
			c-0.9-0.8-1.4-1.8-1.1-2.9c0.1-0.6,0.4-1.1,0.8-1.5c-1.3,0.6-2.4,1.4-3.3,2.4c0.1,0,0.2,0,0.3,0h0c0.8,0,1.5,0.5,2,0.9l0.1,0.1
			C154.5,75.5,154.6,75.8,154.6,76.1C154.6,76.1,154.6,76.1,154.6,76.1z"/>
		<path id="svg_31_00000062879291857029560770000014261322488827304611_" class="st2" d="M159.6,65.2c1.5,0,2.9,0.3,4.3,0.8
			c6.5,2.4,8.8,8.8,7.9,12.7c0.6-0.2,1.3-0.3,1.9-0.3c1.1,0,2,0.4,2.7,1.6c0.9,1.5,0.8,3.2-0.2,4.3c-0.7,0.8-1.7,1.2-2.7,1.2
			c-0.5,0-1-0.1-1.5-0.3c-0.3,1.4-0.5,2.9-0.9,4.3c-1.5,4.9-6.1,8.1-11.1,8.1c-0.9,0-1.7-0.1-2.6-0.3c-4.7-1.1-8.1-3.9-10-8.3
			c-0.4-1-0.3-2.2-0.5-3.4c0-0.2,0-0.4,0-0.7c-1,0.8-1,2.5-2.6,2.5c-0.1,0-0.2,0-0.3,0c0.2-1,0.4-2,0.5-3.1c0-2.4-0.1-4.7-0.1-7.1
			c0-0.5-0.2-1-0.3-1.5c-0.1-0.5,0.2-1,0.7-1.1c0.1,0,0.1,0,0.2,0c0.2,0,0.3,0,0.5,0.1c0.5,0.3,1,0.7,1.5,1.1
			c0.8-4.5,3.6-7.5,7.6-9.4C156.1,65.6,157.8,65.2,159.6,65.2 M160.4,77.3l-0.3-0.9l-0.3,0.3l-0.5,2.4c0.7-0.4,1.2-1.1,1.9-1.1
			c0.3,0,0.6,0.1,0.8,0.4c0.7,0.6,0.7,1.3-0.1,2h0c0.7,0,1.5,0,2.2-0.1c2.3-0.3,3.9-2.3,3.5-4.5c-0.5-3.2-3.6-6.4-7.3-6.4
			c-0.2,0-0.5,0-0.7,0c-0.3,0.1-0.6,0.1-0.9,0.2c2,0.8,3.7,1.6,4,3.9C162.9,75.3,162,76.5,160.4,77.3 M151.9,79.9
			c0.2,0,0.5,0,0.7-0.1c-0.5-0.3-0.9-0.4-1.2-0.6c-0.8-0.6-1-1.4-0.8-2.3c0.2-0.8,0.7-1.5,1.6-1.5h0c0.5,0,1,0.4,1.4,0.8
			c0.1,0.1-0.1,0.5-0.1,0.6c-0.4,0-0.7-0.1-1-0.1c-0.1,0-0.2,0-0.3,0.1c-0.2,0.2-0.2,0.8-0.1,1c0.2,0.3,0.7,0.3,1.1,0.4h0
			c0.1,0,0.2-0.2,0.4-0.3l-0.5-0.4c0.4-0.1,0.8-0.3,1.2-0.3c0.1,0,0.2,0,0.3,0c0.2,0,0.4,0,0.5,0.1c0.6,0.6,0.5,1.1-0.5,2.2
			c0.1,0,0.3,0,0.4,0c2.6,0,3.4-1.6,2.9-3.1c-1.6-0.4-2.7-1.6-2.4-2.7c0.2-1,1.3-1.8,2.3-1.8c0.1,0,0.3,0,0.4,0.1
			c0.5,0.1,1.1,0.4,1.3,0.8c0.4,0.7,0.4,1.6,0.6,2.5c0.9-0.1,1.3-2.3,0.7-3.2c-0.8-1-2.1-1.6-3.4-1.7c-0.3,0-0.7,0-1,0.1
			c-2.5,0.6-4.4,2.1-6,4.1c-1.2,1.4-1.1,3.2,0.1,4.6C150.8,79.6,151.3,79.9,151.9,79.9 M158,75.4c0.3-0.5,0.6-0.7,0.6-0.9
			c0.1-0.6-0.3-1.1-0.9-1.1l0,0c-0.2,0-0.7,0.4-0.7,0.5C157.4,74.3,157.7,74.9,158,75.4 M169.3,85.7c0.8-0.6,1-1.1,0.9-1.9
			c-0.1-1.4,0-2.8-0.1-4.2c0-0.6-0.2-1.2-0.3-1.7h-0.3c-0.8,1.5-1.2,3.2-3.2,3.7C168.1,82.3,168.9,83.8,169.3,85.7 M158.4,80.5
			l-1.8,0.6l1.7,1.3C158.4,81.7,158.4,81.1,158.4,80.5 M173.4,83.3c0.5,0,1.3-0.8,1.3-1.4c0-0.7-0.6-1.3-1.3-1.4c0,0,0,0,0,0h-0.1
			c-0.8,0-1.4,0.5-1.4,1.2C171.9,82.5,172.6,83.3,173.4,83.3L173.4,83.3 M157.4,92.3c0.2,0,0.5,0,0.7,0c1.2-0.2,2.2-1.1,2.5-2.3
			c0.2-0.8-0.5-2-1.3-2.4c0.1,0.6,0.4,1.2,0.2,1.8c-0.2,1-1.1,1.6-2,1.6c-0.1,0-0.1,0-0.2,0c-1.1-0.1-2-1-2.2-2.2
			c-0.1-0.8,0.4-1.7,1.5-2.1c1.2-0.5,1.4-0.9,1.1-2.2c-0.3-1-0.9-1.9-1.9-2.1c-1.4-0.4-2.8-0.6-4.2-0.7h-0.1c-0.5,0-0.9,0.2-1.3,0.6
			c-1.1,1.2-1.2,2.7-0.7,4.1c0.7,2.3,2.5,3.6,4.4,4.9C154.9,91.8,156.1,92.2,157.4,92.3 M161.4,84.8c-0.5,0-1-0.2-1.4-0.6
			c-0.2-0.2-0.4-0.4-0.8-0.7l0.4,2.6l0.3-0.2c0.4,0.2,1,0.2,1.3,0.5c1.2,0.9,1.3,2.3,1.1,3.7c-0.3,1.4-1.4,2-2.6,2.6
			c-0.4,0.2-0.8,0.3-1.2,0.4c0,0.1,0,0.2,0,0.3c0.7,0.1,1.4,0.2,2.1,0.2h0.1c2.5,0,4.3-1.4,5.7-3.4c1.6-2.2,1.8-6.2-2.2-7.4
			c-0.9-0.2-1.8-0.3-2.7-0.5c0.9,0.9,1.2,1.5,0.7,2C162,84.7,161.7,84.8,161.4,84.8 M157.5,89.7c0.3,0,0.8-0.5,0.8-0.8
			c0-0.4-0.4-0.8-0.8-1.4c-0.5,0.5-0.9,0.8-1,1.1C156.3,89.2,156.9,89.6,157.5,89.7L157.5,89.7 M159.6,63.2c-2.1,0-4.2,0.5-6,1.4
			c-2.3,1.1-4.3,2.5-5.7,4.3c-1,1.1-1.7,2.4-2.3,3.8c-0.2-0.1-0.5-0.1-0.7-0.1c-0.9,0-1.7,0.4-2.3,1c-0.6,0.7-0.8,1.6-0.7,2.5
			c0,0.3,0.1,0.5,0.2,0.7c0,0.2,0.1,0.3,0.1,0.5l0,0.5c0.1,2.1,0.1,4.3,0.1,6.5c0,0.6-0.1,1.2-0.2,1.7c-0.1,0.3-0.1,0.7-0.2,1
			l-0.3,2.1l2.1,0.3c0.2,0,0.4,0,0.6,0c0.3,0,0.7,0,1-0.1c0.1,0.2,0.1,0.3,0.2,0.5c2.3,5,6.1,8.2,11.5,9.5c1,0.2,2,0.3,3,0.3
			c6,0,11.4-3.9,13.1-9.6c0.2-0.8,0.4-1.7,0.6-2.5c1.6,0,3.1-0.7,4.1-1.9c1.6-1.9,1.7-4.5,0.4-6.7c-1-1.6-2.4-2.5-4.2-2.5
			c-0.1-1.9-0.7-3.8-1.6-5.5c-1.2-2.2-3.5-5.1-7.9-6.7C163,63.5,161.3,63.2,159.6,63.2C159.6,63.2,159.6,63.2,159.6,63.2z
			 M163.8,77.2c0.7-1,1.1-2.2,1-3.3c0.5,0.6,0.8,1.4,0.9,2.2c0.1,0.5,0,1-0.4,1.4c-0.3,0.3-0.6,0.6-1,0.7
			C164.2,77.8,164,77.5,163.8,77.2C163.7,77.2,163.8,77.2,163.8,77.2z M153,88c-0.8-0.7-1.3-1.4-1.6-2.3c-0.4-1.1,0-1.7,0.2-2
			c1.2,0.1,2.4,0.3,3.6,0.6c0.2,0.1,0.3,0.4,0.4,0.5C154.1,85.4,153.2,86.6,153,88L153,88z M163.6,86c0.1-0.1,0.2-0.2,0.3-0.3
			c0.2-0.2,0.3-0.4,0.4-0.7c0.8,0.4,1,0.9,1.1,1.1c0.3,0.8,0,2-0.6,2.8c-0.1,0.2-0.2,0.3-0.3,0.5C164.5,87.9,164.1,86.8,163.6,86
			L163.6,86L163.6,86z"/>
		<path id="svg_32_00000152259159934022000910000000715608522367726741_" class="st13" d="M142.6,88.3c-0.5,0-0.9-0.3-1.1-0.7
			c-0.1-0.2-0.1-0.3-0.2-0.4c-0.2-0.3-0.3-0.7-0.4-1c-0.1-0.2-0.3-0.8-0.4-0.9c-0.1,0-0.3-0.1-1-0.1c-0.4,0-1,0-1.9,0
			c-3.3,0-9,0.1-12.7,0.2l-1.6,0l0.6-1.4l-0.1-0.1l-1.6,0l0,0.1l0.8,1.5l-1.7,0l-4.5,0.1c-5.4,0.2-10.1,0.3-13,0.3
			c-0.7,0-1.3,0-1.8,0c-5.3-0.2-11.6-0.4-18-0.8c-0.1,0-0.2,0-0.3,0c-0.7,0-0.8,0.1-0.9,0.5c-0.1,0.3-0.3,0.5-0.4,0.7
			c-0.1,0.1-0.1,0.1-0.2,0.2l-0.7,0.9l-6.3-5.4l6.2-5.3l0.7,0.9c0.4,0.5,0.8,0.7,1.8,0.7c0.3,0,0.5,0,0.8,0c0.3,0,0.6,0,0.9,0H86
			c1.5,0,3.5,0.1,6.2,0.1c5.5,0,12.8-0.1,20-0.2c7.3-0.1,14.8-0.2,20.4-0.2c3,0,5.2,0,6.8,0.1h0.2c1.2,0,1.7-0.3,2.1-1.2
			c0.4-1.1,1.2-1.2,1.5-1.2c0.5,0,0.9,0.2,1.2,0.5c0.5,0.4,1,0.9,1.2,1.6c0.9,2.9,0.7,5.7-0.5,8.2c-0.3,0.6-0.7,1.1-1.1,1.5
			c-0.1,0.2-0.3,0.3-0.5,0.5C143.3,88.2,143,88.3,142.6,88.3L142.6,88.3z"/>
		<path id="svg_33_00000009552342374896304910000000627927962735511217_" class="st2" d="M143.2,76.6c0.2,0,0.4,0.1,0.5,0.3
			c0.4,0.3,0.8,0.7,0.9,1.2c0.8,2.5,0.7,5-0.4,7.4c-0.3,0.6-0.8,1.1-1.4,1.8c0,0-0.1,0.1-0.1,0.1c-0.1,0-0.1,0-0.2-0.1
			c-0.2-0.4-0.4-0.9-0.6-1.3c-0.5-1.5-0.7-1.7-2.3-1.8c-0.4,0-1.1,0-2,0c-3.1,0-8.9,0.1-12.7,0.2c0.1-0.3,0.1-0.5,0-0.8
			c2.2,0,5,0,7.7,0c3,0,5.8,0,7,0.1h0.1c0.5,0,0.9-0.2,1.6-0.3c-0.4-0.4-15.4-0.5-30.2-0.5c-14.3,0-28.4,0.2-29,0.5
			c0.3,0.3,0.5,0.7,1,0.5c3.6,0.1,7.4-0.1,11,0c1.3,0,3-0.1,5,0.1c6.2,0.6,14.3-0.2,22.2-0.3c-0.1,0.3-0.1,0.6,0.1,0.8
			c-7,0.2-13.8,0.4-17.4,0.4c-0.7,0-1.3,0-1.7,0c-6-0.2-12-0.5-18-0.8c-0.1,0-0.2,0-0.3,0c-0.9,0-1.2,0.1-1.9,1.2
			c-0.2,0.3-0.3,0.4-0.5,0.6L77,81.9l4.4-3.8c0.7,0.9,1.6,1.1,2.6,1.1c0.6,0,1.1-0.1,1.7-0.1c0.1,0,0.1,0,0.2,0
			c1.6,0,3.7,0.1,6.3,0.1c11,0,29.2-0.4,40.4-0.4c2.7,0,5,0,6.7,0.1c0.1,0,0.2,0,0.2,0c1.5,0,2.5-0.5,3-1.9
			C142.7,76.7,142.9,76.6,143.2,76.6 M143.2,74.5L143.2,74.5c-1.1,0-2,0.7-2.5,1.8c-0.2,0.4-0.2,0.6-1.1,0.6h-0.2
			c-1.6-0.1-3.8-0.1-6.8-0.1c-5.6,0-13.1,0.1-20.4,0.2c-7.1,0.1-14.5,0.2-20,0.2c-2.7,0-4.7,0-6.2-0.1h-0.3c-0.3,0-0.6,0-1,0
			c-0.3,0-0.5,0-0.7,0c-0.7,0-0.8-0.1-0.9-0.3l-1.3-1.8l-1.7,1.5l-3.4,2.9l-1.1,0.9l-1.8,1.6l1.8,1.6l1.5,1.2l3.1,2.6l1.7,1.4
			l1.3-1.7c0,0,0.1-0.1,0.1-0.2c0.2-0.2,0.4-0.5,0.6-0.8h0h0.2c6.5,0.3,12.7,0.5,18,0.8c0.5,0,1.1,0,1.8,0c2.9,0,7.6-0.1,13-0.3
			l4.5-0.1l0.4,0v0l3.1-0.1c3.7-0.1,9.4-0.2,12.6-0.2c1.1,0,1.7,0,1.9,0c0.1,0,0.2,0,0.3,0c0,0.1,0.1,0.2,0.1,0.3
			c0.1,0.4,0.3,0.8,0.5,1.2c0.1,0.1,0.1,0.3,0.2,0.4c0.5,1.1,1.9,1.6,3,1.1c0.3-0.1,0.6-0.3,0.8-0.6c0.1-0.2,0.3-0.3,0.4-0.5
			c0.5-0.5,0.9-1.1,1.3-1.7c1.4-2.7,1.6-5.7,0.6-8.9c-0.3-0.9-1-1.6-1.5-2.1C144.6,74.8,143.9,74.5,143.2,74.5L143.2,74.5
			L143.2,74.5z"/>
		<path id="svg_34_00000010285771362981419060000005258612074676542389_" class="st13" d="M85.4,97.2c-1.2,0-1.9-0.7-2-2V95
			c-0.1-1.2-0.1-1.9,0.4-2.4c0.4-0.5,1-0.5,1.7-0.5c0.2,0,0.5,0,0.7,0c0.1,0,0.2,0,0.3,0l0-0.9c-0.4,0-0.8,0-1.2,0
			c-0.1,0-0.2,0-0.2,0c-0.5,0-0.9-0.2-1.2-0.5c-0.3-0.4-0.5-0.9-0.4-1.4c0,0,0-0.1,0-0.2s0-0.1,0-0.2l-0.1-4.6l16.6-0.2L100,91l-1,0
			c-0.3,0-0.5,0-0.8,0c-0.4,0-0.9,0-1.3,0h-0.2c0,0.3,0,0.6,0,0.8c0.2,0,0.6,0,0.8,0h0.3c0.2,0,0.4,0,0.6,0l1.5,0l0,1
			c0,0.2,0,0.5,0,0.7c0,0.6,0,1.2,0,1.8c-0.1,0.7-0.9,1.5-1.6,1.5c-1.3,0.1-2.7,0.1-4,0.1l-0.5,0c-0.9,0-1.9-0.5-2-2
			c0-0.4,0-0.8-0.1-1.2c0-0.9-0.1-1.8-0.1-2.7c0,0,0-0.1,0-0.1h0c-0.1,0-0.1,0-0.2,0v0.4c0,1,0,2,0,2.9c0,2-0.8,2.8-2.7,2.8
			c-0.5,0-1,0-1.5,0c-0.6,0-1.1,0-1.7,0L85.4,97.2L85.4,97.2z"/>
		<path id="svg_35_00000010998995017995085530000013032147992456677810_" class="st2" d="M98.9,85.2c0,1.6,0,3.2,0.1,4.8
			c-0.7,0-1.4,0-2.1,0c-0.2,0-0.4,0-0.5,0h0c-0.4,0-0.6,0.1-0.6,0.6c-0.1,2.1-0.1,2.2,1.8,2.2h0.3c0.3,0,0.6,0,1.1,0
			c0,0.8,0.1,1.6,0,2.4c0,0.2-0.4,0.6-0.6,0.6c-1.5,0.1-3,0.1-4.4,0.1h0c-0.7,0-0.9-0.4-0.9-1c0-1.3-0.2-2.6-0.1-3.9
			c0-0.8-0.2-1.2-0.8-1.2c-0.1,0-0.3,0-0.4,0C91.1,90,90.8,90,90.4,90c0,1.4,0.1,2.8,0.1,4.2s-0.3,1.8-1.7,1.8c-1.1,0-2.1,0-3.2,0.1
			h-0.1c-0.6,0-0.9-0.2-1-1c-0.1-2.3-0.2-1.9,1.9-2.1c0.4,0,0.8,0,1.2,0c0-1,0-1.9,0-2.9c-0.8,0-1.5,0-2.3,0h-0.1
			c-0.5,0-0.7-0.3-0.6-0.8c0-0.2,0-0.3,0-0.5c0-1.2,0-2.3-0.1-3.5L98.9,85.2 M100.9,83.1l-2.1,0l-14.5,0.2l-2.1,0l0,2.1l0,0.9
			c0,0.9,0,1.8,0,2.6c0,0.1,0,0.2,0,0.3v0.1c-0.1,1.1,0.4,1.7,0.7,2.1c0.1,0.1,0.2,0.2,0.2,0.2c-0.1,0.1-0.2,0.2-0.3,0.3
			c-0.8,0.8-0.7,1.8-0.7,3.1v0.2c0.1,1.8,1.3,2.9,3,2.9h0.2c0.6,0,1.1,0,1.7,0c0.5,0,1,0,1.5,0c0.9,0,2-0.2,2.8-1l0,0
			c0.6,0.6,1.4,0.9,2.2,0.9h0.1h0.5c1.3,0,2.7,0,4.1-0.1c1.2-0.1,2.4-1.2,2.5-2.5c0-0.6,0.1-1.3,0-1.9c0-0.2,0-0.4,0-0.7l0-0.8h0.2
			l0-2.1l-0.1-3.4l0-1.5L100.9,83.1C100.9,83.1,100.9,83.1,100.9,83.1z"/>
		<path id="svg_36_00000007419690773692642060000008832512345920843445_" class="st8" d="M153.2,88.9c-1,0-1.9-0.5-2.4-1.3
			c-0.9-1.6-0.4-3.9,1-4.8c0.6-0.4,1.4-0.6,2.1-0.6c1.4,0,2.6,0.6,3.2,1.6c0.4,0.7,0.3,1.7,0.2,2.2c-0.1,0.7-0.9,1.3-1.6,1.4
			c-0.1,0-0.1,0-0.2,0c-0.1,0-0.2,0-0.3,0c0,0.2-0.1,0.3-0.1,0.4C154.8,88.5,154.1,88.9,153.2,88.9L153.2,88.9z"/>
		<path id="svg_37_00000019679879419619626010000002851230201889342358_" d="M153.9,83.1c0.9,0,1.9,0.4,2.3,1.1
			c0.2,0.4,0.2,1,0.1,1.4c0,0.3-0.4,0.6-0.7,0.6h0c-0.2,0-0.5-0.3-0.6-0.5c-0.2-0.6-0.6-1-1.2-1h-0.1c-0.3,0-0.7,0.2-0.8,0.4
			c-0.1,0.3-0.1,0.7,0,1.1c0,0.1,0.3,0.1,0.5,0.1c0,0,0.1,0,0.1,0c0.3-0.1,0.5-0.2,0.7-0.4c0,0.3,0.2,0.9,0,1.3
			c-0.2,0.4-0.6,0.6-1,0.6c-0.6,0-1.2-0.3-1.5-0.8c-0.6-1.1-0.3-2.9,0.7-3.5C152.8,83.3,153.4,83.1,153.9,83.1 M153.9,81.1
			c-1,0-1.9,0.3-2.7,0.8c-1.9,1.2-2.5,4.2-1.3,6.2c0.7,1.2,1.9,1.9,3.3,1.9c1.2,0,2.3-0.6,2.8-1.6c1-0.2,2.1-1,2.3-2.2
			c0.1-0.8,0.2-1.9-0.3-2.9C157.3,81.9,155.7,81.1,153.9,81.1z"/>
		<path id="svg_38_00000170989094626614956490000006040298648318869649_" class="st11" d="M121.4,84.4c-8.3,0.2-16.4,0.6-19.2,0.5
			c-6-0.2-11.9-0.6-17.9-0.9"/>
		<path id="svg_39_00000111164903149370057240000008368982255504327868_" class="st2" d="M103.4,85.9c-0.5,0-1,0-1.3,0
			c-4-0.2-8.1-0.4-12-0.6c-2-0.1-4-0.2-6-0.3l0.1-1.9c2,0.1,4,0.1,6,0.2c3.9,0.2,7.9,0.4,11.9,0.6c1.9,0.1,6.2-0.1,11.2-0.2
			c2.5-0.1,5.3-0.2,8-0.2l0.1,2.1c-2.8,0.1-5.6,0.2-8,0.2C109.1,85.8,105.6,85.9,103.4,85.9L103.4,85.9z"/>
		<path id="svg_53_00000100353834562039489990000009027591403581202865_" class="st2" d="M136.2,90l1.4-4.9l1.9,0c0,0,1.6,1.9,2,2.5
			s-1.5,2.2-1.6,2.5C139.7,90.4,136.2,90,136.2,90z"/>
		<g>
			<path class="st3" d="M114.5,75.1c0-0.8,0.2-1.4,0.7-1.7c0.4-0.3,1-0.5,1.6-0.5c0.6,0,1.2,0.2,1.6,0.5c0.4,0.3,0.7,0.9,0.7,1.7
				c0,0.8-0.2,1.4-0.7,1.7s-1,0.5-1.6,0.5c-0.6,0-1.2-0.2-1.6-0.5S114.5,75.9,114.5,75.1z"/>
		</g>
		<g>
			<path class="st3" d="M127.8,59.8l-0.5,4.8l4.9-1.4l0.4,3.3l-4.4,0.3l2.9,3.9l-3,1.6l-2-4.1l-1.8,4.1l-3.1-1.6l2.9-3.9l-4.4-0.3
				l0.5-3.3l4.8,1.4l-0.5-4.8H127.8z"/>
		</g>
		<path id="svg_40_00000023969414082894091430000000285229096418137231_" class="st3" d="M119.3,89.2c-0.3,0-0.7-0.2-0.9-0.4
			c-0.7-0.9-1.3-3.5-1.6-5.6c-0.4-3.2-0.1-5.3,0.8-6.2l0,0l0,0c0.4-0.3,0.9-0.4,1.3-0.4c0.4,0,1.2,0.1,1.8,1.1
			c0.5,0.8,0.5,3.4,0.4,5.4c-0.1,1.3-0.3,4.5-0.9,5.5C120.2,89,119.8,89.2,119.3,89.2L119.3,89.2z"/>
		<path id="svg_41_00000179608020922572417220000015957573095404538510_" class="st2" d="M119.1,77.5c0.3,0,0.7,0.1,1,0.6
			c0.6,1.1,0.2,10.1-0.7,10.1c-0.1,0-0.1,0-0.2-0.1c-1-1.2-2.4-9-0.9-10.4C118.5,77.6,118.8,77.5,119.1,77.5 M119.1,75.5L119.1,75.5
			c-0.7,0-1.3,0.2-1.9,0.6l-0.1,0.1l-0.1,0.1c-0.7,0.7-1.1,1.8-1.3,3.4c-0.1,1.2,0,2.4,0.2,3.6c0.1,0.8,0.6,4.7,1.8,6.1
			c0.7,0.9,2.1,1.1,3,0.3c0.2-0.2,0.4-0.4,0.6-0.7c0.5-0.9,0.9-2.9,1-6c0.2-4.7-0.3-5.6-0.5-5.9C121.1,76.1,120.2,75.6,119.1,75.5
			C119.1,75.6,119.1,75.5,119.1,75.5z"/>
		<path id="svg_42_00000061457070408032832190000006963602292405530760_" class="st3" d="M115.4,89.2c-0.3,0-0.7-0.2-0.9-0.4
			c-0.7-0.9-1.3-3.5-1.6-5.6c-0.4-3.2-0.1-5.3,0.8-6.2l0,0l0,0c0.4-0.3,0.9-0.4,1.3-0.4c0.4,0,1.2,0.1,1.8,1.1
			c0.5,0.8,0.5,3.4,0.4,5.4c-0.1,1.3-0.3,4.5-0.9,5.5C116.2,89,115.8,89.2,115.4,89.2z"/>
		<path id="svg_43_00000162314308372724376670000016761804862737955236_" class="st2" d="M115.1,77.5c0.3,0,0.7,0.1,1,0.6
			c0.6,1.1,0.2,10.1-0.7,10.1c-0.1,0-0.1,0-0.2-0.1c-1-1.2-2.4-9-0.9-10.4C114.6,77.6,114.8,77.5,115.1,77.5 M115.1,75.6L115.1,75.6
			c-0.7,0-1.3,0.2-1.9,0.6l-0.1,0.1l-0.1,0.1c-0.7,0.7-1.1,1.8-1.3,3.4c-0.1,1.2,0,2.4,0.2,3.6c0.1,0.8,0.6,4.7,1.8,6.1
			c0.7,0.9,2.1,1.1,3,0.3c0.2-0.2,0.4-0.4,0.6-0.7c0.5-0.9,0.9-2.9,1-6c0.2-4.7-0.3-5.6-0.5-5.9C117.2,76.1,116.2,75.6,115.1,75.6
			L115.1,75.6L115.1,75.6z"/>
		<path id="svg_44_00000078762874302810861840000001796820849408708023_" class="st3" d="M111.4,89.2c-0.3,0-0.7-0.2-0.9-0.4
			c-0.7-0.9-1.3-3.5-1.6-5.6c-0.4-3.2-0.1-5.3,0.8-6.2l0,0l0,0c0.4-0.3,0.9-0.4,1.3-0.4c0.4,0,1.2,0.1,1.8,1.1
			c0.5,0.8,0.5,3.4,0.4,5.4c-0.1,1.3-0.3,4.5-0.9,5.5C112.3,89,111.9,89.2,111.4,89.2L111.4,89.2z"/>
		<path id="svg_45_00000129199068412126943390000014886918027918565288_" class="st2" d="M111.2,77.5c0.3,0,0.7,0.1,1,0.6
			c0.6,1.1,0.2,10.1-0.7,10.1c-0.1,0-0.1,0-0.2-0.1c-1-1.2-2.4-9-0.9-10.4C110.6,77.6,110.9,77.5,111.2,77.5 M111.2,75.5L111.2,75.5
			c-0.7,0-1.3,0.2-1.9,0.6l-0.1,0.1l-0.1,0.1c-0.7,0.7-1.1,1.8-1.3,3.4c-0.1,1.2,0,2.4,0.2,3.6c0.1,0.8,0.6,4.7,1.8,6.1
			c0.7,0.9,2.1,1.1,3,0.3c0.2-0.2,0.4-0.4,0.6-0.7c0.5-0.9,0.9-2.9,1-6c0.2-4.7-0.3-5.6-0.5-5.9C113.2,76.1,112.3,75.5,111.2,75.5
			C111.2,75.5,111.2,75.5,111.2,75.5z"/>
		<path id="svg_46_00000105387697453148652370000012316430697772808625_" class="st11" d="M127.7,88.7c-0.4,0-0.9-0.3-1-0.7
			c-0.6-1-0.8-4.2-0.9-5.5c-0.1-2-0.1-4.6,0.4-5.4c0.6-1,1.4-1.1,1.8-1.1c0.5,0,1,0.2,1.3,0.4l0,0l0,0c0.9,0.9,1.2,3,0.8,6.2
			c-0.3,2.1-0.9,4.8-1.6,5.6C128.4,88.6,128.1,88.7,127.7,88.7L127.7,88.7z"/>
		<path id="svg_47_00000033336501650393443420000008529800563652005543_" class="st2" d="M128,77c0.3,0,0.5,0.1,0.8,0.3
			c1.5,1.5,0.1,9.3-0.9,10.4c0,0.1-0.1,0.1-0.2,0.1c-0.9,0-1.4-9-0.7-10.1C127.3,77.1,127.7,77,128,77 M128,75.1
			c-1.1,0-2,0.6-2.6,1.6c-0.2,0.3-0.7,1.3-0.5,5.9c0.1,3.1,0.5,5.1,1,6c0.5,1,1.8,1.4,2.8,0.9c0.3-0.1,0.5-0.3,0.7-0.6
			c1.2-1.4,1.7-5.3,1.8-6.1c0.2-1.2,0.2-2.4,0.2-3.6c-0.1-1.6-0.5-2.7-1.3-3.4l-0.1-0.1l-0.1-0.1C129.3,75.3,128.7,75.1,128,75.1
			L128,75.1L128,75.1z"/>
		<path id="svg_48_00000013891753739763961720000014235702302940715163_" class="st11" d="M131.7,88.7c-0.4,0-0.9-0.3-1-0.7
			c-0.6-1-0.8-4.2-0.9-5.5c-0.1-2-0.1-4.6,0.4-5.4c0.6-1,1.4-1.1,1.8-1.1c0.5,0,0.9,0.2,1.3,0.4l0,0l0,0c0.9,0.9,1.2,3,0.8,6.2
			c-0.3,2.1-0.9,4.8-1.6,5.6C132.4,88.6,132,88.7,131.7,88.7z"/>
		<path id="svg_49_00000084529323271052496110000003268910530459812267_" class="st2" d="M132,77c0.3,0,0.5,0.1,0.8,0.3
			c1.5,1.5,0.1,9.3-0.9,10.4c0,0.1-0.1,0.1-0.2,0.1c-0.9,0-1.4-9-0.7-10.1C131.3,77.1,131.6,77,132,77 M132,75.1
			c-1.1,0-2,0.6-2.6,1.6c-0.2,0.3-0.7,1.3-0.5,5.9c0.1,3.1,0.5,5.1,1,6c0.5,1,1.8,1.4,2.8,0.9c0.3-0.1,0.5-0.3,0.7-0.6
			c1.2-1.4,1.7-5.3,1.8-6.1c0.2-1.2,0.2-2.4,0.2-3.6c-0.1-1.6-0.5-2.7-1.3-3.4l-0.1-0.1l-0.1-0.1C133.3,75.3,132.6,75.1,132,75.1
			L132,75.1L132,75.1z"/>
		<path id="svg_50_00000102524682700016480960000011301622472149065914_" class="st3" d="M135.7,88.7c-0.4,0-0.9-0.3-1-0.7
			c-0.6-1-0.8-4.2-0.9-5.5c-0.1-2-0.1-4.6,0.4-5.4c0.6-1,1.4-1.1,1.8-1.1c0.5,0,0.9,0.2,1.3,0.4l0,0l0,0c0.9,0.9,1.2,3,0.8,6.2
			c-0.3,2.1-0.9,4.8-1.6,5.6C136.3,88.6,136,88.7,135.7,88.7z"/>
		<path id="svg_51_00000168825278600168827850000010990823030526943873_" class="st2" d="M135.9,77c0.3,0,0.5,0.1,0.8,0.3
			c1.5,1.5,0.1,9.3-0.9,10.4c0,0.1-0.1,0.1-0.2,0.1c-0.9,0-1.4-9-0.7-10.1C135.2,77.1,135.6,77,135.9,77 M135.9,75.1
			c-1.1,0-2,0.6-2.6,1.6c-0.2,0.3-0.7,1.3-0.5,5.9c0.1,3.1,0.5,5.1,1,6c0.5,1,1.8,1.4,2.8,0.9c0.3-0.1,0.5-0.3,0.7-0.6
			c1.2-1.4,1.7-5.3,1.8-6.1c0.2-1.2,0.2-2.4,0.2-3.6c-0.1-1.6-0.5-2.7-1.3-3.4l-0.1-0.1l-0.1-0.1C137.3,75.3,136.6,75.1,135.9,75.1
			L135.9,75.1L135.9,75.1z"/>
		<path class="st2" d="M97.7,50.9"/>
		<linearGradient id="SVGID_1_" gradientUnits="userSpaceOnUse" x1="95.0899" y1="61.0787" x2="111.2286" y2="61.0787">
			<stop  offset="0" style="stop-color:#C0C3C4"/>
			<stop  offset="1" style="stop-color:#FFFFFF"/>
		</linearGradient>
		<path class="st14" d="M111,60c-0.8-0.3-3.7-0.9-5.8-2.2c-3-1.8-3-3.1-4.2-2.8c-0.2,0.1-0.4,0.2-0.6,0.3c-3.7,2.3-5.7,7.7-5.2,11.9
			c1.6-2.7,3.1-5.3,4.7-7.8l0.2,0.1c-1.2,2.2-1.7,4.6-1.2,7.3c1.4-2.2,2.7-4.3,3.9-6.4l0.2,0.1c-1,2.1-1.1,4.2-0.4,6.6
			c1.4-2.2,2.6-4.2,3.9-6.2c-0.6,2-0.5,4-0.2,6l3.2-4.3c0,0,1.3-1.6,1.8-2.2C111.2,60.1,111,60.1,111,60z"/>
		
			<linearGradient id="SVGID_00000141454280631774323810000008285184445318057353_" gradientUnits="userSpaceOnUse" x1="68.3051" y1="61.1067" x2="84.4438" y2="61.1067" gradientTransform="matrix(-1 0 0 1 220.3925 0)">
			<stop  offset="0" style="stop-color:#C0C3C4"/>
			<stop  offset="1" style="stop-color:#FFFFFF"/>
		</linearGradient>
		<path style="fill:url(#SVGID_00000141454280631774323810000008285184445318057353_);" d="M136.2,60.1c0.8-0.3,3.7-0.9,5.8-2.2
			c3-1.8,3-3.1,4.2-2.8c0.2,0.1,0.4,0.2,0.6,0.3c3.7,2.3,5.7,7.7,5.2,11.9c-1.6-2.7-3.1-5.3-4.7-7.8l-0.2,0.1
			c1.2,2.2,1.7,4.6,1.2,7.3c-1.4-2.2-2.7-4.3-3.9-6.4l-0.2,0.1c1,2.1,1.1,4.2,0.4,6.6c-1.4-2.2-2.6-4.2-3.9-6.2c0.6,2,0.5,4,0.2,6
			l-3.2-4.3c0,0-1.3-1.6-1.8-2.2C136,60.2,136.1,60.1,136.2,60.1z"/>
	</g>
</g>
</svg>
