<?xml version="1.0" encoding="utf-8"?>
<!-- Generator: Adobe Illustrator 28.1.0, SVG Export Plug-In . SVG Version: 6.00 Build 0)  -->
<svg version="1.1" id="Awesome_Regex" xmlns="http://www.w3.org/2000/svg" xmlns:xlink="http://www.w3.org/1999/xlink" x="0px"
	 y="0px" viewBox="0 0 537.5 111.6" style="enable-background:new 0 0 537.5 111.6;" xml:space="preserve">
<style type="text/css">
	.st0{fill:url(#svg_59_00000123433547380625861780000016080519768399459972_);}
	.st1{fill:#969696;stroke:#969696;stroke-width:0.12;stroke-miterlimit:10;}
	.st2{fill:#141612;}
	.st3{fill:#F2F2F2;}
	.st4{fill:url(#svg_10_00000041283495260156995450000013990308385037689732_);}
	.st5{fill:url(#svg_11_00000055685034941821235230000017684912483355454896_);}
	.st6{fill:url(#svg_17_00000036938732977484112890000008061127910469117353_);}
	.st7{fill:url(#svg_18_00000120544199705449586470000003778578465100028571_);}
	.st8{fill:#C9F0B4;}
	.st9{fill:url(#svg_20_00000071556553542557864750000007082266484711299486_);}
	.st10{fill:url(#svg_21_00000062165607178333415790000017165505644620781720_);}
	.st11{fill:#FFFFFF;}
	.st12{fill:url(#svg_30_00000000199555235361919820000004191856343399215521_);}
	.st13{fill:#BEEF9E;}
	.st14{fill:url(#SVGID_1_);}
	.st15{fill:url(#SVGID_00000154395883560775979100000008551906509955822481_);}
</style>
<g>
	
		<linearGradient id="svg_59_00000000940669511199373960000004335241707030609285_" gradientUnits="userSpaceOnUse" x1="129.5918" y1="48.0473" x2="537.4586" y2="48.0473">
		<stop  offset="0" style="stop-color:#73C673"/>
		<stop  offset="1" style="stop-color:#B7D705"/>
	</linearGradient>
	
		<path id="svg_59_00000111901390419421233100000009142081969592255408_" style="fill:url(#svg_59_00000000940669511199373960000004335241707030609285_);" d="
		M129.6,62.3l19-40.3l2.3,1.1l-19,40.4C131.9,63.5,129.6,62.3,129.6,62.3z M186.6,60.8h-6.9v-0.1c0-0.1,0.1-0.2,0.1-0.4
		c0-0.2,0-0.3,0-0.5l0,0c0-0.5-0.1-1.1-0.2-1.7c-0.1-0.6-0.4-1.4-0.8-2.3l0,0l-3-6.8c-0.9,0-2.2-0.1-3.7-0.1c-1.5,0-3.2,0-5,0l0,0
		c-1.3,0-2.6,0-3.8,0c-1.2,0-2.3,0-3.3,0.1l0,0l-2.9,6.6c-0.2,0.6-0.5,1.3-0.8,2c-0.3,0.7-0.4,1.5-0.4,2.2l0,0c0,0.2,0,0.4,0.1,0.5
		c0,0.1,0.1,0.2,0.1,0.3l0,0v0.1h-5.1v-0.1c0.3-0.3,0.7-0.9,1.1-1.7s0.9-1.8,1.5-3l0,0l14.3-31.8h2l13.6,30.6c0.3,0.7,0.7,1.4,1,2.1
		c0.3,0.7,0.7,1.3,1,1.8c0.3,0.5,0.6,1,0.8,1.3c0.2,0.4,0.4,0.6,0.5,0.7l0,0V60.8z M160.9,46.8h2.7c1,0,2,0,3,0c1,0,2,0,3,0
		c1,0,1.9,0,2.8,0c0.9,0,1.7,0,2.4,0l0,0l-7-15.9L160.9,46.8z M204.9,37.5h1l6.7,16.8l5.6-13.9c0.1-0.3,0.2-0.6,0.4-1
		c0.2-0.4,0.3-0.8,0.4-1.1c0.1-0.4,0.2-0.8,0.3-1.1c0.1-0.4,0.1-0.7,0.1-1l0,0c0-0.2,0-0.4-0.1-0.5c0-0.1-0.1-0.2-0.1-0.3l0,0v-0.1
		h4.5v0.1c-0.3,0.3-0.7,0.8-1.1,1.6c-0.4,0.7-0.9,1.8-1.5,3.2l0,0l-8.9,21.1h-1.4l-6.5-15.7l-6.5,15.7h-1.4l-8.2-19.9
		c-0.3-0.7-0.6-1.4-1-2.1c-0.3-0.7-0.7-1.3-1-1.8c-0.3-0.5-0.6-1-0.8-1.3c-0.2-0.4-0.4-0.6-0.5-0.7l0,0v-0.1h6.7v0.1
		c0,0.1-0.1,0.2-0.1,0.4c0,0.2,0,0.3,0,0.5l0,0c0,0.5,0.1,1.1,0.2,1.7c0.2,0.6,0.4,1.4,0.8,2.3l0,0l5.6,14.1
		C198.2,54.3,204.9,37.5,204.9,37.5z M238.6,61.2L238.6,61.2c-1.9,0-3.6-0.3-5.2-0.9c-1.6-0.6-3-1.4-4.2-2.6
		c-1.2-1.1-2.1-2.5-2.8-4.2c-0.7-1.7-1-3.6-1-5.7l0,0c0-1.9,0.3-3.6,1-5.2c0.6-1.6,1.5-3,2.6-4.2c1.1-1.2,2.4-2.1,3.9-2.8
		c1.5-0.7,3.1-1,4.8-1l0,0c1.7,0,3.3,0.3,4.8,0.9c1.5,0.6,2.7,1.5,3.8,2.6c1.1,1.1,1.9,2.5,2.5,4.2c0.6,1.7,1,3.5,1,5.7l0,0
		c-1.9,0-3.8-0.1-5.7-0.1c-1.9,0-3.8,0-5.9,0l0,0c-1.5,0-2.9,0-4.2,0c-1.4,0-2.6,0-3.7,0.1l0,0c0.1,1.7,0.4,3.3,0.8,4.7
		c0.4,1.4,1,2.6,1.8,3.6c0.8,1,1.7,1.8,2.8,2.3c1.1,0.5,2.4,0.8,3.8,0.8l0,0c1,0,1.9-0.1,2.7-0.3c0.9-0.2,1.6-0.5,2.3-0.9
		c0.7-0.4,1.3-0.9,1.9-1.4c0.5-0.5,1-1.1,1.4-1.8l0,0l0.3,0.1l-1.9,4.5c-0.9,0.5-2,0.9-3.2,1.2C241.9,61.1,240.4,61.2,238.6,61.2
		L238.6,61.2z M235.3,46L235.3,46c1.7,0,3.3,0,5,0c1.7,0,3.2,0,4.6-0.1l0,0c-0.2-1.5-0.4-2.8-0.8-3.9c-0.4-1.2-0.9-2.1-1.6-2.9
		s-1.4-1.4-2.3-1.9c-0.9-0.4-1.9-0.6-2.9-0.6l0,0c-1,0-1.9,0.2-2.7,0.6c-0.8,0.4-1.5,1-2.1,1.8c-0.6,0.8-1.1,1.8-1.4,2.9
		c-0.4,1.2-0.6,2.5-0.7,4l0,0c0.8,0,1.5,0.1,2.4,0.1C233.5,46,234.4,46,235.3,46z M266.2,36.1l0.3,4.1l-0.4,0.1
		c-0.1-0.4-0.3-0.8-0.6-1.2c-0.3-0.4-0.6-0.8-1-1.2c-0.4-0.4-0.9-0.7-1.5-0.9c-0.6-0.2-1.2-0.4-2-0.4l0,0c-0.5,0-1,0.1-1.5,0.2
		c-0.5,0.2-0.9,0.4-1.2,0.7c-0.3,0.3-0.6,0.6-0.8,1.1c-0.2,0.4-0.3,0.9-0.3,1.5l0,0c0,0.8,0.3,1.6,0.8,2.3c0.5,0.7,1.2,1.5,1.9,2.2
		c0.8,0.7,1.6,1.5,2.5,2.2c0.9,0.7,1.7,1.5,2.5,2.3c0.8,0.8,1.4,1.7,1.9,2.6c0.5,0.9,0.8,1.9,0.8,2.9l0,0c0,0.9-0.2,1.7-0.5,2.5
		c-0.3,0.8-0.8,1.5-1.4,2.2c-0.6,0.6-1.4,1.1-2.4,1.5c-1,0.4-2.1,0.6-3.5,0.6l0,0c-0.8,0-1.5-0.1-2.2-0.2c-0.7-0.2-1.3-0.3-1.9-0.6
		c-0.6-0.2-1.1-0.5-1.6-0.7c-0.5-0.3-0.9-0.5-1.2-0.8l0,0l0.2-4.8h0.4c0.2,0.8,0.4,1.5,0.7,2.2c0.3,0.6,0.7,1.2,1.2,1.7
		s1.1,0.8,1.7,1.1c0.6,0.3,1.3,0.4,2.1,0.4l0,0c1.2,0,2.2-0.3,2.9-1c0.7-0.7,1.1-1.6,1.1-2.7l0,0c0-0.9-0.2-1.7-0.7-2.4
		c-0.5-0.7-1.1-1.5-1.9-2.1c-0.8-0.7-1.6-1.4-2.4-2c-0.9-0.7-1.7-1.4-2.4-2.2c-0.8-0.8-1.4-1.6-1.9-2.5c-0.5-0.9-0.7-2-0.7-3.2l0,0
		c0-1,0.2-1.9,0.5-2.7c0.4-0.8,0.9-1.5,1.5-2.1c0.6-0.6,1.4-1,2.3-1.3c0.9-0.3,1.9-0.5,2.9-0.5l0,0c1.4,0,2.5,0.1,3.5,0.4
		C265,35.5,265.7,35.8,266.2,36.1L266.2,36.1L266.2,36.1z M271.2,47.9L271.2,47.9c0-1.9,0.3-3.6,1-5.2c0.7-1.6,1.7-3,2.9-4.2
		c1.2-1.2,2.7-2.1,4.3-2.8c1.7-0.7,3.5-1,5.4-1l0,0c1.9,0,3.7,0.3,5.3,0.9c1.7,0.6,3.1,1.5,4.3,2.7c1.2,1.2,2.2,2.6,2.9,4.2
		c0.7,1.7,1.1,3.5,1.1,5.6l0,0c0,1.7-0.3,3.4-0.9,5c-0.6,1.6-1.5,3-2.7,4.2c-1.2,1.2-2.6,2.2-4.3,2.9c-1.7,0.7-3.6,1.1-5.8,1.1l0,0
		c-1.9,0-3.6-0.3-5.3-0.9c-1.7-0.6-3.1-1.5-4.3-2.7c-1.2-1.1-2.2-2.5-2.9-4.2C271.5,51.8,271.2,50,271.2,47.9L271.2,47.9z
		 M285.4,59.4L285.4,59.4c1.2,0,2.3-0.2,3.3-0.7c1-0.5,1.8-1.1,2.6-2c0.7-0.9,1.3-2,1.7-3.2c0.4-1.3,0.6-2.7,0.6-4.3l0,0
		c0-1.8-0.2-3.5-0.6-5c-0.4-1.5-1-2.9-1.7-4c-0.8-1.1-1.7-2-2.9-2.6c-1.1-0.6-2.5-1-4-1l0,0c-1.2,0-2.3,0.2-3.2,0.7
		c-1,0.5-1.8,1.1-2.6,2c-0.7,0.9-1.3,1.9-1.7,3.2c-0.4,1.3-0.6,2.7-0.6,4.3l0,0c0,1.8,0.2,3.5,0.6,5c0.4,1.5,1,2.9,1.7,4
		c0.8,1.1,1.7,2,2.9,2.7S283.8,59.4,285.4,59.4L285.4,59.4z M320.7,51v-7.1c0-1.1-0.1-2-0.3-2.8c-0.2-0.8-0.5-1.5-1-2
		c-0.4-0.5-0.9-0.9-1.5-1.2c-0.6-0.3-1.3-0.4-2-0.4l0,0c-0.5,0-1.1,0.1-1.7,0.3c-0.6,0.2-1.3,0.5-1.9,0.8c-0.7,0.3-1.3,0.7-2,1.2
		c-0.7,0.5-1.3,0.9-1.9,1.4l0,0c0,0.5-0.1,1.1-0.1,1.7c0,0.6,0,1.3,0,2l0,0V51c0,1.4,0,2.7,0.1,3.7c0,1.1,0.1,2,0.2,2.7
		c0.1,0.8,0.1,1.4,0.2,1.9c0.1,0.5,0.2,1,0.3,1.3l0,0v0.1h-5.8v-0.1c0.1-0.3,0.2-0.8,0.3-1.3c0.1-0.5,0.2-1.2,0.2-1.9
		c0.1-0.8,0.1-1.7,0.1-2.7c0-1.1,0.1-2.3,0.1-3.7l0,0v-6.1c0-1.4,0-2.6-0.1-3.7c0-1.1-0.1-2-0.1-2.7c-0.1-0.8-0.1-1.4-0.2-1.9
		c-0.1-0.5-0.2-0.9-0.3-1.3l0,0v-0.1h5.8v0.1c-0.1,0.4-0.2,0.9-0.3,1.5c-0.1,0.6-0.2,1.3-0.2,2.2l0,0c0.7-0.5,1.4-1.1,2.2-1.6
		c0.8-0.5,1.6-1,2.4-1.4c0.8-0.4,1.6-0.7,2.4-1c0.8-0.2,1.6-0.4,2.4-0.4l0,0c1,0,1.8,0.1,2.5,0.4c0.7,0.3,1.4,0.6,1.9,1
		c0.6,0.4,1,0.9,1.4,1.5c0.4,0.6,0.7,1.2,0.9,1.9l0,0c0.7-0.6,1.4-1.2,2.2-1.7c0.8-0.6,1.6-1.1,2.5-1.5c0.9-0.5,1.7-0.8,2.6-1.1
		c0.9-0.3,1.8-0.4,2.6-0.4l0,0c1.3,0,2.4,0.2,3.3,0.7c0.9,0.5,1.7,1,2.2,1.8c0.6,0.7,1,1.6,1.2,2.5c0.3,0.9,0.4,1.9,0.4,2.9l0,0V51
		c0,1.4,0,2.7,0.1,3.7c0,1.1,0.1,2,0.2,2.7c0.1,0.8,0.1,1.4,0.2,1.9c0.1,0.5,0.2,1,0.3,1.3l0,0v0.1h-5.8v-0.1
		c0.1-0.3,0.2-0.8,0.3-1.3c0.1-0.5,0.2-1.2,0.2-1.9c0.1-0.8,0.1-1.7,0.2-2.7c0-1.1,0.1-2.3,0.1-3.7l0,0v-7.1c0-2.2-0.4-3.8-1.3-4.9
		c-0.9-1-2.1-1.5-3.5-1.5l0,0c-0.5,0-1.1,0.1-1.7,0.3c-0.6,0.2-1.3,0.5-1.9,0.8c-0.7,0.3-1.3,0.8-2,1.2c-0.7,0.5-1.3,1-1.9,1.5l0,0
		c0,0.2,0.1,0.4,0.1,0.6c0,0.2,0,0.4,0,0.6l0,0V51c0,1.4,0,2.7,0.1,3.7c0,1.1,0.1,2,0.1,2.7c0.1,0.8,0.1,1.4,0.2,1.9
		c0.1,0.5,0.2,1,0.3,1.3l0,0v0.1H320v-0.1c0.1-0.3,0.2-0.8,0.3-1.3c0.1-0.5,0.2-1.2,0.2-1.9c0.1-0.8,0.1-1.7,0.2-2.7
		C320.7,53.7,320.7,52.4,320.7,51C320.7,51,320.7,51,320.7,51z M360.5,61.2L360.5,61.2c-1.9,0-3.6-0.3-5.2-0.9
		c-1.6-0.6-3-1.4-4.2-2.6c-1.2-1.1-2.1-2.5-2.8-4.2c-0.7-1.7-1-3.6-1-5.7l0,0c0-1.9,0.3-3.6,1-5.2c0.6-1.6,1.5-3,2.6-4.2
		c1.1-1.2,2.4-2.1,3.9-2.8c1.5-0.7,3.1-1,4.8-1l0,0c1.7,0,3.3,0.3,4.8,0.9c1.5,0.6,2.7,1.5,3.8,2.6c1.1,1.1,1.9,2.5,2.5,4.2
		c0.6,1.7,1,3.5,1,5.7l0,0c-1.9,0-3.8-0.1-5.6-0.1c-1.9,0-3.8,0-5.9,0l0,0c-1.4,0-2.9,0-4.2,0c-1.4,0-2.6,0-3.7,0.1l0,0
		c0.1,1.7,0.4,3.3,0.8,4.7c0.4,1.4,1.1,2.6,1.8,3.6c0.8,1,1.7,1.8,2.8,2.3c1.1,0.5,2.4,0.8,3.8,0.8l0,0c1,0,1.9-0.1,2.7-0.3
		c0.9-0.2,1.6-0.5,2.3-0.9c0.7-0.4,1.3-0.9,1.9-1.4c0.6-0.5,1-1.1,1.4-1.8l0,0l0.3,0.1l-1.9,4.5c-0.9,0.5-2,0.9-3.2,1.2
		C363.8,61.1,362.3,61.2,360.5,61.2L360.5,61.2z M357.2,46L357.2,46c1.7,0,3.3,0,5,0c1.7,0,3.2,0,4.6-0.1l0,0
		c-0.2-1.5-0.4-2.8-0.8-3.9c-0.4-1.2-0.9-2.1-1.6-2.9s-1.4-1.4-2.3-1.9c-0.9-0.4-1.9-0.6-2.9-0.6l0,0c-1,0-1.9,0.2-2.7,0.6
		s-1.5,1-2.1,1.8c-0.6,0.8-1.1,1.8-1.5,2.9c-0.4,1.2-0.6,2.5-0.6,4l0,0c0.7,0,1.5,0.1,2.4,0.1C355.4,46,356.3,46,357.2,46L357.2,46z
		 M373.7,62.3l19-40.3l2.3,1.1l-19,40.4C376,63.5,373.7,62.3,373.7,62.3z M404.4,45.4V51c0,1.4,0,2.7,0.1,3.7c0,1.1,0.1,2,0.2,2.7
		c0.1,0.8,0.1,1.4,0.2,1.9c0.1,0.5,0.2,1,0.3,1.3l0,0v0.1h-6v-0.1c0.1-0.3,0.2-0.8,0.3-1.3c0.1-0.5,0.2-1.2,0.2-1.9
		c0.1-0.8,0.1-1.7,0.1-2.7c0-1.1,0.1-2.3,0.1-3.7l0,0V34.7c0-1.4,0-2.7-0.1-3.7c0-1.1-0.1-2-0.1-2.7c-0.1-0.8-0.1-1.4-0.2-1.9
		c-0.1-0.5-0.2-1-0.3-1.3l0,0v-0.1l1,0.1c0.3,0,0.7,0.1,1.1,0.1c0.4,0,0.8,0,1.2,0l0,0c0.7,0,1.5-0.1,2.6-0.2
		c1.1-0.2,2.5-0.2,4.2-0.2l0,0c1.6,0,3.1,0.2,4.4,0.7c1.4,0.4,2.5,1.1,3.5,1.9c1,0.8,1.8,1.9,2.3,3.1c0.6,1.2,0.8,2.6,0.8,4.1l0,0
		c0,1.2-0.2,2.3-0.5,3.3c-0.3,1-0.7,2-1.3,2.8c-0.6,0.8-1.2,1.6-2,2.2s-1.7,1.2-2.6,1.6l0,0l8.8,12.3c0.4,0.6,0.8,1.2,1.2,1.6
		c0.4,0.5,0.7,0.8,1.1,1.2c0.3,0.3,0.7,0.6,1,0.8c0.3,0.2,0.6,0.4,1,0.5l0,0v0.1h-7.2c0-0.3-0.2-0.7-0.5-1.3c-0.3-0.5-0.6-1-1-1.6
		l0,0l-8.8-12.5c-0.4,0-0.8,0.1-1.1,0.1c-0.4,0-0.8,0-1.2,0l0,0c-0.5,0-0.9,0-1.4-0.1C405.4,45.5,404.9,45.5,404.4,45.4L404.4,45.4
		L404.4,45.4z M404.4,26.9v16.5c0.5,0.1,0.9,0.2,1.4,0.2c0.5,0,0.9,0.1,1.4,0.1l0,0c1.2,0,2.4-0.2,3.4-0.6c1-0.4,1.9-0.9,2.6-1.7
		c0.7-0.8,1.3-1.7,1.7-2.9c0.4-1.1,0.6-2.5,0.6-4l0,0c0-1.3-0.1-2.4-0.4-3.4c-0.3-1-0.7-1.9-1.3-2.6c-0.6-0.7-1.3-1.3-2.1-1.6
		c-0.8-0.4-1.8-0.6-3-0.6l0,0c-1.2,0-2.1,0.1-2.8,0.2C405.3,26.6,404.7,26.7,404.4,26.9L404.4,26.9L404.4,26.9z M440.8,61.2
		L440.8,61.2c-1.9,0-3.6-0.3-5.2-0.9c-1.6-0.6-3-1.4-4.2-2.6c-1.2-1.1-2.1-2.5-2.8-4.2c-0.7-1.7-1-3.6-1-5.7l0,0
		c0-1.9,0.3-3.6,0.9-5.2c0.6-1.6,1.5-3,2.6-4.2c1.1-1.2,2.4-2.1,3.9-2.8c1.5-0.7,3.1-1,4.8-1l0,0c1.7,0,3.3,0.3,4.8,0.9
		c1.5,0.6,2.7,1.5,3.8,2.6c1.1,1.1,1.9,2.5,2.5,4.2c0.6,1.7,1,3.5,1,5.7l0,0c-1.9,0-3.8-0.1-5.7-0.1c-1.9,0-3.8,0-5.9,0l0,0
		c-1.4,0-2.9,0-4.2,0c-1.4,0-2.6,0-3.7,0.1l0,0c0.1,1.7,0.4,3.3,0.8,4.7c0.4,1.4,1.1,2.6,1.8,3.6c0.8,1,1.7,1.8,2.8,2.3
		c1.1,0.5,2.4,0.8,3.8,0.8l0,0c1,0,1.9-0.1,2.7-0.3c0.9-0.2,1.6-0.5,2.3-0.9c0.7-0.4,1.3-0.9,1.9-1.4c0.6-0.5,1-1.1,1.4-1.8l0,0
		l0.3,0.1l-1.8,4.5c-0.9,0.5-2,0.9-3.2,1.2C444.1,61.1,442.6,61.2,440.8,61.2L440.8,61.2z M437.5,46L437.5,46c1.7,0,3.3,0,5,0
		c1.7,0,3.2,0,4.6-0.1l0,0c-0.2-1.5-0.4-2.8-0.8-3.9c-0.4-1.2-1-2.1-1.6-2.9c-0.6-0.8-1.4-1.4-2.3-1.9c-0.9-0.4-1.9-0.6-2.9-0.6l0,0
		c-1,0-1.9,0.2-2.7,0.6c-0.8,0.4-1.5,1-2.1,1.8c-0.6,0.8-1.1,1.8-1.5,2.9c-0.4,1.2-0.6,2.5-0.6,4l0,0c0.8,0,1.5,0.1,2.4,0.1
		C435.7,46,436.6,46,437.5,46L437.5,46z M467.1,72.2L467.1,72.2c1.4,0,2.5-0.1,3.4-0.4c0.9-0.3,1.7-0.7,2.3-1.2
		c0.6-0.5,1.1-1.1,1.4-1.9c0.3-0.7,0.6-1.5,0.7-2.4c0.2-0.9,0.2-1.8,0.3-2.8c0-1,0-2,0-3.1l0,0v-0.8c-0.8,0.4-1.8,0.8-2.9,1.1
		c-1.2,0.3-2.5,0.5-3.9,0.5l0,0c-2,0-3.8-0.3-5.4-0.9c-1.6-0.6-3-1.5-4.1-2.7c-1.1-1.1-2-2.5-2.6-4.2c-0.6-1.6-0.9-3.5-0.9-5.5l0,0
		c0-1.9,0.3-3.6,0.9-5.3c0.6-1.6,1.5-3,2.6-4.2c1.1-1.2,2.4-2.1,4-2.8c1.5-0.7,3.2-1,5.1-1l0,0c0.8,0,1.5,0.1,2.2,0.2
		c0.7,0.1,1.3,0.3,1.9,0.5c0.6,0.2,1.1,0.5,1.6,0.8c0.5,0.3,1,0.6,1.5,0.9l0,0l-0.2-1.9v-0.1h5.5v0.1c-0.1,0.4-0.2,0.8-0.3,1.3
		c-0.1,0.5-0.2,1.2-0.2,1.9c-0.1,0.8-0.1,1.7-0.1,2.7c0,1.1-0.1,2.3-0.1,3.7l0,0v17c0,1.5-0.2,3-0.6,4.5c-0.4,1.5-1.1,2.7-2.1,3.9
		s-2.3,2-3.9,2.7c-1.6,0.7-3.6,1-6,1l0,0c-0.8,0-1.7-0.1-2.5-0.2c-0.9-0.2-1.7-0.3-2.4-0.6s-1.5-0.5-2.1-0.7
		c-0.6-0.3-1.1-0.5-1.5-0.7l0,0l-0.8-4.8l0.4-0.1c0.4,0.9,0.9,1.6,1.6,2.3c0.7,0.7,1.4,1.2,2.3,1.6c0.8,0.4,1.7,0.8,2.5,1
		C465.5,72.1,466.3,72.2,467.1,72.2L467.1,72.2z M469.5,59.4L469.5,59.4c1.2,0,2.3-0.2,3.3-0.6c1-0.4,1.8-0.9,2.5-1.4l0,0V44.9
		c0-0.9,0-1.8,0-2.5c0-0.8,0-1.4,0-2.1l0,0c-0.4-0.6-0.9-1.2-1.4-1.6c-0.5-0.5-1.1-0.9-1.7-1.2c-0.6-0.3-1.2-0.6-1.8-0.7
		c-0.6-0.2-1.2-0.3-1.8-0.3l0,0c-1.3,0-2.4,0.2-3.4,0.7c-1,0.5-1.9,1.1-2.6,2c-0.7,0.9-1.2,1.9-1.6,3.2c-0.4,1.3-0.6,2.7-0.6,4.3
		l0,0c0,1.8,0.2,3.5,0.6,5c0.4,1.5,1,2.9,1.8,4c0.8,1.1,1.7,2,2.9,2.7C466.7,59.1,468,59.4,469.5,59.4L469.5,59.4z M498.5,61.2
		L498.5,61.2c-1.9,0-3.6-0.3-5.2-0.9c-1.6-0.6-3-1.4-4.2-2.6c-1.2-1.1-2.1-2.5-2.8-4.2c-0.7-1.7-1-3.6-1-5.7l0,0
		c0-1.9,0.3-3.6,1-5.2c0.6-1.6,1.5-3,2.6-4.2c1.1-1.2,2.4-2.1,3.9-2.8c1.5-0.7,3.1-1,4.8-1l0,0c1.7,0,3.3,0.3,4.8,0.9
		c1.5,0.6,2.7,1.5,3.8,2.6c1.1,1.1,1.9,2.5,2.5,4.2c0.6,1.7,1,3.5,1,5.7l0,0c-1.9,0-3.8-0.1-5.7-0.1c-1.9,0-3.8,0-5.9,0l0,0
		c-1.4,0-2.9,0-4.2,0c-1.4,0-2.6,0-3.7,0.1l0,0c0.1,1.7,0.4,3.3,0.8,4.7c0.4,1.4,1.1,2.6,1.8,3.6c0.8,1,1.7,1.8,2.8,2.3
		c1.1,0.5,2.4,0.8,3.8,0.8l0,0c1,0,1.9-0.1,2.7-0.3c0.9-0.2,1.6-0.5,2.3-0.9c0.7-0.4,1.3-0.9,1.9-1.4c0.6-0.5,1-1.1,1.4-1.8l0,0
		l0.3,0.1l-1.8,4.5c-0.9,0.5-2,0.9-3.2,1.2C501.7,61.1,500.2,61.2,498.5,61.2L498.5,61.2z M495.2,46L495.2,46c1.7,0,3.3,0,5,0
		c1.7,0,3.2,0,4.6-0.1l0,0c-0.2-1.5-0.4-2.8-0.8-3.9c-0.4-1.2-1-2.1-1.6-2.9c-0.6-0.8-1.4-1.4-2.3-1.9c-0.9-0.4-1.9-0.6-2.9-0.6l0,0
		c-1,0-1.9,0.2-2.7,0.6c-0.8,0.4-1.5,1-2.1,1.8c-0.6,0.8-1.1,1.8-1.5,2.9c-0.4,1.2-0.6,2.5-0.6,4l0,0c0.8,0,1.5,0.1,2.4,0.1
		C493.4,46,494.3,46,495.2,46L495.2,46z M529.1,57.2l-5.4-7.2l-6,7.6c-0.2,0.3-0.4,0.6-0.7,0.9c-0.2,0.3-0.4,0.6-0.6,0.9
		c-0.2,0.3-0.3,0.6-0.4,0.8c-0.1,0.2-0.2,0.5-0.2,0.6l0,0h-4.2v-0.1c0.3-0.2,0.6-0.6,1.1-1.1c0.5-0.5,1-1,1.5-1.7l0,0l7.9-10
		l-7.7-10.5c-0.4-0.6-0.9-1-1.3-1.4c-0.4-0.4-0.7-0.7-0.9-0.8l0,0v-0.1h6.9c0,0.3,0.1,0.7,0.3,1.3c0.2,0.6,0.6,1.3,1.2,2.2l0,0
		l4.2,5.8l4.8-6.1c0.2-0.3,0.4-0.5,0.6-0.8c0.2-0.3,0.4-0.6,0.6-0.9c0.2-0.3,0.3-0.6,0.4-0.8c0.1-0.3,0.1-0.5,0.1-0.6l0,0h4.2v0.1
		c-0.2,0.2-0.5,0.5-0.9,0.8c-0.3,0.4-0.8,0.9-1.4,1.6l0,0l-7,8.9l8.4,11.4c0.6,0.8,1.1,1.4,1.6,1.9c0.5,0.5,0.8,0.8,1,0.9l0,0v0.1
		h-6.8c0-0.3-0.1-0.7-0.3-1.4C530.1,58.8,529.7,58.1,529.1,57.2L529.1,57.2L529.1,57.2z"/>
</g>
<g>
	<path class="st1" d="M161,74v7.3c0,0.8-0.2,1.5-0.5,2.1c-0.3,0.6-0.8,1.1-1.5,1.5c-0.6,0.4-1.5,0.5-2.4,0.5c-1.4,0-2.5-0.4-3.2-1.1
		c-0.7-0.8-1.1-1.8-1.1-3V74h1.3v7.3c0,1,0.3,1.7,0.8,2.2c0.5,0.5,1.3,0.8,2.3,0.8c0.7,0,1.3-0.1,1.7-0.4c0.4-0.2,0.8-0.6,1-1.1
		c0.2-0.5,0.3-1,0.3-1.6V74H161z"/>
	<path class="st1" d="M167.8,76.6c1,0,1.8,0.2,2.3,0.7c0.5,0.5,0.8,1.3,0.8,2.4v5.5h-1.3v-5.4c0-0.7-0.2-1.2-0.5-1.6
		s-0.8-0.5-1.5-0.5c-0.9,0-1.6,0.3-2,0.8c-0.4,0.5-0.6,1.3-0.6,2.3v4.4h-1.3v-8.5h1L165,78h0.1c0.2-0.3,0.4-0.6,0.7-0.8
		c0.3-0.2,0.6-0.4,0.9-0.5C167,76.7,167.4,76.6,167.8,76.6z"/>
	<path class="st1" d="M174.7,85.3h-1.3v-12h1.3V85.3z"/>
	<path class="st1" d="M184.7,81c0,0.7-0.1,1.3-0.3,1.9c-0.2,0.5-0.4,1-0.8,1.4c-0.3,0.4-0.8,0.7-1.2,0.9c-0.5,0.2-1,0.3-1.6,0.3
		c-0.6,0-1.1-0.1-1.6-0.3c-0.5-0.2-0.9-0.5-1.2-0.9c-0.3-0.4-0.6-0.8-0.8-1.4c-0.2-0.5-0.3-1.2-0.3-1.9c0-0.9,0.2-1.7,0.5-2.4
		s0.8-1.1,1.3-1.5c0.6-0.3,1.3-0.5,2.1-0.5c0.8,0,1.5,0.2,2,0.5c0.6,0.3,1,0.8,1.4,1.5C184.6,79.3,184.7,80.1,184.7,81z M178.3,81
		c0,0.7,0.1,1.3,0.3,1.8c0.2,0.5,0.5,0.9,0.8,1.2c0.4,0.3,0.9,0.4,1.5,0.4c0.6,0,1.1-0.1,1.4-0.4c0.4-0.3,0.7-0.7,0.8-1.2
		c0.2-0.5,0.3-1.1,0.3-1.8c0-0.7-0.1-1.3-0.3-1.8c-0.2-0.5-0.5-0.9-0.8-1.1c-0.4-0.3-0.9-0.4-1.5-0.4c-0.9,0-1.5,0.3-1.9,0.9
		C178.5,79.2,178.3,80,178.3,81z"/>
	<path class="st1" d="M190.3,85.4c-0.8,0-1.4-0.2-2-0.5c-0.6-0.3-1-0.8-1.4-1.4c-0.3-0.6-0.5-1.5-0.5-2.4c0-1,0.2-1.9,0.5-2.5
		c0.3-0.7,0.8-1.1,1.4-1.5c0.6-0.3,1.3-0.5,2.1-0.5c0.4,0,0.8,0,1.2,0.1c0.4,0.1,0.7,0.2,1,0.3l-0.4,1.1c-0.3-0.1-0.6-0.2-0.9-0.3
		c-0.3-0.1-0.7-0.1-0.9-0.1c-0.6,0-1.1,0.1-1.5,0.4c-0.4,0.3-0.7,0.6-0.9,1.1c-0.2,0.5-0.3,1.1-0.3,1.8c0,0.7,0.1,1.3,0.3,1.8
		c0.2,0.5,0.5,0.9,0.8,1.1c0.4,0.3,0.8,0.4,1.4,0.4c0.4,0,0.9,0,1.2-0.1c0.4-0.1,0.7-0.2,1-0.3V85c-0.3,0.1-0.6,0.3-0.9,0.3
		C191.2,85.4,190.8,85.4,190.3,85.4z"/>
	<path class="st1" d="M195.7,73.2v6.2c0,0.2,0,0.5,0,0.8c0,0.3,0,0.6,0,0.8h0.1c0.1-0.1,0.3-0.3,0.5-0.6c0.2-0.3,0.4-0.5,0.5-0.6
		l2.8-3h1.5l-3.4,3.6l3.7,4.9h-1.5l-3-4l-1,0.9v3.1h-1.3v-12H195.7z"/>
	<path class="st1" d="M209.6,84.4c0.2,0,0.4,0,0.6-0.1c0.2,0,0.4-0.1,0.5-0.1v1c-0.1,0.1-0.4,0.1-0.6,0.2c-0.3,0-0.5,0.1-0.8,0.1
		c-0.4,0-0.9-0.1-1.2-0.2c-0.4-0.2-0.7-0.4-0.9-0.8c-0.2-0.4-0.3-0.9-0.3-1.6v-5h-1.2v-0.6l1.2-0.5l0.5-1.8h0.8v2h2.5v1h-2.5v5
		c0,0.5,0.1,0.9,0.4,1.2C208.8,84.2,209.2,84.4,209.6,84.4z"/>
	<path class="st1" d="M213.7,73.2v3.6c0,0.2,0,0.4,0,0.6c0,0.2,0,0.4-0.1,0.6h0.1c0.2-0.3,0.4-0.6,0.7-0.8c0.3-0.2,0.6-0.4,0.9-0.5
		c0.3-0.1,0.7-0.2,1.1-0.2c0.7,0,1.2,0.1,1.7,0.3c0.5,0.2,0.8,0.6,1,1c0.2,0.5,0.3,1,0.3,1.8v5.5h-1.3v-5.4c0-0.7-0.2-1.2-0.5-1.6
		c-0.3-0.4-0.8-0.5-1.5-0.5c-0.6,0-1.1,0.1-1.5,0.4c-0.4,0.2-0.6,0.6-0.8,1.1c-0.2,0.5-0.2,1-0.2,1.7v4.4h-1.3v-12H213.7z"/>
	<path class="st1" d="M225.4,76.6c0.7,0,1.3,0.2,1.9,0.5c0.5,0.3,0.9,0.8,1.2,1.3c0.3,0.6,0.4,1.2,0.4,2v0.8H223
		c0,1,0.3,1.8,0.7,2.3c0.5,0.5,1.2,0.8,2,0.8c0.5,0,1,0,1.4-0.1c0.4-0.1,0.8-0.2,1.3-0.4v1.1c-0.4,0.2-0.9,0.3-1.3,0.4
		c-0.4,0.1-0.9,0.1-1.5,0.1c-0.8,0-1.5-0.2-2.1-0.5s-1.1-0.8-1.4-1.5c-0.3-0.6-0.5-1.4-0.5-2.4c0-0.9,0.2-1.7,0.5-2.4
		c0.3-0.7,0.7-1.2,1.3-1.5C224,76.8,224.6,76.6,225.4,76.6z M225.4,77.7c-0.7,0-1.2,0.2-1.6,0.7c-0.4,0.4-0.6,1.1-0.7,1.9h4.5
		c0-0.5-0.1-1-0.2-1.3c-0.2-0.4-0.4-0.7-0.7-0.9C226.3,77.8,225.9,77.7,225.4,77.7z"/>
	<path class="st1" d="M239.1,76.6c1.1,0,1.9,0.4,2.5,1.1c0.6,0.7,0.9,1.8,0.9,3.3c0,1-0.1,1.8-0.4,2.4c-0.3,0.7-0.7,1.1-1.2,1.5
		c-0.5,0.3-1.1,0.5-1.9,0.5c-0.4,0-0.8-0.1-1.2-0.2c-0.3-0.1-0.6-0.3-0.9-0.5c-0.2-0.2-0.4-0.4-0.6-0.7h-0.1c0,0.2,0,0.4,0.1,0.7
		c0,0.3,0,0.5,0,0.7v3.5h-1.3V76.8h1.1l0.2,1.3h0.1c0.2-0.3,0.4-0.5,0.6-0.7c0.2-0.2,0.5-0.4,0.9-0.5
		C238.2,76.7,238.6,76.6,239.1,76.6z M238.8,77.7c-0.6,0-1.1,0.1-1.4,0.3c-0.4,0.2-0.6,0.6-0.8,1c-0.2,0.5-0.3,1-0.3,1.7V81
		c0,0.7,0.1,1.3,0.2,1.8c0.2,0.5,0.4,0.9,0.8,1.1c0.4,0.3,0.9,0.4,1.5,0.4c0.5,0,1-0.1,1.3-0.4c0.4-0.3,0.6-0.7,0.8-1.2
		c0.2-0.5,0.3-1.1,0.3-1.8c0-1-0.2-1.8-0.6-2.4C240.2,78,239.6,77.7,238.8,77.7z"/>
	<path class="st1" d="M252,81c0,0.7-0.1,1.3-0.3,1.9c-0.2,0.5-0.4,1-0.8,1.4c-0.3,0.4-0.8,0.7-1.2,0.9c-0.5,0.2-1,0.3-1.6,0.3
		c-0.6,0-1.1-0.1-1.6-0.3c-0.5-0.2-0.9-0.5-1.2-0.9c-0.3-0.4-0.6-0.8-0.8-1.4c-0.2-0.5-0.3-1.2-0.3-1.9c0-0.9,0.2-1.7,0.5-2.4
		s0.8-1.1,1.3-1.5c0.6-0.3,1.3-0.5,2.1-0.5c0.8,0,1.5,0.2,2,0.5c0.6,0.3,1,0.8,1.4,1.5C251.9,79.3,252,80.1,252,81z M245.6,81
		c0,0.7,0.1,1.3,0.3,1.8c0.2,0.5,0.5,0.9,0.8,1.2c0.4,0.3,0.9,0.4,1.5,0.4c0.6,0,1.1-0.1,1.4-0.4c0.4-0.3,0.7-0.7,0.8-1.2
		c0.2-0.5,0.3-1.1,0.3-1.8c0-0.7-0.1-1.3-0.3-1.8c-0.2-0.5-0.5-0.9-0.8-1.1c-0.4-0.3-0.9-0.4-1.5-0.4c-0.9,0-1.5,0.3-1.9,0.9
		C245.8,79.2,245.6,80,245.6,81z"/>
	<path class="st1" d="M261.1,85.3l-1.5-4.9c-0.1-0.2-0.1-0.4-0.2-0.6c-0.1-0.2-0.1-0.4-0.2-0.6c0-0.2-0.1-0.4-0.1-0.5
		c0-0.2-0.1-0.3-0.1-0.4H259c0,0.1,0,0.3-0.1,0.4s-0.1,0.3-0.1,0.5c0,0.2-0.1,0.4-0.2,0.6c-0.1,0.2-0.1,0.4-0.2,0.6l-1.6,4.9h-1.4
		l-2.3-8.5h1.3l1.2,4.7c0.1,0.3,0.2,0.6,0.2,0.9s0.1,0.6,0.2,0.9s0.1,0.5,0.1,0.7h0.1c0-0.1,0.1-0.3,0.1-0.5c0-0.2,0.1-0.4,0.1-0.6
		c0-0.2,0.1-0.4,0.2-0.6c0.1-0.2,0.1-0.4,0.2-0.6l1.6-4.9h1.4l1.5,4.9c0.1,0.2,0.2,0.5,0.2,0.8c0.1,0.3,0.1,0.5,0.2,0.8
		c0.1,0.2,0.1,0.5,0.1,0.7h0.1c0-0.2,0.1-0.4,0.1-0.6c0.1-0.3,0.1-0.5,0.2-0.9c0.1-0.3,0.2-0.6,0.2-0.9l1.2-4.7h1.3l-2.3,8.5H261.1z
		"/>
	<path class="st1" d="M269.7,76.6c0.7,0,1.3,0.2,1.9,0.5c0.5,0.3,0.9,0.8,1.2,1.3c0.3,0.6,0.4,1.2,0.4,2v0.8h-5.9
		c0,1,0.3,1.8,0.7,2.3c0.5,0.5,1.2,0.8,2,0.8c0.5,0,1,0,1.4-0.1c0.4-0.1,0.8-0.2,1.3-0.4v1.1c-0.4,0.2-0.9,0.3-1.3,0.4
		c-0.4,0.1-0.9,0.1-1.5,0.1c-0.8,0-1.5-0.2-2.1-0.5s-1.1-0.8-1.4-1.5c-0.3-0.6-0.5-1.4-0.5-2.4c0-0.9,0.2-1.7,0.5-2.4
		c0.3-0.7,0.7-1.2,1.3-1.5C268.3,76.8,269,76.6,269.7,76.6z M269.7,77.7c-0.7,0-1.2,0.2-1.6,0.7c-0.4,0.4-0.6,1.1-0.7,1.9h4.5
		c0-0.5-0.1-1-0.2-1.3c-0.2-0.4-0.4-0.7-0.7-0.9C270.6,77.8,270.2,77.7,269.7,77.7z"/>
	<path class="st1" d="M279.2,76.6c0.2,0,0.3,0,0.5,0c0.2,0,0.4,0,0.5,0.1l-0.2,1.2c-0.1,0-0.3-0.1-0.5-0.1c-0.2,0-0.3,0-0.5,0
		c-0.3,0-0.7,0.1-1,0.2c-0.3,0.1-0.6,0.3-0.8,0.6c-0.2,0.3-0.4,0.6-0.5,0.9c-0.1,0.4-0.2,0.8-0.2,1.2v4.5h-1.3v-8.5h1.1l0.1,1.6h0.1
		c0.2-0.3,0.4-0.6,0.6-0.9c0.2-0.3,0.5-0.5,0.9-0.6C278.4,76.7,278.8,76.6,279.2,76.6z"/>
	<path class="st1" d="M293.2,81c0,0.7-0.1,1.3-0.3,1.9c-0.2,0.5-0.4,1-0.8,1.4c-0.3,0.4-0.8,0.7-1.2,0.9c-0.5,0.2-1,0.3-1.6,0.3
		c-0.6,0-1.1-0.1-1.6-0.3c-0.5-0.2-0.9-0.5-1.2-0.9s-0.6-0.8-0.8-1.4c-0.2-0.5-0.3-1.2-0.3-1.9c0-0.9,0.2-1.7,0.5-2.4
		c0.3-0.7,0.8-1.1,1.3-1.5c0.6-0.3,1.3-0.5,2.1-0.5c0.8,0,1.5,0.2,2,0.5c0.6,0.3,1,0.8,1.4,1.5C293,79.3,293.2,80.1,293.2,81z
		 M286.7,81c0,0.7,0.1,1.3,0.3,1.8c0.2,0.5,0.5,0.9,0.8,1.2c0.4,0.3,0.9,0.4,1.5,0.4c0.6,0,1.1-0.1,1.5-0.4c0.4-0.3,0.7-0.7,0.8-1.2
		c0.2-0.5,0.3-1.1,0.3-1.8c0-0.7-0.1-1.3-0.3-1.8c-0.2-0.5-0.5-0.9-0.8-1.1c-0.4-0.3-0.9-0.4-1.5-0.4c-0.9,0-1.5,0.3-1.9,0.9
		C286.9,79.2,286.7,80,286.7,81z"/>
	<path class="st1" d="M299.1,77.8H297v7.5h-1.3v-7.5h-1.5v-0.6l1.5-0.4v-0.6c0-0.7,0.1-1.3,0.3-1.7c0.2-0.4,0.5-0.8,0.9-1
		c0.4-0.2,0.9-0.3,1.5-0.3c0.3,0,0.6,0,0.9,0.1c0.3,0.1,0.5,0.1,0.7,0.2l-0.3,1c-0.2-0.1-0.4-0.1-0.6-0.2c-0.2,0-0.4-0.1-0.7-0.1
		c-0.5,0-0.9,0.2-1.1,0.5c-0.2,0.3-0.4,0.8-0.4,1.5v0.6h2.1V77.8z"/>
	<path class="st1" d="M308.6,76.6c0.2,0,0.3,0,0.5,0c0.2,0,0.3,0,0.5,0.1l-0.2,1.2c-0.1,0-0.3-0.1-0.5-0.1c-0.2,0-0.3,0-0.5,0
		c-0.3,0-0.7,0.1-1,0.2c-0.3,0.1-0.6,0.3-0.8,0.6c-0.2,0.3-0.4,0.6-0.5,0.9c-0.1,0.4-0.2,0.8-0.2,1.2v4.5h-1.3v-8.5h1.1l0.1,1.6h0.1
		c0.2-0.3,0.4-0.6,0.6-0.9c0.2-0.3,0.5-0.5,0.9-0.6C307.8,76.7,308.2,76.6,308.6,76.6z"/>
	<path class="st1" d="M314.4,76.6c0.7,0,1.3,0.2,1.9,0.5c0.5,0.3,0.9,0.8,1.2,1.3c0.3,0.6,0.4,1.2,0.4,2v0.8H312
		c0,1,0.3,1.8,0.7,2.3c0.5,0.5,1.2,0.8,2,0.8c0.5,0,1,0,1.4-0.1c0.4-0.1,0.8-0.2,1.3-0.4v1.1c-0.4,0.2-0.9,0.3-1.3,0.4
		c-0.4,0.1-0.9,0.1-1.5,0.1c-0.8,0-1.5-0.2-2.1-0.5c-0.6-0.3-1.1-0.8-1.4-1.5c-0.3-0.6-0.5-1.4-0.5-2.4c0-0.9,0.2-1.7,0.5-2.4
		s0.7-1.2,1.3-1.5S313.7,76.6,314.4,76.6z M314.4,77.7c-0.7,0-1.2,0.2-1.6,0.7c-0.4,0.4-0.6,1.1-0.7,1.9h4.5c0-0.5-0.1-1-0.2-1.3
		c-0.2-0.4-0.4-0.7-0.7-0.9C315.3,77.8,314.9,77.7,314.4,77.7z"/>
	<path class="st1" d="M322.4,89.1c-1.1,0-2-0.2-2.6-0.6c-0.6-0.4-0.9-1-0.9-1.7c0-0.5,0.2-1,0.5-1.4s0.8-0.6,1.4-0.7
		c-0.2-0.1-0.4-0.3-0.6-0.5c-0.2-0.2-0.2-0.4-0.2-0.7c0-0.3,0.1-0.6,0.3-0.8c0.2-0.2,0.4-0.5,0.8-0.7c-0.4-0.2-0.8-0.5-1.1-0.9
		s-0.4-0.9-0.4-1.5c0-0.6,0.1-1.1,0.4-1.6c0.3-0.4,0.6-0.8,1.1-1c0.5-0.2,1.1-0.3,1.7-0.3c0.1,0,0.3,0,0.5,0c0.2,0,0.3,0,0.4,0.1
		c0.1,0,0.3,0.1,0.4,0.1h2.9v0.8l-1.6,0.2c0.2,0.2,0.3,0.4,0.4,0.7c0.1,0.3,0.2,0.6,0.2,0.9c0,0.8-0.3,1.5-0.9,2
		c-0.6,0.5-1.4,0.7-2.4,0.7c-0.2,0-0.5,0-0.7-0.1c-0.3,0.1-0.4,0.3-0.6,0.5c-0.1,0.2-0.2,0.4-0.2,0.6c0,0.2,0.1,0.3,0.2,0.4
		c0.1,0.1,0.2,0.2,0.4,0.2c0.2,0,0.4,0.1,0.7,0.1h1.5c0.9,0,1.6,0.2,2.1,0.6c0.5,0.4,0.7,1,0.7,1.7c0,0.9-0.4,1.7-1.1,2.2
		C324.9,88.8,323.8,89.1,322.4,89.1z M322.4,88.1c0.7,0,1.3-0.1,1.7-0.2c0.5-0.1,0.8-0.3,1-0.6c0.2-0.3,0.3-0.6,0.3-0.9
		c0-0.3-0.1-0.6-0.2-0.8c-0.2-0.2-0.4-0.3-0.7-0.3c-0.3-0.1-0.7-0.1-1.1-0.1h-1.5c-0.4,0-0.7,0.1-1,0.2c-0.3,0.1-0.5,0.3-0.7,0.5
		c-0.2,0.2-0.2,0.5-0.2,0.9c0,0.5,0.2,0.8,0.6,1C321.2,88,321.7,88.1,322.4,88.1z M322.8,81.3c0.6,0,1.1-0.2,1.4-0.5
		c0.3-0.3,0.5-0.8,0.5-1.4c0-0.6-0.2-1.1-0.5-1.4c-0.3-0.3-0.8-0.5-1.4-0.5c-0.6,0-1,0.2-1.4,0.5c-0.3,0.3-0.5,0.8-0.5,1.4
		c0,0.6,0.2,1,0.5,1.3C321.7,81.1,322.2,81.3,322.8,81.3z"/>
	<path class="st1" d="M335.6,76.8v8.5h-1.1l-0.2-1.2h-0.1c-0.2,0.3-0.4,0.5-0.7,0.7c-0.3,0.2-0.6,0.4-0.9,0.5
		c-0.3,0.1-0.7,0.2-1.1,0.2c-0.7,0-1.2-0.1-1.7-0.3c-0.5-0.2-0.8-0.6-1-1c-0.2-0.5-0.3-1-0.3-1.7v-5.6h1.3v5.5
		c0,0.7,0.2,1.2,0.5,1.6c0.3,0.3,0.8,0.5,1.5,0.5c0.6,0,1.1-0.1,1.5-0.4c0.4-0.2,0.6-0.6,0.8-1c0.2-0.5,0.2-1,0.2-1.7v-4.5H335.6z"
		/>
	<path class="st1" d="M339.6,85.3h-1.3v-12h1.3V85.3z"/>
	<path class="st1" d="M345.4,76.7c1,0,1.8,0.2,2.3,0.7c0.5,0.5,0.7,1.2,0.7,2.2v5.8h-0.9l-0.2-1.3h-0.1c-0.2,0.3-0.5,0.6-0.7,0.8
		c-0.3,0.2-0.6,0.4-0.9,0.5c-0.3,0.1-0.8,0.2-1.2,0.2c-0.5,0-1-0.1-1.4-0.3c-0.4-0.2-0.7-0.5-0.9-0.8c-0.2-0.4-0.3-0.8-0.3-1.4
		c0-0.8,0.3-1.5,1-1.9c0.7-0.5,1.7-0.7,3.1-0.7l1.5-0.1v-0.5c0-0.7-0.2-1.2-0.5-1.5c-0.3-0.3-0.8-0.4-1.3-0.4
		c-0.4,0-0.9,0.1-1.3,0.2c-0.4,0.1-0.8,0.3-1.1,0.5l-0.4-1c0.4-0.2,0.8-0.4,1.3-0.5C344.3,76.7,344.9,76.7,345.4,76.7z M347.1,81.1
		l-1.3,0.1c-1.1,0-1.8,0.2-2.2,0.5c-0.4,0.3-0.6,0.7-0.6,1.3c0,0.5,0.1,0.8,0.4,1.1c0.3,0.2,0.7,0.3,1.2,0.3c0.8,0,1.4-0.2,1.8-0.6
		c0.5-0.4,0.7-1,0.7-1.9V81.1z"/>
	<path class="st1" d="M354.8,76.6c0.2,0,0.3,0,0.5,0c0.2,0,0.4,0,0.5,0.1l-0.2,1.2c-0.1,0-0.3-0.1-0.5-0.1c-0.2,0-0.3,0-0.5,0
		c-0.3,0-0.7,0.1-1,0.2c-0.3,0.1-0.6,0.3-0.8,0.6c-0.2,0.3-0.4,0.6-0.5,0.9c-0.1,0.4-0.2,0.8-0.2,1.2v4.5H351v-8.5h1.1l0.1,1.6h0.1
		c0.2-0.3,0.4-0.6,0.6-0.9c0.2-0.3,0.5-0.5,0.9-0.6C354.1,76.7,354.4,76.6,354.8,76.6z"/>
	<path class="st1" d="M364.8,76.6c0.7,0,1.3,0.2,1.9,0.5c0.5,0.3,0.9,0.8,1.2,1.3c0.3,0.6,0.4,1.2,0.4,2v0.8h-5.9
		c0,1,0.3,1.8,0.7,2.3c0.5,0.5,1.2,0.8,2,0.8c0.5,0,1,0,1.4-0.1c0.4-0.1,0.8-0.2,1.3-0.4v1.1c-0.4,0.2-0.9,0.3-1.3,0.4
		c-0.4,0.1-0.9,0.1-1.5,0.1c-0.8,0-1.5-0.2-2.1-0.5c-0.6-0.3-1.1-0.8-1.4-1.5c-0.3-0.6-0.5-1.4-0.5-2.4c0-0.9,0.2-1.7,0.5-2.4
		s0.7-1.2,1.3-1.5S364,76.6,364.8,76.6z M364.8,77.7c-0.7,0-1.2,0.2-1.6,0.7c-0.4,0.4-0.6,1.1-0.7,1.9h4.5c0-0.5-0.1-1-0.2-1.3
		c-0.2-0.4-0.4-0.7-0.7-0.9C365.6,77.8,365.3,77.7,364.8,77.7z"/>
	<path class="st1" d="M372.4,80.9l-2.9-4.1h1.5l2.2,3.3l2.2-3.3h1.5l-2.9,4.1l3.1,4.3h-1.5l-2.4-3.5l-2.4,3.5h-1.5L372.4,80.9z"/>
	<path class="st1" d="M382.6,76.6c1.1,0,1.9,0.4,2.5,1.1c0.6,0.7,0.9,1.8,0.9,3.3c0,1-0.1,1.8-0.4,2.4c-0.3,0.7-0.7,1.1-1.2,1.5
		c-0.5,0.3-1.1,0.5-1.9,0.5c-0.4,0-0.8-0.1-1.2-0.2c-0.3-0.1-0.6-0.3-0.9-0.5c-0.2-0.2-0.4-0.4-0.6-0.7h-0.1c0,0.2,0,0.4,0.1,0.7
		c0,0.3,0,0.5,0,0.7v3.5h-1.3V76.8h1.1l0.2,1.3h0.1c0.2-0.3,0.4-0.5,0.6-0.7c0.2-0.2,0.5-0.4,0.9-0.5
		C381.7,76.7,382.1,76.6,382.6,76.6z M382.4,77.7c-0.6,0-1.1,0.1-1.4,0.3c-0.4,0.2-0.6,0.6-0.8,1c-0.2,0.5-0.3,1-0.3,1.7V81
		c0,0.7,0.1,1.3,0.2,1.8c0.2,0.5,0.4,0.9,0.8,1.1s0.9,0.4,1.5,0.4c0.5,0,1-0.1,1.3-0.4c0.3-0.3,0.6-0.7,0.8-1.2
		c0.2-0.5,0.3-1.1,0.3-1.8c0-1-0.2-1.8-0.6-2.4C383.8,78,383.2,77.7,382.4,77.7z"/>
	<path class="st1" d="M392.1,76.6c0.2,0,0.3,0,0.5,0c0.2,0,0.4,0,0.5,0.1l-0.2,1.2c-0.1,0-0.3-0.1-0.5-0.1c-0.2,0-0.3,0-0.5,0
		c-0.3,0-0.7,0.1-1,0.2c-0.3,0.1-0.6,0.3-0.8,0.6c-0.2,0.3-0.4,0.6-0.5,0.9s-0.2,0.8-0.2,1.2v4.5h-1.3v-8.5h1.1l0.1,1.6h0.1
		c0.2-0.3,0.4-0.6,0.6-0.9c0.2-0.3,0.5-0.5,0.9-0.6C391.4,76.7,391.7,76.6,392.1,76.6z"/>
	<path class="st1" d="M398,76.6c0.7,0,1.3,0.2,1.9,0.5c0.5,0.3,0.9,0.8,1.2,1.3c0.3,0.6,0.4,1.2,0.4,2v0.8h-5.9c0,1,0.3,1.8,0.7,2.3
		c0.5,0.5,1.2,0.8,2,0.8c0.5,0,1,0,1.4-0.1c0.4-0.1,0.8-0.2,1.3-0.4v1.1c-0.4,0.2-0.9,0.3-1.3,0.4c-0.4,0.1-0.9,0.1-1.5,0.1
		c-0.8,0-1.5-0.2-2.1-0.5c-0.6-0.3-1.1-0.8-1.4-1.5c-0.3-0.6-0.5-1.4-0.5-2.4c0-0.9,0.2-1.7,0.5-2.4c0.3-0.7,0.7-1.2,1.3-1.5
		S397.2,76.6,398,76.6z M398,77.7c-0.7,0-1.2,0.2-1.6,0.7c-0.4,0.4-0.6,1.1-0.7,1.9h4.5c0-0.5-0.1-1-0.2-1.3
		c-0.2-0.4-0.4-0.7-0.7-0.9C398.9,77.8,398.5,77.7,398,77.7z"/>
	<path class="st1" d="M409.1,83c0,0.5-0.1,1-0.4,1.4c-0.3,0.4-0.7,0.6-1.2,0.8c-0.5,0.2-1.1,0.3-1.8,0.3c-0.6,0-1.1,0-1.5-0.1
		c-0.4-0.1-0.8-0.2-1.1-0.4v-1.2c0.3,0.2,0.8,0.3,1.2,0.5c0.5,0.1,1,0.2,1.5,0.2c0.7,0,1.3-0.1,1.6-0.4c0.3-0.2,0.5-0.6,0.5-1
		c0-0.2-0.1-0.4-0.2-0.6c-0.1-0.2-0.4-0.4-0.7-0.5c-0.3-0.2-0.7-0.4-1.3-0.6c-0.5-0.2-1-0.4-1.4-0.6c-0.4-0.2-0.7-0.5-0.9-0.7
		c-0.2-0.3-0.3-0.7-0.3-1.1c0-0.7,0.3-1.3,0.9-1.7c0.6-0.4,1.3-0.6,2.3-0.6c0.5,0,1,0,1.4,0.2c0.4,0.1,0.9,0.2,1.2,0.4l-0.4,1
		c-0.4-0.1-0.7-0.3-1.1-0.4c-0.4-0.1-0.8-0.2-1.2-0.2c-0.6,0-1,0.1-1.4,0.3c-0.3,0.2-0.5,0.5-0.5,0.8c0,0.3,0.1,0.5,0.2,0.6
		c0.1,0.2,0.4,0.3,0.7,0.5c0.3,0.2,0.8,0.3,1.3,0.5c0.5,0.2,1,0.4,1.4,0.6c0.4,0.2,0.7,0.5,0.9,0.8C409,82.1,409.1,82.5,409.1,83z"
		/>
	<path class="st1" d="M416.6,83c0,0.5-0.1,1-0.4,1.4c-0.3,0.4-0.7,0.6-1.2,0.8c-0.5,0.2-1.1,0.3-1.8,0.3c-0.6,0-1.1,0-1.5-0.1
		c-0.4-0.1-0.8-0.2-1.1-0.4v-1.2c0.3,0.2,0.8,0.3,1.2,0.5c0.5,0.1,1,0.2,1.5,0.2c0.7,0,1.3-0.1,1.6-0.4c0.3-0.2,0.5-0.6,0.5-1
		c0-0.2-0.1-0.4-0.2-0.6c-0.1-0.2-0.4-0.4-0.7-0.5c-0.3-0.2-0.7-0.4-1.3-0.6c-0.5-0.2-1-0.4-1.4-0.6c-0.4-0.2-0.7-0.5-0.9-0.7
		c-0.2-0.3-0.3-0.7-0.3-1.1c0-0.7,0.3-1.3,0.9-1.7c0.6-0.4,1.3-0.6,2.3-0.6c0.5,0,1,0,1.4,0.2c0.4,0.1,0.9,0.2,1.2,0.4l-0.4,1
		c-0.4-0.1-0.7-0.3-1.1-0.4c-0.4-0.1-0.8-0.2-1.2-0.2c-0.6,0-1,0.1-1.4,0.3c-0.3,0.2-0.5,0.5-0.5,0.8c0,0.3,0.1,0.5,0.2,0.6
		c0.1,0.2,0.4,0.3,0.7,0.5c0.3,0.2,0.8,0.3,1.3,0.5c0.5,0.2,1,0.4,1.4,0.6c0.4,0.2,0.7,0.5,0.9,0.8C416.5,82.1,416.6,82.5,416.6,83z
		"/>
	<path class="st1" d="M419.3,73.6c0.2,0,0.4,0.1,0.5,0.2c0.2,0.1,0.2,0.3,0.2,0.6c0,0.3-0.1,0.5-0.2,0.6c-0.2,0.1-0.3,0.2-0.5,0.2
		c-0.2,0-0.4-0.1-0.6-0.2c-0.1-0.1-0.2-0.3-0.2-0.6c0-0.3,0.1-0.5,0.2-0.6C418.9,73.7,419.1,73.6,419.3,73.6z M419.9,76.8v8.5h-1.3
		v-8.5H419.9z"/>
	<path class="st1" d="M429.9,81c0,0.7-0.1,1.3-0.3,1.9c-0.2,0.5-0.4,1-0.8,1.4c-0.3,0.4-0.8,0.7-1.2,0.9c-0.5,0.2-1,0.3-1.6,0.3
		c-0.6,0-1.1-0.1-1.6-0.3c-0.5-0.2-0.9-0.5-1.2-0.9s-0.6-0.8-0.8-1.4c-0.2-0.5-0.3-1.2-0.3-1.9c0-0.9,0.2-1.7,0.5-2.4
		c0.3-0.7,0.8-1.1,1.3-1.5c0.6-0.3,1.3-0.5,2.1-0.5c0.8,0,1.5,0.2,2,0.5c0.6,0.3,1,0.8,1.4,1.5C429.7,79.3,429.9,80.1,429.9,81z
		 M423.4,81c0,0.7,0.1,1.3,0.3,1.8c0.2,0.5,0.5,0.9,0.8,1.2c0.4,0.3,0.9,0.4,1.5,0.4c0.6,0,1.1-0.1,1.5-0.4c0.4-0.3,0.7-0.7,0.8-1.2
		c0.2-0.5,0.3-1.1,0.3-1.8c0-0.7-0.1-1.3-0.3-1.8c-0.2-0.5-0.5-0.9-0.8-1.1c-0.4-0.3-0.9-0.4-1.5-0.4c-0.9,0-1.5,0.3-1.9,0.9
		C423.7,79.2,423.4,80,423.4,81z"/>
	<path class="st1" d="M436.1,76.6c1,0,1.8,0.2,2.3,0.7c0.5,0.5,0.8,1.3,0.8,2.4v5.5h-1.3v-5.4c0-0.7-0.2-1.2-0.5-1.6
		c-0.3-0.4-0.8-0.5-1.5-0.5c-0.9,0-1.6,0.3-2,0.8c-0.4,0.5-0.6,1.3-0.6,2.3v4.4h-1.3v-8.5h1l0.2,1.2h0.1c0.2-0.3,0.4-0.6,0.7-0.8
		c0.3-0.2,0.6-0.4,0.9-0.5C435.4,76.7,435.7,76.6,436.1,76.6z"/>
	<path class="st1" d="M447.2,83c0,0.5-0.1,1-0.4,1.4c-0.3,0.4-0.7,0.6-1.2,0.8c-0.5,0.2-1.1,0.3-1.8,0.3c-0.6,0-1.1,0-1.5-0.1
		s-0.8-0.2-1.1-0.4v-1.2c0.3,0.2,0.8,0.3,1.2,0.5c0.5,0.1,1,0.2,1.5,0.2c0.7,0,1.3-0.1,1.6-0.4c0.3-0.2,0.5-0.6,0.5-1
		c0-0.2-0.1-0.4-0.2-0.6c-0.1-0.2-0.4-0.4-0.7-0.5c-0.3-0.2-0.7-0.4-1.3-0.6c-0.5-0.2-1-0.4-1.4-0.6c-0.4-0.2-0.7-0.5-0.9-0.7
		c-0.2-0.3-0.3-0.7-0.3-1.1c0-0.7,0.3-1.3,0.9-1.7c0.6-0.4,1.3-0.6,2.3-0.6c0.5,0,1,0,1.4,0.2c0.4,0.1,0.9,0.2,1.2,0.4l-0.4,1
		c-0.4-0.1-0.7-0.3-1.1-0.4c-0.4-0.1-0.8-0.2-1.2-0.2c-0.6,0-1,0.1-1.4,0.3c-0.3,0.2-0.5,0.5-0.5,0.8c0,0.3,0.1,0.5,0.2,0.6
		c0.1,0.2,0.4,0.3,0.7,0.5c0.3,0.2,0.8,0.3,1.3,0.5c0.5,0.2,1,0.4,1.4,0.6c0.4,0.2,0.7,0.5,0.9,0.8C447.1,82.1,447.2,82.5,447.2,83z
		"/>
</g>
<g>
	<path id="svg_6_00000017516935628809647480000006098258233722123954_" class="st2" d="M9.9,30.3L10.2,60c0,0,0.1,16.6,8.7,23.3
		c0,0,8.5,18.7,39.8,28.2l3.5-2.4L58.1,0L37.4,13.7c0,0-3.2,1.1-5.2-1.8S28,4,28,4s-3.5,5.6-1.4,10.5c0,0,0.3,2.1,0.2,2.8
		C24.8,29.5,9.9,30.3,9.9,30.3z"/>
	<path id="svg_7_00000117676314169768068500000012724671500016810116_" class="st2" d="M107,29.9l-0.3,29.7c0,0-0.1,16.6-8.7,23.3
		c0,0-8.4,19.6-39.3,28.7l-3.9-2.9L58,0.1l21.4,13.2c0,0,3.2,1.1,5.2-1.8s4.3-7.9,4.3-7.9s3.5,5.6,1.4,10.6c0,0-0.1,3.5,0.1,4.2
		C92.3,30.4,107,29.9,107,29.9L107,29.9z"/>
	<polygon id="svg_8_00000081610607062464606590000000229726970045923475_" class="st3" points="43.8,91 58.5,101.1 75.3,88.6 	"/>
	
		<linearGradient id="svg_10_00000133521288801970098100000015867237947885571992_" gradientUnits="userSpaceOnUse" x1="13.2149" y1="65.2139" x2="103.7679" y2="65.2139">
		<stop  offset="0" style="stop-color:#BEEF9E"/>
		<stop  offset="1" style="stop-color:#CFE07A"/>
	</linearGradient>
	
		<path id="svg_10_00000029010028119469889970000012053032405114258837_" style="fill:url(#svg_10_00000133521288801970098100000015867237947885571992_);" d="
		M101.9,33.8c-2.3-0.1-4.6-0.7-6.7-1.7c-2.6-1.3-4.7-2.9-6.1-5.3c-0.7-1.3-1.1-2.7-0.4-4.1c0.1-0.1,0.1-0.2,0.2-0.3
		c0.4,1,0.8,1.9,1.2,2.9c2,3.8,5.5,5.8,9.8,6.7c0.9,0.2,1.9,0.2,2.8,0.3c0.6,0,0.9,0.3,0.9,0.9c0,1.1,0,2.2,0,3.3
		c0,6.9,0.1,13.8,0,20.6c-0.2,11.3-3.9,21.4-11.6,30.2c-6.3,7.2-14.1,12.7-23,16.9c-3.1,1.5-6.4,2.6-9.6,3.9c-0.6,0.2-1.3,0.2-1.9,0
		c-12.8-4.5-24-10.9-32.8-20.7c-5.7-6.3-9.2-13.5-10.6-21.6c-0.6-3.3-0.9-6.7-0.9-10c0-7.4,0-14.9,0-22.3c0-1.2,0.1-1.2,1.3-1.3
		c5.2-0.4,9.5-2.3,12-6.8c0.5-0.9,0.9-2,1.3-3c0.6,1.1,0.7,2.2,0.3,3.4c-0.8,2.1-2.4,3.7-4.3,5c-2.5,1.7-5.5,2.8-8.6,3
		c-0.1,0-0.2,0-0.3,0.1v0.6c0,7.2,0,14.3,0,21.5c0,6,1.1,12,3.2,17.6c2.5,6.5,6.8,12.1,12.1,16.9c7.8,7.2,17.1,12.2,27.4,15.8
		c0.5,0.1,0.9,0.1,1.4,0c5.4-1.7,10.3-4.1,15.1-6.9c6.3-3.6,11.9-8,16.5-13.4c5.7-6.6,9.2-14,10.5-22.3c0.5-2.9,0.7-5.8,0.7-8.8
		c0-6.8,0-13.6,0-20.4L101.9,33.8L101.9,33.8z"/>
	
		<linearGradient id="svg_11_00000049181757943409711290000004822306074474982820_" gradientUnits="userSpaceOnUse" x1="29.0504" y1="30.8312" x2="87.8969" y2="30.8312">
		<stop  offset="0" style="stop-color:#FFFFFF"/>
		<stop  offset="1" style="stop-color:#C0C3C4"/>
	</linearGradient>
	
		<path id="svg_11_00000114769313467139941950000003360809399522893986_" style="fill:url(#svg_11_00000049181757943409711290000004822306074474982820_);" d="
		M87.9,16.7c-0.9,2.5-2.5,4.3-4.6,5.4c-2.3,1.2-4.7,2.3-7,3.4c-3.1,1.4-6.3,2.6-9,4.6c-2.6,1.9-4.7,4.3-6,7.3
		c-0.1,0.1-0.1,0.3-0.2,0.4c0,0.1,0,0.2,0,0.3c0.2-0.2,0.4-0.4,0.5-0.6c3.4-4.8,8-8.1,13.6-10.3c2.9-1.1,5.7-2.4,8.6-3.5
		c-0.9,0.6-1.8,1.2-2.7,1.7c-1.8,1-3.6,2-5.4,2.9c-5.3,2.6-9.5,6.3-13,10.9c-1.4,1.9-2.8,3.8-4.3,5.7c-0.8-1.1-1.5-2.2-2.3-3.3
		c-2.5-3.5-5.1-6.8-8.5-9.5c-2.8-2.2-5.9-3.7-9-5.3c-1.7-0.9-3.4-1.9-5-2.8l0.1-0.2c0.1,0,0.1,0,0.2,0c3.7,1.6,7.5,3.3,11.2,4.9
		c4,1.8,7.1,4.7,9.8,8.1c0.3,0.3,0.5,0.6,0.8,1c0,0,0.1,0.1,0.3,0c-0.7-1.2-1.3-2.3-2-3.4c-2.2-3.3-5.3-5.4-8.8-7
		c-2.9-1.3-5.8-2.5-8.7-3.8c-2.3-1.1-4.5-2.4-6-4.5c-0.4-0.6-0.8-1.3-1.1-1.9l0.2-0.1c0.4,0.4,0.8,0.7,1.2,1.1
		c2.9,2.3,6.2,3.7,9.6,5c2.2,0.8,4.4,1.7,6.5,2.6c4.5,2,7.8,5.3,10.3,9.4c0.4,0.7,0.9,1.3,1.4,2.1c0.6-0.9,1.2-1.7,1.7-2.4
		c3.1-4.7,7.3-8,12.5-10.1c2.9-1.1,5.7-2.2,8.6-3.4c2.4-1,4.6-2.4,6.5-4.3C87.6,16.9,87.7,16.9,87.9,16.7z"/>
	<path id="svg_12_00000016033946166779131320000014224100865915410348_" class="st3" d="M58.2,35c-2.5-4-5.4-7.4-9.6-9.5
		c-2.3-1.2-4.7-2.1-7.2-3.1c-3.1-1.2-6.3-2.4-9-4.4c-1.9-1.3-3.3-3-3.8-5.3c-0.3-1.5-0.3-3.1,0.1-4.5c0.9,4.9,3.9,7.9,7.9,10
		c2.9,1.5,6.1,2.4,9.2,3.5c1.5,0.6,2.9,0.8,4.5,0.2c2-0.8,2.1-0.7,3.7,0.8c1.4,1.2,2.6,2.7,3.8,4c0.2,0.2,0.3,0.4,0.5,0.6
		c0.7-0.8,1.3-1.7,2-2.4c1.1-1.2,2.4-2.2,3.6-3.3c0.2-0.2,0.6-0.3,0.9-0.2c1,0.2,1.9,0.5,2.8,0.8c0.5,0.2,1.1,0.2,1.6,0
		c2.7-1,5.6-1.9,8.3-3.1c1.9-0.8,3.7-1.9,5.4-3.1c2.4-1.7,3.9-4,4.6-6.9c0.1-0.3,0.2-0.6,0.3-0.8c0.5,3,0.2,5.8-2,8.1
		c-1.5,1.6-3.4,2.8-5.4,3.6c-2.5,1.1-5,2.1-7.5,3c-6.1,2.2-11,5.9-14.6,11.4c-0.1,0.1-0.1,0.2-0.2,0.3C58.3,34.9,58.3,35,58.2,35
		L58.2,35z"/>
	<path id="svg_13_00000019643742624762082600000000395773420551516301_" class="st3" d="M63,45.2c0.7-0.7,1.4-1.4,2.1-2.2
		c1.2,2.6,3,4.4,5.9,4.8c1.9,0.2,3.9-0.4,5.3-1.8c2-1.8,2.8-4.1,2.5-6.8c-0.3-2.7-2-4.5-4.4-5.8c1.6-0.6,3-1.1,4.4-1.6
		c0.2-0.1,0.5,0.2,0.7,0.4c1.3,1.6,2,3.4,2.4,5.3c0.9,4.5,0.2,8.5-3.2,11.8c-3.4,3.2-7.5,3.9-12,2.7c-1.2-0.3-1.9-0.7-1.9-2.1
		C64.7,48.1,64,46.6,63,45.2z"/>
	<path id="svg_14_00000119088317091280421250000016257238995291892363_" class="st3" d="M42.3,33.3c-3.6,2-5.1,4.9-4.2,8.7
		c0.6,3,3.2,5.3,6,5.6c3.1,0.4,5.3-1,7.5-4.7l2.1,2.3c-1.2,1.7-1.7,3.6-1.8,5.6c0,0.2-0.2,0.4-0.3,0.5c-3.5,1.3-7.1,1.7-10.6-0.1
		c-4-2.1-6-5.5-6.4-9.8c-0.3-3.4,0.6-6.5,2.6-9.3c0.3-0.5,0.6-0.6,1.2-0.4C39.5,32.4,40.9,32.8,42.3,33.3z"/>
	
		<linearGradient id="svg_17_00000016773907773718394320000000972434401044879547_" gradientUnits="userSpaceOnUse" x1="26.2713" y1="76.6456" x2="38.3761" y2="76.6456">
		<stop  offset="0" style="stop-color:#D7D7D7"/>
		<stop  offset="1" style="stop-color:#FFFFFF"/>
	</linearGradient>
	
		<path id="svg_17_00000054228817850761445840000018437938114190357398_" style="fill:url(#svg_17_00000016773907773718394320000000972434401044879547_);" d="
		M31.8,74.9c-0.3,2.5-0.5,5.1-0.8,7.6l-0.2,0c-1.6-2.4-2-5.1-2-7.9h-0.2c-0.1,0.7-0.3,1.4-0.4,2.2c-0.1,0.8-0.2,1.6-0.3,2.4
		s-0.1,1.5-0.2,2.3l-0.2,0.1c-0.3-1.1-0.7-2.1-0.9-3.2c-0.2-1.9-0.2-3.8-0.3-5.7c0-0.2,0-0.4,0.2-0.5c0.5-0.5,1-1,1.5-1.4
		c0.3,0.9,0.6,1.8,0.9,2.7l0.3,0l2-2.6l1.4,2.9h0.3l2-2.8l1.5,2.6l1.7-2l0.2,0c-0.6,3.6-0.5,7.3,0.2,11c-1.9-2.1-2.9-4.6-3.5-7.3
		c-0.1,2.4,0.2,4.9-0.5,7.4c-1.7-2.4-2.1-5-2.3-7.8L31.8,74.9z"/>
	
		<linearGradient id="svg_18_00000096739228164361092060000012049027145296463498_" gradientUnits="userSpaceOnUse" x1="77.8917" y1="75.4634" x2="90.1275" y2="75.4634">
		<stop  offset="0" style="stop-color:#FFFFFF"/>
		<stop  offset="1" style="stop-color:#D7D7D7"/>
	</linearGradient>
	
		<path id="svg_18_00000035493981478651720150000004382031805374551185_" style="fill:url(#svg_18_00000096739228164361092060000012049027145296463498_);" d="
		M85.2,69.7l2,2.7c0.8-0.9,0.9-1.9,1.1-3c0.9,0.9,1.9,1.4,1.8,2.9c-0.1,2.4-0.2,4.8-1.1,7c-0.1,0.2-0.2,0.5-0.4,0.9
		c-0.3-2.4-0.3-4.6-0.9-6.7c-0.2,2.8-0.6,5.5-2.4,7.8c-0.3-2.5-0.5-5-0.8-7.5l-0.2,0c-0.3,2.7-0.8,5.3-2.3,7.7
		c-0.7-2.5-0.6-4.9-0.6-7.4c-0.6,2.7-1.7,5.2-3.5,7.4c0.6-3.6,0.9-7.3,0.2-10.9l0.2-0.1l1.7,2l1.6-2.6l2,2.9
		C84.6,71.9,84.8,70.8,85.2,69.7z"/>
	<path id="svg_19_00000136401801633016218030000009162538013016444047_" class="st8" d="M78.5,16.4c-0.1,0.1-0.3,0.1-0.4,0.2
		c-0.8,0.9-1.6,0.6-2.5,0c-5.6-3.3-11.2-6.6-16.8-9.9c-0.4-0.2-0.7-0.2-1,0c-5.6,3.3-11.1,6.6-16.7,9.9c-1.4,0.8-1.4,0.8-2.8-0.3
		c1.4-0.8,2.7-1.6,4-2.4c4.8-2.9,9.7-5.8,14.5-8.7c1.2-0.7,2-0.7,3.2,0c5.7,3.5,11.5,6.9,17.3,10.3C77.7,15.9,78.1,16.1,78.5,16.4z"
		/>
	
		<linearGradient id="svg_20_00000101078613841580225800000010808546709632806301_" gradientUnits="userSpaceOnUse" x1="30.0041" y1="43.2405" x2="52.1366" y2="43.2405">
		<stop  offset="0" style="stop-color:#C0C3C4"/>
		<stop  offset="1" style="stop-color:#FFFFFF"/>
	</linearGradient>
	
		<path id="svg_20_00000015339968307629616130000005352834545961112507_" style="fill:url(#svg_20_00000101078613841580225800000010808546709632806301_);" d="
		M33.8,29c0.3,0.2,0.6,0.3,0.9,0.5c0.1,0.1,0.3,0.2,0.5,0.3c-0.2,0.3-0.3,0.6-0.5,0.9c-3.2,5-3.8,10.3-1.8,15.9
		c1.8,4.8,6.8,9.5,14,8.9c1.3-0.1,2.7-0.6,4-0.9c0.3-0.1,0.7-0.2,1.2-0.4c-0.2,0.8-0.3,1.5-0.4,2.2c-0.1,0.1-0.2,0.2-0.3,0.3
		c-5.4,1.4-10.5,1-15-2.6C32.4,51,30.4,47,30.1,42c-0.3-4.4,0.7-8.6,3.2-12.3C33.4,29.5,33.6,29.3,33.8,29z"/>
	
		<linearGradient id="svg_21_00000096740248288776373630000017123580527325398427_" gradientUnits="userSpaceOnUse" x1="64.8955" y1="43.3271" x2="86.7819" y2="43.3271">
		<stop  offset="0" style="stop-color:#FFFFFF"/>
		<stop  offset="1" style="stop-color:#C0C3C4"/>
	</linearGradient>
	
		<path id="svg_21_00000080919127401492226750000010759109296767063206_" style="fill:url(#svg_21_00000096740248288776373630000017123580527325398427_);" d="
		M81.5,29.9c1.5-1,1.5-1,2.4,0.4c2.5,3.8,3.2,8,2.7,12.4c-0.4,3.7-1.8,7.1-4.4,9.7c-4.2,4.2-9.2,5.8-15.1,4.7c-0.1,0-0.1,0-0.2-0.1
		c-1.7-0.3-2.1-0.8-2-2.7c0.3,0.1,0.5,0.1,0.8,0.2c7.6,3.2,17.4-1.6,19-10.9c0.8-4.7,0-9.1-2.7-13.1c-0.1-0.2-0.2-0.3-0.3-0.5
		C81.6,30.1,81.6,30,81.5,29.9L81.5,29.9z"/>
	<path id="svg_22_00000150797873266346595990000012954519462693872549_" class="st3" d="M55.3,46.7l3,2.7l3-2.6
		c1.5,3-0.5,8.5-3,11.8C55.6,54.3,54.1,49.8,55.3,46.7z"/>
	<path id="svg_23_00000028285300599219942990000006751464609566235036_" class="st11" d="M80.6,87.3l1.1,2.2l1.9-2
		c0.1,0.3,0.2,0.8,0.4,0.9c0.2,0.2,0.7,0,1.1,0c-1.8,2.6-4.1,4.4-6.7,5.9l-0.2-0.1l2.2-3.7c-1.6,1.5-3.3,2.8-5.2,3.7
		c-0.2,0.1-0.3,0.1-0.5,0.2l3.2-5.9c0.1,0.2,0.2,0.4,0.4,0.7C78.3,89.2,80.6,87.3,80.6,87.3z"/>
	<path id="svg_24_00000046317068673517610430000011538845699941204904_" class="st3" d="M31.6,88.3c1,0.5,1.5,0.2,1.6-0.9l2,2.2
		c0.4-0.8,0.7-1.5,1.1-2.2l2.3,2l0.4-0.7l3.2,5.8c-2.2-0.8-3.9-2.3-5.7-3.8l2.2,3.6C36.9,93.9,32.5,90.1,31.6,88.3z"/>
	<path id="svg_25_00000095327646708137119040000013123083564914809757_" class="st3" d="M67.8,41.4c2.2,3,4.2,3.7,6.3,2
		c2.3-1.8,2.2-4.4-0.4-7.4c1.4-0.3,1.6-0.3,2.4,0.9c1.2,1.8,1.3,3.7,0.4,5.7c-0.9,2-2.4,3-4.5,3.2c-1.8,0.2-4-1.1-4.7-2.8
		c-0.2-0.4,0.1-1,0.2-1.6L67.8,41.4L67.8,41.4z"/>
	<path id="svg_26_00000139282288707796705590000007551416266572691373_" class="st11" d="M42.7,36c-0.5,1-1.2,2-1.5,3
		c-0.6,2,0.6,4.1,2.5,4.9c1.7,0.7,3.6,0,4.8-1.7c0.1-0.2,0.3-0.4,0.4-0.6c0.8,0.7,0.9,0.9,0.3,1.7c-1,1.6-2.5,2.5-4.4,2.4
		c-2.1-0.1-3.7-1.3-4.5-3.2c-0.9-2-0.6-4,0.6-5.8C41.5,35.8,41.7,35.8,42.7,36z"/>
	<path id="svg_27_00000080183656604436456140000011272925223720639398_" class="st3" d="M58.4,24.3c-1.3-1.5-2-1.4-3.6-3.2
		c2-0.9,5.3-0.8,7.1,0C60.4,22.8,60,22.5,58.4,24.3z"/>
	<path id="svg_28_00000008839815659737322190000009879929459112391330_" class="st11" d="M69.8,38c0-0.8,0.6-1.5,1.5-1.5
		c0.9,0,1.5,0.7,1.5,1.6c0,0.9-0.7,1.5-1.6,1.6C70.4,39.5,69.7,38.8,69.8,38z"/>
	<path id="svg_29_00000040559737597971031210000017093942857212129961_" class="st11" d="M46.9,37.9c0,0.9-0.7,1.7-1.6,1.6
		c-0.8-0.1-1.4-0.7-1.4-1.5c-0.1-0.8,0.5-1.6,1.3-1.7c0.8-0.1,1.6,0.5,1.7,1.3C46.9,37.8,46.9,37.9,46.9,37.9z"/>
	
		<linearGradient id="svg_30_00000109719365200245695860000000545988564112277902_" gradientUnits="userSpaceOnUse" x1="80.9335" y1="85.8253" x2="122.3307" y2="85.8253">
		<stop  offset="0" style="stop-color:#BEEF9E"/>
		<stop  offset="1" style="stop-color:#CFE07A"/>
	</linearGradient>
	
		<path id="svg_30_00000095308659813955447450000015165660432223544253_" style="fill:url(#svg_30_00000109719365200245695860000000545988564112277902_);" d="
		M101.1,106c-1.1,0-2.2-0.1-3.3-0.4c-5.9-1.4-10.1-4.9-12.6-10.4c-0.3-0.6-0.4-1.2-0.5-1.9c-0.6,0.5-1.3,0.8-2.1,0.8
		c-0.2,0-0.4,0-0.6,0l-1.2-0.2l0.2-1.2c0.1-0.4,0.1-0.8,0.2-1.2c0.2-0.7,0.3-1.5,0.3-2.2c0-2.5-0.1-5.1-0.1-7.6l0-0.6
		c0-0.3-0.1-0.5-0.2-0.8c-0.1-0.2-0.1-0.5-0.2-0.8c-0.1-0.7,0.1-1.4,0.5-1.9c0.4-0.5,1.1-0.8,1.7-0.8c0.4,0,0.8,0.1,1.1,0.3
		c0.2,0.1,0.3,0.2,0.5,0.3c1.3-4.4,4.4-7.8,9.1-10c2-1,4.3-1.5,6.6-1.5c1.9,0,3.7,0.3,5.5,1c3.7,1.3,6.7,3.9,8.6,7.3
		c1.2,2.3,1.8,4.8,1.7,7.1c0.3,0,0.6-0.1,0.9-0.1c1.8,0,3.2,0.8,4.2,2.4c1.3,2.1,1.1,4.7-0.3,6.5c-1,1.2-2.5,1.9-4.1,1.8
		c-0.3,0-0.5,0-0.8-0.1c0,0.1,0,0.2-0.1,0.3c-0.2,1.2-0.5,2.4-0.8,3.5C113.5,101.7,107.7,106,101.1,106L101.1,106z M103.3,90.9
		c1.5,1.3,2.1,3.1,1.6,5.4c-0.2,0.8-0.6,1.6-1.2,2.2c1.5-0.5,2.7-1.5,3.9-3.2c1-1.3,1.3-3.1,0.9-4.4c-0.4-1.1-1.3-1.9-2.8-2.3
		c-0.2-0.1-0.4-0.1-0.6-0.1c0.1,0.6-0.1,1.2-0.5,1.6C104.3,90.5,103.9,90.8,103.3,90.9L103.3,90.9z M91,87.2c-0.2,0-0.4,0.1-0.6,0.3
		c-1.1,1.2-0.9,2.7-0.6,3.7c0.8,2.3,2.7,3.8,4.7,5.1c0.1,0.1,0.2,0.1,0.3,0.2c-0.4-0.5-0.6-1.2-0.8-1.8c-0.3-1.5,0.7-3.1,2.5-3.8
		c0.2-0.1,0.5-0.2,0.7-0.4c0-0.3,0-0.6-0.1-0.8c-0.2-0.6-0.5-1.4-1.3-1.6C94.2,87.6,92.6,87.3,91,87.2L91,87.2z M110.9,86.1
		c0.4,0.3,0.7,0.7,1,1.1c0-0.4,0-0.9,0-1.3c0-0.3,0-0.6,0-0.9C111.5,85.5,111.2,85.8,110.9,86.1L110.9,86.1z M116.3,86.4
		c0.1,0.2,0.3,0.4,0.5,0.5c0.2-0.1,0.3-0.3,0.4-0.5c0-0.1,0-0.1-0.1-0.2c-0.1-0.1-0.2-0.1-0.3-0.1h-0.1
		C116.3,86.1,116.3,86.2,116.3,86.4L116.3,86.4z M103.8,81c0.2,0.1,0.3,0.2,0.5,0.3c0.8,0.7,1,1.4,1,2c0.2,0,0.4,0,0.6-0.1
		c1-0.1,1.9-0.6,2.5-1.4c0.6-0.7,0.8-1.7,0.6-2.6c-0.4-2.4-2.2-4.8-4.8-5.9c0.7,0.9,1.2,1.9,1.3,3C105.7,78.1,105,79.9,103.8,81
		C103.8,81,103.8,81,103.8,81z M96.3,80.2c0.4,0.4,0.7,0.9,0.7,1.5c0,0.1,0,0.1,0,0.2c0.1-0.1,0.2-0.2,0.3-0.3
		c0.2-0.2,0.2-0.5,0.2-0.8C97,80.7,96.6,80.5,96.3,80.2L96.3,80.2z M94.8,79.6c0.4,0,0.7,0.1,1.1,0.3c-1-0.9-1.6-2.2-1.3-3.4
		c0.2-0.7,0.5-1.3,1-1.8c-1.5,0.7-2.8,1.6-3.9,2.8c0.1,0,0.2,0,0.3,0h0c0.9,0,1.7,0.6,2.3,1.1l0.1,0.1
		C94.6,78.9,94.8,79.3,94.8,79.6C94.8,79.6,94.8,79.6,94.8,79.6z"/>
	<path id="svg_31_00000062879291857029560770000014261322488827304611_" class="st2" d="M100.6,66.9c1.7,0,3.5,0.3,5.1,0.9
		c7.7,2.8,10.4,10.3,9.3,14.9c0.7-0.2,1.5-0.4,2.3-0.4c1.2,0,2.3,0.5,3.2,1.8c1.1,1.7,0.9,3.7-0.2,5.1c-0.8,0.9-2,1.4-3.2,1.4
		c-0.6,0-1.2-0.1-1.7-0.3c-0.3,1.7-0.6,3.4-1.1,5c-1.7,5.7-7.2,9.5-13,9.5c-1,0-2-0.1-3-0.3c-5.6-1.3-9.5-4.6-11.8-9.7
		c-0.5-1.2-0.4-2.6-0.6-4c0-0.2,0-0.4-0.1-0.9c-1.1,1-1.2,3-3,3c-0.1,0-0.3,0-0.4,0c0.2-1.2,0.5-2.4,0.5-3.6c0-2.8-0.1-5.5-0.2-8.3
		c0-0.6-0.2-1.2-0.3-1.7c-0.1-0.6,0.3-1.1,0.8-1.3c0.1,0,0.1,0,0.2,0c0.2,0,0.4,0,0.6,0.1c0.6,0.3,1.1,0.8,1.7,1.3
		c0.9-5.3,4.2-8.8,8.9-11C96.5,67.3,98.5,66.9,100.6,66.9 M101.6,81.1l-0.3-1l-0.4,0.3l-0.6,2.8c0.8-0.4,1.4-1.3,2.3-1.3
		c0.4,0,0.7,0.2,1,0.4c0.8,0.7,0.8,1.5-0.1,2.3h0.1c0.9,0,1.7-0.1,2.6-0.2c2.7-0.3,4.5-2.7,4.1-5.3c-0.6-3.8-4.2-7.5-8.6-7.5
		c-0.3,0-0.6,0-0.9,0c-0.4,0.1-0.7,0.2-1.1,0.3c2.3,0.9,4.4,1.9,4.7,4.6C104.5,78.6,103.5,80.1,101.6,81.1 M91.6,84.1
		c0.3,0,0.5,0,0.8-0.1c-0.6-0.3-1-0.5-1.4-0.7c-0.9-0.7-1.2-1.6-1-2.7c0.2-1,0.9-1.8,1.9-1.8h0c0.5,0,1.1,0.5,1.6,0.9
		c0.1,0.1-0.1,0.6-0.1,0.8c-0.4,0-0.8-0.1-1.1-0.1c-0.1,0-0.3,0-0.4,0.1c-0.2,0.2-0.3,1-0.1,1.2c0.3,0.3,0.9,0.4,1.3,0.5h0
		c0.1,0,0.3-0.2,0.4-0.3L93,81.3c0.5-0.2,0.9-0.3,1.4-0.4c0.1,0,0.2,0,0.3,0c0.2,0,0.4,0,0.6,0.2c0.8,0.7,0.6,1.3-0.6,2.6
		c0.2,0,0.3,0,0.5,0c3,0,4-1.8,3.4-3.7c-1.8-0.4-3.1-1.9-2.9-3.2c0.2-1.1,1.5-2.1,2.7-2.1c0.2,0,0.3,0,0.5,0.1
		c0.6,0.2,1.3,0.5,1.5,1c0.4,0.9,0.5,1.9,0.7,2.9c1-0.1,1.6-2.7,0.8-3.8c-1-1.2-2.4-1.9-4-1.9c-0.4,0-0.8,0-1.1,0.1
		c-2.9,0.7-5.2,2.5-7.1,4.8c-1.4,1.7-1.2,3.8,0.2,5.4C90.3,83.7,90.8,84.1,91.6,84.1 M98.8,78.8c0.4-0.6,0.7-0.8,0.7-1.1
		c0.1-0.7-0.3-1.2-1.1-1.3l0,0c-0.3,0-0.8,0.5-0.8,0.6C98,77.6,98.4,78.2,98.8,78.8 M112,90.9c0.9-0.7,1.2-1.3,1.1-2.3
		c-0.1-1.6-0.1-3.3-0.1-4.9c0-0.7-0.2-1.4-0.4-2h-0.4c-0.9,1.7-1.4,3.8-3.8,4.3C110.6,86.9,111.5,88.7,112,90.9 M99.2,84.7l-2.1,0.7
		l2,1.6C99.2,86.2,99.2,85.5,99.2,84.7 M116.8,88.1c0.6,0,1.5-0.9,1.6-1.6c0-0.9-0.7-1.6-1.5-1.6c0,0,0,0,0,0h-0.1
		c-1,0-1.6,0.6-1.7,1.5C115,87.1,115.9,88.1,116.8,88.1L116.8,88.1 M98,98.6c0.3,0,0.6,0,0.8-0.1c1.5-0.2,2.6-1.3,2.9-2.7
		c0.2-0.9-0.6-2.3-1.5-2.8c0.1,0.7,0.4,1.4,0.3,2.1c-0.2,1.1-1.3,1.9-2.4,1.9c-0.1,0-0.1,0-0.2,0c-1.3-0.1-2.4-1.1-2.6-2.5
		c-0.2-1,0.5-2,1.7-2.5c1.4-0.6,1.6-1.1,1.3-2.6c-0.3-1.2-1-2.2-2.2-2.5c-1.6-0.4-3.3-0.7-5-0.8H91c-0.6,0-1.1,0.3-1.5,0.7
		c-1.3,1.4-1.4,3.2-0.9,4.9c0.9,2.6,3,4.2,5.2,5.7C95.2,98.1,96.5,98.6,98,98.6 M102.7,89.8c-0.6,0-1.2-0.3-1.6-0.7
		c-0.2-0.2-0.5-0.5-0.9-0.9l0.5,3.1l0.3-0.2c0.5,0.2,1.1,0.3,1.6,0.6c1.4,1.1,1.6,2.7,1.2,4.3s-1.7,2.4-3.1,3
		c-0.5,0.2-0.9,0.3-1.4,0.4c0,0.1,0,0.2,0,0.3c0.8,0.1,1.7,0.2,2.5,0.2h0.1c3-0.1,5.1-1.7,6.7-3.9c1.9-2.6,2.2-7.3-2.6-8.6
		c-1-0.3-2.1-0.4-3.2-0.5c1,1,1.4,1.8,0.8,2.4C103.5,89.7,103.1,89.8,102.7,89.8 M98.1,95.5c0.3,0,0.9-0.6,0.9-1
		c0-0.4-0.5-0.9-0.9-1.7c-0.6,0.6-1.1,0.9-1.2,1.3C96.8,95,97.4,95.5,98.1,95.5L98.1,95.5 M100.6,64.4c-2.5,0-4.9,0.6-7.1,1.6
		c-2.7,1.3-5,3-6.7,5c-1.1,1.3-2,2.8-2.6,4.5c-0.3-0.1-0.6-0.1-0.9-0.1c-1,0-2,0.4-2.6,1.2c-0.7,0.8-1,1.9-0.8,2.9
		c0.1,0.3,0.1,0.6,0.2,0.9c0.1,0.2,0.1,0.4,0.1,0.5l0,0.6c0.1,2.5,0.2,5.1,0.1,7.6c0,0.7-0.1,1.4-0.3,2c-0.1,0.4-0.2,0.8-0.2,1.2
		l-0.4,2.4l2.5,0.3c0.2,0,0.5,0,0.7,0c0.4,0,0.8,0,1.2-0.2c0.1,0.2,0.1,0.4,0.2,0.6c2.6,5.9,7.2,9.7,13.4,11.1
		c1.2,0.3,2.4,0.4,3.6,0.4c7.1,0,13.4-4.6,15.3-11.3c0.3-1,0.5-2,0.7-3c1.9,0,3.6-0.9,4.9-2.3c1.8-2.2,2-5.3,0.5-7.9
		c-1.1-1.9-2.8-2.9-4.9-3c-0.2-2.2-0.8-4.4-1.9-6.4c-1.4-2.6-4.1-6-9.2-7.9C104.7,64.8,102.6,64.5,100.6,64.4
		C100.6,64.5,100.6,64.4,100.6,64.4z M105.5,80.9c0.8-1.1,1.2-2.5,1.2-3.9c0.5,0.8,0.9,1.6,1.1,2.5c0.1,0.6-0.1,1.2-0.4,1.6
		c-0.3,0.4-0.7,0.7-1.2,0.8C106,81.6,105.8,81.2,105.5,80.9C105.5,80.9,105.5,80.9,105.5,80.9z M92.9,93.5c-0.9-0.8-1.6-1.7-1.9-2.7
		c-0.4-1.3,0-2,0.3-2.4c1.4,0.1,2.8,0.4,4.2,0.7c0.2,0.1,0.4,0.4,0.4,0.6C94.2,90.6,93.1,92,92.9,93.5L92.9,93.5z M105.3,91.3
		c0.1-0.1,0.2-0.2,0.3-0.4c0.2-0.2,0.4-0.5,0.5-0.8c1,0.5,1.2,1.1,1.3,1.3c0.3,1,0,2.3-0.7,3.3c-0.1,0.2-0.3,0.4-0.4,0.5
		C106.4,93.5,105.9,92.2,105.3,91.3L105.3,91.3L105.3,91.3z"/>
	<path id="svg_32_00000152259159934022000910000000715608522367726741_" class="st13" d="M80.7,94c-0.6,0-1.1-0.3-1.3-0.8
		c-0.1-0.2-0.2-0.3-0.2-0.5c-0.2-0.4-0.4-0.8-0.5-1.2c-0.1-0.2-0.3-1-0.4-1.1c-0.1,0-0.3-0.1-1.1-0.1c-0.4,0-1.2,0-2.3,0
		c-3.9,0-10.5,0.1-14.9,0.2l-1.8,0l0.7-1.7l-0.1-0.1l-1.9,0l0,0.1l0.9,1.7l-2,0.1l-5.3,0.1C44.2,90.8,38.7,91,35.3,91
		c-0.9,0-1.5,0-2.1,0c-6.2-0.2-13.6-0.5-21.1-0.9c-0.1,0-0.2,0-0.3,0c-0.8,0-0.9,0.2-1.1,0.6c-0.1,0.3-0.3,0.6-0.5,0.8
		c-0.1,0.1-0.1,0.1-0.2,0.2l-0.8,1l-7.3-6.3l7.3-6.2l0.8,1.1c0.4,0.6,1,0.8,2.1,0.8c0.3,0,0.6,0,0.9,0s0.7,0,1.1,0h0.3
		c1.7,0.1,4.1,0.1,7.3,0.1c6.4,0,15.1-0.1,23.5-0.2c8.5-0.1,17.3-0.2,23.9-0.2c3.5,0,6.1,0,7.9,0.1h0.2c1.4,0,2-0.4,2.4-1.4
		c0.5-1.2,1.4-1.4,1.8-1.4c0.5,0,1,0.2,1.4,0.6c0.6,0.5,1.2,1.1,1.4,1.9c1.1,3.4,0.9,6.6-0.6,9.6c-0.4,0.6-0.8,1.2-1.3,1.8
		c-0.2,0.2-0.3,0.4-0.5,0.6C81.5,93.8,81.1,94,80.7,94L80.7,94z"/>
	<path id="svg_33_00000009552342374896304910000000627927962735511217_" class="st2" d="M81.3,80.2c0.2,0,0.5,0.1,0.6,0.3
		c0.4,0.4,0.9,0.9,1.1,1.4c0.9,2.9,0.9,5.9-0.5,8.7c-0.4,0.7-1,1.3-1.7,2.1c0,0-0.1,0.1-0.2,0.1c-0.1,0-0.2,0-0.2-0.1
		c-0.3-0.5-0.5-1-0.7-1.6c-0.6-1.8-0.8-2-2.7-2.1c-0.4,0-1.3,0-2.3,0c-3.7,0-10.4,0.1-14.9,0.2c0.1-0.3,0.1-0.6,0-0.9
		c2.5,0,5.9,0,9,0c3.6,0,6.8,0,8.2,0.1h0.1c0.5,0,1.1-0.2,1.8-0.3c-0.4-0.4-18-0.6-35.4-0.6c-16.8,0-33.3,0.2-34,0.6
		c0.3,0.3,0.6,0.8,1.2,0.6c4.3,0.1,8.6-0.1,12.9,0c1.5,0.1,3.5-0.2,5.9,0.1c7.3,0.7,16.8-0.2,26.1-0.3c-0.1,0.3-0.1,0.7,0.1,0.9
		c-8.2,0.2-16.2,0.5-20.4,0.5c-0.8,0-1.5,0-2,0c-7-0.3-14.1-0.5-21.1-0.9c-0.1,0-0.2,0-0.4,0c-1,0-1.4,0.2-2.2,1.4
		C9.3,90.6,9.2,90.7,9,91l-5.3-4.6L8.9,82c0.8,1.1,1.9,1.3,3,1.3c0.7,0,1.3-0.1,2-0.1c0.1,0,0.2,0,0.3,0c1.9,0.1,4.4,0.1,7.4,0.1
		c12.9,0,34.3-0.4,47.4-0.4c3.2,0,5.9,0,7.9,0.1c0.1,0,0.2,0,0.3,0c1.7,0,2.9-0.6,3.5-2.2C80.8,80.4,81.1,80.2,81.3,80.2 M81.3,77.8
		L81.3,77.8c-1.3,0-2.4,0.8-2.9,2.1c-0.2,0.5-0.3,0.7-1.3,0.7h-0.2c-1.9-0.1-4.5-0.1-8-0.1c-6.6,0-15.4,0.1-23.9,0.2
		c-8.4,0.1-17.1,0.2-23.5,0.2c-3.2,0-5.5,0-7.3-0.1H14c-0.4,0-0.8,0-1.1,0c-0.3,0-0.6,0-0.9,0c-0.9,0-1-0.1-1.1-0.3l-1.5-2.1l-2,1.7
		l-4,3.4l-1.3,1.1L0,86.4l2.1,1.8l1.7,1.5l3.6,3.1l2,1.7l1.6-2.1c0-0.1,0.1-0.1,0.1-0.2c0.3-0.3,0.5-0.6,0.7-1h0.1H12
		c7.6,0.4,15,0.6,21.2,0.9c0.5,0,1.2,0,2.1,0c3.4,0,8.9-0.2,15.3-0.3l5.3-0.1l0.5,0v0l3.7-0.1c4.3-0.1,11-0.2,14.8-0.2
		c1.3,0,1.9,0,2.2,0c0.1,0,0.2,0,0.3,0c0,0.1,0.1,0.2,0.1,0.4c0.2,0.5,0.4,0.9,0.6,1.4c0.1,0.1,0.1,0.3,0.2,0.5
		c0.6,1.3,2.2,1.9,3.5,1.3c0.3-0.2,0.7-0.4,0.9-0.7c0.2-0.2,0.3-0.4,0.5-0.6c0.6-0.6,1.1-1.3,1.5-2c1.6-3.2,1.8-6.7,0.7-10.5
		c-0.3-1.1-1.1-1.9-1.8-2.5C83,78.1,82.2,77.8,81.3,77.8L81.3,77.8L81.3,77.8z"/>
	<path id="svg_34_00000010285771362981419060000005258612074676542389_" class="st13" d="M13.6,104.3c-1.4,0-2.3-0.8-2.3-2.3v-0.2
		c-0.1-1.5-0.1-2.2,0.4-2.8c0.5-0.6,1.2-0.6,2-0.6c0.3,0,0.5,0,0.9,0c0.1,0,0.2,0,0.3,0l0-1c-0.5,0-0.9,0-1.4,0c-0.1,0-0.2,0-0.3,0
		c-0.5,0-1.1-0.2-1.5-0.6c-0.4-0.4-0.6-1-0.5-1.6c0-0.1,0-0.1,0-0.2s0-0.2,0-0.3l-0.1-5.4L30.6,89l0.1,8.1l-1.2,0
		c-0.3,0-0.6,0-0.9,0c-0.5,0-1,0-1.5,0h-0.2c0,0.3,0,0.7,0,0.9c0.3,0,0.7,0,1,0H28c0.2,0,0.4,0,0.7,0l1.7,0l0,1.2c0,0.3,0,0.5,0,0.8
		c0,0.7,0,1.4,0,2.1c-0.1,0.9-1,1.8-1.9,1.8c-1.6,0.1-3.2,0.1-4.7,0.1l-0.6,0c-1.1,0-2.2-0.6-2.3-2.4c0-0.5,0-1-0.1-1.4
		c-0.1-1-0.1-2.1-0.1-3.2c0,0,0-0.1,0-0.1h0c-0.1,0-0.2,0-0.2,0v0.4c0,1.1,0,2.3,0,3.4c0,2.3-0.9,3.3-3.2,3.3c-0.6,0-1.1,0-1.7,0
		c-0.7,0-1.3,0-2,0L13.6,104.3L13.6,104.3z"/>
	<path id="svg_35_00000010998995017995085530000013032147992456677810_" class="st2" d="M29.4,90.3c0,1.9,0.1,3.7,0.1,5.6
		c-0.8,0-1.6,0-2.4,0c-0.2,0-0.4,0-0.6,0h-0.1c-0.5,0-0.7,0.2-0.7,0.8c-0.1,2.5-0.1,2.6,2.1,2.6H28c0.3,0,0.7,0,1.3,0
		c0,1,0.1,1.9,0,2.8c0,0.3-0.5,0.7-0.7,0.7c-1.7,0.1-3.5,0.1-5.2,0.2h0c-0.8,0-1.1-0.5-1.1-1.2c-0.1-1.5-0.2-3-0.2-4.5
		c0-0.9-0.3-1.4-1-1.4c-0.2,0-0.3,0-0.5,0c-0.4,0.1-0.7,0.1-1.3,0.1c0,1.7,0.1,3.3,0.1,5c0,1.6-0.4,2.1-2,2.1c-1.2,0-2.5,0-3.7,0.1
		h-0.1c-0.7,0-1.1-0.3-1.1-1.2c-0.1-2.7-0.2-2.2,2.2-2.4c0.4,0,0.9,0,1.4,0c0-1.1,0-2.2-0.1-3.4c-0.9,0-1.8,0-2.7,0.1h-0.2
		c-0.6,0-0.8-0.3-0.8-0.9c0-0.2,0-0.4,0-0.6c0-1.4,0-2.7-0.1-4.1L29.4,90.3 M31.8,87.8l-2.4,0l-17.1,0.3l-2.4,0l0,2.4l0,1.1
		c0,1.1,0,2.1,0,3.1c0,0.1,0,0.2,0,0.3v0.1c-0.1,1.3,0.4,2.1,0.8,2.5c0.1,0.1,0.2,0.2,0.3,0.3c-0.1,0.1-0.2,0.2-0.3,0.3
		c-0.9,1-0.9,2.1-0.8,3.7v0.2c0.1,2.1,1.5,3.4,3.6,3.4h0.2c0.7,0,1.3,0,2,0c0.6,0,1.1,0,1.7,0c1.1,0,2.4-0.2,3.3-1.2l0,0
		c0.7,0.7,1.6,1,2.5,1h0.1H24c1.6,0,3.2-0.1,4.8-0.2c1.5-0.1,2.9-1.4,3-2.9c0.1-0.7,0.1-1.5,0-2.2c0-0.3,0-0.5,0-0.8l0-0.9h0.2
		l0-2.4l-0.1-3.9l0-1.7L31.8,87.8C31.8,87.8,31.8,87.8,31.8,87.8z"/>
	<path id="svg_36_00000007419690773692642060000008832512345920843445_" class="st8" d="M93.1,94.6c-1.2,0-2.2-0.6-2.8-1.6
		c-1.1-1.8-0.5-4.6,1.2-5.7c0.8-0.5,1.6-0.7,2.5-0.7c1.6,0,3.1,0.7,3.7,1.9c0.5,0.9,0.4,1.9,0.3,2.5c-0.2,0.9-1.1,1.6-1.8,1.7
		c-0.1,0-0.2,0-0.2,0c-0.1,0-0.2,0-0.3,0c0,0.2-0.1,0.4-0.2,0.5C95,94.1,94.2,94.6,93.1,94.6L93.1,94.6z"/>
	<path id="svg_37_00000019679879419619626010000002851230201889342358_" d="M94,87.9c1.1,0,2.2,0.5,2.7,1.3c0.3,0.4,0.2,1.1,0.1,1.7
		c-0.1,0.3-0.5,0.7-0.9,0.7h0c-0.2,0-0.6-0.4-0.8-0.6c-0.3-0.7-0.7-1.2-1.4-1.2h-0.1c-0.3,0-0.8,0.2-0.9,0.4c-0.2,0.4-0.1,0.9,0,1.3
		c0,0.1,0.3,0.2,0.6,0.2c0.1,0,0.1,0,0.2,0c0.3-0.1,0.6-0.2,0.9-0.4c0,0.3,0.2,1,0,1.5c-0.2,0.5-0.7,0.7-1.2,0.7
		c-0.7,0-1.4-0.4-1.8-1c-0.7-1.3-0.3-3.4,0.8-4.1C92.7,88,93.3,87.9,94,87.9 M94,85.5c-1.1,0-2.2,0.3-3.2,0.9
		c-2.2,1.4-2.9,4.9-1.5,7.3c0.8,1.4,2.3,2.2,3.9,2.2c1.4,0,2.6-0.7,3.3-1.9c1.1-0.2,2.5-1.2,2.7-2.6c0.2-0.9,0.2-2.2-0.4-3.4
		C97.9,86.4,96,85.5,94,85.5z"/>
	<path id="svg_38_00000170989094626614956490000006040298648318869649_" class="st11" d="M55.7,89.3C46,89.6,36.5,90,33.2,89.9
		c-7-0.3-14-0.7-21-1"/>
	<path id="svg_39_00000111164903149370057240000008368982255504327868_" class="st2" d="M34.7,91.1c-0.6,0-1.1,0-1.6,0
		c-4.7-0.2-9.4-0.4-14-0.7c-2.3-0.1-4.7-0.2-7-0.3l0.1-2.3c2.3,0.1,4.7,0.1,7,0.2c4.6,0.2,9.3,0.5,14,0.6c2.2,0.1,7.2-0.1,13.1-0.3
		c2.9-0.1,6.2-0.2,9.4-0.3l0.1,2.4c-3.2,0.1-6.5,0.2-9.4,0.3C41.4,91,37.3,91.1,34.7,91.1L34.7,91.1z"/>
	<path id="svg_53_00000100353834562039489990000009027591403581202865_" class="st2" d="M73.2,96l1.7-5.8l2.3,0c0,0,1.9,2.2,2.3,2.9
		c0.4,0.7-1.7,2.6-1.9,2.9C77.3,96.4,73.2,96,73.2,96z"/>
	<g>
		<path class="st3" d="M47.7,78.5c0-1,0.3-1.6,0.8-2s1.2-0.6,1.9-0.6c0.7,0,1.4,0.2,1.9,0.6s0.8,1.1,0.8,2c0,0.9-0.3,1.6-0.8,2
			s-1.2,0.6-1.9,0.6c-0.7,0-1.4-0.2-1.9-0.6S47.7,79.4,47.7,78.5z"/>
	</g>
	<g>
		<path class="st3" d="M63.3,60.4l-0.6,5.6l5.7-1.6l0.5,3.9l-5.2,0.4l3.4,4.6l-3.5,1.9l-2.4-4.8l-2.1,4.8l-3.6-1.8l3.4-4.6l-5.2-0.4
			l0.6-3.8l5.6,1.6l-0.6-5.6H63.3z"/>
	</g>
	<path id="svg_40_00000023969414082894091430000000285229096418137231_" class="st3" d="M53.4,95c-0.4,0-0.8-0.2-1.1-0.5
		c-0.8-1-1.6-4.1-1.9-6.6c-0.5-3.8-0.2-6.2,0.9-7.2l0.1,0l0.1,0c0.5-0.3,1-0.5,1.6-0.5c0.5,0,1.5,0.2,2.1,1.3c0.6,1,0.6,4,0.4,6.4
		c-0.1,1.5-0.3,5.3-1,6.5C54.4,94.7,53.9,95,53.4,95L53.4,95z"/>
	<path id="svg_41_00000179608020922572417220000015957573095404538510_" class="st2" d="M53.1,81.2c0.4,0,0.8,0.2,1.1,0.8
		c0.8,1.3,0.2,11.9-0.8,11.9c-0.1,0-0.1,0-0.2-0.1c-1.1-1.4-2.8-10.5-1-12.2C52.4,81.3,52.8,81.2,53.1,81.2 M53.1,79L53.1,79
		c-0.8,0-1.6,0.3-2.2,0.7l-0.1,0.1l-0.1,0.1c-0.9,0.8-1.3,2.1-1.5,3.9c-0.1,1.4,0,2.8,0.2,4.3c0.1,0.9,0.8,5.5,2.1,7.2
		c0.9,1.1,2.4,1.2,3.5,0.4c0.3-0.2,0.5-0.5,0.7-0.8c0.6-1.1,1-3.4,1.2-7c0.3-5.5-0.4-6.6-0.6-7C55.5,79.7,54.4,79,53.1,79
		C53.1,79,53.1,79,53.1,79z"/>
	<path id="svg_42_00000061457070408032832190000006963602292405530760_" class="st3" d="M48.7,95c-0.4,0-0.8-0.2-1.1-0.5
		c-0.8-1-1.6-4.1-1.9-6.6c-0.5-3.8-0.2-6.2,0.9-7.2l0.1,0l0.1,0c0.5-0.3,1-0.5,1.6-0.5c0.5,0,1.5,0.2,2.1,1.3c0.6,1,0.6,4,0.4,6.3
		c-0.1,1.5-0.3,5.3-1,6.5C49.7,94.7,49.3,95,48.7,95z"/>
	<path id="svg_43_00000162314308372724376670000016761804862737955236_" class="st2" d="M48.4,81.2c0.4,0,0.8,0.2,1.1,0.8
		c0.8,1.3,0.2,11.9-0.8,11.9c-0.1,0-0.1,0-0.2-0.1c-1.1-1.4-2.8-10.5-1-12.2C47.8,81.4,48.1,81.2,48.4,81.2 M48.4,79L48.4,79
		c-0.8,0-1.6,0.3-2.2,0.7l-0.1,0.1L46,79.9c-0.9,0.8-1.3,2.1-1.5,3.9c-0.1,1.4,0,2.8,0.2,4.3c0.1,0.9,0.8,5.5,2.1,7.2
		c0.9,1.1,2.4,1.2,3.5,0.4c0.3-0.2,0.5-0.5,0.7-0.8c0.6-1.1,1-3.4,1.2-7c0.3-5.5-0.4-6.6-0.6-7C50.8,79.7,49.7,79,48.4,79L48.4,79
		L48.4,79z"/>
	<path id="svg_44_00000078762874302810861840000001796820849408708023_" class="st3" d="M44.1,95c-0.4,0-0.8-0.2-1.1-0.5
		c-0.8-1-1.6-4.1-1.9-6.6c-0.5-3.8-0.2-6.2,0.9-7.2l0.1,0l0.1,0c0.5-0.3,1-0.5,1.6-0.5c0.5,0,1.4,0.2,2.1,1.3c0.6,1,0.6,4,0.4,6.4
		c-0.1,1.5-0.3,5.3-1,6.5C45.1,94.7,44.6,95,44.1,95L44.1,95z"/>
	<path id="svg_45_00000129199068412126943390000014886918027918565288_" class="st2" d="M43.8,81.2c0.4,0,0.8,0.2,1.1,0.8
		c0.8,1.3,0.2,11.9-0.8,11.9c-0.1,0-0.1,0-0.2-0.1c-1.1-1.4-2.8-10.5-1-12.2C43.1,81.3,43.5,81.2,43.8,81.2 M43.8,79L43.8,79
		c-0.8,0-1.6,0.3-2.2,0.7l-0.1,0.1l-0.1,0.1c-0.9,0.8-1.3,2.1-1.5,3.9c-0.1,1.4,0,2.8,0.2,4.3c0.1,0.9,0.8,5.5,2.1,7.2
		c0.9,1.1,2.4,1.2,3.5,0.4c0.3-0.2,0.5-0.5,0.7-0.8c0.6-1.1,1-3.4,1.2-7c0.3-5.5-0.4-6.6-0.6-7C46.2,79.7,45.1,79,43.8,79
		C43.8,79,43.8,79,43.8,79z"/>
	<path id="svg_46_00000105387697453148652370000012316430697772808625_" class="st11" d="M63.2,94.4c-0.5,0-1-0.3-1.2-0.8
		c-0.7-1.2-1-4.9-1-6.5c-0.1-2.4-0.1-5.4,0.4-6.3c0.7-1.1,1.6-1.3,2.1-1.3c0.6,0,1.1,0.2,1.6,0.5l0.1,0l0.1,0c1.1,1,1.4,3.5,0.9,7.2
		c-0.3,2.5-1,5.6-1.9,6.6C64,94.3,63.6,94.4,63.2,94.4L63.2,94.4z"/>
	<path id="svg_47_00000033336501650393443420000008529800563652005543_" class="st2" d="M63.5,80.7c0.3,0,0.6,0.1,0.9,0.3
		c1.8,1.7,0.1,10.9-1,12.2c0,0.1-0.1,0.1-0.2,0.1c-1,0-1.6-10.6-0.8-11.9C62.7,80.8,63.2,80.7,63.5,80.7 M63.5,78.4
		c-1.3,0-2.4,0.7-3.1,1.9c-0.2,0.4-0.9,1.5-0.6,7c0.2,3.6,0.6,5.9,1.2,7c0.6,1.2,2.1,1.7,3.3,1.1c0.3-0.2,0.6-0.4,0.8-0.7
		c1.4-1.6,2-6.3,2.1-7.2c0.2-1.4,0.3-2.8,0.2-4.3c-0.1-1.8-0.6-3.1-1.5-3.9l-0.1-0.1l-0.1-0.1C65.1,78.7,64.3,78.4,63.5,78.4
		L63.5,78.4L63.5,78.4z"/>
	<path id="svg_48_00000013891753739763961720000014235702302940715163_" class="st11" d="M67.9,94.4c-0.5,0-1-0.3-1.2-0.8
		c-0.7-1.2-1-4.9-1-6.5c-0.1-2.4-0.1-5.4,0.4-6.3c0.7-1.1,1.6-1.3,2.1-1.3c0.6,0,1.1,0.2,1.6,0.5l0.1,0l0.1,0c1.1,1,1.4,3.5,0.9,7.2
		c-0.3,2.5-1,5.6-1.9,6.6C68.7,94.3,68.3,94.4,67.9,94.4z"/>
	<path id="svg_49_00000084529323271052496110000003268910530459812267_" class="st2" d="M68.2,80.7c0.3,0,0.6,0.1,0.9,0.3
		c1.8,1.7,0.1,10.9-1,12.3c0,0.1-0.1,0.1-0.2,0.1c-1,0-1.6-10.6-0.8-11.9C67.4,80.8,67.8,80.7,68.2,80.7 M68.2,78.4
		c-1.3,0-2.4,0.7-3.1,1.9c-0.2,0.4-0.9,1.5-0.6,7c0.2,3.6,0.6,5.9,1.2,7c0.6,1.2,2.1,1.7,3.3,1.1c0.3-0.2,0.6-0.4,0.8-0.7
		c1.4-1.6,2-6.3,2.1-7.2c0.2-1.4,0.3-2.8,0.2-4.3c-0.1-1.8-0.6-3.1-1.5-3.9l-0.1-0.1l-0.1-0.1C69.8,78.7,69,78.4,68.2,78.4
		L68.2,78.4L68.2,78.4z"/>
	<path id="svg_50_00000102524682700016480960000011301622472149065914_" class="st3" d="M72.5,94.4c-0.5,0-1-0.3-1.2-0.8
		c-0.7-1.2-1-4.9-1-6.5c-0.1-2.4-0.1-5.4,0.4-6.3c0.7-1.1,1.6-1.3,2.1-1.3c0.6,0,1.1,0.2,1.6,0.5l0.1,0l0.1,0c1.1,1,1.4,3.5,0.9,7.2
		c-0.3,2.5-1,5.6-1.9,6.6C73.3,94.3,72.9,94.4,72.5,94.4z"/>
	<path id="svg_51_00000168825278600168827850000010990823030526943873_" class="st2" d="M72.8,80.7c0.3,0,0.6,0.1,0.9,0.3
		c1.8,1.7,0.1,10.9-1,12.2c0,0.1-0.1,0.1-0.2,0.1c-1,0-1.6-10.6-0.8-11.9C72,80.8,72.5,80.7,72.8,80.7 M72.8,78.4
		c-1.3,0-2.4,0.7-3.1,1.9c-0.2,0.4-0.9,1.5-0.6,7c0.2,3.6,0.6,5.9,1.2,7c0.6,1.2,2.1,1.7,3.3,1.1c0.3-0.2,0.6-0.4,0.8-0.6
		c1.4-1.6,2-6.3,2.1-7.2c0.2-1.4,0.3-2.8,0.2-4.3c-0.1-1.8-0.6-3.1-1.5-3.9l-0.1-0.1l-0.1-0.1C74.4,78.7,73.6,78.4,72.8,78.4
		L72.8,78.4L72.8,78.4z"/>
	<path class="st2" d="M28,50.1"/>
	<linearGradient id="SVGID_1_" gradientUnits="userSpaceOnUse" x1="24.9292" y1="61.9932" x2="43.8641" y2="61.9932">
		<stop  offset="0" style="stop-color:#C0C3C4"/>
		<stop  offset="1" style="stop-color:#FFFFFF"/>
	</linearGradient>
	<path class="st14" d="M43.6,60.8c-0.9-0.4-4.3-1.1-6.8-2.6c-3.5-2.1-3.6-3.7-5-3.3c-0.2,0.1-0.5,0.2-0.7,0.3
		c-4.4,2.7-6.7,9-6.2,13.9c1.9-3.2,3.7-6.2,5.5-9.2l0.2,0.2c-1.4,2.6-2,5.4-1.4,8.5c1.6-2.6,3.1-5.1,4.6-7.6l0.2,0.1
		c-1.1,2.4-1.2,4.9-0.5,7.7c1.6-2.5,3.1-4.9,4.6-7.3c-0.7,2.3-0.5,4.6-0.3,7l3.7-5c0,0,1.5-1.8,2.1-2.6
		C43.8,60.9,43.6,60.8,43.6,60.8z"/>
	
		<linearGradient id="SVGID_00000153704574855365290480000000886860235533327502_" gradientUnits="userSpaceOnUse" x1="72.2897" y1="62.026" x2="91.2246" y2="62.026" gradientTransform="matrix(-1 0 0 1 164.0917 0)">
		<stop  offset="0" style="stop-color:#C0C3C4"/>
		<stop  offset="1" style="stop-color:#FFFFFF"/>
	</linearGradient>
	<path style="fill:url(#SVGID_00000153704574855365290480000000886860235533327502_);" d="M73.1,60.8c0.9-0.4,4.3-1.1,6.8-2.6
		c3.5-2.1,3.6-3.7,5-3.3c0.2,0.1,0.5,0.2,0.7,0.3c4.4,2.7,6.7,9,6.2,13.9C89.8,66,88,63,86.3,60L86,60.2c1.4,2.6,2,5.4,1.4,8.5
		c-1.6-2.6-3.1-5.1-4.6-7.6l-0.2,0.1c1.1,2.4,1.2,4.9,0.5,7.7c-1.6-2.5-3.1-4.9-4.6-7.3c0.7,2.3,0.5,4.6,0.3,7l-3.7-5
		c0,0-1.5-1.8-2.1-2.6C72.9,60.9,73.1,60.8,73.1,60.8z"/>
</g>
</svg>
